<svg width="297" height="297" viewBox="0 0 297 297" fill="none" xmlns="http://www.w3.org/2000/svg">
<rect width="297" height="297" fill="white"/>
<path fill-rule="evenodd" clip-rule="evenodd" d="M160.379 205.962C170.345 199.251 188.792 198.082 185.409 183.438C182.102 168.632 169.675 168.089 146.74 154.725C124.443 140.038 130.068 129.778 97.1724 128.398C65.795 128.412 75.3466 173.624 52.2299 166.642C29.1131 159.661 55.1083 217.406 59.2198 221.68C66.4511 229.198 85.4942 238.168 94.7827 236.896C101.837 235.956 124.53 230.734 135.641 225.314C146.494 220.256 147.667 214.97 160.379 205.962Z" fill="#DEFBB8"/>
<path d="M249.149 60.5469L249.215 60.5486C249.769 60.5814 250.191 61.0569 250.158 61.6106L250.048 63.5263L249.977 64.808C249.242 78.4158 247.495 89.9822 247.905 99.5044L247.969 100.883C248.461 111.144 251.078 125.65 253.725 147.569C253.957 147.732 254.119 147.991 254.149 148.295C254.202 148.848 253.798 149.339 253.246 149.392C240.309 150.646 228.272 151.48 217.134 151.895L215.613 151.95L213.873 152.006C202.613 152.356 186.763 152.525 166.318 152.515C165.763 152.515 165.314 152.065 165.314 151.51C165.314 151.246 158.172 63.4376 158.172 63.4376C158.172 63.4376 248.875 60.5484 249.149 60.5469Z" fill="white"/>
<path d="M231.644 225.999L232.275 226.064C241.252 227.003 247.145 228.358 249.863 230.061L250.033 230.171C252.12 231.558 251.857 233.003 248.856 235.309C245.576 237.83 237.513 240.206 225.449 241.656C210.345 243.471 190.039 243.764 164.539 242.185L161.865 242.019C147.143 241.126 135.848 240.885 114.943 240.772L109.172 240.739C96.7265 240.652 91.4366 240.48 86.3298 239.933L85.8443 239.879C79.4421 239.147 75.904 237.809 74.7186 235.712L74.6752 235.633C74.6527 235.591 74.6525 235.591 74.8245 235.417C75.1689 235.068 75.8751 234.662 76.9256 234.238L77.1978 234.131C79.4748 233.255 83.0737 232.357 87.9728 231.449L88.9007 231.28C98.6814 229.523 113.267 227.738 132.648 225.925L135.766 225.637L138.427 225.54C182.038 223.977 213.119 224.131 231.644 225.999Z" fill="white"/>
<path fill-rule="evenodd" clip-rule="evenodd" d="M211.426 60.7571C211.802 60.3488 212.437 60.3222 212.845 60.6977C213.253 61.0732 213.28 61.7086 212.904 62.1169C212.904 62.1169 167.218 114.051 166.802 112.606C166.574 111.811 185.787 88.7266 188.809 85.6149L189.647 84.7674C191.065 83.2959 198.082 75.2658 211.426 60.7571Z" fill="#E7EAEE"/>
<path fill-rule="evenodd" clip-rule="evenodd" d="M188.434 72.1497C188.889 71.8322 189.515 71.9434 189.832 72.3982C190.15 72.8531 190.038 73.4792 189.584 73.7967C188.069 74.8543 164.441 98.6895 163.939 98.4997C163.438 98.3099 165.859 95.478 165.859 95.478C167.407 93.8583 181.236 79.162 181.236 79.162C182.398 77.9222 183.471 76.8045 184.498 75.7694C185.515 74.7446 186.827 73.2718 188.434 72.1497Z" fill="#E7EAEE"/>
<path fill-rule="evenodd" clip-rule="evenodd" d="M211.557 225.999L212.188 226.064C221.165 227.003 227.058 228.358 229.776 230.061L229.946 230.171C232.033 231.558 231.77 233.003 228.769 235.309C225.489 237.83 190.039 240.149 164.539 238.57L161.865 238.404C147.143 237.511 135.848 234.859 114.943 234.746L109.172 234.713C96.7265 234.626 91.4366 240.48 86.3298 239.933L85.8443 239.879C79.4421 239.147 75.904 237.809 74.7186 235.712L74.6752 235.633C74.6527 235.591 74.6525 235.591 74.8245 235.417C75.1689 235.068 75.8751 234.662 76.9256 234.238L77.1978 234.131C79.4748 233.255 83.0737 232.357 87.9728 231.449L88.9007 231.28C98.6814 229.523 113.267 227.738 132.648 225.925L135.766 225.637L138.427 225.54C182.038 223.977 193.032 224.131 211.557 225.999Z" fill="#E7EAEE"/>
<path d="M92.5529 150.909C92.8656 151.728 103.538 153.014 109.387 156.471C111.63 157.797 113.328 163.534 113.217 163.643C110.566 166.258 109.125 167.591 107.698 168.394C102.68 171.218 98.8128 170.484 95.0685 169.893C90.5677 169.183 87.8934 164.242 89.6481 160.139C89.9231 159.496 90.616 158.557 91.763 157.236L91.9157 157.062C91.911 157.015 91.9116 156.967 91.9174 156.918C91.9698 156.475 91.9763 156.021 91.9367 155.555L91.848 154.719C91.7432 153.785 91.5405 152.2 91.2392 151.41C91.1008 151.047 91.2827 150.641 91.6455 150.502C92.0082 150.364 92.4145 150.546 92.5529 150.909Z" fill="white"/>
<path d="M117.196 161.378C117.195 161.21 117.238 161.038 117.327 160.881C117.483 160.607 117.748 160.435 118.036 160.387C118.104 160.326 118.15 160.305 118.176 160.33L118.219 160.373C118.382 160.376 118.546 160.419 118.697 160.505L121.651 162.183C127.775 165.684 134.357 170.891 134.992 174.844C135.712 179.324 131.021 202.637 130.479 202.52C129.937 202.402 119.776 225.493 119.77 225.555C119.75 225.766 110.717 226.101 101.214 227.118C97.8935 227.473 106.518 215.887 109.763 207.696C115.327 193.648 117.196 161.378 117.196 161.378Z" fill="white"/>
<path d="M190.06 172.835C186.475 172.053 182.31 172.446 177.55 174.033C173.654 175.333 171.521 177.152 170.989 179.477L170.959 179.615L171.112 179.678C174.293 180.961 177.261 181.286 180.038 180.671L180.241 180.624C182.164 180.165 183.727 179.087 185.581 177.17L185.837 176.902C186.274 176.437 187.303 175.309 187.429 175.174C188.088 174.468 188.592 173.982 189.101 173.584L189.212 173.499C189.47 173.305 189.783 173.118 190.153 172.935L190.264 172.881L190.06 172.835Z" fill="white"/>
<path d="M154.772 167.312C152.221 166.52 149.194 166.428 145.689 167.05L145.524 167.08L145.56 167.152C147.111 170.264 148.518 172.178 149.692 172.873L149.766 172.915C150.947 173.567 153.762 173.614 158.079 172.97L158.718 172.871L158.702 172.818C158.686 172.756 158.676 172.692 158.671 172.627L158.669 172.561C158.669 169.817 157.422 168.135 154.772 167.312Z" fill="white"/>
<path d="M125.659 152.756C125.587 153.327 125.829 155.428 125.022 156.398C124.702 156.782 123.937 157.057 123.438 156.815C123.217 156.708 123.905 155.749 124.323 154.666C124.484 154.247 124.201 153.741 124.323 153.341C124.43 152.992 124.947 152.74 125.022 152.477C125.141 152.059 125.706 152.378 125.659 152.756Z" fill="white"/>
<path d="M127.056 150.302C126.985 150.873 128.681 153.535 127.834 154.388C126.394 155.839 125.01 153.295 125.427 152.212C125.589 151.793 125.598 151.287 125.72 150.888C125.827 150.538 127.103 149.924 127.056 150.302Z" fill="white"/>
<path d="M142.711 192.34C142.398 193.513 142.133 200.397 143.627 204.283C144.173 205.706 144.976 206.748 146.062 207.153C146.974 207.478 147.923 207.681 148.892 207.815C150.981 208.103 166.94 209.46 174.105 208.524C181.269 207.587 180.864 207.5 184.139 206.92C185.723 206.639 187.535 206.34 189.155 205.705C190.348 205.238 191.437 204.59 192.29 203.669C193.054 202.845 193.526 201.444 193.667 199.878C193.845 197.888 193.541 195.255 193.242 193.931C193.242 193.857 193.225 193.829 193.242 193.806C193.316 193.697 192.351 193.159 189.155 193.028C183.675 192.802 175.13 193.23 166.851 193.144C155.554 193.027 144.757 191.992 142.967 192.18C142.803 192.197 142.717 192.317 142.711 192.34Z" fill="white"/>
<path d="M91.3927 155.594C91.9473 155.591 92.4002 156.037 92.4045 156.592C92.4049 156.65 92.4003 156.707 92.3912 156.762L92.4774 156.707C92.9593 156.409 93.5559 156.258 93.4283 156.987C93.2505 158.004 90.7058 159.186 90.7058 161.141C90.7058 164.045 91.8253 166.824 95.8522 167.985C107.13 171.238 112.701 165.472 114.786 162.985C114.785 162.816 114.827 162.645 114.917 162.487C115.073 162.214 115.338 162.041 115.626 161.993C115.693 161.933 115.739 161.911 115.765 161.936L115.809 161.98C115.971 161.983 116.135 162.026 116.286 162.112L119.241 163.79C125.364 167.29 131.947 172.497 132.582 176.451C133.301 180.931 128.611 204.244 128.068 204.126C127.526 204.009 117.365 227.099 117.359 227.162C117.332 227.446 100.892 227.956 89.0337 230.064C81.2575 231.446 76.197 234.038 76.0334 234.185C75.6201 234.555 75.1399 235.195 74.77 234.782C72.2861 232.008 71.6239 224.21 72.5834 212.734L72.0809 212.683C61.8031 211.645 56.7332 208.754 57.0783 202.245C57.9249 186.277 62.4202 173.764 67.6497 166.016C72.293 159.136 79.7101 155.678 91.3927 155.594Z" fill="white"/>
<path fill-rule="evenodd" clip-rule="evenodd" d="M114.786 162.986C114.785 162.817 114.827 162.646 114.917 162.488C115.073 162.215 115.338 162.042 115.626 161.994C115.693 161.933 115.739 161.912 115.765 161.937L115.809 161.981C115.971 161.984 116.135 162.026 116.287 162.112L119.241 163.79C125.364 167.291 131.947 172.498 132.582 176.452C133.301 180.932 128.611 204.245 128.069 204.127C127.526 204.01 117.365 227.1 117.359 227.163C117.339 227.373 108.307 227.708 98.804 228.725C95.4831 229.08 104.108 217.494 107.352 209.303C112.917 195.256 114.786 162.986 114.786 162.986Z" fill="#E7EAEE"/>
<path d="M115.313 162.658C115.333 163.212 114.863 163.676 114.309 163.662C111.538 163.592 111.098 158.827 111.363 158.808C111.731 158.781 112.36 161.044 113.597 161.869C114.54 162.497 115.259 161.13 115.313 162.658Z" fill="white"/>
<path d="M90.2 149.93C90.5833 149.471 91.2992 149.878 91.5496 150.373C91.8 150.868 91.6017 151.472 91.1067 151.723C88.581 153.001 85.2179 152.526 83.1459 150.753C79.5468 147.672 79.3994 139.677 79.3994 137.291C79.3994 136.972 83.5063 137.348 85.2097 139.577C88.2308 143.529 89.7061 150.522 90.2 149.93Z" fill="white"/>
<path d="M89.9314 128.217L89.9698 128.005C90.002 127.817 90.0015 127.614 89.9052 126.605L89.5841 123.448C89.5233 122.845 89.4747 122.326 89.4325 121.82L89.3992 121.408C89.1098 117.689 89.2492 115.576 90.2533 114.593C93.0877 111.82 94.6537 111.88 97.6057 112.837L98.2244 113.038C99.5363 113.453 100.193 113.132 101.091 112.921L101.35 112.862C103.43 112.407 105.598 112.322 108.09 112.539C109.548 112.666 110.45 112.785 112.764 113.183L115.496 113.662C117.205 113.963 118.357 114.15 119.576 114.316L119.845 114.351C121.799 114.587 123.389 114.446 125.309 114.012C125.348 114.003 126.382 113.76 126.787 113.673L127.032 113.624C127.412 113.553 127.734 113.516 128.033 113.516L128.081 113.49C131.01 111.97 133.798 107.222 133.568 103.415C133.283 98.69 128.795 95.6914 119.157 95.6319L118.688 95.6301C117.096 95.6128 115.933 95.3494 112.592 94.3255L110.943 93.8162C108.081 92.9396 106.357 92.5408 104.51 92.4169C104.192 92.3956 103.881 92.3848 103.574 92.3848C90.7715 92.3848 78.1594 103.294 76.4236 113.49C76.1084 115.341 77.5361 123.508 78.0523 127.568C78.0523 127.568 83.0259 127.622 85.4472 127.972C85.678 128.005 87.641 132.284 88.8305 132.284C89.9052 132.284 89.9314 128.217 89.9314 128.217Z" fill="white"/>
<path d="M97.2943 114.447C99.0788 115.034 100.059 115.201 101.409 114.909L101.904 114.797C105.104 114.098 107.554 114.309 114.4 115.509L116.042 115.797C117.311 116.015 118.282 116.168 119.305 116.307C121.558 116.614 123.378 116.486 125.486 116.031L127.637 115.55C128.008 115.473 127.963 115.502 128.096 115.523L128.158 115.531C128.44 115.557 129.396 115.701 129.621 116.35C131.004 120.346 131.406 129.885 129.937 137.738C127.942 148.401 122.22 155.71 114.041 157.93C101.577 161.313 92.2071 154.885 85.7204 138.282L85.5208 137.771L84.9832 137.663L84.5996 137.584C78.4253 136.261 76.34 133.888 78.4272 130.025C79.4726 128.09 80.9045 127.49 82.098 127.895C83.5501 128.388 85.3797 130.286 87.4702 133.601L87.4936 133.637C88.4105 134.963 89.683 134.455 90.3295 133.046C90.7328 132.168 91.1161 130.698 91.5024 128.596L91.5801 128.166C91.6456 127.764 91.6149 127.442 91.2784 124.194L91.1592 123.03C91.1166 122.601 91.0804 122.214 91.0482 121.84L91.0324 121.654C90.9004 120.071 90.8519 118.811 90.9016 117.82C90.952 116.813 91.1138 116.169 91.2564 116.03L91.4951 115.8C93.5685 113.837 94.744 113.641 96.8652 114.308L97.2943 114.447Z" fill="white"/>
<path fill-rule="evenodd" clip-rule="evenodd" d="M129.937 137.738C127.942 148.4 122.22 155.709 114.041 157.929C111.66 158.576 118.554 156.021 122.185 151.428C127.165 145.13 129.966 135.804 130.427 132.979C131.824 124.435 131.406 129.885 129.937 137.738Z" fill="#E7EAEE"/>
<path fill-rule="evenodd" clip-rule="evenodd" d="M90.3296 133.046C90.733 132.168 91.1162 130.698 91.5026 128.596L91.5802 128.166C91.6457 127.764 91.615 127.442 91.2785 124.194L91.1593 123.03C91.1167 122.601 91.0805 122.214 91.0483 121.84L91.0326 121.654C90.9005 120.071 90.8521 118.811 90.9017 117.82C90.9522 116.813 91.1139 116.169 91.2565 116.03L91.4952 115.8C93.5686 113.837 94.7441 113.641 96.8654 114.308L97.2944 114.447C99.0789 115.034 100.059 115.201 101.409 114.909L101.904 114.797C105.104 114.098 107.554 114.309 114.4 115.509L116.042 115.797C117.311 116.015 118.282 116.168 119.305 116.307C121.558 116.614 123.378 116.486 125.486 116.031L127.638 115.55C128.008 115.473 127.963 115.502 128.096 115.523L128.159 115.531C128.44 115.557 129.396 115.701 129.621 116.35C129.621 116.35 128.75 117.056 128.096 117.104C122.406 117.522 118.268 118.516 113.869 118.937C106.933 119.601 100.731 119.829 97.2944 121.654C95.6341 122.536 93.8712 131.629 91.6581 134.711C90.4045 136.457 90.3296 133.046 90.3296 133.046Z" fill="#E7EAEE"/>
<path fill-rule="evenodd" clip-rule="evenodd" d="M142.823 204.283C143.37 205.706 144.172 206.748 145.258 207.153C146.171 207.478 147.12 207.681 148.089 207.815C150.177 208.103 166.137 209.46 173.301 208.524C180.466 207.587 180.06 207.5 183.335 206.92C184.92 206.639 186.731 206.34 188.351 205.705C189.544 205.238 190.634 204.59 191.487 203.669C192.25 202.845 192.722 201.444 192.863 199.878C193.042 197.888 192.737 195.255 192.438 193.931C192.372 193.575 191.179 193.833 191.245 194.188C191.424 195.42 191.479 197.864 191.246 199.672C191.103 200.793 190.883 201.835 190.333 202.426C189.644 203.167 188.756 203.673 187.793 204.051C186.268 204.652 184.561 204.933 183.07 205.203C179.839 205.793 176.821 206.558 163.439 206.92C161.268 206.979 150.399 206.417 148.294 206.116C147.428 205.992 146.579 205.814 145.763 205.52C144.811 205.197 144.31 204.016 143.865 202.692C143.328 201.091 142.081 195.372 142.823 194.143C143.1 193.685 145.096 193.785 146.345 193.917C150.346 194.341 157.687 194.511 164.81 194.59C172.652 194.677 191.352 194.681 191.352 194.321C191.352 193.998 192.095 193.917 192.438 193.931C192.549 193.935 191.816 193.028 188.351 193.028C182.83 193.028 174.327 193.23 166.048 193.144C154.751 193.027 143.954 191.992 142.164 192.18C142.126 192.184 142.09 192.187 142.056 192.189C140.746 192.266 141.329 200.397 142.823 204.283Z" fill="#00160A"/>
<path fill-rule="evenodd" clip-rule="evenodd" d="M145.474 196.452C145.53 196.044 146.003 195.154 146.196 195.621C146.541 196.452 146.19 201.997 149.439 202.573C149.984 202.67 151.418 202.877 151.418 203.335C151.418 203.792 151.196 204.483 150.007 204.16C147.908 203.59 146.706 202.414 145.97 200.549C145.447 199.221 145.308 197.666 145.474 196.452Z" fill="#00160A"/>
<path fill-rule="evenodd" clip-rule="evenodd" d="M73.045 182.8L73.046 182.809C73.0464 182.886 73.1407 182.99 73.1574 183.215C73.2285 184.172 72.8226 186.424 72.7508 187.135C72.5627 188.801 72.2339 190.884 72.1748 192.874C72.1368 194.16 72.2047 195.406 72.5703 196.463C73.3305 198.738 75.0848 200.137 77.2044 201.031C79.1005 201.833 81.295 202.185 83.4001 202.438C84.9355 202.621 86.4171 202.774 87.731 202.848C87.9555 202.848 88.1378 203.031 88.1378 203.255C88.1378 203.48 87.9555 203.661 87.731 203.661C86.3884 203.737 84.8637 203.83 83.2861 203.742C81.0295 203.617 78.69 203.165 76.663 202.326C74.1597 201.288 72.1387 199.586 71.246 196.903C70.8572 195.691 70.7657 194.268 70.8688 192.807C71.0118 190.782 71.5041 188.685 71.7956 186.998C71.9265 186.292 72.1628 184 72.5279 183.111C72.7065 182.673 73.0149 182.619 73.0251 182.645C73.0675 182.687 73.0742 182.751 73.045 182.8Z" fill="#00160A"/>
<path fill-rule="evenodd" clip-rule="evenodd" d="M93.2913 199.192L92.0736 199.387C91.6904 199.467 91.2541 199.622 90.889 199.861C90.6188 200.037 90.3969 200.266 90.2465 200.534C90.1763 200.662 90.136 200.791 90.1077 200.919C90.0547 201.162 90.0695 201.407 90.0269 201.668C89.9926 201.873 89.9805 202.076 89.9875 202.279C89.997 202.558 90.0438 202.834 90.0727 203.113C90.1365 203.555 90.1566 203.978 90.3292 204.369C90.4071 204.545 90.5118 204.701 90.6455 204.862C90.7089 204.976 90.8531 205.017 90.9673 204.954C91.0815 204.89 91.1227 204.746 91.0593 204.632C91.0593 204.632 90.2678 200.962 91.2318 200.354C92.1957 199.745 92.7304 199.824 93.0123 199.755C93.1277 199.726 93.3789 199.417 93.3932 199.346C93.4076 199.276 93.362 199.207 93.2913 199.192Z" fill="#00160A"/>
<path fill-rule="evenodd" clip-rule="evenodd" d="M93.2506 199.332L93.384 199.608C93.4269 199.787 93.4336 199.995 93.4382 200.195C93.4424 200.371 93.4616 200.543 93.3511 200.688C93.2913 200.748 93.2913 200.844 93.3511 200.904C93.4109 200.964 93.5077 200.964 93.5675 200.904C93.7633 200.769 93.883 200.577 93.919 200.353C93.9655 200.062 93.8402 199.746 93.7313 199.492C93.6952 199.411 93.5573 199.211 93.4153 199.128C93.3022 199.063 93.1926 199.046 93.1067 199.114C93.0467 199.154 93.03 199.235 93.0696 199.295C93.1095 199.355 93.1905 199.372 93.2506 199.332Z" fill="#00160A"/>
<path fill-rule="evenodd" clip-rule="evenodd" d="M93.088 200.731C92.9832 200.791 92.8858 200.853 92.8477 200.87C92.4781 201.038 92.2666 201.406 92.2099 201.846C92.141 202.38 92.3368 203 92.4506 203.381C92.4832 203.512 92.6167 203.592 92.7481 203.559C92.8794 203.526 92.9594 203.393 92.9265 203.262C92.8396 202.871 92.7455 202.209 92.8403 201.702C92.8762 201.51 92.9063 201.329 93.0541 201.214C93.0541 201.214 93.159 200.691 93.088 200.731Z" fill="#00160A"/>
<path fill-rule="evenodd" clip-rule="evenodd" d="M90.5213 201.386C90.7426 201.634 90.7205 202.015 90.4719 202.236C90.094 202.573 89.7627 202.83 89.4726 203.008L89.3312 203.091C89.0839 203.231 88.7548 203.393 88.3403 203.578C88.2887 203.601 87.8096 203.753 87.635 203.617C87.5426 203.546 87.4406 203.461 87.3873 203.34C87.3625 203.283 87.447 203.172 87.6026 203.03C87.8619 202.793 88.5517 202.665 89.0284 202.367C89.8085 201.878 90.4094 201.26 90.5213 201.386Z" fill="#00160A"/>
<path fill-rule="evenodd" clip-rule="evenodd" d="M92.661 207.069C92.8967 206.834 93.2783 206.835 93.5133 207.071C94.5434 208.104 94.8502 209.094 94.1821 209.909C93.7553 210.43 93.1479 210.885 92.2866 211.23C91.8848 211.391 91.9334 211.467 90.8852 211.697C90.5602 211.768 90.2388 211.562 90.1675 211.237C90.0961 210.912 90.3018 210.591 90.6269 210.52L91.0488 210.425C91.8048 210.251 92.9493 209.512 93.2499 209.145C93.4211 208.936 93.3083 208.572 92.6598 207.922C92.4248 207.686 92.4254 207.304 92.661 207.069Z" fill="#00160A"/>
<path fill-rule="evenodd" clip-rule="evenodd" d="M108.152 197.354C108.293 200.122 108.35 201.784 108.324 202.34C108.251 203.851 107.975 205.788 107.307 207.474C106.823 208.695 106.119 209.77 105.219 210.512C104.607 210.989 103.314 211.919 99.4785 211.654C91.7774 211.121 93.0005 198.064 93.048 197.874C93.0957 197.684 93.2956 196.947 93.4861 196.993C93.8318 197.049 92.4922 210.612 99.2726 210.704C99.7989 210.711 100.317 210.639 100.848 210.57C101.583 210.514 102.357 210.347 103.073 210.069C103.521 209.896 103.948 209.675 104.313 209.377C105.061 208.797 105.615 207.915 106.056 206.944C106.752 205.413 107.258 203.658 107.423 202.265C107.51 201.538 107.704 197.121 107.704 197.121C107.806 196.771 108.148 197.277 108.152 197.354Z" fill="#00160A"/>
<path fill-rule="evenodd" clip-rule="evenodd" d="M100.65 195.768L100.995 195.769C104.94 195.808 108.083 196.512 108.083 197.375C108.083 198.262 106.598 199.946 102.494 199.946L102.149 199.944C96.6337 200.174 93.2183 198.237 93.2183 197.375C93.2183 196.487 96.5458 195.768 100.65 195.768Z" fill="#00160A"/>
<path fill-rule="evenodd" clip-rule="evenodd" d="M100.651 196.17L100.316 196.172C96.6589 196.211 93.6201 196.882 93.6201 197.375C93.6201 197.883 96.8458 198.982 100.651 198.982L100.985 198.98C104.642 198.941 107.681 197.868 107.681 197.375C107.681 196.867 104.455 196.17 100.651 196.17Z" fill="white"/>
<path fill-rule="evenodd" clip-rule="evenodd" d="M106.427 143.91C106.611 144.167 106.839 144.404 107.107 144.611C107.39 144.832 107.72 144.969 108.048 145.066C108.688 145.237 109.321 145.409 109.974 145.516C111.987 145.844 117.03 146.395 117.526 146.488C117.86 146.585 118.21 146.392 118.307 146.057C118.404 145.722 118.211 145.372 117.877 145.274C117.372 145.072 116.874 144.881 116.353 144.748C115.582 144.549 114.79 144.456 114.001 144.364C112.656 144.205 111.307 144.072 109.955 143.988C109.381 143.955 108.815 143.963 108.241 143.924C108.063 143.917 107.884 143.891 107.707 143.834C107.405 143.739 107.113 143.625 106.867 143.458L106.212 142.968C106.14 142.966 106.082 143.026 106.082 143.099C106.082 143.171 106.377 143.833 106.427 143.91Z" fill="#00160A"/>
<path fill-rule="evenodd" clip-rule="evenodd" d="M112.729 148.718C113.071 149.086 113.632 149.394 114.251 149.487C114.879 149.577 115.524 149.424 115.961 149.181C116.095 149.114 116.149 148.949 116.082 148.815C116.015 148.681 115.851 148.627 115.717 148.694C115.418 148.824 115.019 148.845 114.609 148.826C114.437 148.817 114.263 148.794 114.09 148.78C113.639 148.738 113.209 148.704 112.895 148.516C112.84 148.472 112.757 148.479 112.711 148.535C112.666 148.59 112.673 148.671 112.729 148.718Z" fill="#00160A"/>
<path fill-rule="evenodd" clip-rule="evenodd" d="M249.215 60.5486C249.769 60.5814 250.191 61.0569 250.158 61.6106L250.048 63.5263C249.252 77.6909 249.066 89.6846 249.489 99.5044L249.509 99.9426C249.975 110.263 251.115 124.814 253.725 147.57C253.957 147.732 254.119 147.991 254.149 148.296C254.202 148.848 253.798 149.339 253.246 149.392C240.309 150.646 228.272 151.48 217.134 151.895L215.612 151.95C204.269 152.337 187.839 152.526 166.318 152.515C165.763 152.515 165.313 152.065 165.314 151.51C165.314 150.956 165.764 150.506 166.319 150.506L170.848 150.506C190.56 150.489 205.688 150.293 216.229 149.918L217.854 149.858C228.339 149.45 239.623 148.671 251.704 147.522C251.278 143.23 247.949 109.608 247.517 100.347L247.502 100.033C247.031 89.6186 247.248 76.7727 248.153 61.4919C248.184 60.9603 248.624 60.5499 249.149 60.5469L249.215 60.5486ZM157.044 62.5754C157.593 62.5018 158.099 62.8878 158.172 63.4376L158.536 66.1744C160.728 82.7752 162.179 95.9709 162.89 105.766L162.957 106.713C163.677 117.118 164.126 132.216 164.304 152.015C164.309 152.57 163.863 153.023 163.308 153.028C162.754 153.033 162.3 152.588 162.295 152.033L162.266 149.104C162.078 131.356 161.662 117.585 161.017 107.797L160.953 106.852C160.236 96.4964 158.646 82.1119 156.181 63.7041C156.108 63.1543 156.494 62.649 157.044 62.5754Z" fill="#00160A"/>
<path fill-rule="evenodd" clip-rule="evenodd" d="M90.0641 155.605C90.6187 155.601 91.0716 156.047 91.0756 156.602C91.0795 157.157 90.6331 157.61 90.0784 157.614C79.003 157.693 71.4095 160.887 67.1826 167.15C62.1727 174.572 57.4488 186.685 57.7555 202.362C57.9838 214.026 82.5132 212.174 88.3945 211.862C89.1797 211.821 89.7147 212.239 89.7087 212.301C89.664 212.771 89.2911 213.159 88.8037 213.205C81.6367 213.885 75.6123 213.184 70.7523 212.693C60.4744 211.655 55.4046 208.764 55.7497 202.255C56.5963 186.287 61.0916 173.774 66.3211 166.026C70.9644 159.146 78.3815 155.688 90.0641 155.605Z" fill="#00160A"/>
<path fill-rule="evenodd" clip-rule="evenodd" d="M90.2534 114.594C89.2492 115.576 89.1098 117.69 89.3992 121.408L89.4325 121.821C89.4747 122.327 89.5234 122.846 89.5841 123.448L89.9052 126.605C90.0015 127.614 90.002 127.818 89.9698 128.006L89.9314 128.217C89.6566 129.714 88.9856 131.255 88.7323 132.016L88.6786 132.171L88.6484 132.125C86.5355 128.936 84.5978 126.622 82.7432 125.993C80.4785 125.225 78.5252 126.361 77.0617 129.07L76.9767 129.229C74.3127 134.329 77.2516 137.485 84.3132 139.086L84.4507 139.116L84.6649 139.647C91.4904 156.36 101.256 163.482 114.567 159.868C123.629 157.408 128.987 149.448 131.108 138.107C132.637 129.93 132.221 120.042 130.716 115.693C130.253 114.355 129.491 113.637 128.344 113.53C127.953 113.494 127.546 113.529 127.032 113.624L126.787 113.673C126.382 113.76 125.348 114.004 125.309 114.013C123.389 114.446 121.799 114.588 119.845 114.351L119.576 114.317C118.357 114.15 117.205 113.963 115.496 113.662L112.764 113.184C110.45 112.786 109.548 112.666 108.09 112.54C105.598 112.323 103.43 112.407 101.35 112.863L101.091 112.922C100.193 113.132 99.5363 113.453 98.2244 113.038L97.6057 112.837C94.6537 111.88 93.0877 111.821 90.2534 114.594ZM97.2943 114.447C99.0789 115.034 100.059 115.201 101.409 114.909L101.904 114.797C105.104 114.098 107.554 114.309 114.4 115.509L116.042 115.796C117.311 116.014 118.282 116.167 119.305 116.307C121.558 116.614 123.378 116.485 125.486 116.031L127.637 115.55C128.008 115.472 127.963 115.501 128.096 115.523L128.158 115.531C128.44 115.557 129.396 115.7 129.621 116.35C131.004 120.346 131.406 129.885 129.937 137.738C127.942 148.4 122.22 155.71 114.041 157.93C101.577 161.313 92.2071 154.885 85.7205 138.282L85.5209 137.771L84.9832 137.663L84.5996 137.583C78.4253 136.26 76.3401 133.888 78.4272 130.024C79.4726 128.089 80.9046 127.49 82.098 127.895C83.5502 128.387 85.3797 130.286 87.4703 133.601L87.4936 133.636C88.4105 134.963 89.683 134.455 90.3295 133.046C90.7329 132.167 91.1161 130.698 91.5025 128.596L91.5801 128.166C91.6456 127.764 91.615 127.442 91.2784 124.194L91.1593 123.03C91.1166 122.601 91.0804 122.213 91.0482 121.84L91.0325 121.654C90.9005 120.071 90.852 118.81 90.9016 117.819C90.9521 116.813 91.1138 116.169 91.2564 116.03L91.4951 115.8C93.5685 113.837 94.744 113.64 96.8653 114.308L97.2943 114.447Z" fill="#00160A"/>
<path fill-rule="evenodd" clip-rule="evenodd" d="M103.575 90.377C103.926 90.377 104.283 90.3893 104.645 90.4136C106.684 90.5504 108.522 90.975 111.518 91.8922L113.312 92.4459C116.434 93.3996 117.473 93.6232 118.864 93.6232C129.65 93.6232 135.21 97.282 135.573 103.294C135.851 107.906 132.629 113.393 129.006 115.273C128.513 115.529 127.907 115.337 127.652 114.844C127.396 114.352 127.588 113.746 128.081 113.49C131.01 111.971 133.798 107.223 133.568 103.415C133.283 98.6908 128.795 95.6923 119.157 95.6328L118.688 95.631C117.097 95.6137 115.933 95.3503 112.592 94.3264L110.943 93.8171C108.081 92.9404 106.357 92.5417 104.51 92.4178C104.192 92.3964 103.881 92.3856 103.575 92.3856C90.7715 92.3856 78.1594 103.294 76.4237 113.49C76.0016 115.97 78.7051 129.776 78.1594 129.875C77.6138 129.975 77.0907 129.613 76.9912 129.068L76.8737 128.413C75.7095 121.813 74.4539 115.854 75.1716 112.73C78.0774 100.084 89.8198 90.377 103.575 90.377Z" fill="#00160A"/>
<path fill-rule="evenodd" clip-rule="evenodd" d="M117.807 119.578C118.41 119.578 118.698 120.926 118.593 121.272C118.136 122.772 119.279 131.327 120.127 133.537L120.167 133.639C121.396 136.698 119.607 138.677 115.555 139.229C115.005 139.304 114.499 138.919 114.424 138.369C114.401 138.198 114.551 137.743 114.929 137.776C117.713 138.019 119.732 135.632 119.137 134.064L119.06 133.869C118.088 131.343 116.995 125.829 116.995 120.597C116.995 120.041 117.278 119.578 117.807 119.578Z" fill="#00160A"/>
<path fill-rule="evenodd" clip-rule="evenodd" d="M79.3996 137.291C79.689 137.993 79.4537 145.022 83.1461 148.833C86.0802 151.861 89.4171 150.868 90.2002 149.93C90.5835 149.471 91.2994 149.878 91.5498 150.373C91.8002 150.868 91.6019 151.472 91.1069 151.723C88.5812 153 85.2181 152.526 83.1461 150.753C79.547 147.672 78.7617 140.946 78.7617 138.56C78.7617 137.676 79.1418 136.665 79.3996 137.291Z" fill="#00160A"/>
<path fill-rule="evenodd" clip-rule="evenodd" d="M121.186 128.512C121.537 127.985 122.05 127.923 122.569 128.139C123.075 128.349 123.573 128.891 123.736 129.256C123.976 129.798 123.979 130.684 123.785 131.527C123.588 132.39 123.189 133.193 122.759 133.556C122.349 133.898 122.005 134.036 121.638 133.493C120.236 131.425 121.051 128.715 121.186 128.512Z" fill="#00160A"/>
<path fill-rule="evenodd" clip-rule="evenodd" d="M105.505 130.514C105.353 129.956 105.363 127.067 106.455 127.067C108.078 127.067 108.285 130.073 108.077 130.68C106.903 134.101 105.657 131.073 105.505 130.514Z" fill="#00160A"/>
<path fill-rule="evenodd" clip-rule="evenodd" d="M119.412 99.4214C119.093 98.9821 120.35 98.8468 120.808 99.1601C124.638 101.783 126.606 104.291 126.572 106.793C126.539 109.249 124.545 111.993 120.681 115.159C120.252 115.51 119.619 115.447 119.267 115.018C118.916 114.589 124.289 111.138 124.564 106.765C124.838 102.393 120.009 100.246 119.412 99.4214Z" fill="#00160A"/>
<path fill-rule="evenodd" clip-rule="evenodd" d="M125.363 98.3583C125.199 97.6458 126.237 97.6902 126.725 97.9549C129.816 99.6337 131.407 102.236 131.407 105.637C131.407 108.968 129.155 111.869 125.757 115.23C125.363 115.62 124.727 115.616 124.337 115.222C123.947 114.828 129.822 110.712 129.822 104.779C129.822 98.8457 125.585 99.3255 125.363 98.3583Z" fill="#00160A"/>
<ellipse cx="124.353" cy="137.717" rx="3.81652" ry="1.40609" fill="#8DC73F"/>
<path fill-rule="evenodd" clip-rule="evenodd" d="M120.255 120.778C121.163 120.454 122.417 120.654 124.054 121.325C124.333 121.439 124.604 121.589 124.899 121.784L125.104 121.927C125.485 122.198 126.132 122.68 126.258 122.769C126.67 123.057 127.044 123.284 127.448 123.479C127.834 123.666 128.462 123.837 129.32 123.984C129.648 124.04 129.869 124.351 129.813 124.679C129.757 125.007 126.027 124.48 125.566 124.157L124.618 123.463C124.452 123.343 124.31 123.241 124.235 123.191C124 123.036 123.796 122.924 123.597 122.842C122.26 122.294 121.291 122.127 120.723 122.295L120.661 122.315C119.475 122.023 119.942 120.89 120.255 120.778Z" fill="#00160A"/>
<path fill-rule="evenodd" clip-rule="evenodd" d="M90.4404 150.502C90.8032 150.364 91.2095 150.546 91.3479 150.909C91.7805 152.043 92.0349 154.537 92.1091 155.197C92.1814 155.839 92.1814 156.468 92.1087 157.083C92.063 157.469 91.7135 157.744 91.3279 157.699C90.9423 157.653 90.6667 157.303 90.7123 156.918C90.7722 156.412 90.7722 155.891 90.7119 155.354C90.6535 154.836 90.4282 152.443 90.0342 151.41C89.8958 151.047 90.0776 150.641 90.4404 150.502Z" fill="#00160A"/>
<path fill-rule="evenodd" clip-rule="evenodd" d="M90.6826 157.092C91.0477 156.675 92.2776 155.981 92.0998 156.998C91.922 158.014 89.3772 159.196 89.3772 161.152C89.3772 164.055 90.4968 166.834 94.5237 167.995C108.948 172.156 114.036 161.563 114.436 161.946C114.837 162.33 114.851 162.966 114.468 163.366C112.202 165.735 110.376 167.314 108.948 168.118C103.931 170.941 98.484 171.5 93.8635 169.892C89.6373 168.422 86.6883 164.241 88.4431 160.139C88.7279 159.473 89.461 158.489 90.6826 157.092Z" fill="#00160A"/>
<path fill-rule="evenodd" clip-rule="evenodd" d="M191.648 52.8665C192.103 52.5489 192.729 52.6602 193.046 53.115C193.364 53.5699 192.85 54.2242 192.395 54.5417C190.88 55.5993 187.231 59.0543 186.483 59.8456L185.765 60.6105C184.355 62.1291 167.557 79.5972 167.153 79.2165C166.783 78.8674 183.174 60.8439 184.404 59.5267L184.45 59.4771C185.612 58.2373 186.685 57.1195 187.712 56.0844C188.729 55.0597 190.041 53.9886 191.648 52.8665Z" fill="#E7EAEE"/>
<path fill-rule="evenodd" clip-rule="evenodd" d="M191.648 67.7307C192.102 67.4132 192.729 67.5245 193.046 67.9793C193.364 68.4341 193.252 69.0602 192.798 69.3777C191.283 70.4354 167.655 94.2706 167.153 94.0808C166.651 93.891 169.073 91.059 169.073 91.059C170.621 89.4394 184.45 74.7431 184.45 74.7431C185.612 73.5033 186.685 72.3855 187.712 71.3504C188.729 70.3257 190.04 68.8528 191.648 67.7307Z" fill="#00160A"/>
<path fill-rule="evenodd" clip-rule="evenodd" d="M213.836 56.3381C214.212 55.9299 214.847 55.9033 215.256 56.2788C215.664 56.6543 215.69 57.2897 215.315 57.6979C215.315 57.6979 169.628 109.632 169.213 108.187C168.984 107.392 188.197 84.3076 191.219 81.1959L192.057 80.3484C193.475 78.877 200.492 70.8469 213.836 56.3381Z" fill="#00160A"/>
<path fill-rule="evenodd" clip-rule="evenodd" d="M108.395 119.61C109.224 119.507 110.656 119.648 112.227 120.142C112.756 120.308 113.05 120.872 112.884 121.401C112.718 121.93 112.154 122.224 111.625 122.058C110.292 121.639 109.264 121.425 108.567 121.407L108.395 121.406C108.151 121.412 107.973 121.455 107.28 121.719L106.239 122.126C105.242 122.519 104.508 122.751 103.695 122.884C102.778 123.035 101.394 122.974 99.4944 122.715C98.9447 122.641 98.0051 121.988 98.6345 121.585C99.2639 121.181 101.926 121.621 103.173 121.401C104.421 121.181 106.79 119.81 108.395 119.61Z" fill="#00160A"/>
<path fill-rule="evenodd" clip-rule="evenodd" d="M65.4726 188.417C69.9955 188.338 71.9228 189.595 71.5067 190.002C71.5067 190.002 66.7022 189.636 65.4726 189.595C64.1728 189.552 58.223 189.462 58.0592 188.932C57.997 188.731 58.0012 188.525 58.0596 188.338C58.1206 188.142 59.2899 188.262 61.3119 188.353C62.4457 188.404 63.8477 188.445 65.4726 188.417Z" fill="#00160A"/>
<path fill-rule="evenodd" clip-rule="evenodd" d="M72.6229 212.716C72.6229 212.716 72.216 231.89 74.9379 233.453C75.3139 233.669 75.2727 234.501 74.8595 234.871C74.4462 235.241 73.8112 235.206 73.4413 234.793C70.9402 231.999 70.2862 224.113 71.2748 212.506C71.32 211.976 72.67 212.163 72.6229 212.716Z" fill="#00160A"/>
<path fill-rule="evenodd" clip-rule="evenodd" d="M135.667 223.631L135.612 223.634L132.407 223.93C112.375 225.804 99.8557 227.652 90.0173 229.474L89.093 229.648C84.3459 230.557 80.4484 231.462 78.1835 232.375C75.3506 233.517 72.8015 234.879 73.7057 236.577C75.2813 239.537 78.5972 240.696 85.861 241.501L86.6358 241.583C92.2511 242.156 98.2862 242.295 113.585 242.372L118.813 242.403C137.463 242.527 148.248 243.197 162.214 244.053L163.638 244.142C189.356 245.766 209.885 245.506 225.225 243.705L225.688 243.65C238.082 242.161 246.443 239.697 250.081 236.901C252.222 235.256 252.549 233.607 252.608 232.081C252.661 230.71 249.514 228.638 247.716 227.957C242.707 226.061 241.073 225.373 231.444 224.402C212.425 222.485 180.776 221.961 135.667 223.631ZM231.644 225.999L232.275 226.064C241.252 227.003 247.145 228.358 249.863 230.061L250.033 230.171C252.12 231.558 251.857 233.003 248.856 235.309C245.576 237.83 237.513 240.206 225.449 241.656C210.345 243.471 190.039 243.764 164.539 242.186L161.865 242.02C147.143 241.127 135.848 240.886 114.943 240.772L109.172 240.739C96.7265 240.652 91.4366 240.48 86.3299 239.933L85.8443 239.879C79.4422 239.147 75.904 237.809 74.7186 235.712L74.6753 235.633C74.6527 235.591 74.6526 235.591 74.8246 235.417C75.1689 235.068 75.8751 234.662 76.9257 234.238L77.1979 234.131C79.4748 233.255 83.0737 232.357 87.9728 231.45L88.9008 231.28C98.6815 229.524 113.267 227.738 132.649 225.925L135.766 225.637L138.427 225.54C182.038 223.977 213.119 224.131 231.644 225.999Z" fill="#00160A"/>
<path d="M185.95 206.426C185.583 219.808 184.535 228.722 182.752 231.841C181.244 234.48 176.18 235.376 169.762 234.942L167.451 234.774C164.313 234.539 162.562 234.367 160.875 234.107L160.645 234.07C157.93 233.637 156.138 233.037 155.134 232.064C151.428 228.471 149.464 220.51 149.088 208.11C149.072 207.556 150.542 208.066 151.096 208.049C151.211 208.046 157.842 208.846 166.969 208.42C172.381 208.168 185.95 206.426 185.95 206.426Z" fill="white"/>
<path fill-rule="evenodd" clip-rule="evenodd" d="M150.222 207.959C150.589 221.341 153.744 229.119 155.526 232.238C157.035 234.877 162.098 235.772 168.517 235.338L170.828 235.171C173.966 234.936 162.452 231.506 158.476 227.163C154.017 222.291 150.222 207.959 150.222 207.959Z" fill="#E7EAEE"/>
<path fill-rule="evenodd" clip-rule="evenodd" d="M152.936 212.103C153.011 211.554 153.689 210.613 154.067 211.244C154.446 211.875 154.616 213.405 155.403 215.359L157.073 218.598C157.221 218.964 157.355 219.304 157.481 219.631L157.556 219.827C158.31 221.805 158.772 222.963 158.936 224.28C159.005 224.83 158.614 225.332 158.064 225.401C157.514 225.469 157.012 225.079 156.943 224.528C156.803 223.409 156.782 221.98 156.081 220.14L155.934 219.759C155.833 219.5 155.726 219.232 155.611 218.945L154.451 216.126C154.25 215.633 154.095 215.241 153.959 214.878L153.85 214.582C153.432 213.434 152.856 212.691 152.936 212.103Z" fill="#00160A"/>
<path fill-rule="evenodd" clip-rule="evenodd" d="M126.493 149.069C125.875 149.539 126.63 150.202 126.872 150.924C126.927 151.089 126.998 151.259 127.09 151.457L127.204 151.693L127.46 152.203L127.566 152.42C127.68 152.657 127.761 152.843 127.825 153.02C128.025 153.568 128.006 153.815 127.819 153.982C126.764 154.924 125.643 155.554 123.495 156.505L122.31 157.024C118.735 158.604 116.349 159.652 115.005 161.79C113.23 164.611 113.703 168.655 114.941 174.545L114.999 174.818C115.236 175.915 114.781 177.92 114.453 180.957L114.429 181.176C114.295 182.39 114.122 183.749 113.885 185.474L112.942 192.169C112.585 194.729 112.32 196.766 112.091 198.76L112.004 199.53C111.313 205.766 111.114 210.67 111.514 214.653C111.861 218.108 113.884 223.051 116.272 225.413C119.781 228.882 123.267 227.239 126.422 220.064C127.832 216.857 128.704 213.847 129.121 210.787C129.678 206.696 129.449 202.524 128.478 196.898L128.377 196.326C127.713 192.679 124.812 179.239 124.465 177.535L124.353 176.992L123.616 173.557C123.569 173.333 123.525 173.12 123.482 172.912L123.345 172.232C122.735 169.131 122.523 167.072 122.753 165.74C122.775 165.615 122.881 165.43 123.098 165.196C123.436 164.831 123.973 164.419 124.763 163.909L125.115 163.688C125.855 163.232 127.616 162.184 127.629 162.176L128.007 161.944C131.726 159.643 133.475 157.839 133.475 155.285C133.475 152.748 132.404 150.809 130.666 149.652C129.222 148.69 127.402 148.379 126.493 149.069ZM128.519 151.439L128.174 150.745L128.135 150.737C128.585 150.814 129.091 151.016 129.553 151.324C130.739 152.114 131.466 153.43 131.466 155.285C131.466 156.872 130.065 158.308 126.935 160.245L126.388 160.577C125.853 160.896 124.388 161.771 123.88 162.09L123.838 162.117C122.83 162.757 122.129 163.286 121.624 163.831C121.165 164.327 120.87 164.839 120.774 165.399C120.476 167.124 120.736 169.474 121.465 173.074L121.65 173.97L122.326 177.112L122.705 178.93C123.48 182.599 125.871 193.73 126.419 196.784L126.437 196.885C127.428 202.508 127.667 206.575 127.13 210.516C126.74 213.385 125.92 216.215 124.583 219.255C123.14 222.537 121.69 224.376 120.356 224.94C119.358 225.361 118.358 225.048 117.283 223.984C115.26 221.984 113.414 217.475 113.111 214.452C112.728 210.638 112.922 205.855 113.599 199.745L113.684 198.99C113.922 196.928 114.198 194.815 114.577 192.109L115.4 186.279L115.577 184.986C115.753 183.677 115.891 182.581 116.003 181.582L116.074 180.933C116.394 177.892 116.447 175.838 116.18 174.493L116.159 174.393C114.954 168.821 114.827 165.208 116.303 162.859C117.349 161.196 119.056 160.314 122.149 158.937L123.527 158.332C125.846 157.304 127.103 156.596 128.353 155.481C129.276 154.656 129.359 153.57 128.91 152.334C128.808 152.054 128.688 151.783 128.519 151.439Z" fill="#00160A"/>
<path d="M128.519 151.438L128.174 150.744L128.135 150.736C128.585 150.813 129.091 151.015 129.553 151.323C130.74 152.113 131.466 153.429 131.466 155.284C131.466 156.871 130.065 158.307 126.935 160.245L126.388 160.576C125.853 160.896 124.388 161.771 123.881 162.089L123.838 162.116C122.83 162.756 122.129 163.285 121.624 163.831C121.165 164.326 120.87 164.838 120.774 165.398C120.476 167.124 120.736 169.474 121.465 173.073L121.65 173.969L122.326 177.111L122.705 178.93C123.48 182.598 125.871 193.729 126.419 196.784L126.437 196.885C127.428 202.508 127.667 206.574 127.13 210.515C126.74 213.385 125.92 216.215 124.584 219.255C123.141 222.537 121.69 224.375 120.356 224.939C119.358 225.361 118.358 225.047 117.283 223.984C115.26 221.983 113.415 217.474 113.111 214.452C112.728 210.637 112.922 205.854 113.599 199.744L113.685 198.989C113.922 196.927 114.199 194.814 114.577 192.108L115.401 186.278L115.577 184.985C115.754 183.677 115.891 182.58 116.003 181.582L116.074 180.932C116.394 177.891 116.447 175.837 116.18 174.492L116.159 174.393C114.954 168.821 114.827 165.207 116.303 162.859C117.349 161.195 119.056 160.313 122.149 158.936L123.527 158.332C125.846 157.304 127.103 156.596 128.353 155.48C129.277 154.656 129.359 153.57 128.91 152.333C128.808 152.053 128.688 151.782 128.519 151.438Z" fill="white"/>
<path fill-rule="evenodd" clip-rule="evenodd" d="M122.025 164.909C122.299 164.427 122.912 164.259 123.394 164.533C129.192 167.835 132.515 171.811 133.262 176.462C133.981 180.942 129.291 204.255 128.749 204.137C128.206 204.02 127.862 203.485 127.98 202.943L128.233 201.762C130.915 189.169 131.924 180.801 131.278 176.78C130.64 172.806 127.714 169.305 122.4 166.279C121.918 166.004 121.75 165.391 122.025 164.909Z" fill="#00160A"/>
<path fill-rule="evenodd" clip-rule="evenodd" d="M124.411 151.473C124.877 151.173 125.499 151.308 125.798 151.775C126.315 152.579 126.624 153.233 126.721 153.792C126.816 154.343 126.752 155.081 126.55 156.065C126.439 156.608 125.908 156.958 125.365 156.846C125.11 156.794 124.898 156.65 124.756 156.456C124.595 156.235 125.545 155.661 125.545 154.134C125.545 152.608 123.944 151.772 124.411 151.473Z" fill="#00160A"/>
<path fill-rule="evenodd" clip-rule="evenodd" d="M124.044 153.021C124.287 152.818 124.501 153.583 124.454 153.961C124.382 154.532 124.382 156.585 123.575 157.555C123.255 157.94 122.731 158.262 122.232 158.02C122.012 157.913 122.7 156.955 123.118 155.871C123.42 155.086 123.656 154.246 123.817 153.682C123.935 153.264 123.792 153.231 124.044 153.021Z" fill="#00160A"/>
<path fill-rule="evenodd" clip-rule="evenodd" d="M184.971 205.351C185.525 205.365 185.963 205.826 185.95 206.38L185.928 207.206C185.561 220.588 184.535 228.723 182.752 231.841C181.244 234.48 176.18 235.376 169.762 234.942L167.451 234.774C164.313 234.539 162.562 234.368 160.875 234.107L160.645 234.071C157.93 233.637 156.138 233.038 155.134 232.064C151.428 228.471 149.464 220.511 149.088 208.111C149.072 207.556 149.507 207.093 150.062 207.076C150.616 207.06 151.079 207.495 151.096 208.05L151.12 208.759C151.532 220.259 153.384 227.569 156.532 230.622L156.608 230.692C157.768 231.719 160.644 232.228 167.315 232.748L169.684 232.923L170.097 232.951C175.637 233.297 180.061 232.502 181.008 230.845C182.591 228.075 183.604 219.821 183.941 206.33C183.955 205.775 184.416 205.337 184.971 205.351Z" fill="#00160A"/>
<path fill-rule="evenodd" clip-rule="evenodd" d="M148.52 168.084C148.713 167.563 151.918 168.359 152.77 168.858C153.082 169.041 160.231 172.394 162.29 173.684C164.902 175.32 166.739 182.371 166.119 190.286C166.028 191.452 165.325 192.736 164.052 194.2C163.688 194.618 163.054 194.662 162.635 194.298C162.217 193.934 162.173 193.3 162.537 192.881C163.553 191.713 164.066 190.775 164.117 190.129L164.148 189.699C164.629 182.67 163.389 176.092 161.698 175.033L161.369 174.83C159.771 173.862 158.795 173.544 156.839 173.181C156.839 173.181 153.79 170.723 152.587 170.036C149.919 168.512 148.432 168.323 148.52 168.084Z" fill="#00160A"/>
<path fill-rule="evenodd" clip-rule="evenodd" d="M175.525 159.784C175.919 160.175 167.597 167.314 167.153 167.715C165.792 168.943 164.948 171.73 165.294 175.342L165.313 175.541C165.384 176.216 165.622 178.943 165.632 179.326L165.658 179.887C165.671 180.084 165.689 180.292 165.726 180.648L165.921 182.449C166.249 185.431 166.336 187.519 166.119 190.286C166.028 191.452 165.325 192.736 164.052 194.2C163.688 194.618 163.054 194.662 162.635 194.298C162.217 193.934 164.821 190.4 164.871 189.754C165.068 187.238 163.713 180.712 163.713 180.712C163.655 180.141 163.648 179.955 163.628 179.479C163.601 178.869 163.66 178.39 163.836 177.522L163.975 176.852C164.117 176.141 164.157 175.782 164.125 175.407L164.119 175.348C163.88 173.064 164.015 171.214 164.472 169.725C164.884 168.385 165.556 167.337 166.454 166.527C166.848 166.172 167.249 165.892 167.728 165.611L168.294 165.288C168.364 165.247 168.409 165.218 168.437 165.197L168.52 165.135C169.305 164.526 175.132 159.393 175.525 159.784Z" fill="#00160A"/>
<path fill-rule="evenodd" clip-rule="evenodd" d="M184.84 174.897C184.976 175.434 171.58 179.919 169.799 181.445C167.36 183.536 166.057 186.572 166.43 189.284L166.452 189.434C166.695 190.941 166.07 192.52 163.941 194.309C163.516 194.666 162.882 194.611 162.525 194.186C162.169 193.762 162.224 193.128 162.648 192.771C164.282 191.398 164.967 190.346 164.871 189.754C164.31 186.276 165.902 182.484 168.894 179.92C171.061 178.062 184.704 174.359 184.84 174.897Z" fill="#00160A"/>
<path fill-rule="evenodd" clip-rule="evenodd" d="M143.842 165.373C148.271 164.384 152.115 164.384 155.367 165.394C158.855 166.477 160.678 168.934 160.678 172.561C160.678 172.755 160.623 172.936 160.527 173.09L160.483 173.155L160.516 173.206C160.571 173.295 160.613 173.394 160.638 173.5L160.651 173.565C160.744 174.111 160.377 174.63 159.83 174.724L159.314 174.81C154.038 175.674 150.586 175.662 148.794 174.673C146.974 173.668 145.137 171.048 143.15 166.777C142.88 166.195 143.216 165.513 143.842 165.373ZM154.771 167.312C152.22 166.52 149.194 166.428 145.688 167.05L145.524 167.08L145.56 167.152C147.111 170.264 148.517 172.178 149.692 172.873L149.765 172.915C150.947 173.567 153.762 173.614 158.079 172.97L158.718 172.871L158.702 172.817C158.686 172.756 158.675 172.692 158.671 172.627L158.669 172.561C158.669 169.817 157.422 168.135 154.771 167.312Z" fill="#00160A"/>
<path fill-rule="evenodd" clip-rule="evenodd" d="M178.514 154.906C179.025 154.915 179.448 155.306 179.496 155.814C179.85 159.51 179.388 162.317 178.043 164.228C176.592 166.289 173.788 166.939 169.762 166.339C169.235 166.261 168.865 165.787 168.909 165.264L168.913 165.23L168.862 165.216C168.637 165.145 168.438 164.995 168.307 164.781L168.274 164.721C166.884 162.049 167.532 159.566 170.083 157.583C172.393 155.786 175.139 154.893 178.283 154.903L178.514 154.906ZM177.576 157.083L177.567 156.928L177.564 156.928C175.163 157.043 173.09 157.789 171.316 159.168C169.505 160.576 169.13 162.015 170.056 163.795C170.141 163.959 170.177 164.136 170.168 164.308L170.163 164.368L170.243 164.38C173.429 164.826 175.425 164.366 176.348 163.143L176.4 163.072C177.305 161.785 177.713 159.791 177.576 157.083Z" fill="#00160A"/>
<path d="M93.8063 201.416C94.9995 201.456 95.4476 202.792 94.7527 204.135C94.2716 205.064 93.0957 206.041 91.881 206.616C91.1875 206.944 90.3837 206.987 89.4892 206.762C89.1665 206.68 88.9708 206.353 89.0521 206.03C89.1334 205.707 89.4609 205.512 89.7837 205.593C90.4228 205.754 89.9256 204.868 89.889 204.537C89.8525 204.206 90.091 203.908 90.4218 203.872C91.0279 203.805 91.3447 203.491 91.6524 203.281C91.7386 203.222 91.8511 203.104 92.0092 202.906L92.1882 202.675L92.2501 202.593C92.9296 201.69 93.1958 201.416 93.7442 201.415L93.8063 201.416Z" fill="white"/>
<path fill-rule="evenodd" clip-rule="evenodd" d="M93.8063 201.416C94.9995 201.456 95.4476 202.792 94.7527 204.135C94.2716 205.064 93.0957 206.041 91.881 206.616C91.1875 206.944 90.3837 206.987 89.4892 206.762C89.1665 206.68 88.9708 206.353 89.0521 206.03C89.1334 205.707 89.4609 205.512 89.7837 205.593C90.4228 205.754 90.9436 205.726 91.3656 205.527C92.3621 205.055 93.3397 204.243 93.6823 203.581C93.8798 203.199 93.9222 202.901 93.8623 202.722C93.8493 202.684 93.8354 202.658 93.8197 202.643L93.804 202.631L93.783 202.647C93.7656 202.661 93.7459 202.678 93.7243 202.698L93.6905 202.731C93.5898 202.831 93.4981 202.942 93.3195 203.177L93.0787 203.495C92.7836 203.88 92.5779 204.108 92.333 204.275C91.8439 204.61 91.3423 204.983 90.5543 205.07C90.2235 205.106 89.9256 204.868 89.889 204.537C89.8525 204.206 90.091 203.908 90.4218 203.872C91.0279 203.805 91.3447 203.491 91.6524 203.281C91.7386 203.222 91.8511 203.104 92.0092 202.906L92.1882 202.675L92.2501 202.593C92.9296 201.69 93.1958 201.416 93.7442 201.415L93.8063 201.416Z" fill="#00160A"/>
<path fill-rule="evenodd" clip-rule="evenodd" d="M94.2378 204.102C94.9702 204.127 95.2389 204.769 95.18 205.521C95.136 206.082 94.9094 206.683 94.566 207.066C94.1312 207.55 93.524 207.967 92.7018 208.396L92.5344 208.482C92.2376 208.633 92.0324 208.73 91.4895 208.981C90.8234 209.29 89.936 209.4 88.82 209.332C88.4878 209.311 88.235 209.026 88.2553 208.694C88.2756 208.361 88.5613 208.108 88.8935 208.129C89.8276 208.186 90.5266 208.099 90.9832 207.888L91.5495 207.623C91.7146 207.545 91.8403 207.483 91.9893 207.408C92.775 207.009 93.3278 206.641 93.6689 206.261C93.809 206.105 93.9317 205.797 93.9701 205.506L93.9784 205.427L93.9792 205.411L93.9324 205.439C93.8161 205.553 92.3538 206.433 92.1957 206.465C90.1381 206.874 90.5132 206.71 89.7251 206.798C89.3943 206.834 89.0965 206.596 89.0599 206.265C89.0233 205.934 89.2618 205.636 89.5926 205.6C89.8105 205.576 90.2201 205.964 90.6739 205.928C91.0617 205.898 92.0222 205.404 92.0222 205.404L92.4362 205.058C92.5387 204.973 92.6274 204.901 92.7128 204.833L92.9161 204.676C93.4403 204.282 93.8279 204.088 94.2378 204.102Z" fill="#00160A"/>
<path fill-rule="evenodd" clip-rule="evenodd" d="M92.1308 209.971C92.9479 209.673 93.6186 210.404 93.9328 211.103C94.2738 211.861 93.8554 212.53 93.0636 213.019C92.527 213.351 91.7981 213.604 91.2542 213.665C90.4874 213.752 89.5758 213.496 88.4997 212.923C88.206 212.766 88.0946 212.401 88.251 212.108C88.4074 211.814 88.7723 211.702 89.0661 211.859C89.9469 212.328 90.6378 212.522 91.119 212.468C91.4857 212.426 92.0444 212.232 92.4299 211.994C92.6217 211.876 93.4409 211.103 92.5434 211.103C92.2047 211.103 91.8181 210.915 91.7709 210.743C91.7237 210.571 91.8181 210.084 92.1308 209.971Z" fill="#00160A"/>
<path fill-rule="evenodd" clip-rule="evenodd" d="M103.605 197.239C103.736 197.173 103.933 197.288 103.949 197.427L103.95 197.457L103.903 197.93L105.294 197.239C105.366 197.2 105.482 197.225 105.569 197.293L105.6 197.321C105.679 197.4 105.693 197.494 105.637 197.545L105.612 197.561L103.766 198.441C103.617 198.506 103.409 198.392 103.404 198.253L103.406 198.223L103.338 197.93L101.924 198.441C101.778 198.501 101.599 198.409 101.589 198.28L101.589 198.249L101.559 197.889L99.8268 198.442C99.6639 198.503 99.4979 198.4 99.5234 198.266L99.5317 198.237L99.5556 197.889L98.166 198.381C98.0055 198.443 97.8522 198.357 97.8752 198.229L97.8836 198.199L97.9628 197.84L96.6822 198.205C96.531 198.257 96.4013 198.187 96.4183 198.072L96.4256 198.042L96.5632 197.643L95.5367 197.889C95.4256 197.914 95.3375 197.875 95.3247 197.8L95.3237 197.77C95.3312 197.685 95.4163 197.596 95.5209 197.557L95.5608 197.545L96.8483 197.228C96.9773 197.196 97.0751 197.265 97.0618 197.371L97.0554 197.4L96.9448 197.757L98.3277 197.238C98.472 197.181 98.6058 197.268 98.5883 197.393L98.5814 197.423L98.424 197.902L99.961 197.241C100.107 197.174 100.267 197.277 100.25 197.413L100.244 197.443L100.08 197.953L101.784 197.238C101.913 197.179 102.077 197.271 102.094 197.4L102.095 197.43L102.058 197.962L103.605 197.239Z" fill="#8DC73F"/>
<ellipse cx="106.295" cy="136.512" rx="4.15431" ry="1.16722" transform="rotate(8.98977 106.295 136.512)" fill="#8DC73F"/>
<path fill-rule="evenodd" clip-rule="evenodd" d="M73.3691 163.233L74.094 164.757L75.7206 165.206L74.4954 166.366L74.5707 168.052L73.0885 167.246L71.5084 167.838L71.8176 166.179L70.7657 164.86L72.4391 164.641L73.3691 163.233Z" fill="#00160A"/>
<path fill-rule="evenodd" clip-rule="evenodd" d="M85.1086 160.419L85.6325 161.583L86.8157 161.923L85.9205 162.814L85.971 164.104L84.8938 163.49L83.7418 163.948L83.9713 162.678L83.2088 161.671L84.4278 161.499L85.1086 160.419Z" fill="#00160A"/>
<path fill-rule="evenodd" clip-rule="evenodd" d="M93.1435 184.524L93.6674 185.688L94.8506 186.027L93.9554 186.919L94.0059 188.208L92.9287 187.595L91.7767 188.052L92.0062 186.782L91.2438 185.775L92.4627 185.604L93.1435 184.524Z" fill="#00160A"/>
<path fill-rule="evenodd" clip-rule="evenodd" d="M128.095 176.488L128.619 177.653L129.802 177.992L128.907 178.883L128.957 180.173L127.88 179.56L126.728 180.017L126.958 178.747L126.195 177.74L127.414 177.568L128.095 176.488Z" fill="#00160A"/>
<path fill-rule="evenodd" clip-rule="evenodd" d="M76.2705 215.056L76.7944 216.22L77.9775 216.56L77.0824 217.451L77.1328 218.741L76.0557 218.127L74.9037 218.585L75.1331 217.314L74.3707 216.307L75.5896 216.136L76.2705 215.056Z" fill="#00160A"/>
<path fill-rule="evenodd" clip-rule="evenodd" d="M75.8968 225.502L76.5371 226.925L77.9832 227.34L76.8892 228.429L76.9508 230.005L75.6343 229.256L74.2263 229.815L74.5067 228.262L73.5749 227.032L75.0647 226.822L75.8968 225.502Z" fill="#00160A"/>
<path fill-rule="evenodd" clip-rule="evenodd" d="M87.9488 219.476L88.5891 220.899L90.0352 221.314L88.9412 222.404L89.0028 223.98L87.6863 223.23L86.2783 223.79L86.5587 222.237L85.6269 221.006L87.1167 220.796L87.9488 219.476Z" fill="#00160A"/>
<path fill-rule="evenodd" clip-rule="evenodd" d="M104.018 214.655L104.659 216.078L106.105 216.493L105.011 217.582L105.072 219.159L103.756 218.409L102.348 218.968L102.628 217.416L101.696 216.185L103.186 215.975L104.018 214.655Z" fill="#00160A"/>
<path fill-rule="evenodd" clip-rule="evenodd" d="M80.1986 180.91L80.9236 182.433L82.5502 182.883L81.325 184.043L81.4003 185.729L79.918 184.922L78.338 185.515L78.6472 183.856L77.5953 182.536L79.2686 182.318L80.1986 180.91Z" fill="#00160A"/>
<path fill-rule="evenodd" clip-rule="evenodd" d="M82.2074 169.661L82.9324 171.184L84.559 171.634L83.3338 172.794L83.4091 174.48L81.9268 173.673L80.3468 174.266L80.656 172.607L79.6041 171.287L81.2774 171.069L82.2074 169.661Z" fill="#00160A"/>
<path fill-rule="evenodd" clip-rule="evenodd" d="M100.286 176.491L101.011 178.014L102.637 178.464L101.412 179.624L101.487 181.31L100.005 180.503L98.4249 181.096L98.7341 179.437L97.6822 178.117L99.3556 177.899L100.286 176.491Z" fill="#00160A"/>
<path fill-rule="evenodd" clip-rule="evenodd" d="M110.731 171.268L111.456 172.792L113.082 173.241L111.857 174.402L111.932 176.087L110.45 175.281L108.87 175.873L109.179 174.214L108.128 172.895L109.801 172.676L110.731 171.268Z" fill="#00160A"/>
<path fill-rule="evenodd" clip-rule="evenodd" d="M107.517 187.337L108.242 188.861L109.869 189.311L108.643 190.471L108.719 192.157L107.236 191.35L105.656 191.943L105.966 190.284L104.914 188.964L106.587 188.745L107.517 187.337Z" fill="#00160A"/>
<path fill-rule="evenodd" clip-rule="evenodd" d="M81.0021 192.56L81.7271 194.084L83.3537 194.533L82.1284 195.694L82.2037 197.379L80.7215 196.573L79.1414 197.165L79.4506 195.506L78.3988 194.187L80.0721 193.968L81.0021 192.56Z" fill="#00160A"/>
<path fill-rule="evenodd" clip-rule="evenodd" d="M70.6602 174.883L71.3093 176.181L72.7574 176.568L71.6707 177.551L71.7423 178.986L70.4216 178.295L69.0177 178.795L69.2882 177.385L68.349 176.259L69.8368 176.078L70.6602 174.883Z" fill="#00160A"/>
<path fill-rule="evenodd" clip-rule="evenodd" d="M63.4288 183.319L64.0778 184.617L65.5259 185.004L64.4392 185.988L64.5108 187.422L63.1902 186.732L61.7863 187.232L62.0568 185.821L61.1176 184.696L62.6054 184.514L63.4288 183.319Z" fill="#00160A"/>
<path fill-rule="evenodd" clip-rule="evenodd" d="M116.117 162.256C116.136 162.81 115.667 163.275 115.112 163.261C112.342 163.19 111.901 158.426 112.167 158.406C112.535 158.38 113.163 160.643 114.4 161.467C115.344 162.096 116.063 160.729 116.117 162.256Z" fill="#00160A"/>
<path fill-rule="evenodd" clip-rule="evenodd" d="M176.914 172.128C183.447 169.949 189.068 169.868 193.746 171.929C194.608 172.309 194.52 173.559 193.614 173.814L193.269 173.914C191.924 174.312 190.985 174.704 190.48 175.06L190.379 175.136L190.337 175.167C189.956 175.465 189.549 175.854 189.014 176.421L187.397 178.175C187.322 178.255 187.257 178.325 187.206 178.379C185.033 180.661 183.145 181.996 180.708 182.578C177.371 183.375 173.829 182.988 170.107 181.437C169.808 181.312 169.601 181.06 169.523 180.77L169.521 180.762L169.468 180.739C169.109 180.565 168.877 180.186 168.904 179.771L168.91 179.706C169.359 176.256 172.093 173.736 176.914 172.128ZM190.06 172.835C186.475 172.053 182.31 172.446 177.55 174.033C173.654 175.333 171.521 177.152 170.989 179.477L170.959 179.615L171.112 179.678C174.293 180.961 177.261 181.286 180.038 180.671L180.241 180.624C182.164 180.165 183.727 179.087 185.581 177.17L185.837 176.902C186.274 176.437 187.303 175.309 187.429 175.174C188.088 174.468 188.592 173.982 189.101 173.584L189.212 173.499C189.47 173.305 189.783 173.118 190.153 172.935L190.264 172.881L190.06 172.835Z" fill="#00160A"/>
<path fill-rule="evenodd" clip-rule="evenodd" d="M191.648 51.6614C192.103 51.3439 192.729 51.4552 193.046 51.91C193.364 52.3648 192.85 53.0191 192.395 53.3366C190.88 54.3942 187.231 57.8492 186.483 58.6405L185.765 59.4054C184.355 60.924 167.557 78.3921 167.153 78.0115C166.783 77.6624 183.174 59.6389 184.404 58.3217L184.45 58.272C185.612 57.0322 186.685 55.9144 187.712 54.8794C188.729 53.8546 190.041 52.7835 191.648 51.6614Z" fill="#00160A"/>
<path fill-rule="evenodd" clip-rule="evenodd" d="M189.612 118.383C187.772 120.05 188.148 125.615 190.543 135.409C190.655 135.868 191.233 136.019 191.555 135.672L191.955 135.239C196.031 130.797 198.371 127.32 198.975 124.755C199.347 123.178 198.97 122.135 197.714 122.135L197.635 122.136C196.882 122.167 195.848 122.624 194.478 123.503L194.293 123.624L194.29 123.608C193.821 121.367 193.287 119.792 192.665 118.862C191.825 117.605 190.686 117.411 189.612 118.383ZM191.677 119.522C192.267 120.404 192.818 122.15 193.3 124.728C193.379 125.152 193.871 125.353 194.224 125.105C195.927 123.914 197.126 123.323 197.714 123.323C197.963 123.323 198.041 123.539 197.819 124.482L197.791 124.595C197.229 126.792 195.178 129.883 191.637 133.822L191.437 134.044L191.315 133.524C189.397 125.25 189.149 120.405 190.41 119.264C190.926 118.796 191.227 118.848 191.677 119.522Z" fill="#8DC73F"/>
<path fill-rule="evenodd" clip-rule="evenodd" d="M178.287 131.755C177.903 132.318 177.606 133.204 177.374 134.432L177.344 134.597L177.262 134.547L176.989 134.381C176.055 133.828 175.354 133.543 174.833 133.521C173.715 133.475 173.432 134.387 173.815 135.658C174.445 137.709 176.589 140.297 180.005 143.11C180.349 143.393 180.872 143.21 180.964 142.772L181.056 142.326C182.3 136.212 182.297 132.803 180.86 131.542L180.808 131.498C179.933 130.744 178.996 130.785 178.34 131.68L178.287 131.755ZM180.081 132.439C180.988 133.261 181.032 136.136 180.063 141.218L179.998 141.55L179.873 141.442C177.142 139.063 175.445 136.92 174.952 135.312L174.928 135.23C174.868 135.017 174.839 134.85 174.834 134.739L174.834 134.712L174.873 134.718C175.321 134.788 176.207 135.244 177.455 136.088C177.819 136.334 178.315 136.112 178.376 135.677L178.425 135.337C178.654 133.842 178.956 132.849 179.298 132.383C179.51 132.094 179.643 132.074 179.989 132.361L180.081 132.439Z" fill="#8DC73F"/>
</svg>
