<svg width="287" height="287" viewBox="0 0 287 287" fill="none" xmlns="http://www.w3.org/2000/svg">
<rect width="287" height="287" fill="white"/>
<path fill-rule="evenodd" clip-rule="evenodd" d="M126.394 51.5292C120.321 56.1595 115.236 61.911 111.398 68.4584C105.109 67.2032 98.333 66.9361 91.4722 67.9188C93.1942 60.4377 96.7224 53.3966 101.82 47.515C103.006 46.1527 104.762 45.4218 106.565 45.552C113.579 46.0494 120.352 48.1273 126.394 51.5292ZM143.5 86.7843C149.575 80.0708 156.684 75.1593 164.244 71.9521C159.744 65.2057 153.522 59.6609 146.067 55.9337C144.452 55.1263 142.547 55.1263 140.932 55.9337C133.478 59.6609 127.255 65.2057 122.755 71.9521C130.316 75.1593 137.424 80.0712 143.5 86.7843ZM180.102 143.499C185.344 140.886 190.154 137.434 194.348 133.24C207.003 120.581 211.434 101.858 205.767 84.8595C205.197 83.149 203.85 81.802 202.139 81.2318C185.157 75.5722 166.429 79.9843 153.759 92.6506C149.565 96.8446 146.109 101.655 143.5 106.901C140.89 101.655 137.434 96.8446 133.24 92.6506C120.582 79.9958 101.858 75.5645 84.8597 81.2318C83.1454 81.802 81.8022 83.149 81.232 84.8595C75.5724 101.842 79.9845 120.57 92.6508 133.24C96.841 137.43 101.655 140.886 106.897 143.499C101.655 146.113 96.8448 149.565 92.6508 153.759C79.996 166.417 75.5647 185.141 81.232 202.139C81.8022 203.85 83.1492 205.197 84.8597 205.767C101.842 211.426 120.57 207.014 133.24 194.348C137.434 190.154 140.89 185.344 143.5 180.098C146.109 185.344 149.565 190.154 153.759 194.348C166.486 207.076 185.233 211.404 202.139 205.767C203.854 205.197 205.197 203.85 205.767 202.139C211.427 185.156 207.015 166.429 194.348 153.759C190.158 149.568 185.344 146.113 180.102 143.499ZM228.995 146.067C225.559 152.94 220.58 158.76 214.538 163.157C211.291 155.916 206.54 149.224 200.215 143.499C206.283 138.008 211.151 131.397 214.534 123.838C220.576 128.235 225.559 134.059 228.995 140.932C229.802 142.546 229.802 144.452 228.995 146.067ZM72.4651 163.161C75.8483 155.602 80.7166 148.991 86.7845 143.499C80.4598 137.775 75.7082 131.082 72.4613 123.842C66.419 128.239 61.4405 134.059 58.0042 140.932C57.1967 142.546 57.1967 144.452 58.0042 146.067C61.4405 152.94 66.4228 158.764 72.4651 163.161ZM164.32 215.077C159.847 221.59 153.755 226.947 146.488 230.583C144.913 231.367 143.02 231.411 141.357 230.583C133.986 226.898 127.822 221.437 123.333 214.794C130.939 211.473 137.77 206.545 143.5 200.214C149.585 206.938 156.716 211.86 164.32 215.077ZM239.484 187.426C233.503 192.611 226.32 196.17 218.697 197.857C220.125 190.143 219.995 182.206 218.288 174.491C224.265 170.688 229.523 165.813 233.79 160.084C238.187 166.788 240.869 174.576 241.447 182.681C241.577 184.483 240.846 186.239 239.484 187.426ZM185.18 239.484C190.281 233.602 193.805 226.557 195.527 219.076C188.985 220.022 182.202 219.839 175.724 218.559C171.805 225.095 166.636 230.816 160.478 235.401C166.551 238.845 173.374 240.945 180.435 241.447C180.572 241.458 180.706 241.462 180.844 241.462C182.501 241.462 184.085 240.746 185.18 239.484ZM106.565 241.447C113.816 240.93 120.811 238.73 127.003 235.125C120.957 230.556 115.882 224.881 112.029 218.414C105.359 219.813 98.3254 220.071 91.4722 219.08C93.1942 226.561 96.7224 233.602 101.82 239.484C102.914 240.746 104.498 241.462 106.155 241.462C106.293 241.462 106.427 241.458 106.565 241.447ZM195.527 67.9188C188.666 66.9361 181.89 67.2032 175.601 68.4584C171.763 61.911 166.678 56.1595 160.605 51.5292C166.647 48.1273 173.42 46.0494 180.435 45.552C182.237 45.4218 183.993 46.1527 185.18 47.515C190.277 53.3966 193.805 60.4377 195.527 67.9188ZM47.5153 188.141C53.5346 193.361 60.767 196.931 68.4471 198.603C66.8667 190.655 66.9509 182.451 68.715 174.491C62.8526 170.764 57.6827 166.008 53.4619 160.421C48.9158 167.209 46.1377 175.138 45.5522 183.396C45.4221 185.199 46.153 186.955 47.5153 188.141ZM241.447 104.318C240.869 112.423 238.187 120.21 233.79 126.915C229.523 121.182 224.265 116.311 218.284 112.507C219.991 104.796 220.125 96.8561 218.697 89.1415C226.32 90.8291 233.503 94.3879 239.484 99.573C240.846 100.759 241.577 102.516 241.447 104.318ZM53.2094 126.915C57.4761 121.186 62.7339 116.311 68.7112 112.507C67.0045 104.793 66.8782 96.8522 68.3017 89.1415C60.679 90.8291 53.4964 94.3879 47.5153 99.573C46.153 100.759 45.4221 102.516 45.5522 104.318C46.13 112.423 48.8125 120.21 53.2094 126.915ZM126.28 143.499C126.28 134.005 134.006 126.279 143.5 126.279C152.994 126.279 160.72 134.005 160.72 143.499C160.72 152.993 152.994 160.719 143.5 160.719C134.006 160.719 126.28 152.993 126.28 143.499ZM137.76 143.499C137.76 146.668 140.331 149.239 143.5 149.239C146.668 149.239 149.24 146.668 149.24 143.499C149.24 140.331 146.668 137.759 143.5 137.759C140.331 137.759 137.76 140.331 137.76 143.499Z" fill="#DEFBB8"/>
<path d="M98.8441 230.241C92.0294 230.295 86.6722 230.599 82.1365 231.238C71.2315 232.775 64.748 236.386 61.8759 243.196C60.4098 246.672 61.1159 249.676 63.8081 252.016C66.1195 254.025 69.8799 255.545 74.9984 256.657L75.2842 256.718C84.0405 258.577 96.4731 259.249 112.239 259.013L113.209 258.997C120.615 258.87 128.209 258.566 137.35 258.074L146.451 257.558C149.649 257.374 152.943 257.185 154.115 257.122L155.701 257.04C159.07 256.872 161.242 256.81 162.582 256.852L164.085 256.909C185.811 257.704 202.767 256.618 213.675 254.057C218.651 252.888 222.211 251.44 224.202 249.791C226.358 248.006 226.73 245.857 225.131 243.959C220.145 238.039 211.96 234.694 198.737 232.911L198.054 232.821C187.067 231.395 173.403 230.957 147.435 230.94L143.699 230.936C138.646 230.922 133.808 230.853 127.387 230.715L111.591 230.356C106.863 230.257 104.204 230.226 101.241 230.231L98.8441 230.241Z" fill="white"/>
<ellipse cx="143.62" cy="249.59" rx="81.5374" ry="8.51094" fill="#E7EAEE"/>
<path fill-rule="evenodd" clip-rule="evenodd" d="M160.344 189.161C161.825 189.422 162.839 187.976 165.13 183.154L165.299 182.805L165.466 182.471C168.198 177.099 171.357 175.387 174.943 177.334L176.383 173.086L175.899 172.864L175.434 172.654C167.989 169.328 163.967 169.126 163.37 172.048L163.311 172.367L163.262 172.625C162.824 174.853 161.756 179.143 160.983 182.796L160.853 183.419C160.207 186.55 159.83 189.071 160.344 189.161Z" fill="white"/>
<path fill-rule="evenodd" clip-rule="evenodd" d="M144.489 146.08C144.489 146.08 155.373 147.523 160.879 147.273C166.384 147.023 174.435 144.721 174.435 144.721L174.244 151.673C174.244 151.673 199.927 151.154 196.049 172.193C193.494 186.05 173.948 180.352 173.948 180.352L177.686 172.193C177.686 172.193 189.41 173.041 185.141 169.474C184.349 168.812 179.286 167.899 172.623 168.078C166.901 168.231 161.93 166.516 161.412 164.977C159.473 159.206 162.289 156.17 162.289 156.17C162.289 156.17 159.565 157.496 160.082 160.719C160.599 163.943 156.792 229.938 156.792 229.938C156.792 229.938 153.349 230.549 151.617 230.549C149.885 230.549 147.501 229.938 147.501 229.938L144.489 146.08Z" fill="white"/>
<path fill-rule="evenodd" clip-rule="evenodd" d="M144.489 146.08C144.489 146.08 150.23 230.482 149.43 230.35C148.828 230.25 147.501 229.938 147.501 229.938L144.489 146.08Z" fill="#E7EAEE"/>
<path fill-rule="evenodd" clip-rule="evenodd" d="M149.216 231.238C149.594 234.559 148.888 235.89 148.981 235.89C150.52 235.89 151.439 235.86 153.907 235.668C153.907 235.668 153.769 234.237 153.769 233.564C153.769 232.761 153.907 231.238 153.907 231.238H149.216Z" fill="white"/>
<path d="M145.413 69.2804C145.413 69.2804 139.673 71.4359 139.673 67.3785C139.673 63.3211 144.102 65.3438 144.102 65.3438" fill="white"/>
<path d="M170.669 69.704C171.874 69.9721 175.644 72.323 175.644 66.631C175.644 63.9145 171.339 65.8766 171.339 65.8766" fill="white"/>
<path d="M156.971 45.9643C152.229 46.4244 142.291 50.9337 144.1 63.8171C145.503 73.8042 152.973 84.5693 157.563 84.5693C162.07 84.5693 169.657 75.5069 170.759 66.5846C173.009 48.3631 161.713 45.5043 156.971 45.9643Z" fill="white"/>
<path fill-rule="evenodd" clip-rule="evenodd" d="M157.147 55.1841C157.399 54.5992 158.214 54.5602 158.52 55.1184C160.085 57.9654 161.838 59.9494 163.767 61.0851C165.714 62.2319 168.012 62.3451 170.356 61.294C170.742 61.1211 171.195 61.2936 171.368 61.6792C171.541 62.0649 171.368 62.5178 170.982 62.6907C168.189 63.9433 165.368 63.8044 162.99 62.4041C161.137 61.3127 159.467 59.5784 157.975 57.2102L157.92 57.1222L157.871 57.2179C156.666 59.5059 155.111 61.3331 153.208 62.6906L153.016 62.8248C150.619 64.4742 147.806 65.2076 144.605 65.0269C144.183 65.0031 143.86 64.6417 143.884 64.2197C143.908 63.7977 144.269 63.4749 144.691 63.4987C147.563 63.6607 150.04 63.0151 152.148 61.5639C154.277 60.0987 155.943 57.9778 157.147 55.1841Z" fill="#E7EAEE"/>
<path fill-rule="evenodd" clip-rule="evenodd" d="M181.624 128.489C181.163 137.175 177.917 140.86 173.862 141.389C173.324 141.459 174.078 144.555 173.609 144.96C170.936 147.273 166.224 147.372 158.835 147.439C152.147 147.5 147.833 146.96 144.836 145.731C144.607 145.637 144.813 141.742 144.576 141.721C140.821 141.389 136.495 138.056 135.444 128.993C131.885 98.306 142.589 92.3752 152.777 87.4859C153.329 87.2207 153.629 86.7587 154.179 86.496C155.337 85.9418 155.035 87.2172 157.667 87.2172C160.3 87.2172 160.3 86.2176 161.485 86.784C161.927 86.9953 162.001 88.3154 162.441 88.5478C172.866 94.0487 182.9 104.485 181.624 128.489Z" fill="white"/>
<path fill-rule="evenodd" clip-rule="evenodd" d="M162.441 88.5479C176.208 93.53 182.602 106.844 181.624 128.489C180.451 154.442 150.976 131.209 160.802 108.851C163.144 103.525 166.22 126.077 166.253 126.173C167.037 128.39 169.431 130.11 171.852 131.03C171.852 131.03 172.935 115.398 171.052 108.028C169.28 101.096 162.441 88.5479 162.441 88.5479Z" fill="white"/>
<path fill-rule="evenodd" clip-rule="evenodd" d="M153.576 83.4209C153.576 83.4209 153.963 84.5806 153.828 85.2973C153.694 86.0141 152.873 87.1738 152.873 87.1738C152.873 87.1738 130.019 94.145 135.311 128.936C141.198 154.168 161.838 137.759 158.257 117.64C158.108 102.701 154.726 107.759 152.186 124.221C151.564 128.249 143.926 129.392 143.926 129.392" fill="white"/>
<ellipse cx="164.355" cy="73.6634" rx="2.10467" ry="1.722" fill="#8DC73F"/>
<ellipse cx="151.727" cy="73.6634" rx="2.10467" ry="1.722" fill="#8DC73F"/>
<path d="M153.85 75.9858C153.941 75.5731 155.825 75.8971 156.355 76.6019L156.519 76.8204C157.013 77.475 157.314 77.6815 157.951 77.6815C158.765 77.6815 159.042 77.5355 159.505 76.9295L159.628 76.7632C160.166 76.0273 162.061 75.4929 162.205 75.8904C162.349 76.2879 162.143 76.7267 161.746 76.8705C161.448 76.9783 161.278 77.1196 160.988 77.5003L160.851 77.6839C160.057 78.7717 159.396 79.2121 157.951 79.2121C156.777 79.2121 156.097 78.7725 155.372 77.8404L155.132 77.5219L155.024 77.3808C154.785 77.0781 154.639 76.9557 154.469 76.9074L154.432 76.8981C154.02 76.807 153.759 76.3986 153.85 75.9858Z" fill="#00160A"/>
<path d="M155.337 64.6066C154.425 64.3276 153.594 64.2477 153.113 64.3061C152.596 64.3689 151.942 64.6357 151.338 64.8818C150.855 65.0788 150.404 65.2627 150.082 65.3179C149.762 65.3728 149.282 65.355 148.815 65.3376C148.224 65.3156 147.652 65.2943 147.448 65.4216C147.083 65.6496 147.628 66.018 147.947 66.0602C149.05 66.2061 149.853 66.2408 150.385 66.1557C150.857 66.0803 151.283 65.9496 151.862 65.7275L152.466 65.4976C152.868 65.3482 152.971 65.3241 153.113 65.3209L153.213 65.3211C153.617 65.3312 154.214 65.4524 154.987 65.689C155.295 65.783 155.622 65.6168 155.718 65.3179C155.815 65.019 155.644 64.7005 155.337 64.6066Z" fill="#00160A"/>
<path d="M157.593 72.8194C158.025 71.5582 158.275 65.3455 157.8 65.3405C157.324 65.3356 156.935 65.717 156.93 66.1925C156.923 66.8611 156.927 67.5023 156.931 68.1036C156.943 69.9081 156.952 71.3519 156.651 72.0899L156.586 72.2422C156.196 73.2095 156.087 74.0325 157.129 74.2251C157.751 74.3401 160.544 72.7561 160.383 72.3086C160.222 71.8611 159.729 71.6288 159.281 71.7896L159.164 71.8313C158.898 71.9245 158.551 72.2153 158.238 72.4771C157.96 72.7096 157.71 72.9193 157.568 72.9473L157.546 72.9513L157.593 72.8194Z" fill="#00160A"/>
<path d="M161.128 64.6066C162.04 64.3276 162.871 64.2477 163.352 64.3061C163.87 64.3689 164.524 64.6357 165.127 64.8818C165.61 65.0788 166.061 65.2627 166.383 65.3179C166.703 65.3728 167.183 65.355 167.65 65.3376C168.242 65.3156 168.813 65.2943 169.017 65.4216C169.382 65.6496 168.837 66.018 168.518 66.0602C167.415 66.2061 166.613 66.2408 166.08 66.1557C165.608 66.0803 165.182 65.9496 164.603 65.7275L163.999 65.4976C163.597 65.3482 163.494 65.3241 163.352 65.3209L163.253 65.3211C162.848 65.3312 162.251 65.4524 161.478 65.689C161.171 65.783 160.843 65.6168 160.747 65.3179C160.65 65.019 160.821 64.7005 161.128 64.6066Z" fill="#00160A"/>
<path d="M166.055 68.9329C166.295 68.5226 166.158 67.9951 165.747 67.7547C165.603 67.6699 165.488 67.8309 165.314 68.0748C164.995 68.5227 164.476 69.2501 163.207 69.2501C161.929 69.2501 161.405 68.5159 161.086 68.0692C160.915 67.8311 160.804 67.6747 160.667 67.7547C160.257 67.9951 160.119 68.5226 160.36 68.9329C160.967 69.968 161.954 70.5065 163.207 70.5065C164.461 70.5065 165.448 69.968 166.055 68.9329Z" fill="#00160A"/>
<path d="M155.063 67.7736C155.463 68.0311 155.579 68.564 155.321 68.9637C154.662 69.9871 153.609 70.5065 152.269 70.5065C150.92 70.5065 149.877 69.9777 149.263 68.9339C149.022 68.524 148.929 67.971 149.569 67.7553C149.848 67.661 150.131 67.9338 150.481 68.2708C150.932 68.705 151.494 69.2459 152.301 69.2459C153.828 69.2459 154.369 68.4805 154.678 68.0438C154.833 67.824 154.93 67.6874 155.063 67.7736Z" fill="#00160A"/>
<path fill-rule="evenodd" clip-rule="evenodd" d="M157.791 28.4975C152.966 29.3581 149.271 33.0133 148.549 38.4134C148.515 38.6701 148.493 38.9205 148.482 39.1645C147.645 39.4267 145.169 40.2263 145.237 40.4759C145.3 40.7083 147.497 40.186 148.487 39.938C148.63 42.3056 149.968 44.0029 152.222 45.0414C152.795 45.3057 153.412 45.5227 154.067 45.6977C151.738 46.4313 149.357 47.7734 147.476 49.6174C144.001 53.0246 142.39 57.8304 143.248 63.937C143.255 63.9921 143.263 64.0472 143.271 64.1024C140.499 63.2484 138.812 64.3817 138.812 67.3784C138.812 70.3848 143.208 72.0744 145.068 70.8521C146.942 75.8151 149.861 80.4034 152.795 83.0595C152.706 83.2517 152.687 83.4769 152.759 83.6937C152.975 84.3403 153.04 84.8282 152.982 85.1392L152.97 85.1961C152.904 85.47 152.713 85.8609 152.393 86.3494L152.332 86.4411L152.153 86.4975C136.789 91.4316 130.91 105.73 134.46 129.066L134.473 129.133L134.538 129.408C136.251 136.504 139.493 140.644 143.532 141.717C143.532 141.737 143.532 141.756 143.532 141.776C144.238 165.678 144.855 184.722 145.383 198.91L145.575 203.948L145.766 208.724C146.037 215.288 146.279 220.334 146.494 223.865L146.632 226.032C146.868 229.577 147.006 230.358 147.512 230.715L147.561 230.748L147.599 230.771C147.708 230.834 147.842 230.891 148.002 230.94C147.814 230.94 147.625 230.94 147.435 230.94L143.699 230.936C138.646 230.922 133.808 230.853 127.387 230.715L111.591 230.356C106.863 230.257 104.204 230.227 101.241 230.231L98.8441 230.242C92.0293 230.296 86.6722 230.599 82.1365 231.238C71.2315 232.775 64.748 236.386 61.8759 243.196C60.4098 246.672 61.1159 249.677 63.8081 252.017C66.1195 254.026 69.8799 255.545 74.9984 256.657L75.2842 256.718C84.0405 258.577 96.4731 259.25 112.239 259.013L113.209 258.998C120.615 258.87 128.209 258.566 137.35 258.074L146.451 257.559C149.649 257.374 152.943 257.185 154.115 257.122L155.701 257.04C159.07 256.873 161.242 256.81 162.582 256.852L164.085 256.909C185.811 257.705 202.767 256.618 213.675 254.057C218.651 252.889 222.211 251.44 224.202 249.792C226.358 248.006 226.73 245.857 225.131 243.96C220.145 238.039 211.96 234.694 198.737 232.911L198.054 232.821C188.581 231.592 177.116 231.097 157.49 230.973L157.598 230.966C158.086 230.932 158.47 230.537 158.489 230.048L159.909 190.218C159.949 190.219 159.99 190.218 160.033 190.215C161.888 190.088 163.144 188.941 165.433 184.628L165.705 184.11L166.017 183.507C166.575 182.476 168.057 180.876 169.327 179.504L169.327 179.504C170.161 178.604 170.904 177.802 171.234 177.324C171.918 177.458 172.912 177.563 174.217 177.64L174.38 177.649L173.345 180.162L173.325 180.215C173.196 180.609 173.405 181.04 173.803 181.177C187.459 185.873 194.882 182.208 196.8 172.339C199.534 158.264 192.133 151.193 175.078 151.373L175.348 142.363C176.396 142.215 177.377 141.793 178.257 141.079C180.747 139.058 182.198 134.871 182.485 128.529C183.458 106.984 177.17 93.4192 163.576 88.0568L163.114 87.8788L163.07 87.7571C162.83 87.0797 162.67 86.5311 162.589 86.1182L162.571 86.0253C162.486 85.5412 162.486 84.7318 162.581 83.6243C162.593 83.4864 162.572 83.3533 162.524 83.2329C165.873 80.5233 169.141 75.6556 170.736 70.6211L170.777 70.6351C170.793 70.6409 170.811 70.6469 170.828 70.6532L171.563 70.9144C172.045 71.0766 172.449 71.1811 172.862 71.2353C175.127 71.5328 176.505 70.0566 176.505 66.6307C176.505 65.3358 175.882 64.44 174.717 64.2358C173.954 64.1023 172.997 64.2789 171.809 64.742C172.376 57.2955 170.632 51.9692 167.076 48.6405C165.736 47.3865 164.168 46.4677 162.541 45.8742C164.054 45.4695 165.57 44.7846 166.748 43.8474C169.452 41.6971 170.305 38.463 168.754 34.2629L174.027 33.0863L174.069 33.0716C174.246 32.9984 174.29 32.5591 174.29 32.231C174.29 31.9029 174.021 31.527 173.818 31.5847L168.423 33.4428C166.688 29.5902 162.315 27.6905 157.791 28.4975ZM149.562 232.091L149.821 232.091C151.063 232.093 152.277 232.098 153.462 232.106C153.37 233.146 153.348 234.413 153.439 235.34H149.836C149.801 234.598 149.708 233.226 149.562 232.091ZM148.506 232.09C148.423 232.746 148.356 233.486 148.296 234.152C148.249 234.675 148.206 235.151 148.163 235.504C148.133 235.527 148.105 235.553 148.079 235.581C146.065 237.721 143.98 239.114 141.827 239.774L141.476 239.879C139.634 240.418 136.185 241.267 136.254 241.247C134.751 241.676 134.023 242.169 133.767 243.2C133.346 244.897 135.063 245.642 139.518 245.671L139.857 245.672C140.588 245.671 141.234 245.597 142.655 245.372L143.761 245.195C144.876 245.022 145.536 244.948 146.14 244.942L146.402 244.944C146.719 244.952 147.047 244.985 147.763 245.076L148.639 245.19C149.145 245.255 149.503 245.295 149.882 245.326C151.447 245.455 152.643 245.347 153.645 244.866C156.238 243.622 156.553 240.528 154.856 235.845C154.854 235.839 154.852 235.834 154.85 235.828C154.859 235.776 154.863 235.723 154.863 235.668V232.117C176.509 232.308 188.569 233.471 198.481 234.807L199.243 234.913C211.588 236.661 219.142 239.819 223.668 245.192C225.495 247.361 222.199 250.09 213.238 252.194C202.409 254.737 185.379 255.809 163.489 254.972L162.825 254.946C161.258 254.884 158.622 254.968 154.254 255.199L150.237 255.424C148.709 255.512 146.95 255.613 145.286 255.709C142.801 255.853 140.529 255.983 139.562 256.037L137.249 256.164C128.509 256.634 121.189 256.932 114.099 257.068L113.176 257.085C97.0834 257.361 84.4396 256.706 75.6815 254.847C65.5127 252.688 60.6761 249.15 62.8736 243.939C65.4077 237.931 71.9787 233.886 82.0957 232.412L82.4036 232.368C85.4274 231.941 88.8413 232.008 92.8403 232.086C94.8302 232.125 96.965 232.167 99.2688 232.152L101.243 232.144C104.447 232.14 125.806 231.829 125.806 231.829C133.284 231.995 138.607 232.074 144.29 232.086L148.506 232.09ZM161.235 84.1646C159.964 84.972 158.711 85.4305 157.563 85.4305C156.662 85.4305 155.695 85.1007 154.704 84.5038C154.738 84.847 154.73 85.164 154.675 85.4566C154.557 86.0817 154.188 87.1891 153.575 88.0546C153.558 88.0786 153.54 88.1016 153.521 88.1236C154.342 88.5891 155.613 89.0727 157.367 88.827C159.298 88.5563 160.366 87.8697 161.015 87.3361C160.914 86.3108 161.043 85.095 161.235 84.1646ZM161.226 88.362C160.424 89.4109 159.072 90.549 157.367 90.549C154.797 90.549 153.108 89.9112 152.56 88.5582C138.346 93.1733 132.083 106.012 135.296 128.126L135.392 128.773L135.444 128.993C137.416 137.182 142.067 140.779 146.647 140.218L146.787 140.199C150.888 139.623 154.885 135.675 155.955 131.177L156.113 130.5C156.911 127.028 157.396 123.958 157.396 121.435L157.393 120.389C157.367 114.893 157.132 110.826 156.836 109.032L156.815 108.909L156.782 108.998C156.657 109.336 156.524 109.75 156.383 110.238L156.341 110.387C155.695 112.678 154.937 116.402 154.075 121.577C153.442 125.38 143.27 130.154 143.118 129.703C143.071 129.563 143.904 128.989 145.089 128.173L145.09 128.172L145.095 128.169C145.556 127.851 146.071 127.496 146.607 127.117C146.588 127.081 146.569 127.044 146.549 127.004C145.051 123.998 144.127 121.361 143.786 119.081C143.449 116.827 144.236 107.757 144.736 107.76L144.799 107.762C145.051 107.78 144.996 108.955 144.914 110.697C144.824 112.596 144.703 115.169 144.913 117.65C145.142 120.343 146.336 123.057 147.166 124.942C147.395 125.463 147.596 125.92 147.742 126.296C149.934 124.669 152.131 122.766 152.377 121.294L152.572 120.134C153.347 115.595 154.038 112.245 154.646 110.055L154.684 109.919C155.016 108.739 155.327 107.896 155.633 107.36C156.115 106.517 156.844 106.079 157.611 106.688C158.463 107.366 158.889 110.28 159.045 115.592C159.176 113.213 159.392 111.287 159.686 109.844C159.931 108.639 160.23 107.766 160.602 107.214C161.131 106.431 161.958 106.164 162.711 106.69L162.761 106.727C164.377 107.964 165.466 113.964 165.53 121.767L165.533 122.42L165.549 122.511C166.535 126.241 168.58 128.415 170.436 129.717C174.223 123.512 172.019 112.017 171.084 107.141C170.814 105.736 170.65 104.88 170.766 104.86C171.285 104.766 171.783 105.111 171.877 105.631C173.074 112.247 173.69 117.138 173.723 120.33C173.757 123.558 173.216 126.961 172.105 130.536C172.089 130.588 172.069 130.638 172.045 130.684C172.611 130.975 173.108 131.186 173.483 131.344C173.967 131.549 174.248 131.668 174.212 131.763C174.042 132.207 167.179 132.207 163.822 122.633C163.811 122.6 163.811 122.552 163.811 122.509L163.811 122.494C163.811 118.5 163.537 114.94 163.057 112.223C162.838 110.986 162.583 109.964 162.309 109.214L162.273 109.115C162.151 108.794 162.031 108.542 161.929 108.367L161.925 108.359L161.903 108.402C161.723 108.773 161.538 109.376 161.373 110.188L161.346 110.323C161.263 110.751 161.158 111.225 161.044 111.745C160.552 113.988 159.875 117.071 159.859 120.915L159.858 121.488C159.858 128.192 164.571 136.31 169.928 139.491C175.495 142.796 180.263 139.547 180.765 128.451C181.727 107.145 175.844 92.8682 162.149 89.358C161.701 89.2434 161.407 88.8732 161.226 88.362ZM159.027 123.542C158.832 125.921 158.335 128.613 157.63 131.575C156.402 136.738 151.859 141.225 147.027 141.904C146.192 142.022 145.378 142.029 144.591 141.926C144.64 142.628 144.695 143.641 144.756 144.919C144.928 144.895 145.109 144.917 145.279 144.994C146.54 145.561 153.518 146.344 159.58 146.465L160.031 146.473C167.242 146.581 172.406 145.78 173.375 144.308L173.434 142.344C172.267 142.168 171.047 141.703 169.814 140.971C164.481 137.805 159.838 130.362 159.027 123.542ZM140.534 67.3784C140.385 65.1486 142.191 65.295 143.524 65.5491C143.808 66.9618 144.203 68.3881 144.686 69.7936L144.618 69.7917C143.137 69.7506 140.688 69.6827 140.534 67.3784ZM171.703 65.9104C171.676 66.1679 171.646 66.4279 171.614 66.6903C171.496 67.6392 171.304 68.6009 171.046 69.5616C172.771 69.7658 175.66 69.8786 175.121 66.0467C174.91 64.5544 172.987 65.3637 171.703 65.9104ZM157.306 45.075C158.042 45.0312 158.805 45.0573 159.577 45.1543C161.531 45.1303 164.455 44.2387 165.795 42.6494C171.052 36.4143 163.763 29.3505 158.103 30.2635C153.899 30.9415 149.932 33.8934 149.301 38.6161C148.998 40.8847 150.479 44.4975 157.306 45.075ZM146.063 180.565C146.862 204.016 147.723 229.263 148.111 229.938C148.177 230.057 149.175 230.066 149.966 230.073L149.967 230.073H149.971C150.178 230.075 150.372 230.077 150.53 230.081L150.956 230.087L151.439 230.088C152.611 230.082 154.088 230.027 155.868 229.923L156.61 229.878L159.536 160.157C159.455 158.571 157.992 156.758 157.009 155.539C156.423 154.814 156.008 154.299 156.154 154.168C156.543 153.82 159.584 157.23 160.145 158.436C160.155 158.477 160.168 158.532 160.181 158.598C160.526 157.694 161.012 156.744 161.645 155.758C161.873 155.402 164.767 151.388 162.702 155.526C158.281 164.389 163.289 167.991 172.03 168.023L172.062 168.023L172.066 168.023C172.138 168.023 172.192 168.024 172.311 168.009C175.715 167.576 179.408 167.776 182.318 168.155C185.177 168.528 190.121 171.313 184.525 172.885C183.188 173.261 181.04 173.034 178.56 172.495L177.887 172.383L173.948 180.352L174.629 180.499C186.568 184.296 193.492 180.753 195.244 172.313L195.297 172.048C197.796 159.184 192.432 151.223 175.057 152.072L175.035 152.828C175.019 153.356 174.578 153.771 174.049 153.755C173.521 153.739 173.106 153.298 173.122 152.77L173.139 152.197C167.056 152.643 171.04 151.879 173.159 151.539L173.303 146.731C170.798 148.005 166.182 148.481 160.045 148.387L159.542 148.378C153.597 148.259 146.945 147.546 144.845 146.87C145.163 154.149 145.603 167.058 146.063 180.563L146.063 180.565ZM176.184 173.267L174.764 176.715C173.78 176.565 173.101 176.391 172.592 176.26C172.423 176.217 172.273 176.179 172.137 176.147C171.952 174.777 171.957 173.783 172.129 173.197C172.28 172.687 172.497 172.399 172.78 172.27C173.39 172.469 174.108 172.686 174.935 172.921L175.556 173.095L176.184 173.267ZM170.843 176.243C170.918 176.194 170.997 176.157 171.079 176.131C170.873 175.028 170.871 173.35 171.044 172.764C171.161 172.365 171.261 172.051 171.395 171.798C171.199 171.731 170.899 171.577 170.531 171.389C168.836 170.521 165.675 168.903 164.283 171.442C161.935 175.725 159.871 189.181 160.472 189.185C161.326 189.191 163.497 186.154 164.926 183.456L164.99 183.336L165.358 182.619C166.48 180.443 168.272 177.93 170.843 176.243ZM177.547 171.536C177.24 171.482 176.937 171.619 176.772 171.872C176.707 171.832 176.635 171.802 176.557 171.782L171.258 170.474L171.141 170.408C167.112 168.13 164.507 168.324 162.689 170.86C162.044 171.76 161.722 172.891 161.566 174.391L161.548 174.581L161.525 174.84C161.505 175.1 161.488 175.368 161.472 175.7L161.407 177.084L161.395 177.293C161.375 177.619 161.355 177.831 161.326 178.031L161.308 178.15L161.249 178.472L161.213 178.637C161.193 178.727 161.168 178.829 161.135 178.956L161.041 179.314L160.466 181.389C160.364 181.862 160.267 182.308 160.176 182.726L160.792 165.45C162.728 167.853 166.841 169.118 172.717 168.753L173.201 168.726C173.429 168.714 173.659 168.702 173.89 168.689L173.897 168.689L173.94 168.687L173.948 168.686C176.508 168.549 179.285 168.399 181.801 168.958C188.075 170.352 185.509 171.633 184.956 171.909L184.923 171.925L184.907 171.934L184.835 171.968C183.951 172.361 181.877 172.281 177.958 171.608L177.547 171.536ZM136.464 242.398L136.673 242.336C136.572 242.367 144.14 241.295 148.19 237.082C148.954 236.287 153.594 236.871 153.594 236.871L153.598 236.883C155.345 239.774 155.596 242.781 153.406 243.667C152.632 243.98 151.326 244.292 150.007 244.183L149.816 244.166L149.545 244.139C149.36 244.12 149.16 244.096 148.926 244.066L147.622 243.898C146.936 243.814 146.633 243.794 146.219 243.794C145.495 243.794 142.016 244.305 142.016 244.305C140.954 244.468 140.413 244.523 139.855 244.524C137.618 244.527 136.209 243.978 135.517 243.695L135.451 243.667C135.389 243.639 135.338 243.612 135.299 243.586L135.256 243.556L135.253 243.569C135.333 243.245 135.604 242.66 136.464 242.398ZM170.319 66.6903C170.537 64.9192 170.609 63.2636 170.551 61.7246C167.9 62.7775 165.246 62.5841 162.99 61.2558C161.137 60.1645 159.467 58.4302 157.975 56.062L157.921 55.9743L157.871 56.0697C156.666 58.3576 155.111 60.1849 153.208 61.5423L153.016 61.6765C150.627 63.3208 147.824 64.0547 144.635 63.8804L144.648 63.937C146.466 71.9415 152.787 84.2739 157.667 84.5695C159.534 84.6825 162.243 81.6672 164.755 78.3984C167.467 74.8688 169.821 70.7235 170.319 66.6903ZM165.899 49.8977C168.287 52.1332 169.973 55.5484 170.44 60.1139C170.412 60.1228 170.384 60.1334 170.356 60.1458C168.012 61.1968 165.714 61.4663 163.767 60.3195C161.838 59.1838 160.085 56.8172 158.52 53.9702C158.214 53.412 157.399 53.4509 157.147 54.0359C157.097 54.1521 157.042 54.283 156.982 54.4265C156.29 56.0803 154.9 59.4047 151.885 61.1597C149.689 62.4373 146.45 62.7607 144.85 62.9204L144.848 62.9206L144.846 62.9209C144.703 62.9351 144.574 62.9481 144.459 62.9603C144.4 62.5878 144.355 62.2176 144.324 61.8502C146.151 61.5193 149.992 60.2543 151.536 59.2843C153.495 58.054 154.095 56.7982 155.092 54.7106C155.275 54.328 155.471 53.9173 155.691 53.4739C155.882 53.091 156.333 50.5393 155.264 52.4798C155.199 52.5976 155.13 52.7263 155.056 52.8645L155.055 52.8653L155.055 52.8658L155.055 52.8661C153.943 54.9454 151.683 59.1694 144.279 61.0962C144.135 56.8094 145.868 52.9681 148.402 50.484C150.768 48.164 154.347 46.63 157.067 46.3662C159.928 46.0887 163.386 47.5461 165.899 49.8977Z" fill="#00160A"/>
<path fill-rule="evenodd" clip-rule="evenodd" d="M88.4419 183.616C87.9838 178.733 85.7115 173.9 82.1105 170.582C79.4886 168.165 75.7309 166.142 72.2245 167.872C66.8301 171.092 65.3815 177.699 65.9254 183.616C66.5997 190.949 70.0252 195.471 76.6058 198.172C80.3137 199.693 82.7785 201.7 84.7913 205.198C86.4013 207.994 87.3401 211.497 89.3633 214.032C92.3881 217.822 96.1733 219.507 100.839 218.877C101.764 218.877 104.743 221.651 105.673 223.331C108.105 227.718 110.191 232.351 111.149 237.305C111.428 238.751 111.231 244.159 112.218 245.203C114.022 247.112 113.493 243.436 113.386 242.326C112.489 233.137 109.19 225.308 104.4 217.583C105.872 215.661 106.084 210.77 105.622 209.227C104.4 204.443 89.3643 193.446 88.4419 183.616Z" fill="white"/>
<path fill-rule="evenodd" clip-rule="evenodd" d="M71.6725 166.763L71.6457 166.777C66.6346 169.768 64.8018 173.948 65.1617 183.65C65.5398 193.845 69.2374 195.652 75.8757 198.441L76.0778 198.525C79.8043 200.054 82.1544 202.047 84.0769 205.388L84.2311 205.66C84.5671 206.266 84.8671 206.884 85.2902 207.828L86.0482 209.547C87.0712 211.855 87.723 213.069 88.6815 214.27C91.8277 218.212 95.7628 219.896 100.507 219.256L100.552 219.247L100.596 219.233C101.331 218.943 103.831 221.485 104.956 223.516C107.688 228.446 109.452 232.747 110.331 237.075L110.391 237.377C110.447 237.67 110.484 238.121 110.528 238.977L110.588 240.245C110.602 240.541 110.615 240.798 110.63 241.041L110.638 241.186C110.781 243.545 111.015 244.892 111.557 245.465C112.28 246.23 112.948 246.375 113.314 245.71C113.522 245.332 113.571 244.721 113.526 243.862L113.508 243.575C113.498 243.429 113.485 243.276 113.469 243.113L113.345 241.908C112.468 233.552 109.614 225.97 104.574 217.754L104.476 217.595L104.538 217.496C105.744 215.504 106.184 211.046 105.606 209.116C104.618 205.82 102.663 203.151 99.1061 199.634L98.4867 199.023C92.4726 193.075 90.4552 190.006 88.8022 183.459L88.2333 181.194L88.219 181.138C86.8614 175.904 85.4365 172.789 82.7421 170.306C79.5094 167.327 74.9649 165.138 71.6725 166.763ZM82.2235 170.869C84.6953 173.147 86.4428 176.025 87.726 180.819L88.0019 181.879L88.3858 183.419C88.8022 187.545 90.0889 192.407 97.9491 199.568L98.3669 199.98C101.968 203.514 103.912 206.132 104.873 209.336C105.419 211.158 104.919 215.776 103.714 217.349C103.617 217.476 103.609 217.648 103.693 217.784C108.818 226.05 111.705 233.627 112.583 241.982L112.691 243.023L112.721 243.338C112.735 243.489 112.745 243.631 112.754 243.767L112.762 243.902C112.799 244.617 112.758 245.133 112.643 245.341L112.638 245.354L112.651 245.358C112.55 245.337 112.363 245.203 112.113 244.939C111.767 244.573 111.542 243.327 111.412 241.305L111.385 240.851L111.286 238.807C111.245 238.033 111.208 237.598 111.151 237.279L111.142 237.232C110.268 232.711 108.457 228.255 105.625 223.145L105.563 223.034C104.239 220.708 101.668 218.104 100.377 218.499L100.369 218.502L100.405 218.497C95.934 219.1 92.2619 217.529 89.2797 213.792C88.347 212.624 87.7079 211.416 86.6585 209.035L86.1176 207.804C85.5469 206.519 85.1941 205.794 84.7402 205.006C82.7675 201.578 80.3383 199.486 76.5786 197.904L76.3684 197.817C69.8606 195.146 66.5792 190.708 65.9238 183.58L65.9051 183.367C65.3525 176.785 67.3284 171.107 71.8899 168.29L72.0243 168.208L72.0111 168.214C74.967 166.756 79.1987 168.081 82.2235 170.869Z" fill="#00160A"/>
<path fill-rule="evenodd" clip-rule="evenodd" d="M109.638 218.993C111.852 219.333 113.781 218.037 114.523 215.877C115.165 214.01 115.228 211.838 115.956 210.073C116.458 208.857 117.257 207.825 118.233 206.952C120.809 204.649 123.498 204.073 124.266 200.252C124.868 197.256 124.12 191.149 119.939 191.758C117.03 192.184 114.68 196.071 113.325 198.522C111.648 201.555 110.084 204.806 109.203 208.138C107.752 213.627 107.556 219.719 107.538 225.34C107.536 226.017 107.394 234.292 108.362 234.156C109.32 234.022 108.713 225.433 108.795 223.654" fill="white"/>
<path fill-rule="evenodd" clip-rule="evenodd" d="M78.1467 173.08C77.4097 173.458 77.5542 174.674 78.4359 176.844C79.3193 179.018 80.622 180.656 81.9529 181.4C83.3142 182.162 84.5575 181.848 84.9011 180.512C85.2111 179.307 83.0908 176.292 80.8394 174.298C79.6677 173.26 78.7531 172.769 78.1467 173.08ZM80.332 174.871C82.139 177.056 84.3661 179.903 84.1599 180.704C83.9582 181.488 83.2933 181.656 82.3265 181.115C81.1609 180.463 79.7581 178.612 78.9359 176.588L78.8149 176.283C78.063 174.834 78.0651 173.525 78.496 173.378C78.906 173.238 79.7948 174.222 80.332 174.871ZM116.064 196.848C115.764 196.027 116.667 195.015 118.333 194.286C120.122 193.503 121.286 193.447 121.28 194.421C121.276 195.079 120.388 195.999 119.034 196.826C117.661 197.664 116.379 197.709 116.064 196.848ZM120.504 194.473C120.473 194.469 120.435 194.466 120.388 194.466L120.338 194.468C120.288 194.47 120.227 194.469 120.153 194.466C119.694 194.453 118.75 194.427 116.985 195.302C116.607 195.49 116.365 196.488 116.401 196.585C116.487 196.822 117.615 197.178 118.635 196.555C119.06 196.296 119.433 195.838 119.737 195.465L119.737 195.465C119.865 195.308 119.98 195.166 120.082 195.061C120.311 194.824 120.45 194.619 120.497 194.494L120.504 194.473ZM117.616 201.914L117.431 202.213C116.622 203.533 116.132 204.469 115.936 205.059C115.673 205.849 115.954 206.407 116.685 206.168C117.352 205.95 118.636 204.871 120.234 203.295C121.526 202.02 122.172 200.082 121.677 199.153C121.003 197.892 119.431 198.995 117.616 201.914ZM121.002 199.131C121.307 199.704 120.774 201.687 119.696 202.75L119.334 203.103C119.053 203.375 118.752 203.679 118.454 203.981L118.454 203.981C117.537 204.909 116.644 205.813 116.429 205.655C116.179 205.472 116.993 203.749 117.883 202.318C118.741 200.938 119.866 199.664 120.435 199.265C120.805 199.006 120.937 199.011 121.002 199.131ZM110.364 213.718C110.147 215.161 110.341 216.238 111.07 216.387C111.819 216.541 112.615 215.543 113.502 213.508C114.349 211.565 114.128 209.724 113.019 209.445C111.876 209.158 110.838 210.751 110.387 213.571L110.364 213.718ZM112.832 210.188C113.327 210.312 113.584 211.61 112.944 213.276C112.441 214.585 111.07 217.694 110.707 215.26C110.652 214.89 110.652 214.406 110.738 213.832L110.785 213.542C111.179 211.223 112.326 210.06 112.832 210.188ZM70.7177 189.65C68.8436 187.606 67.7338 185.058 68.656 183.944C69.7549 182.616 74.8263 187.21 74.7601 189.505C74.7215 190.845 74.1387 191.532 73.1728 191.356C72.4568 191.226 71.584 190.595 70.7177 189.65ZM69.2427 184.053L69.2162 184.088C68.7139 184.816 69.3008 187.389 70.8992 189.133C71.6623 189.965 72.7988 190.893 73.3099 190.986C73.7366 191.063 73.9685 190.79 73.9951 189.866C74.0196 189.017 73.0747 187.241 71.6915 185.988C71.5385 185.849 71.3557 185.663 71.1573 185.46L71.1573 185.46C70.5561 184.846 69.8122 184.086 69.3248 184.08C69.2473 184.079 69.2306 184.071 69.2427 184.053ZM91.3927 211.967C91.8201 213.825 92.6643 215.034 93.8077 215.697C94.5829 216.147 95.3026 216.279 96.1273 216.279C97.8968 216.279 98.7177 215.491 98.4097 214.21C98.1787 213.25 97.2902 212.057 96.1065 211.017C94.9262 209.98 93.6603 209.277 92.7403 209.219C91.4829 209.141 90.9761 210.156 91.3927 211.967ZM92.6927 209.983C93.4044 210.027 94.537 210.657 95.6013 211.592C96.6773 212.537 97.4791 213.614 97.6656 214.389C97.8441 215.131 97.4463 215.896 96.1273 215.896C95.4252 215.896 94.8272 215.786 94.1916 215.418C93.2383 214.865 92.1373 213.453 91.7558 211.795C91.4386 210.416 92.0572 209.943 92.6927 209.983ZM94.5867 204.107C93.0026 202.79 92.2447 201.407 92.701 200.646C93.2207 199.779 94.5818 200.343 95.9605 201.858C96.823 202.806 98.0311 204.445 98.3876 205.255C98.5328 205.585 98.582 205.831 98.471 206.056C98.303 206.395 97.9686 206.404 97.5775 206.244C97.0784 206.04 96.2342 205.453 94.9868 204.436L94.5867 204.107ZM93.8028 201.102C93.635 201.032 93.5016 201.008 93.4145 201.018C93.3738 201.023 93.3638 201.029 93.3574 201.04C93.3478 201.056 93.3304 201.077 93.3091 201.103C93.202 201.235 92.9958 201.488 93.1746 201.814C93.456 202.327 94.3535 203.301 95.0758 203.901C96.0403 204.702 97.0513 205.265 97.6531 205.6C97.7656 205.662 97.8639 205.717 97.9449 205.764L97.9959 205.792L97.9394 205.686C97.5234 204.926 96.1951 203.271 95.4797 202.468L95.3945 202.373C94.7935 201.713 94.2391 201.283 93.8028 201.102ZM77.777 193.758C77.3207 194.519 78.0786 195.902 79.6627 197.219L80.0628 197.548C81.3102 198.565 82.1544 199.152 82.6535 199.356C83.0446 199.516 83.379 199.507 83.547 199.168C83.658 198.943 83.6088 198.697 83.4635 198.367C83.1071 197.557 81.899 195.918 81.0365 194.97C79.6578 193.455 78.2967 192.891 77.777 193.758ZM78.4905 194.13C78.5776 194.12 78.711 194.145 78.8788 194.214C79.3151 194.395 79.8695 194.825 80.4705 195.485L80.5557 195.58C81.2711 196.383 82.2168 198.038 82.6327 198.798L82.6892 198.904L82.6382 198.876C82.1245 198.579 81.2968 197.964 80.1518 197.013C79.4295 196.413 78.532 195.439 78.2506 194.926C78.0718 194.6 78.278 194.347 78.3851 194.215C78.4064 194.189 78.4238 194.168 78.4334 194.152C78.4398 194.141 78.4498 194.135 78.4905 194.13ZM87.316 194.923C85.732 193.606 84.9741 192.223 85.4303 191.462C85.95 190.595 87.3111 191.159 88.6899 192.674C89.5523 193.622 90.7604 195.261 91.1169 196.071C91.2621 196.401 91.3114 196.647 91.2003 196.872C91.0324 197.211 90.6979 197.22 90.3069 197.06C89.8077 196.856 88.9636 196.269 87.7162 195.252L87.316 194.923ZM86.5322 191.918C86.3644 191.849 86.2309 191.824 86.1438 191.834C86.1031 191.839 86.0932 191.845 86.0868 191.856C86.0849 191.859 86.083 191.862 86.0809 191.865C86.0155 191.974 85.8213 192.295 86.029 192.674C86.3104 193.188 87.1332 194.488 87.4225 194.717C88.2815 195.397 89.3591 195.924 90.073 196.273C90.3292 196.399 90.5385 196.501 90.6742 196.58L90.7252 196.608L90.6687 196.502C90.2528 195.742 88.9244 194.087 88.209 193.284L88.1239 193.189C87.5228 192.529 86.9685 192.099 86.5322 191.918Z" fill="#8DC73F"/>
<path fill-rule="evenodd" clip-rule="evenodd" d="M119.884 191.38C121.996 191.072 123.864 192.294 124.64 194.528C125.25 196.283 124.987 198.604 124.641 200.327C124.197 202.538 123.272 203.719 121.234 205.182L120.009 206.042C119.586 206.343 119.239 206.605 118.908 206.878C118.763 206.997 118.624 207.116 118.488 207.237C117.503 208.119 116.768 209.112 116.31 210.219L116.248 210.375C116.005 210.996 115.852 211.612 115.631 212.76L115.441 213.765C115.248 214.765 115.103 215.367 114.885 216.002C114.048 218.438 112.279 219.728 109.963 219.372C109.754 219.34 109.068 219.392 110.606 219.08C112.143 218.769 113.436 217.862 114.161 215.753C114.365 215.159 114.504 214.583 114.69 213.614L114.881 212.604C115.13 211.316 115.299 210.664 115.603 209.927C116.106 208.708 116.91 207.622 117.978 206.667C118.122 206.539 118.269 206.412 118.421 206.287C118.725 206.037 119.039 205.797 119.405 205.533L119.778 205.269C120.086 205.052 120.556 204.725 120.652 204.657L120.916 204.467C122.718 203.153 123.883 202.12 124.273 200.177C124.594 198.583 124.098 196.401 123.535 194.779C122.867 192.858 121.691 191.508 119.995 191.755C117.497 192.12 111.296 201.196 109.582 206.753C108.171 211.325 107.813 218.344 107.907 224.646L107.922 225.544L107.92 226.783C107.921 227.786 107.93 228.624 107.957 229.496L107.964 229.715C108.006 230.976 108.079 232.012 108.188 232.757C108.224 233.003 108.263 233.213 108.305 233.384L108.327 233.468L108.338 233.416C108.386 233.186 108.425 232.886 108.454 232.521L108.464 232.396L108.481 232.133C108.528 231.318 108.538 230.275 108.518 228.973L108.5 228.063C108.492 227.728 108.483 227.369 108.471 226.951L108.407 224.546C108.4 224.173 108.4 223.977 108.406 223.794L108.435 223.098C108.456 222.532 108.468 221.944 108.483 221.01L108.505 219.656C108.563 216.562 108.676 215.021 109.044 213.127C109.1 212.841 109.161 212.559 109.227 212.28C110.192 208.214 112.271 205.287 114.281 201.701C114.885 200.624 118.055 198.975 118.084 199.184C118.113 199.393 115.37 200.631 114.538 202.016C112.766 204.962 110.915 208.482 109.971 212.457C109.908 212.725 109.849 212.997 109.795 213.273L109.726 213.645C109.423 215.326 109.323 216.832 109.27 219.679L109.23 222.05C109.22 222.532 109.208 222.916 109.193 223.307L109.17 223.875C109.165 224.085 109.167 224.343 109.18 224.897L109.262 227.9C109.269 228.195 109.274 228.467 109.279 228.74L109.292 229.617C109.328 233.022 109.169 234.43 108.415 234.536C107.824 234.618 107.602 234.044 107.43 232.868C107.323 232.134 107.251 231.151 107.207 229.965L107.199 229.74C107.167 228.778 107.155 227.879 107.154 226.785L107.155 225.35C106.993 218.801 107.744 211.356 109.233 206.527C111.03 200.706 116.987 191.804 119.884 191.38Z" fill="#00160A"/>
<ellipse cx="108.295" cy="238.018" rx="14.924" ry="11.0973" fill="white"/>
<ellipse cx="102.365" cy="238.018" rx="8.99452" ry="11.0973" fill="#E7EAEE"/>
<path fill-rule="evenodd" clip-rule="evenodd" d="M123.219 226.443H93.3707C93.1065 226.443 92.8923 226.658 92.8923 226.922C92.8923 235.097 93.6638 240.187 95.7137 243.72C98.0251 247.705 102.007 249.595 108.295 249.595C114.582 249.595 118.564 247.705 120.876 243.72C122.926 240.187 123.697 235.097 123.697 226.922C123.697 226.658 123.483 226.443 123.219 226.443ZM94.6151 227.4H122.357L122.356 227.51C122.32 235.183 122.324 239.977 120.431 243.24C118.307 246.902 114.265 249.021 108.295 249.021C102.324 249.021 98.6651 246.519 96.5412 242.858L96.4699 242.733C94.6534 239.516 94.6717 235.212 94.6175 227.812L94.6151 227.4Z" fill="#00160A"/>
</svg>
