<svg width="260" height="260" viewBox="0 0 260 260" fill="none" xmlns="http://www.w3.org/2000/svg">
<rect width="260" height="260" fill="white"/>
<path fill-rule="evenodd" clip-rule="evenodd" d="M147.711 215.553C172.819 215.553 194.854 196.875 182.479 171.507C170.105 146.138 216.084 146.958 229.59 129.425C246.062 108.042 241.292 17.2781 135.551 72.6125C118.613 81.4764 75.1114 63.4936 60.6818 72.4163C43.6967 82.9193 19.7996 104.426 43.6967 126.456C55.4679 137.308 13.2653 165.475 31.7492 190.704C49.7849 215.322 62.4275 191.854 89.8866 196.875C117.346 201.897 129.063 215.553 147.711 215.553Z" fill="#DEFBB8"/>
<path d="M118.567 171.419C118.567 171.419 124.349 168.699 126.507 166.807C128.665 164.915 131.349 160.214 131.349 160.214C131.349 160.214 160.823 181.501 180.042 178.464C184.47 177.765 193.098 174.822 193.648 169.636C195.151 155.475 174.363 151.856 178.904 144.675C181.676 140.291 190.286 146.815 190.286 146.815L225.999 164.381C225.999 164.381 213.661 194.794 183.72 196.013C146.889 197.512 118.567 171.419 118.567 171.419Z" fill="white"/>
<path fill-rule="evenodd" clip-rule="evenodd" d="M90.253 52.3137C89.9178 52.1821 88.1177 49.978 85.8324 49.5768C84.7939 49.3945 85.7364 50.7169 84.5935 50.7288C81.1896 50.7642 75.6579 50.1247 74.6331 50.7288C73.8715 51.1763 75.5488 52.7397 74.6331 52.8115C65.9936 53.4887 52.8135 62.1149 49.9539 66.2999C49.0439 67.6317 56.4041 65.3721 55.2314 66.0305C53.9152 66.7695 52.4554 71.6085 51.5826 75.3458C50.9784 77.9194 50.5979 81.2315 50.4637 84.8345C50.3518 87.9452 50.3965 88.4599 50.8441 90.1608C51.3588 92.063 51.7617 92.6225 52.4554 92.3539C52.7016 92.2644 52.8135 91.9287 52.8135 91.3021C52.8135 90.8097 53.082 89.3327 53.4177 88.0124L53.9996 85.6402L54.2457 86.6249C54.559 87.7662 56.3941 91.3021 58.0502 93.8757C58.1395 94.0123 58.5238 93.8385 58.8703 93.001C59.1861 92.2377 59.0579 91.0184 59.5943 89.7116C60.8163 86.7348 63.2155 82.8645 65.9936 79.7665C70.0995 75.1878 71.4617 69.8889 75.3105 65.6353C82.4931 57.6973 91.5077 52.8063 90.253 52.3137Z" fill="white"/>
<path fill-rule="evenodd" clip-rule="evenodd" d="M55.3335 67.1108C54.1814 68.0373 52.4711 75.5525 52.4417 75.6781C51.8375 78.2517 51.255 87.1889 51.8504 88.8809C52.4458 90.573 54.1129 84.4735 54.1129 84.4735C54.1129 84.4735 56.6327 91.0166 58.8592 92.8106C58.9543 92.8872 56.2127 84.7154 55.3335 79.9448C54.173 73.6474 55.9893 66.5835 55.3335 67.1108Z" fill="#E7EAEE"/>
<path fill-rule="evenodd" clip-rule="evenodd" d="M98.2787 198.728C100.427 198.258 104.052 196.621 105.44 196.061C106.828 195.502 111.057 189.53 112.579 182.794C113.675 177.825 114.235 170.754 113.608 169.568C113.516 169.399 113.177 166.183 114.078 167.234C116.081 169.568 118.459 173.232 125.961 166.666C128.005 164.877 130.713 162.57 130 160.529C128.005 154.82 119.356 143.325 118.037 142.454C116.461 141.413 108.492 142.297 96.634 138.797C83.1856 134.828 77.5857 123.14 72.3229 124.661C68.0669 125.892 57.8698 133.453 55.3106 138.242C43.2288 160.848 57.8698 176.689 61.2041 181.239L64.4415 182.637L64.5534 185.524L64.71 187.337C65.0009 190.805 65.1128 191.119 66.6794 192.282C70.5957 195.259 78.3165 198.034 85.2988 199.018C88.5438 199.466 95.5932 199.309 98.2787 198.728Z" fill="white"/>
<path fill-rule="evenodd" clip-rule="evenodd" d="M65.7145 184.468L65.8712 186.28C66.1621 189.749 66.274 190.062 67.8406 191.226C70.1509 192.982 73.7853 194.668 77.8111 195.957C80.6094 196.854 83.5968 197.558 86.46 197.962C89.705 198.41 96.7544 198.253 99.4399 197.671C100.767 197.384 89.8486 188.806 83.4164 191.226C78.4767 193.085 66.834 178.906 71.5678 175.202C76.878 171.047 67.1473 154.658 66.834 151.1C66.5207 147.542 65.2869 146.691 65.2509 146.816C65.2149 146.941 65.2149 147.367 65.3117 148.392C65.7292 152.814 65.7145 184.468 65.7145 184.468Z" fill="#E7EAEE"/>
<path fill-rule="evenodd" clip-rule="evenodd" d="M64.5487 150.084C65.0185 149.992 65.4735 150.299 65.5649 150.769C67.2539 159.446 74.3983 165.321 87.1735 168.393C100.025 171.483 108.778 171.316 113.39 168.018C113.78 167.739 113.489 170.124 113.204 170.306C110.196 172.236 99.9683 175.114 87.7629 172.512C72.1572 169.186 64.8297 156.064 63.8635 151.1C63.7721 150.63 64.0788 150.175 64.5487 150.084Z" fill="#8DC73F"/>
<path fill-rule="evenodd" clip-rule="evenodd" d="M58.0409 134.427C58.4563 134.189 73.9564 151.954 95.2277 155.975C116.499 159.996 121.649 157.439 122.477 151.954C122.549 151.481 122.99 151.155 123.463 151.226C123.937 151.298 124.263 151.739 124.191 152.213C123.142 159.164 113.299 160.817 94.9362 157.683C76.8039 154.589 64.3723 147.238 57.7191 135.61C57.4814 135.194 57.6255 134.665 58.0409 134.427Z" fill="#8DC73F"/>
<path fill-rule="evenodd" clip-rule="evenodd" d="M147.32 133.442C146.738 133.241 146.112 132.793 145.709 132.279L145.038 131.451L147.41 129.101C151.058 125.52 153.855 121.85 156.272 117.486C157.078 116.031 159.114 111.175 159.114 110.705C159.114 110.549 159.36 109.922 159.651 109.273C160.099 108.333 160.435 107.975 161.397 107.438C162.538 106.767 163.836 106.543 164.396 106.923C165.47 107.639 165.47 109.9 164.396 113.794C163.21 118.068 161.621 121.134 158.331 125.543C157.816 126.214 156.854 127.534 156.16 128.452C154.303 130.914 153.094 132.1 151.46 133.017C149.849 133.912 148.909 134.024 147.32 133.442ZM163.389 131.428L165 132.144C165.334 132.299 169.02 134.07 173.447 136.197C180.585 139.627 189.651 143.983 189.706 143.983C189.796 143.983 190.216 143.012 190.311 141.879C190.534 139.44 191.362 136.128 192.325 133.823C192.772 132.793 193.13 131.507 193.13 131.395C193.13 131.344 192.767 131.197 192.171 130.957C191.462 130.671 190.424 130.252 189.281 129.705C183.642 126.997 172.609 121.47 171.244 120.642C169.901 119.858 169.632 119.791 169.632 120.306C169.632 120.977 168.267 124.088 167.215 125.766C166.656 126.684 165.559 128.34 164.776 129.437L163.389 131.428ZM189.326 139.955C189.968 140.327 188.856 140.872 188.587 140.962C187.006 141.096 185.145 140.799 183.619 139.91C182.822 139.344 176.542 135.856 172.376 133.541C170.472 132.483 169.01 131.671 168.715 131.495C167.775 130.936 166.88 130.332 166.723 130.153C166.253 129.548 166.701 129.28 168.021 129.392C168.815 129.459 187.94 139.151 189.326 139.955ZM104.467 196.315L104.467 196.315L104.469 196.314L104.47 196.313C104.886 196.138 105.244 195.987 105.516 195.877C106.904 195.317 111.133 189.345 112.655 182.609C113.752 177.641 114.311 170.569 113.685 169.383C113.307 168.696 115.551 171 117.222 172.716L117.222 172.716L117.223 172.717L117.223 172.717C117.73 173.237 118.184 173.703 118.496 174.016C128.253 183.706 142.777 191.494 157.861 195.142C165.38 196.977 170.729 197.626 177.913 197.626C189.975 197.626 199.486 195.253 208.124 190.039C208.535 189.791 208.919 189.564 209.286 189.347C212.297 187.564 214.091 186.502 219.001 180.976C224.508 174.777 229.407 160.387 231.041 155.419C231.757 153.181 233.502 144.28 233.502 142.058C233.502 139.429 232.585 138.187 231.332 136.911C229.116 134.74 226.117 133.957 223.633 134.897L222.469 135.345L222.111 134.159C221.597 132.368 220.522 130.936 218.866 129.862C216.405 128.228 216.047 128.116 213.831 128.116C212.108 128.116 211.638 128.206 210.541 128.72L209.266 129.302L208.997 128.497C208.482 126.841 206.756 124.532 205.417 123.864C204.229 123.272 202.172 123.218 200.739 123.484C197.606 124.066 195.368 125.52 194.451 127.557C194.182 128.183 193.847 128.676 193.712 128.676C193.6 128.676 189.192 127.444 183.933 125.117C183.047 124.724 182.216 124.355 181.435 124.009L181.43 124.007C171.986 119.821 169.939 118.914 170.125 117.777C170.281 116.815 170.237 116.278 169.968 115.45C169.498 114.062 168.961 113.682 167.439 113.682C166.231 113.682 166.231 113.682 166.365 113.077C167.081 109.653 167.059 107.684 166.298 106.431C165.783 105.603 165.179 105.267 163.791 105.066C162.986 104.954 162.605 105.021 161.71 105.513C161.106 105.827 160.591 106.05 160.546 106.006C160.502 105.961 160.658 104.73 160.904 103.275C162.74 92.511 161.322 83.2364 156.645 73.3896C156.6 73.2959 156.548 73.1851 156.489 73.0584L156.488 73.0565C155.067 70.0037 149.349 57.7287 132.998 51.5349C132.258 51.2545 131.557 50.9834 130.884 50.7229C125.314 48.5669 121.611 47.1337 112.677 47.1486C102.664 47.1652 99.2724 48.5808 92.6705 51.602C91.753 52.0272 90.9474 52.2734 90.8802 52.1839C90.8131 52.072 90.3879 51.8034 89.9627 51.5796C89.5375 51.3558 88.6199 50.7963 87.9486 50.3488C86.024 49.0508 84.8379 48.5137 84.2336 48.648C83.5399 48.827 83.5399 49.4088 84.2336 49.6774C84.5246 49.7893 84.8602 50.1697 84.9945 50.5502C85.2854 51.3558 85.6211 51.4453 85.8225 50.774C85.9121 50.5278 86.0463 50.3488 86.1135 50.3935C86.1389 50.4062 86.224 50.4461 86.3539 50.5069L86.3542 50.507L86.3544 50.5071C86.6815 50.6603 87.2921 50.9461 87.9486 51.2663C88.8661 51.7139 89.8732 52.1839 90.1417 52.2957C90.634 52.4748 90.4774 52.6091 88.3514 53.8623C80.0487 58.7409 73.2902 66.3274 69.5082 74.9658C68.9263 76.2638 68.4116 77.0694 67.8745 77.517C66.5094 78.6583 63.8239 81.9033 63.1973 83.1789C62.8616 83.8727 62.1454 84.9469 61.586 85.5735C61.0489 86.2001 60.467 87.0057 60.2656 87.3414C60.0866 87.6995 59.9075 87.9457 59.8404 87.9009C59.7956 87.8338 59.8628 86.7372 60.0194 85.4616C60.3551 82.4852 60.3551 81.7019 60.0866 81.6348C59.6837 81.5229 59.1019 83.0894 58.8557 85.0364C58.6767 86.2225 58.6319 88.0128 58.7438 89.8479L58.8781 92.7572L57.2892 90.1836C56.7419 89.3216 56.2029 88.4595 55.8207 87.8482C55.5777 87.4596 55.3981 87.1723 55.3198 87.0505C54.738 86.2001 54.4023 84.9245 54.6484 84.4993C54.7827 84.2531 54.7603 84.1412 54.5365 84.1412C54.0666 84.1412 53.149 85.6406 52.5448 87.3638C52.2539 88.1695 51.9629 88.8408 51.8734 88.8408C51.5377 88.8408 51.6944 80.8291 52.0525 78.2555C52.791 73.1755 54.738 66.9093 55.6107 66.9093C55.7898 66.9093 55.9464 66.8198 55.9464 66.6855C55.9464 66.2827 55.3646 66.4393 54.8946 66.9541C53.8428 68.0954 52.4553 71.6089 51.5825 75.3462C50.9783 77.9198 50.5978 81.2319 50.4635 84.835C50.3517 87.9457 50.3964 88.4604 50.844 90.1612C51.3587 92.0634 51.7615 92.6229 52.4553 92.3544C52.7015 92.2648 52.8134 91.9291 52.8134 91.3025C52.8134 90.8102 53.0819 89.3332 53.4176 88.0128L53.9994 85.6406L54.2456 86.6253C54.5589 87.7666 56.394 91.3025 58.0501 93.8761C59.1914 95.6217 59.2138 95.7336 59.5942 98.4638C59.7956 100.008 60.4223 103.764 61.8769 109.542C63.1622 114.646 70.3876 119.71 72.1917 120.975C72.4294 121.141 72.573 121.242 72.5965 121.268C72.8203 121.514 73.1336 121.649 73.3126 121.581C73.514 121.514 73.6259 121.604 73.6259 121.85C73.6259 122.074 73.7826 122.365 73.9616 122.499C74.1854 122.656 74.3421 123.26 74.3868 124.312C74.4987 126.415 76.0653 130.444 77.2737 131.764C78.057 132.614 79.6907 132.972 81.5034 132.659C82.6895 132.48 83.0252 132.346 82.9133 132.077C82.8461 131.898 83.2713 132.122 83.8532 132.57C90.6564 137.762 97.5492 140.872 105.292 142.215C108.291 142.73 113.259 143.021 115.967 142.819C117.703 142.706 118.181 142.674 118.269 142.845C118.303 142.91 118.281 143.003 118.25 143.133C118.093 143.759 118.295 144.14 121.584 149.712C124.203 154.121 124.427 154.412 127.336 157.388C133.512 163.766 140.249 168.712 147.88 172.539C155.064 176.119 166.533 179.096 177.017 180.036C187.502 180.976 195.033 171.353 195.01 168.891C194.965 165.512 194.495 163.296 193.354 161.148C192.235 159.066 191.497 158.35 188.14 156.112C184.403 153.628 182.097 151.592 180.576 149.421C179.613 148.056 179.255 146.512 179.255 145.684C179.255 145.147 179.949 143.938 180.979 143.692C181.918 143.446 182.097 143.468 183.149 143.983C183.776 144.274 185.41 145.035 186.752 145.684C188.117 146.31 189.438 146.937 189.706 147.071C190.498 147.291 190.833 148.841 191.014 149.681L191.014 149.681C191.055 149.869 191.088 150.021 191.116 150.115C191.43 151.279 192.912 152.781 193.869 153.293C195.549 154.191 199.688 154.311 200.829 153.08C201.12 152.767 202.085 152.382 202.283 152.498C202.482 152.615 203.201 153.584 203.201 154.367C203.223 155.71 203.917 156.94 205.394 158.171C208.192 160.499 210.362 161.058 212.555 160.029C213.697 159.492 214.632 159.282 214.632 159.282C214.632 159.282 215.565 160.472 215.621 160.879C216.061 164.059 220.768 165.392 222.022 165.526C222.309 165.555 222.868 165.432 223.436 165.307C224.195 165.14 224.97 164.97 225.132 165.154C225.452 165.514 219.784 174.889 219.001 176.075C211.548 187.264 197.047 194.112 179.3 194.828C167.775 195.298 153.609 192.076 141.323 186.212C133.468 182.43 126.508 177.798 119.056 171.308C117.758 170.189 116.258 168.913 115.721 168.466C115.184 168.041 113.908 166.586 112.924 165.243C111.268 163.005 110.328 162.2 110.328 162.96C110.328 163.296 111.402 165.355 112.633 167.392C113.125 168.197 113.438 168.757 113.326 168.667C113.215 168.578 112.857 170.189 112.521 172.248C111.424 178.85 109.612 185.362 107.776 189.413C106.769 191.606 104.838 193.244 104.257 193.691C102.108 195.325 98.8919 196.059 94.4385 196.507C88.799 197.066 80.4963 195.813 74.163 193.441C72.4846 192.814 68.1654 191.001 67.8745 190.8C67.857 190.783 67.758 190.139 67.6197 189.242L67.6197 189.241L67.6196 189.241L67.6195 189.24C67.5805 188.987 67.5384 188.713 67.4941 188.428C66.6884 182.9 65.5694 161.618 65.5694 151.771C65.5694 147.698 65.5247 146.803 65.2561 146.803C64.6967 146.803 64.4729 147.34 64.2267 149.264C63.6672 153.651 63.7791 176.545 64.3834 181.356L64.5176 182.453L63.7567 182.027C62.593 181.356 58.162 176.858 56.6178 174.777C55.3106 172.997 54.5336 170.719 53.9523 169.014C53.8171 168.617 53.6925 168.252 53.5742 167.931C50.3293 158.934 51.4706 148.839 55.9464 139.753C59.7509 132.01 64.4281 127.713 71.2761 125.632C72.3951 125.296 73.3798 124.938 73.4917 124.849C73.9169 124.446 71.1866 124.647 69.6872 125.117C64.8086 126.617 59.7061 130.712 56.2374 135.949C51.3587 143.289 49.1656 154.121 50.7097 163.363C51.0678 165.556 52.5224 170.301 52.9253 170.636C52.9609 170.672 53.145 171.058 53.4234 171.642C54.1931 173.257 55.6838 176.384 56.7521 177.798C58.0501 179.566 61.9664 183.415 63.6001 184.601L64.6295 185.34L64.7862 187.152C65.0771 190.621 65.189 190.934 66.7555 192.098C70.6719 195.074 78.3927 197.849 85.375 198.834C88.6199 199.282 95.6694 199.125 98.3548 198.543C100.081 198.166 102.761 197.035 104.467 196.315ZM173.996 177.529C160.994 176.388 145.284 170.188 133.915 160.61C129.126 156.56 122.905 148.683 120.443 144.319C119.928 143.423 119.548 142.998 119.1 142.886C118.63 142.752 119.033 142.618 120.958 142.305C129.081 140.917 136.981 137.538 143.359 132.726L144.299 132.033L144.568 132.682C145.172 134.136 147.499 135.613 149.223 135.613C149.916 135.613 152.244 134.561 153.654 133.599L154.616 132.95L155.399 133.733C156.115 134.449 156.25 134.494 157.592 134.494C159.137 134.494 160.994 133.8 162.023 132.816L162.583 132.301L164.172 133.353C165.022 133.957 167.394 135.277 169.431 136.329C172.474 137.896 175.697 139.709 178.763 141.588L179.255 141.902L178.785 142.528C178.293 143.2 177.376 144.475 177.376 146.422C177.376 148.615 179.656 152.556 184.022 155.262C187.452 157.388 193.354 161.57 193.13 167.682C193.103 168.421 192.28 170.256 191.183 171.912C190.467 172.964 188.476 174.53 186.663 175.448C183.574 176.992 178.136 177.887 173.996 177.529ZM54.6708 77.0694C55.2751 77.2037 55.6779 77.4051 55.5884 77.4946C55.2974 77.7856 53.7533 77.6513 53.3952 77.2932C52.8357 76.7561 52.97 76.3757 53.7533 76.219C54.1561 76.1519 54.7603 75.8162 55.096 75.4805C55.4317 75.1448 55.7226 74.9882 55.7226 75.1001C55.7226 75.391 54.6037 76.4204 54.0442 76.6442C53.6861 76.8009 53.798 76.868 54.6708 77.0694ZM63.5777 77.4275C64.2267 77.0694 64.0924 76.8233 63.3315 76.9351C62.5706 77.047 62.5259 76.9575 63.0182 76.1966C63.2196 75.9057 63.3315 75.4805 63.2868 75.2567C63.2196 74.9658 63.063 75.1001 62.7049 75.8162C62.4364 76.3309 62.0559 76.7561 61.8769 76.7561C61.3174 76.7561 61.2727 77.2037 61.8098 77.4051C62.5035 77.696 63.0406 77.696 63.5777 77.4275ZM55.8345 65.2085C55.2974 65.298 53.619 65.9694 52.142 66.7079C50.6426 67.424 49.367 68.0283 49.2775 68.0059C46.9948 67.7597 50.1726 63.9553 55.9464 60.0613C61.4741 56.324 65.2114 54.3546 68.6801 53.3476C70.8509 52.721 73.2902 52.6314 73.984 53.1462C74.3644 53.4371 74.2302 53.4595 72.5741 53.4818C68.9935 53.4818 64.8533 55.3169 58.1172 59.8151C54.6261 62.1426 50.5754 65.477 50.5754 66.0141C50.5754 66.126 51.2244 65.9022 52.0301 65.5442C53.7533 64.7609 55.5212 64.3581 56.3045 64.5371C57.1325 64.7609 56.9535 65.0518 55.8345 65.2085ZM64.4952 67.1331C66.5989 66.7079 66.6884 66.6855 66.6884 66.4617C66.6884 66.3498 65.8828 66.2379 64.8757 66.1932L63.063 66.126L64.7414 64.2238C65.659 63.172 66.7332 62.1202 67.1136 61.874C67.9416 61.3369 67.9864 60.9565 67.315 60.7327L66.8003 60.576L67.3598 60.3746C67.6731 60.2627 68.2549 60.218 68.6578 60.2851C69.262 60.3746 69.3963 60.3298 69.3291 60.0165C69.262 59.7032 69.0158 59.6361 67.9193 59.6585C64.719 59.7032 63.3539 60.5536 65.8604 60.9565C66.5541 61.0684 67.136 61.2474 67.136 61.3593C67.136 61.4488 67.0241 61.5383 66.8898 61.5383C66.4646 61.5383 62.8616 65.1861 62.414 66.0813C61.7202 67.4016 62.1007 67.6031 64.4952 67.1331ZM79.2655 58.45C78.6165 58.4948 78.4598 58.6067 78.5046 58.92L78.5115 58.9655C78.5366 59.1311 78.551 59.2262 78.5139 59.2551C78.4638 59.294 78.3198 59.2124 77.9814 59.0204L77.9227 58.9871C77.4975 58.7633 77.4528 58.6514 77.6989 58.4724C77.8556 58.3381 78.2808 58.1367 78.6165 58.0696L79.2431 57.9129L78.7731 57.4206C78.527 57.1296 78.3927 56.8611 78.4598 56.7716C78.6388 56.5925 80.832 56.8387 81.1453 57.0849C81.2796 57.1968 81.481 57.1744 81.6153 57.0401C81.9286 56.7268 82.3538 56.973 82.3538 57.4653C82.3538 57.7339 82.2866 57.7562 82.0852 57.5548C81.9062 57.3758 81.7495 57.3758 81.5481 57.5325C81.3691 57.6891 81.2348 57.6891 81.1229 57.5101C81.0558 57.3982 80.6306 57.2863 80.183 57.2863C79.7701 57.2863 79.5748 57.2863 79.535 57.365C79.4993 57.4356 79.5885 57.5694 79.7578 57.8234C80.1148 58.3811 80.0936 58.3829 79.2731 58.4494L79.2655 58.45ZM75.8638 52.4972C75.8638 52.2062 75.5953 51.6915 75.2596 51.3558L74.633 50.7292L77.9899 50.8635C79.8473 50.953 81.951 51.1544 82.6895 51.3558C83.428 51.5349 84.2784 51.6691 84.5917 51.6691C85.0617 51.6691 84.9721 51.5796 84.0993 51.1097C82.5776 50.3264 80.6306 49.9459 76.8933 49.6774C72.4175 49.3641 70.1572 49.7893 70.5824 50.9082C70.6495 51.132 71.0076 51.2439 71.5447 51.2439C72.6412 51.2439 74.4316 51.8929 75.0358 52.4972C75.6848 53.1462 75.8638 53.1462 75.8638 52.4972ZM64.9428 111.757C66.7555 114.084 69.1501 116.725 70.2691 117.62C70.9404 118.157 71.5223 118.605 71.567 118.605C71.5894 118.605 71.0971 117.576 70.4705 116.322C67.9416 111.287 66.4646 106.274 65.7709 100.5C65.6142 99.2247 65.368 98.1505 65.0995 97.703C64.5624 96.8078 64.5624 95.6441 65.1219 94.5475C65.4128 93.9657 65.5694 93.2271 65.5694 92.4215V91.1906L64.4952 92.3096C63.4434 93.4062 62.4364 93.8538 62.4364 93.1824C62.4364 92.69 64.0924 90.3179 64.9652 89.5793C65.659 88.9975 65.7485 88.7961 65.9723 87.0505C66.1289 85.9987 66.487 84.1412 66.7779 82.9104C67.0912 81.6795 67.2703 80.6277 67.2255 80.5829C67.0688 80.4263 61.8098 86.4663 61.0936 88.3933C60.9364 88.8163 60.5118 89.557 60.1761 90.0045L59.5942 90.7516C59.5942 90.7516 59.775 91.7978 59.9747 93.1125C60.1764 94.4408 60.2711 95.3539 60.3554 96.1672C60.4682 97.2551 60.5625 98.1644 60.8698 99.6499C61.2279 101.485 61.586 103.074 61.6755 103.186C61.7426 103.32 62.0335 104.35 62.3245 105.491C62.9511 108.02 64.0029 110.526 64.9428 111.757ZM155.757 132.928L155.287 132.458C155.287 132.458 163.087 122.548 164.485 118.896C165.552 116.109 166.179 115.319 167.026 115.319C167.5 115.319 167.887 115.427 168.066 115.696C168.379 116.166 168.681 116.748 168.278 118.739C167.607 121.962 166.577 124.088 163.489 128.676C162.773 129.727 161.855 130.891 161.453 131.294C160.513 132.167 158.398 133.062 157.167 133.263C156.384 133.375 156.16 133.331 155.757 132.928Z" fill="#00160A"/>
<path d="M217.725 154.82C220.509 147.234 220.088 145.618 219.605 145.46C219.605 145.46 218.542 146.064 218.072 147.34C217.199 149.734 214.211 156 213.092 157.119C211.772 158.44 211.772 158.44 210.429 158.44C209.087 158.44 205.214 156.417 204.687 154.424C203.843 151.235 207.475 140.156 207.565 139.529L206.961 139.104C206.558 139.484 201.318 155.374 194.428 151.234C193.639 150.759 191.967 148.526 191.832 147.34C191.087 143.893 194.508 131.842 195.09 129.367C195.611 127.151 198.322 125.095 201.657 125.095C206.782 125.095 206.093 129.574 208.389 131.153C209.406 131.853 211.078 130.584 211.593 130.488C214.48 129.951 215.586 130.576 217.703 132.256C219.336 133.553 220.545 136.119 221.875 137.023C222.614 137.525 223.399 136.838 223.655 136.709C224.708 136.181 226.968 136.575 227.594 137.023C228.513 137.423 230.764 139.587 231.119 140.846C232.731 146.55 227.642 159.195 225.72 161.568C222.54 165.494 214.941 162.406 217.725 154.82Z" fill="white"/>
<path fill-rule="evenodd" clip-rule="evenodd" d="M89.0674 134.035C95.1993 137.906 101.522 140.435 108.728 141.129C114.412 141.666 122.077 140.927 127.582 139.137C132.214 137.638 138.48 133.484 142.665 129.971C150.789 123.167 155.914 112.541 158.152 101.262C158.465 99.6726 158.943 95.6785 158.92 91.7174C158.92 87.1073 156.892 74.5093 150.744 67.2453C138.065 52.2633 117.224 45.5143 99.7082 51.2809C93.3897 53.361 86.6623 57.1299 81.5822 62.0533C75.1818 68.2971 70.4598 76.8011 68.58 85.4842C66.6106 94.6597 69.1724 105.625 73.6258 114.622C77.1841 121.783 83.0474 130.208 89.0674 134.035ZM148.82 106.991C144.612 119.635 133.647 129.079 119.861 131.943C117.757 132.368 116.303 132.525 113.349 132.57C111.267 132.637 109.186 132.615 108.761 132.57C99.1156 131.406 91.7753 127.848 85.0168 121.089C82.0627 118.113 80.8095 116.502 78.9744 113.324C76.0875 108.289 74.5434 103.141 74.0734 96.9423C72.4621 75.7046 87.6575 58.0027 109.052 56.1676C117.444 55.4515 126.754 58.0251 133.826 63.038C136.444 64.8955 141.188 69.5951 142.665 71.7882C143.27 72.661 149.133 81.2322 150.162 86.1556C151.483 92.556 150.968 100.568 148.82 106.991Z" fill="white"/>
<path fill-rule="evenodd" clip-rule="evenodd" d="M158.929 91.7174C158.929 106.738 151.823 123.161 142.653 130.174C138.278 133.52 132.561 137.572 127.582 139.137C120.286 141.431 108.728 141.129 108.728 141.129C108.728 141.129 120.519 139.553 124.888 137.794C137.418 132.752 144.258 125.011 148.481 117.584C156.818 102.924 158.929 91.3525 158.929 91.7174Z" fill="#E7EAEE"/>
<path fill-rule="evenodd" clip-rule="evenodd" d="M108.985 129.884C103.01 129.123 97.0793 126.997 92.2901 123.842C89.448 121.985 85.1512 117.621 83.0699 114.51C80.0935 110.034 78.1241 105.245 77.1618 100.098C76.4681 96.3604 76.4905 90.609 77.1842 87.2745C77.9004 83.8729 78.8179 81.2769 80.4516 77.9872C82.3538 74.1827 84.3679 71.3854 87.3891 68.3642C92.5363 63.217 98.5115 59.9496 105.628 58.3831C107.933 57.8907 116.281 57.4879 116.571 57.8684C116.639 57.9803 117.086 58.2712 117.556 58.5174C118.026 58.7859 119.279 59.7258 120.309 60.6434C121.853 61.9861 122.547 62.8365 123.889 64.9402C124.807 66.3724 125.545 67.6704 125.545 67.7823C125.545 68.0285 126.262 68.4761 126.664 68.4761C127.224 68.4761 127.604 66.7976 127.716 63.8436C127.783 62.2099 127.918 60.8672 128.007 60.8672C128.32 60.8672 131.767 62.7694 133.378 63.8436C136.534 65.9472 139.689 68.9013 142.017 71.9896C143.068 73.3771 143.225 73.7352 143.225 74.5856C143.225 75.3688 143.449 75.9731 144.143 77.1815C145.888 80.2251 147.253 84.0519 148.081 88.2816C148.618 91.1237 148.618 96.4947 148.059 99.4711C146.537 107.662 142.017 115.808 136.131 120.977C131.14 125.341 125.836 128.027 119.57 129.347C117.422 129.817 110.977 130.131 108.985 129.884ZM92.9839 114.577C93.1853 114.353 93.3196 114.018 93.2524 113.861C93.2323 113.814 92.9521 113.682 92.542 113.489L92.5419 113.489C91.5858 113.04 89.9235 112.258 89.2031 111.444C86.3385 108.177 85.2867 105.737 84.6377 100.702C84.0111 95.801 84.5375 92.4877 85.6672 87.1626C86.2182 84.5649 87.6829 82.4193 88.5941 81.0843C89.2137 80.1766 89.5774 79.6438 89.2242 79.5985C88.3514 79.4642 88.2171 79.5313 87.2996 80.4041C85.3302 82.284 84.4351 83.7834 83.4951 86.6703C82.0405 91.1909 81.7594 103.408 84.6377 108.915C87.5161 114.423 92.4692 115.159 92.9839 114.577ZM124.807 95.7786C124.427 99.2551 122.815 104.283 120.935 106.476C120.063 107.505 116.859 109.273 114.155 108.915C111.542 108.569 109.5 107.349 107.754 104.73C106.255 102.47 105.48 99.7263 104.957 96.2709C104.053 90.3041 108 83.3582 109.701 81.635C111.424 79.867 112.655 79.2404 114.222 79.218C115.743 79.218 116.728 79.5537 118.272 80.6503C121.092 82.6197 125.545 89.0231 124.807 95.7786ZM94.6399 77.2711C95.0875 76.7563 95.1547 76.5102 95.0204 75.5479C94.9309 74.6527 94.7518 74.2946 94.2819 73.9142C93.4538 73.2428 92.4244 73.2428 91.6635 73.9589C91.1264 74.4737 91.0593 74.6527 91.1264 75.8836C91.1936 77.2039 91.2383 77.2934 91.9768 77.6963C92.9615 78.2334 93.9238 78.0767 94.6399 77.2711ZM108.604 63.4631C104.576 66.3501 102.831 67.5361 101.018 68.6551C99.5857 69.5503 99.1381 69.5726 99.1381 68.767C99.1381 68.3418 99.4514 67.8718 100.257 67.1333L101.376 66.1039L99.2053 65.813C96.7659 65.4996 94.3938 64.8283 93.879 64.3136C93.0286 63.4408 93.7671 63.2394 96.1841 63.6869C97.2583 63.866 99.3395 64.0898 100.817 64.1345L103.502 64.2464L105.449 62.8365C109.723 59.7482 114.155 58.0026 116.281 58.5397C117.601 58.853 117.444 59.2111 115.945 59.3901C114.222 59.5916 113.17 60.1734 108.604 63.4631Z" fill="white"/>
<path d="M114.356 105.849C114.356 105.737 114.49 105.625 114.669 105.625C114.848 105.625 115.072 105.737 115.139 105.849C115.206 105.983 115.072 106.073 114.826 106.073C114.557 106.073 114.356 105.983 114.356 105.849Z" fill="white"/>
<path d="M115.699 105.648C115.699 105.402 116.258 105.178 116.885 105.178C117.377 105.2 117.377 105.2 116.952 105.513C116.46 105.894 115.699 105.961 115.699 105.648Z" fill="white"/>
<path d="M112.23 105.066C112.163 104.887 112.073 104.573 112.006 104.394C111.939 104.17 112.051 104.059 112.342 104.059C112.588 104.059 112.789 104.193 112.789 104.372C112.789 104.551 112.857 104.842 112.924 105.043C113.013 105.289 112.946 105.401 112.7 105.401C112.499 105.401 112.275 105.245 112.23 105.066Z" fill="white"/>
<path d="M113.416 104.506C113.304 103.835 113.55 103.611 114.356 103.611C114.602 103.611 114.803 103.835 114.893 104.216C115.072 104.865 114.781 105.178 113.998 105.178C113.64 105.178 113.483 105.021 113.416 104.506Z" fill="white"/>
<path d="M111.133 104.618C110.708 104.282 110.708 104.282 111.178 104.282C111.469 104.282 111.67 104.417 111.67 104.618C111.67 105.021 111.67 105.021 111.133 104.618Z" fill="white"/>
<path d="M115.631 104.596C115.341 104.305 115.475 103.432 115.833 103.298C116.482 103.051 116.773 103.163 116.907 103.745C116.997 104.081 117.041 104.372 116.997 104.394C116.818 104.596 115.766 104.73 115.631 104.596Z" fill="white"/>
<path d="M117.623 104.126C117.556 104.059 117.489 103.768 117.489 103.499C117.489 103.119 117.668 102.962 118.205 102.85C118.675 102.761 118.966 102.806 119.1 102.985C119.324 103.343 119.324 103.79 119.123 103.902C118.72 104.126 117.78 104.26 117.623 104.126Z" fill="white"/>
<path d="M110.104 103.432C110.104 103.163 110.305 102.94 110.596 102.872C111.178 102.716 111.156 102.693 111.267 103.275C111.312 103.611 111.2 103.745 110.73 103.79C110.238 103.857 110.104 103.768 110.104 103.432Z" fill="white"/>
<path d="M111.805 103.454C111.491 103.119 111.693 102.492 112.118 102.492C112.409 102.492 112.566 102.649 112.566 102.917C112.566 103.343 112.051 103.701 111.805 103.454Z" fill="white"/>
<path d="M113.147 102.783C112.968 102.358 113.349 102.045 114.087 102.045C114.423 102.045 114.58 102.179 114.58 102.47C114.58 102.716 114.378 102.94 114.087 103.03C113.349 103.209 113.304 103.209 113.147 102.783Z" fill="white"/>
<path d="M119.615 102.716C119.682 102.604 119.794 102.492 119.861 102.492C119.928 102.492 119.906 102.604 119.839 102.716C119.772 102.85 119.66 102.94 119.593 102.94C119.525 102.94 119.548 102.85 119.615 102.716Z" fill="white"/>
<path d="M115.162 102.335C114.982 101.888 115.206 101.664 115.922 101.552C116.325 101.507 116.504 101.597 116.549 101.91C116.706 102.648 115.43 103.051 115.162 102.335Z" fill="white"/>
<path d="M109.791 101.955C109.589 101.217 109.634 101.149 110.216 101.149C110.529 101.149 110.775 101.239 110.775 101.351C110.775 101.463 110.842 101.709 110.909 101.888C110.977 102.112 110.842 102.246 110.462 102.313C110.037 102.403 109.88 102.313 109.791 101.955Z" fill="white"/>
<path d="M117.265 101.709C117.265 101.306 117.422 101.127 117.847 101.015C118.474 100.858 118.832 101.172 118.832 101.888C118.832 102.179 118.653 102.268 118.048 102.268C117.355 102.268 117.265 102.201 117.265 101.709Z" fill="white"/>
<path d="M109.119 101.709C109.052 101.53 109.097 101.373 109.209 101.373C109.343 101.373 109.432 101.53 109.432 101.709C109.432 101.888 109.388 102.044 109.343 102.044C109.298 102.044 109.209 101.888 109.119 101.709Z" fill="white"/>
<path d="M111.38 101.888C111.066 101.597 111.245 100.971 111.648 100.859C111.894 100.792 112.14 100.814 112.208 100.881C112.476 101.127 112.319 101.776 111.984 101.911C111.559 102.067 111.559 102.067 111.38 101.888Z" fill="white"/>
<path d="M119.369 101.731C119.123 101.082 119.391 100.59 120.018 100.523C120.488 100.455 120.622 100.545 120.622 100.903C120.622 101.641 120.376 102.044 119.928 102.044C119.682 102.044 119.436 101.91 119.369 101.731Z" fill="white"/>
<path d="M112.946 101.441C112.678 101.194 112.767 100.747 113.147 100.613C113.573 100.456 114.468 100.903 114.222 101.15C113.908 101.418 113.103 101.62 112.946 101.441Z" fill="white"/>
<path d="M114.893 100.881C114.692 100.567 115.408 100.03 115.99 100.03C116.258 100.03 116.37 100.165 116.325 100.411C116.236 100.858 115.095 101.216 114.893 100.881Z" fill="white"/>
<path d="M108.761 100.724C108.761 100.612 108.694 100.366 108.627 100.165C108.56 99.9633 108.582 99.8066 108.716 99.8066C109.007 99.8066 109.231 100.657 108.962 100.836C108.851 100.903 108.761 100.858 108.761 100.724Z" fill="white"/>
<path d="M109.365 100.21C109.231 99.7174 109.5 99.3594 110.014 99.3594C110.305 99.3594 110.596 100.232 110.417 100.523C110.171 100.904 109.477 100.68 109.365 100.21Z" fill="white"/>
<path d="M110.932 100.321C110.596 99.9855 110.798 99.1799 111.245 99.068C111.581 98.9785 111.76 99.0904 111.939 99.4932C112.073 99.7841 112.14 100.075 112.096 100.12C111.872 100.321 111.066 100.478 110.932 100.321Z" fill="white"/>
<path d="M116.974 100.321C116.683 100.03 116.818 99.8511 117.489 99.6049C118.048 99.4259 118.205 99.4483 118.317 99.7168C118.518 100.254 117.399 100.769 116.974 100.321Z" fill="white"/>
<path d="M118.944 99.8061C118.72 99.4481 119.033 99.1348 119.615 99.1348C120.309 99.1348 120.51 99.7166 119.884 99.8957C119.212 100.075 119.1 100.052 118.944 99.8061Z" fill="white"/>
<path d="M120.846 99.2695C120.846 98.9338 121.249 98.5758 121.428 98.7548C121.584 98.9114 121.271 99.5828 121.047 99.5828C120.935 99.5828 120.846 99.4485 120.846 99.2695Z" fill="white"/>
<path d="M108.47 98.9787C108.381 98.9115 108.314 98.6206 108.336 98.3744C108.336 97.9492 108.358 97.9492 108.56 98.4416C108.783 98.9787 108.739 99.2472 108.47 98.9787Z" fill="white"/>
<path d="M108.895 98.6434C108.694 97.8601 108.716 97.793 109.298 97.793C109.947 97.793 110.35 98.621 109.858 98.9343C109.343 99.2476 109.052 99.1581 108.895 98.6434Z" fill="white"/>
<path d="M116.594 99.0907C116.594 99.0235 116.706 98.6655 116.84 98.2626C117.153 97.3675 117.847 97.3227 118.004 98.1955C118.071 98.5312 118.093 98.8221 118.071 98.8445C117.959 98.9788 116.594 99.1802 116.594 99.0907Z" fill="white"/>
<path d="M110.484 98.531C110.395 98.4639 110.328 98.1954 110.328 97.9492C110.328 97.5911 110.395 97.5687 110.663 97.7925C110.842 97.9492 110.999 98.2177 110.999 98.3744C110.999 98.7101 110.73 98.7996 110.484 98.531Z" fill="white"/>
<path d="M118.541 98.0839C118.406 97.3901 118.697 97.0768 119.391 97.1663C119.727 97.2111 119.839 97.4125 119.839 97.9048C119.839 98.4643 119.749 98.5986 119.257 98.6433C118.764 98.7105 118.653 98.5986 118.541 98.0839Z" fill="white"/>
<path d="M120.734 98.1729C120.443 97.2777 120.533 97.0092 121.137 96.942C121.674 96.8749 121.741 96.942 121.741 97.5239C121.741 98.0162 121.607 98.2176 121.271 98.3072C121.025 98.3743 120.779 98.3072 120.734 98.1729Z" fill="white"/>
<path d="M108.135 96.8973C108.135 96.4721 108.179 96.293 108.246 96.5168C108.291 96.7182 108.291 97.0763 108.246 97.3001C108.179 97.5015 108.135 97.3225 108.135 96.8973Z" fill="white"/>
<path d="M108.694 97.1878C108.403 96.9193 108.537 96.0465 108.895 95.9122C109.41 95.7108 109.656 95.957 109.656 96.6955C109.656 97.1654 109.544 97.3445 109.253 97.3445C109.03 97.3445 108.761 97.2773 108.694 97.1878Z" fill="white"/>
<path d="M110.037 96.5835C109.947 96.2479 109.902 95.8898 109.992 95.8226C110.216 95.5989 110.35 95.9569 110.283 96.6059L110.216 97.2325L110.037 96.5835Z" fill="white"/>
<path d="M117.265 96.4272C117.265 96.181 117.377 96.0468 117.489 96.1139C117.623 96.181 117.713 96.4048 117.713 96.5839C117.713 96.7629 117.623 96.8972 117.489 96.8972C117.377 96.8972 117.265 96.6958 117.265 96.4272Z" fill="white"/>
<path d="M118.272 96.718C117.959 96.3823 118.205 95.7781 118.72 95.6438C119.369 95.4872 119.391 95.4872 119.593 96.1362C119.727 96.539 119.637 96.6285 119.056 96.718C118.698 96.7852 118.339 96.7628 118.272 96.718Z" fill="white"/>
<path d="M120.331 96.2933C120.085 96.0695 120.152 95.331 120.398 95.331C120.532 95.331 120.622 95.2415 120.622 95.1072C120.622 94.9953 120.488 94.8834 120.309 94.8834C119.928 94.8834 119.615 93.7868 119.928 93.4735C120.331 93.0707 120.779 93.4959 121.047 94.5925C121.204 95.1743 121.36 95.8457 121.428 96.0695C121.517 96.3604 121.428 96.45 121.002 96.45C120.711 96.45 120.398 96.3828 120.331 96.2933Z" fill="white"/>
<path d="M121.54 95.1072C121.383 94.4358 120.98 93.093 120.689 92.1084C120.242 90.6761 120.197 90.318 120.443 90.1614C120.6 90.0495 120.801 89.96 120.868 89.96C121.114 89.96 122.01 94.5477 121.92 95.4428L121.853 96.338L121.54 95.1072Z" fill="white"/>
<path d="M107.911 94.9951C107.911 94.6371 107.955 94.5028 108.023 94.7266C108.067 94.928 108.067 95.2413 108.023 95.398C107.955 95.5322 107.911 95.3756 107.911 94.9951Z" fill="white"/>
<path d="M108.358 94.9505C108.448 94.1672 109.097 93.9882 109.276 94.7043C109.432 95.2862 109.477 95.219 108.806 95.4428C108.336 95.5771 108.291 95.5323 108.358 94.9505Z" fill="white"/>
<path d="M117.802 94.7488C117.623 94.0998 118.004 93.7193 118.72 93.8089C119.257 93.876 119.458 94.8383 119.011 95.1292C118.451 95.4873 117.937 95.3306 117.802 94.7488Z" fill="white"/>
<path d="M109.656 94.5701C109.656 94.1897 109.768 93.9883 110.014 93.9883C110.238 93.9883 110.328 94.1449 110.283 94.4806C110.171 95.1968 109.656 95.2639 109.656 94.5701Z" fill="white"/>
<path d="M107.665 93.63C107.665 93.3838 107.732 93.3166 107.799 93.4957C107.866 93.6523 107.844 93.8537 107.776 93.9209C107.709 94.0104 107.642 93.8761 107.665 93.63Z" fill="white"/>
<path d="M108.09 93.5627C108.09 93.227 108.224 93.0928 108.56 93.0928C108.873 93.0928 108.985 93.2047 108.94 93.4732C108.828 94.0551 108.09 94.1222 108.09 93.5627Z" fill="white"/>
<path d="M109.321 93.3615C109.164 92.9587 109.164 92.9587 109.835 92.7797C110.238 92.6454 110.328 92.7125 110.328 93.0482C110.328 93.5853 109.522 93.8539 109.321 93.3615Z" fill="white"/>
<path d="M117.422 93.0477C117.265 92.4882 117.556 92.1973 118.339 92.1973C118.72 92.1973 118.832 92.3315 118.832 92.7567C118.832 93.0924 118.697 93.3162 118.518 93.3162C118.339 93.3162 118.048 93.3834 117.869 93.4505C117.668 93.5176 117.511 93.3834 117.422 93.0477Z" fill="white"/>
<path d="M119.369 92.5333C119.19 92.0857 119.458 91.75 119.973 91.75C120.286 91.75 120.398 91.9067 120.398 92.3095C120.398 92.7123 120.286 92.869 119.951 92.869C119.705 92.869 119.436 92.7123 119.369 92.5333Z" fill="white"/>
<path d="M107.866 92.2202C107.866 91.7502 108.381 91.2131 108.604 91.4593C108.694 91.5264 108.761 91.8397 108.761 92.1307C108.761 92.4887 108.627 92.6454 108.314 92.6454C108.023 92.6454 107.866 92.4887 107.866 92.2202Z" fill="white"/>
<path d="M109.097 91.9514C108.918 91.3919 109.119 91.1457 109.88 91.0338C110.574 90.9443 110.798 91.6828 110.193 92.1304C109.612 92.5556 109.254 92.4885 109.097 91.9514Z" fill="white"/>
<path d="M117.198 91.8176C117.041 91.6834 116.974 90.8553 117.109 90.8553C117.131 90.8553 117.467 90.7658 117.87 90.6539C118.541 90.4525 118.586 90.4749 118.563 91.0791C118.541 91.5267 118.407 91.7505 118.071 91.84C117.467 91.9967 117.377 91.9967 117.198 91.8176Z" fill="white"/>
<path d="M116.37 91.3027C116.37 91.146 116.437 91.0789 116.527 91.146C116.594 91.2356 116.594 91.3698 116.527 91.4593C116.437 91.5265 116.37 91.4593 116.37 91.3027Z" fill="white"/>
<path d="M118.876 90.9447C118.944 90.5643 119.637 90.0048 119.794 90.1838C119.861 90.251 119.973 90.5195 120.04 90.8104C120.197 91.258 120.13 91.3028 119.503 91.3028C118.966 91.3028 118.809 91.2133 118.876 90.9447Z" fill="white"/>
<path d="M108.09 90.9223C108.09 90.8104 108.202 90.5866 108.314 90.4076C108.493 90.1391 108.537 90.1614 108.537 90.5866C108.537 90.8552 108.448 91.079 108.314 91.079C108.202 91.079 108.09 91.0118 108.09 90.9223Z" fill="white"/>
<path d="M108.761 90.43C108.761 89.8034 109.231 89.602 109.589 90.0719C109.813 90.4076 109.813 90.5195 109.589 90.6762C109.119 90.9671 108.761 90.8776 108.761 90.43Z" fill="white"/>
<path d="M115.564 90.1392C115.161 89.6917 115.161 89.6693 115.542 89.8036C115.766 89.8931 116.057 89.9602 116.168 89.9602C116.28 89.9602 116.37 90.1169 116.37 90.2959C116.37 90.7659 116.057 90.7211 115.564 90.1392Z" fill="white"/>
<path d="M110.753 90.1162C109.791 89.3777 109.656 87.7217 110.551 87.7217C111.156 87.7217 111.715 88.6616 111.626 89.5344C111.559 90.34 111.29 90.5191 110.753 90.1162Z" fill="white"/>
<path d="M116.885 90.2505C116.974 90.1834 117.109 90.1834 117.198 90.2505C117.265 90.3401 117.198 90.4072 117.041 90.4072C116.885 90.4072 116.818 90.3401 116.885 90.2505Z" fill="white"/>
<path d="M120.264 89.3779C120.331 89.1765 120.398 88.9751 120.398 88.9303C120.398 88.8856 120.51 88.8408 120.622 88.8408C120.756 88.8408 120.846 89.0422 120.846 89.2884C120.846 89.557 120.689 89.736 120.488 89.736C120.242 89.736 120.174 89.6241 120.264 89.3779Z" fill="white"/>
<path d="M108.537 89.3104C108.537 88.7957 109.007 87.9453 109.276 87.9453C109.746 87.9453 109.41 89.3776 108.918 89.4671C108.716 89.5119 108.537 89.4447 108.537 89.3104Z" fill="white"/>
<path d="M113.573 89.0645L112.901 88.9079L113.506 88.7512C114.132 88.5722 114.58 88.7065 114.58 89.0869C114.58 89.3107 114.557 89.3107 113.573 89.0645Z" fill="white"/>
<path d="M112.789 87.99C112.789 87.0725 113.304 86.9382 113.774 87.7439C114.087 88.2809 114.11 88.3928 113.819 88.3928C113.64 88.3928 113.349 88.46 113.147 88.5271C112.879 88.639 112.789 88.5047 112.789 87.99Z" fill="white"/>
<path d="M116.683 88.3041C115.676 87.8565 115.027 86.6704 115.027 85.2605C115.027 84.2535 115.117 84.0073 115.721 83.4478C116.102 83.0898 116.482 82.7988 116.594 82.7988C117.086 82.7988 118.899 84.522 119.503 85.5962L120.197 86.8271L119.458 87.6103C118.608 88.5055 117.668 88.7517 116.683 88.3041Z" fill="white"/>
<path d="M112.006 87.7218C111.939 87.6099 111.984 87.498 112.096 87.498C112.23 87.498 112.342 87.6099 112.342 87.7218C112.342 87.8561 112.297 87.9456 112.252 87.9456C112.185 87.9456 112.073 87.8561 112.006 87.7218Z" fill="white"/>
<path d="M109.074 87.3642C109.142 87.1628 109.209 86.9614 109.209 86.9167C109.209 86.8719 109.41 86.8271 109.656 86.8271C110.216 86.8271 110.238 87.1852 109.679 87.4985C109.074 87.8118 108.918 87.7895 109.074 87.3642Z" fill="white"/>
<path d="M110.842 87.0951C110.328 87.0279 110.171 86.737 110.507 86.5356C110.596 86.4685 110.999 86.3566 111.402 86.2671C112.006 86.1328 112.118 86.1775 112.118 86.558C112.118 87.0279 111.648 87.2294 110.842 87.0951Z" fill="white"/>
<path d="M112.566 86.3343C112.566 86.0658 112.588 85.9091 112.633 85.9539C112.655 85.9986 112.834 86.2224 112.991 86.4462C113.259 86.7595 113.237 86.8267 112.924 86.8267C112.7 86.8267 112.566 86.6476 112.566 86.3343Z" fill="white"/>
<path d="M109.433 86.1772C109.433 86.043 109.545 85.8863 109.656 85.8192C109.791 85.752 109.88 85.8415 109.88 86.0206C109.88 86.222 109.791 86.3786 109.656 86.3786C109.545 86.3786 109.433 86.2891 109.433 86.1772Z" fill="white"/>
<path d="M110.261 85.8424C110.082 85.3949 111.67 84.9025 111.939 85.3277C112.14 85.6858 111.939 85.8424 111.089 86.0215C110.574 86.1334 110.35 86.0886 110.261 85.8424Z" fill="white"/>
<path d="M112.364 85.126C112.364 84.8799 112.431 84.8127 112.499 84.9918C112.566 85.1484 112.543 85.3498 112.476 85.417C112.409 85.5065 112.342 85.3722 112.364 85.126Z" fill="white"/>
<path d="M110.462 84.7677C110.73 84.2754 111.514 83.4697 111.715 83.4697C111.939 83.4697 111.961 84.5215 111.738 84.6558C111.626 84.7006 111.268 84.8125 110.932 84.902C110.44 85.0139 110.328 84.9915 110.462 84.7677Z" fill="white"/>
<path d="M112.252 84.2532C112.006 83.5819 112.118 83.2909 112.655 83.2014C113.215 83.0895 113.215 83.0895 112.856 83.7833C112.409 84.6784 112.431 84.6784 112.252 84.2532Z" fill="white"/>
<path d="M112.118 82.9101C112.118 82.8654 112.566 82.552 113.125 82.2387C113.796 81.8359 114.266 81.7016 114.602 81.7912C115.005 81.9254 114.893 82.0149 113.908 82.4849C112.812 82.9772 112.118 83.1563 112.118 82.9101Z" fill="white"/>
<path d="M124.539 63.0825C123.934 62.2097 122.659 60.7998 121.741 59.9494C120.824 59.099 120.219 58.4053 120.398 58.4053C120.891 58.4053 124.65 59.4347 125.59 59.8375C126.374 60.1732 126.396 60.218 126.195 60.9117C126.083 61.3146 125.993 62.3216 125.993 63.1496C125.993 64.0001 125.926 64.6714 125.836 64.6714C125.725 64.6714 125.165 63.9553 124.539 63.0825Z" fill="white"/>
<path d="M78.9969 130.869C78.0793 130.399 77.8779 130.13 76.7142 127.825C75.0358 124.558 74.991 123.797 76.5799 125.654C77.2066 126.393 78.6612 127.915 79.8025 129.034C81.7495 130.914 81.839 131.048 81.19 130.958C80.7201 130.891 80.541 130.936 80.6529 131.115C80.9215 131.518 80.0711 131.406 78.9969 130.869Z" fill="white"/>
<path fill-rule="evenodd" clip-rule="evenodd" d="M116.502 171.642C116.316 171.201 116.523 170.692 116.964 170.507L117.446 170.302C122.134 168.296 124.825 167.091 126.653 165.178C128.481 163.265 128.7 160.455 129.044 158.745C129.138 158.276 130.2 159.1 130.67 159.194C131.139 159.288 131.443 159.745 131.349 160.214C130.936 162.27 129.824 164.23 128.033 166.091C126.249 167.945 122.794 169.933 117.637 172.104C117.196 172.29 116.687 172.083 116.502 171.642Z" fill="#00160A"/>
<path fill-rule="evenodd" clip-rule="evenodd" d="M137.701 82.3487C138.112 82.1038 138.644 82.2388 138.889 82.6501C141.34 86.7682 142.653 91.4757 142.653 96.3735C142.653 111.212 130.625 123.24 115.787 123.24C111.844 123.24 108.02 122.39 104.518 120.77C104.083 120.569 102.442 118.968 104.095 119.619C105.748 120.27 112.142 121.731 115.833 121.731C129.713 121.731 139.533 110.254 139.533 96.3735C139.533 91.79 137.701 87.7216 137.399 83.5367C137.364 83.0516 137.289 82.5935 137.701 82.3487Z" fill="#00160A"/>
<path fill-rule="evenodd" clip-rule="evenodd" d="M51.8678 147.942C52.1741 147.575 52.7206 146.831 53.0884 147.138C54.5971 148.394 56.2071 149.85 57.9293 150.131C59.7215 150.424 61.8476 150.424 64.3048 150.126C64.78 150.069 65.2118 150.408 65.2694 150.883C65.3269 151.358 64.9883 151.79 64.5131 151.847C61.9036 152.163 59.6169 152.163 57.6502 151.842C55.6135 151.51 53.7195 150.613 51.979 149.163C51.6112 148.857 51.5614 148.31 51.8678 147.942Z" fill="#00160A"/>
<path d="M70.2691 117.62C69.1501 116.725 66.7556 114.085 64.9428 111.757C64.0029 110.526 62.9511 108.02 62.3245 105.491C62.0336 104.35 61.7426 103.32 61.6755 103.186C61.586 103.074 61.2279 101.485 60.8698 99.6501C60.3327 97.0541 60.4464 96.2178 59.9747 93.1126C59.775 91.7979 59.5942 90.7518 59.5942 90.7518L60.1761 90.0047C60.5118 89.5571 60.9364 88.8164 61.0936 88.3934C61.8098 86.4665 67.0689 80.4264 67.2255 80.5831C67.2703 80.6278 67.0912 81.6796 66.7779 82.9105C66.487 84.1413 66.1289 85.9988 65.9723 87.0506C65.7485 88.7962 65.659 88.9976 64.9652 89.5795C64.0924 90.318 62.4364 92.6902 62.4364 93.1825C62.4364 93.8539 63.4434 93.4063 64.4953 92.3097L65.5695 91.1908V92.4216C65.5695 93.2273 65.4128 93.9658 65.1219 94.5476C64.5624 95.6442 64.5624 96.8079 65.0995 97.7031C65.368 98.1507 65.6142 99.2249 65.7709 100.5C66.4646 106.274 67.9416 111.287 70.4705 116.323C71.0971 117.576 71.5894 118.605 71.5671 118.605C71.5223 118.605 70.9404 118.158 70.2691 117.62Z" fill="white"/>
<path fill-rule="evenodd" clip-rule="evenodd" d="M163.389 131.429L165 132.145C165.334 132.299 169.02 134.07 173.447 136.197C180.585 139.627 189.651 143.983 189.707 143.983C189.796 143.983 190.216 143.012 190.311 141.88C190.535 139.44 191.363 136.128 192.325 133.823C192.772 132.794 193.131 131.507 193.131 131.395C193.131 131.344 192.767 131.197 192.171 130.957C191.462 130.671 190.425 130.253 189.281 129.705C183.642 126.998 172.609 121.47 171.244 120.642C169.901 119.859 169.632 119.792 169.632 120.306C169.632 120.978 168.267 124.088 167.215 125.767C166.656 126.684 165.559 128.34 164.776 129.437L163.389 131.429ZM189.326 139.955C189.968 140.327 188.856 140.873 188.588 140.962C187.006 141.096 185.145 140.799 183.619 139.91C182.822 139.345 176.542 135.856 172.377 133.542C170.472 132.484 169.01 131.671 168.715 131.496C167.775 130.936 166.88 130.332 166.723 130.153C166.253 129.549 166.701 129.28 168.021 129.392C168.815 129.459 187.94 139.152 189.326 139.955Z" fill="white"/>
<path d="M147.321 133.442C146.739 133.241 146.112 132.793 145.709 132.279L145.038 131.451L147.41 129.101C151.058 125.52 153.743 121.607 156.16 117.243C156.966 115.788 159.36 109.922 159.651 109.273C160.099 108.333 160.435 107.975 161.397 107.438C162.538 106.766 163.836 106.543 164.396 106.923C165.47 107.639 165.47 109.9 164.396 113.794C163.21 118.068 161.621 121.134 158.331 125.543C157.816 126.214 156.854 127.534 156.16 128.452C154.303 130.914 153.094 132.1 151.461 133.017C149.849 133.912 148.909 134.024 147.321 133.442Z" fill="white"/>
<path d="M155.757 132.928L155.287 132.458C155.287 132.458 163.087 122.548 164.485 118.896C165.552 116.11 166.18 115.319 167.026 115.319C167.5 115.319 167.887 115.427 168.066 115.696C168.379 116.166 168.681 116.748 168.278 118.74C167.607 121.962 166.577 124.088 163.489 128.676C162.773 129.728 161.855 130.891 161.453 131.294C160.513 132.167 158.398 133.062 157.167 133.264C156.384 133.375 156.16 133.331 155.757 132.928Z" fill="white"/>
<path fill-rule="evenodd" clip-rule="evenodd" d="M168.859 122.565C169.311 121.533 169.632 120.632 169.632 120.306C169.632 119.792 169.901 119.859 171.244 120.642C172.609 121.47 183.642 126.998 189.281 129.705C191.385 130.713 193.13 131.283 193.13 131.395C193.13 131.507 168.381 123.66 168.859 122.565Z" fill="#E7EAEE"/>
<path fill-rule="evenodd" clip-rule="evenodd" d="M92.2901 123.842C89.448 121.984 85.1512 117.62 83.0699 114.509C80.0935 110.034 78.1241 105.244 77.1618 100.097C76.4681 96.36 76.4905 90.6086 77.1842 87.2741C77.9004 83.8724 78.8179 81.2765 80.4516 77.9867C82.3538 74.1823 84.3679 71.3849 87.3891 68.3637C90.3518 65.4011 77.1842 77.6529 80.4516 99.5742C83.0699 117.944 94.3227 125.181 92.2901 123.842Z" fill="#E7EAEE"/>
</svg>
