<svg width="27" height="27" viewBox="0 0 27 27" fill="none" xmlns="http://www.w3.org/2000/svg">
<circle cx="13.5" cy="13.5" r="13.5" fill="#201335"/>
<path d="M19.875 14C19.875 14.0995 19.8355 14.1948 19.7652 14.2652C19.6948 14.3355 19.5995 14.375 19.5 14.375H14.375V19.5C14.375 19.5995 14.3355 19.6948 14.2652 19.7652C14.1948 19.8355 14.0995 19.875 14 19.875C13.9005 19.875 13.8052 19.8355 13.7348 19.7652C13.6645 19.6948 13.625 19.5995 13.625 19.5V14.375H8.5C8.40054 14.375 8.30516 14.3355 8.23483 14.2652C8.16451 14.1948 8.125 14.0995 8.125 14C8.125 13.9005 8.16451 13.8052 8.23483 13.7348C8.30516 13.6645 8.40054 13.625 8.5 13.625H13.625V8.5C13.625 8.40054 13.6645 8.30516 13.7348 8.23483C13.8052 8.16451 13.9005 8.125 14 8.125C14.0995 8.125 14.1948 8.16451 14.2652 8.23483C14.3355 8.30516 14.375 8.40054 14.375 8.5V13.625H19.5C19.5995 13.625 19.6948 13.6645 19.7652 13.7348C19.8355 13.8052 19.875 13.9005 19.875 14Z" fill="white"/>
</svg>
