<svg width="37" height="43" viewBox="0 0 37 43" fill="none" xmlns="http://www.w3.org/2000/svg">
<circle cx="18.5" cy="24.5" r="18" stroke="#201335"/>
<path d="M25.1875 22.9015V22.2552C25.1875 18.7087 22.4155 15.834 19 15.834C15.5845 15.834 12.8125 18.7087 12.8125 22.2552V22.9015C12.8136 23.6729 12.5935 24.4285 12.1782 25.0786L11.1625 26.6598C10.2357 28.1036 10.9434 30.0662 12.5558 30.5227C16.7689 31.717 21.2311 31.717 25.4442 30.5227C27.0566 30.0662 27.7642 28.1036 26.8375 26.6607L25.8218 25.0795C25.4062 24.4295 25.1858 23.6739 25.1866 22.9024L25.1875 22.9015Z" stroke="#201335" stroke-width="1.5"/>
<path opacity="0.5" d="M14.875 31.418C15.4754 33.0203 17.0952 34.168 19 34.168C20.9048 34.168 22.5246 33.0203 23.125 31.418" stroke="#201335" stroke-width="1.5" stroke-linecap="round"/>

<!--<path d="M29.072 7.512H28.208V6.732L30.668 4.368H26.768V3.324H32.156V4.272L29.78 6.54C31.256 6.72 32.372 7.716 32.372 9.276C32.372 11.028 31.052 12.144 29.288 12.144C27.584 12.144 26.36 11.1 26.36 9.3H27.524C27.524 10.428 28.22 11.088 29.312 11.088C30.44 11.088 31.172 10.368 31.172 9.252C31.172 8.208 30.452 7.512 29.072 7.512Z" fill="white"/>-->
</svg>
