<svg width="25" height="25" viewBox="0 0 25 25" fill="none" xmlns="http://www.w3.org/2000/svg">
<path d="M8.10969 16.64C8.18001 16.7102 8.27532 16.7497 8.37469 16.7497C8.47407 16.7497 8.56938 16.7102 8.6397 16.64L15.9997 9.28V14.875C15.9997 14.9745 16.0392 15.0698 16.1095 15.1402C16.1799 15.2105 16.2752 15.25 16.3747 15.25C16.4742 15.25 16.5695 15.2105 16.6399 15.1402C16.7102 15.0698 16.7497 14.9745 16.7497 14.875V8.375C16.7497 8.27554 16.7102 8.18016 16.6399 8.10983C16.5695 8.03951 16.4742 8 16.3747 8H9.87469C9.77524 8 9.67986 8.03951 9.60953 8.10983C9.5392 8.18016 9.49969 8.27554 9.49969 8.375C9.49969 8.47446 9.5392 8.56984 9.60953 8.64016C9.67986 8.71049 9.77524 8.75 9.87469 8.75H15.4697L8.10969 16.11C8.03947 16.1803 8.00002 16.2756 8.00002 16.375C8.00002 16.4744 8.03947 16.5697 8.10969 16.64Z" fill="#008000"/>
<circle cx="12.5" cy="12.5" r="12" stroke="#008000"/>
</svg>
