<svg width="43" height="19" viewBox="0 0 43 19" fill="none" xmlns="http://www.w3.org/2000/svg">
<path fill-rule="evenodd" clip-rule="evenodd" d="M8.00749 2.9051C7.51525 3.4916 6.72766 3.95419 5.94007 3.8881C5.84162 3.09509 6.22721 2.25252 6.67844 1.73211C7.17068 1.12909 8.0321 0.699546 8.72945 0.666504C8.81149 1.49255 8.49153 2.30208 8.00749 2.9051ZM8.72118 4.04505C8.02733 4.00484 7.39422 4.25515 6.88284 4.45733C6.55376 4.58745 6.27508 4.69763 6.06307 4.69763C5.82515 4.69763 5.53497 4.58155 5.20916 4.45123C4.78225 4.28047 4.29417 4.08524 3.78234 4.09461C2.60917 4.11113 1.51803 4.78023 0.919131 5.84583C-0.311476 7.97704 0.599174 11.1326 1.78876 12.8673C2.37125 13.7263 3.06859 14.668 3.98745 14.635C4.39169 14.6196 4.68247 14.4954 4.98341 14.3668C5.32987 14.2188 5.68978 14.065 6.25176 14.065C6.79426 14.065 7.13843 14.2148 7.46882 14.3586C7.78296 14.4953 8.08464 14.6265 8.53249 14.6185C9.48416 14.602 10.0831 13.7594 10.6655 12.9003C11.2941 11.9783 11.5704 11.0784 11.6123 10.9418L11.6172 10.926C11.6162 10.925 11.6084 10.9214 11.5947 10.9151C11.3846 10.8183 9.7785 10.0779 9.76309 8.09269C9.74763 6.42636 11.037 5.5821 11.24 5.44919C11.2523 5.44111 11.2607 5.43565 11.2644 5.43281C10.444 4.21026 9.1642 4.07809 8.72118 4.04505ZM15.3091 14.5276V1.64951H20.1085C22.5861 1.64951 24.3171 3.36769 24.3171 5.87888C24.3171 8.39007 22.5533 10.1248 20.0428 10.1248H17.2945V14.5276H15.3091ZM17.2943 3.33464H19.5832C21.3061 3.33464 22.2906 4.25982 22.2906 5.88713C22.2906 7.51445 21.3061 8.44789 19.575 8.44789H17.2943V3.33464ZM30.8723 12.9829C30.3472 13.9907 29.1904 14.6267 27.9434 14.6267C26.0975 14.6267 24.8095 13.5198 24.8095 11.8512C24.8095 10.1991 26.0565 9.24917 28.3618 9.10874L30.8395 8.96005V8.24965C30.8395 7.20056 30.1585 6.63059 28.9443 6.63059C27.9434 6.63059 27.2133 7.151 27.0656 7.94401H25.2771C25.3345 6.27539 26.8933 5.0611 29.0017 5.0611C31.2743 5.0611 32.751 6.25887 32.751 8.11748V14.5276H30.9133V12.9829H30.8723ZM28.4765 13.0986C27.4182 13.0986 26.7455 12.5864 26.7455 11.8017C26.7455 10.9921 27.3936 10.5213 28.6324 10.4469L30.8393 10.3065V11.0334C30.8393 12.2395 29.822 13.0986 28.4765 13.0986ZM38.8465 15.0315C38.0507 17.2866 37.1401 18.0301 35.2039 18.0301C35.0562 18.0301 34.564 18.0136 34.4492 17.9805V16.4358C34.5722 16.4523 34.8758 16.4689 35.0316 16.4689C35.9095 16.4689 36.4017 16.0971 36.7053 15.1307L36.8858 14.5607L33.5221 5.18501H35.5977L37.9359 12.7929H37.9769L40.315 5.18501H42.3332L38.8465 15.0315Z" fill="black"/>
</svg>
