<svg width="41" height="18" viewBox="0 0 41 18" fill="none" xmlns="http://www.w3.org/2000/svg">
<path fill-rule="evenodd" clip-rule="evenodd" d="M18.763 13.88V8.98895H21.2874C22.3218 8.98895 23.1949 8.64233 23.9067 7.95874L24.0775 7.78543C25.3776 6.3701 25.2922 4.16526 23.9067 2.85583C23.2139 2.16261 22.2649 1.78711 21.2874 1.80637H17.2351V13.88H18.763ZM18.7632 7.50612V3.289H21.3259C21.8765 3.289 22.3985 3.50082 22.7877 3.88595C23.6134 4.69471 23.6324 6.04265 22.8351 6.88029C22.446 7.2943 21.8954 7.52538 21.3259 7.50612H18.7632ZM31.2046 6.26415C30.5498 5.65758 29.6577 5.34948 28.5284 5.34948C27.0764 5.34948 25.9851 5.88865 25.2638 6.95737L26.6114 7.81427C27.1049 7.08254 27.7787 6.71667 28.6328 6.71667C29.1737 6.71667 29.6957 6.91886 30.1038 7.28473C30.5024 7.63134 30.7301 8.132 30.7301 8.66155V9.01779C30.1417 8.69043 29.4015 8.51713 28.4905 8.51713C27.4276 8.51713 26.5735 8.76746 25.9376 9.27775C25.3018 9.78804 24.9791 10.462 24.9791 11.3189C24.9601 12.0988 25.2923 12.8402 25.8807 13.3408C26.4786 13.88 27.2378 14.1496 28.1298 14.1496C29.1832 14.1496 30.0184 13.6778 30.6542 12.7342H30.7206V13.88H32.1821V8.78671C32.1821 7.71799 31.8595 6.87072 31.2046 6.26415ZM27.0577 12.3588C26.7445 12.1277 26.5546 11.7522 26.5546 11.3478C26.5546 10.8953 26.7635 10.5198 27.1716 10.2213C27.5892 9.92286 28.1113 9.76881 28.7282 9.76881C29.5825 9.75918 30.2469 9.95175 30.7215 10.3369C30.7215 10.9916 30.4652 11.5596 29.9621 12.041C29.5065 12.5032 28.8896 12.7632 28.2442 12.7632C27.817 12.7728 27.3994 12.6284 27.0577 12.3588ZM35.4657 17.5098L40.5714 5.61906H38.9107L36.5476 11.55H36.5191L34.0992 5.61906H32.4384L35.7884 13.3504L33.8904 17.5098H35.4657Z" fill="#3C4043"/>
<path d="M13.4881 7.93012C13.4881 7.45834 13.4501 6.98656 13.3742 6.52441H6.93042V9.1914H10.6221C10.4702 10.0483 9.97676 10.8186 9.2555 11.3V13.033H11.4572C12.7479 11.8295 13.4881 10.0483 13.4881 7.93012Z" fill="#4285F4"/>
<path d="M6.93077 14.7081C8.77186 14.7081 10.3282 14.0919 11.4576 13.0328L9.25586 11.2997C8.639 11.7233 7.85132 11.964 6.93077 11.964C5.14663 11.964 3.6377 10.7413 3.09676 9.10449H0.828613V10.8953C1.98641 13.235 4.34946 14.7081 6.93077 14.7081Z" fill="#34A853"/>
<path d="M3.09695 9.10458C2.8122 8.24768 2.8122 7.31375 3.09695 6.44722V4.66602H0.828446C-0.149195 6.62052 -0.149195 8.93127 0.828446 10.8858L3.09695 9.10458Z" fill="#FBBC04"/>
<path d="M6.93078 3.5877C7.90826 3.56844 8.84778 3.94394 9.55006 4.62753L11.505 2.64414C10.2618 1.46951 8.62951 0.824425 6.93078 0.843681C4.34946 0.843681 1.98641 2.32641 0.828613 4.66605L3.09676 6.45688C3.6377 4.81047 5.14663 3.5877 6.93078 3.5877Z" fill="#EA4335"/>
</svg>
