<svg width="19" height="23" viewBox="0 0 19 23" fill="none" xmlns="http://www.w3.org/2000/svg">
<path fill-rule="evenodd" clip-rule="evenodd" d="M5.35691 21.747L5.72478 19.3318L4.90529 19.312H0.992065L3.71162 1.48933C3.72009 1.43536 3.74748 1.38526 3.78748 1.34962C3.82768 1.31398 3.87891 1.29443 3.9325 1.29443H10.5308C12.7215 1.29443 14.2332 1.76549 15.0223 2.6954C15.3924 3.13163 15.628 3.58762 15.7421 4.08923C15.8617 4.61569 15.8637 5.24458 15.7471 6.01176L15.7386 6.06756V6.55919L16.1086 6.77588C16.4201 6.94675 16.6678 7.14226 16.8578 7.36608C17.1742 7.73919 17.3789 8.2133 17.4654 8.77519C17.5549 9.35317 17.5253 10.0411 17.3789 10.8199C17.2101 11.7156 16.9372 12.4958 16.5685 13.1341C16.2296 13.7222 15.7977 14.2102 15.2848 14.5882C14.7952 14.9475 14.2135 15.2201 13.5558 15.3947C12.9183 15.5662 12.1917 15.6527 11.3946 15.6527H10.8811C10.5141 15.6527 10.1574 15.7894 9.87741 16.0344C9.59663 16.2845 9.41102 16.6262 9.35407 16.9999L9.31526 17.2174L8.66522 21.4745L8.63586 21.6307C8.62798 21.6802 8.61458 21.7048 8.59488 21.7215C8.57734 21.7368 8.55212 21.747 8.52749 21.747H5.35691" fill="#28356A"/>
<path fill-rule="evenodd" clip-rule="evenodd" d="M16.4593 6.12402C16.4398 6.25416 16.4172 6.38715 16.392 6.5238C15.5218 11.1415 12.5447 12.7368 8.74264 12.7368H6.80672C6.3417 12.7368 5.94979 13.0857 5.87747 13.5598L4.60558 21.8985C4.55848 22.2099 4.7906 22.4904 5.09443 22.4904H8.52806C8.93456 22.4904 9.27997 22.1851 9.34401 21.7706L9.3777 21.5904L10.0242 17.35L10.0658 17.1175C10.129 16.7016 10.4752 16.3961 10.8817 16.3961H11.3952C14.7218 16.3961 17.3261 15.0002 18.0873 10.9605C18.4051 9.27298 18.2406 7.86387 17.3992 6.87287C17.1447 6.57411 16.8288 6.32605 16.4593 6.12402" fill="#298FC2"/>
<path fill-rule="evenodd" clip-rule="evenodd" d="M15.5487 5.74907C15.4157 5.70895 15.2785 5.6727 15.1379 5.63991C14.9964 5.60793 14.8516 5.57962 14.7024 5.55478C14.1804 5.46761 13.6084 5.42627 12.9958 5.42627H7.82411C7.69662 5.42627 7.57564 5.456 7.46746 5.50977C7.22885 5.6283 7.05171 5.86169 7.00875 6.14742L5.90848 13.35L5.87695 13.5599C5.94927 13.0858 6.34118 12.737 6.8062 12.737H8.74212C12.5442 12.737 15.5213 11.1409 16.3914 6.52398C16.4174 6.38733 16.4393 6.25434 16.4588 6.1242C16.2387 6.00344 16.0003 5.90018 15.7436 5.8122C15.6801 5.79041 15.6147 5.76943 15.5487 5.74907" fill="#22284F"/>
<path fill-rule="evenodd" clip-rule="evenodd" d="M7.00906 6.14754C7.05201 5.86181 7.22915 5.62842 7.46777 5.5107C7.57673 5.45673 7.69693 5.427 7.82441 5.427H12.9961C13.6087 5.427 14.1807 5.46855 14.7027 5.55571C14.8519 5.58036 14.9967 5.60887 15.1382 5.64084C15.2788 5.67343 15.416 5.70988 15.549 5.7498C15.615 5.77016 15.6804 5.79134 15.7445 5.81232C16.0012 5.9003 16.2398 6.00437 16.4599 6.12432C16.7188 4.41788 16.4577 3.25601 15.5651 2.20391C14.5809 1.04551 12.8048 0.549805 10.5319 0.549805H3.93345C3.46922 0.549805 3.07317 0.89867 3.00145 1.3736L0.253127 19.3796C0.198941 19.7358 0.464749 20.0572 0.812328 20.0572H4.88594L7.00906 6.14754" fill="#28356A"/>
</svg>
