<svg width="37" height="37" viewBox="0 0 37 37" fill="none" xmlns="http://www.w3.org/2000/svg">
<circle cx="18.5" cy="18.5" r="18" stroke="#201335"/>
<path opacity="0.5" d="M14.875 25.416C15.4754 27.0183 17.0952 28.166 19 28.166C20.9048 28.166 22.5246 27.0183 23.125 25.416" stroke="#201335" stroke-width="1.5" stroke-linecap="round"/>
<path d="M25.1876 16.9005V16.2543C25.1876 12.7077 22.4156 9.83301 19.0001 9.83301C15.5846 9.83301 12.8126 12.7077 12.8126 16.2543V16.9005C12.8137 17.6719 12.5935 18.4275 12.1782 19.0776L11.1626 20.6588C10.2358 22.1026 10.9435 24.0652 12.5559 24.5217C16.769 25.7161 21.2311 25.7161 25.4442 24.5217C27.0566 24.0652 27.7643 22.1026 26.8376 20.6598L25.8219 19.0785C25.4063 18.4285 25.1858 17.6729 25.1866 16.9014L25.1876 16.9005Z" stroke="#201335" stroke-width="1.5"/>
</svg>
