<svg width="33" height="33" viewBox="0 0 33 33" fill="none" xmlns="http://www.w3.org/2000/svg">
<rect width="33" height="33" rx="7" fill="#ECF6FE"/>
<path d="M16.9993 17.333C16.3805 17.333 15.787 17.5788 15.3494 18.0164C14.9118 18.454 14.666 19.0475 14.666 19.6663C14.666 20.2852 14.9118 20.8787 15.3494 21.3163C15.787 21.7538 16.3805 21.9997 16.9993 21.9997C17.6182 21.9997 18.2117 21.7538 18.6493 21.3163C19.0868 20.8787 19.3327 20.2852 19.3327 19.6663C19.3327 19.0475 19.0868 18.454 18.6493 18.0164C18.2117 17.5788 17.6182 17.333 16.9993 17.333ZM15.9993 19.6663C15.9993 19.4011 16.1047 19.1468 16.2922 18.9592C16.4798 18.7717 16.7341 18.6663 16.9993 18.6663C17.2646 18.6663 17.5189 18.7717 17.7065 18.9592C17.894 19.1468 17.9993 19.4011 17.9993 19.6663C17.9993 19.9316 17.894 20.1859 17.7065 20.3734C17.5189 20.561 17.2646 20.6663 16.9993 20.6663C16.7341 20.6663 16.4798 20.561 16.2922 20.3734C16.1047 20.1859 15.9993 19.9316 15.9993 19.6663Z" fill="#50B5FF"/>
<path d="M20.684 12.4108L18.5647 9.43945L10.772 15.6648L10.34 15.6601V15.6668H10V23.6668H24V15.6668H23.3587L22.0827 11.9341L20.684 12.4108ZM21.95 15.6668H15.2647L20.244 13.9695L21.2587 13.6448L21.95 15.6668ZM19.3667 12.8601L14.2267 14.6121L18.2973 11.3601L19.3667 12.8601ZM11.3333 21.1128V18.2195C11.6146 18.1198 11.8701 17.9586 12.0811 17.7477C12.2922 17.5367 12.4535 17.2813 12.5533 17.0001H21.4467C21.5464 17.2814 21.7077 17.5369 21.9188 17.748C22.1299 17.959 22.3854 18.1203 22.6667 18.2201V21.1135C22.3854 21.2132 22.1299 21.3745 21.9188 21.5856C21.7077 21.7966 21.5464 22.0521 21.4467 22.3335H12.5547C12.4548 22.0519 12.2933 21.7962 12.082 21.585C11.8707 21.3738 11.6149 21.2125 11.3333 21.1128Z" fill="#50B5FF"/>
</svg>
