<svg width="34" height="30" viewBox="0 0 34 30" fill="none" xmlns="http://www.w3.org/2000/svg">
<path d="M1.57129 16.9999L16.9999 1.57129L32.4284 16.9999" stroke="white" stroke-width="1.71429" stroke-linecap="round" stroke-linejoin="round"/>
<path d="M5 13.5713V27.2856C5 27.7402 5.18061 28.1763 5.5021 28.4978C5.82359 28.8193 6.25963 28.9999 6.71429 28.9999H11.8571C12.3118 28.9999 12.7478 28.8193 13.0693 28.4978C13.3908 28.1763 13.5714 27.7402 13.5714 27.2856V20.4284C13.5714 19.9738 13.752 19.5377 14.0735 19.2162C14.395 18.8948 14.8311 18.7141 15.2857 18.7141H18.7143C19.1689 18.7141 19.605 18.8948 19.9265 19.2162C20.248 19.5377 20.4286 19.9738 20.4286 20.4284V27.2856C20.4286 27.7402 20.6092 28.1763 20.9307 28.4978C21.2522 28.8193 21.6882 28.9999 22.1429 28.9999H27.2857C27.7404 28.9999 28.1764 28.8193 28.4979 28.4978C28.8194 28.1763 29 27.7402 29 27.2856V13.5713" stroke="white" stroke-width="1.71429" stroke-linecap="round" stroke-linejoin="round"/>
</svg>
