<svg width="27" height="34" viewBox="0 0 27 34" fill="none" xmlns="http://www.w3.org/2000/svg">
<path fill-rule="evenodd" clip-rule="evenodd" d="M13.5001 0.875C11.6104 0.875 9.79814 1.62567 8.46195 2.96186C7.12575 4.29806 6.37508 6.11033 6.37508 8C6.37508 9.88967 7.12575 11.7019 8.46195 13.0381C9.79814 14.3743 11.6104 15.125 13.5001 15.125C15.3898 15.125 17.202 14.3743 18.5382 13.0381C19.8744 11.7019 20.6251 9.88967 20.6251 8C20.6251 6.11033 19.8744 4.29806 18.5382 2.96186C17.202 1.62567 15.3898 0.875 13.5001 0.875ZM8.62508 8C8.62508 6.70707 9.1387 5.46709 10.0529 4.55285C10.9672 3.63861 12.2072 3.125 13.5001 3.125C14.793 3.125 16.033 3.63861 16.9472 4.55285C17.8615 5.46709 18.3751 6.70707 18.3751 8C18.3751 9.29293 17.8615 10.5329 16.9472 11.4471C16.033 12.3614 14.793 12.875 13.5001 12.875C12.2072 12.875 10.9672 12.3614 10.0529 11.4471C9.1387 10.5329 8.62508 9.29293 8.62508 8ZM13.5001 17.375C10.0306 17.375 6.83258 18.164 4.46408 19.496C2.13008 20.81 0.375084 22.799 0.375084 25.25V25.403C0.373584 27.146 0.372084 29.333 2.29058 30.896C3.23408 31.664 4.55558 32.2115 6.34058 32.5715C8.12858 32.9345 10.4611 33.125 13.5001 33.125C16.5391 33.125 18.8701 32.9345 20.6611 32.5715C22.4461 32.2115 23.7661 31.664 24.7111 30.896C26.6296 29.333 26.6266 27.146 26.6251 25.403V25.25C26.6251 22.799 24.8701 20.81 22.5376 19.496C20.1676 18.164 16.9711 17.375 13.5001 17.375ZM2.62508 25.25C2.62508 23.9735 3.55808 22.5875 5.56658 21.458C7.54058 20.348 10.3426 19.625 13.5016 19.625C16.6576 19.625 19.4596 20.348 21.4336 21.458C23.4436 22.5875 24.3751 23.9735 24.3751 25.25C24.3751 27.212 24.3151 28.316 23.2891 29.15C22.7341 29.603 21.8041 30.0455 20.2141 30.3665C18.6286 30.6875 16.4611 30.875 13.5001 30.875C10.5391 30.875 8.37008 30.6875 6.78608 30.3665C5.19608 30.0455 4.26608 29.603 3.71108 29.1515C2.68508 28.316 2.62508 27.212 2.62508 25.25Z" fill="white"/>
</svg>
