<svg width="26" height="27" viewBox="0 0 26 27" fill="none" xmlns="http://www.w3.org/2000/svg">
<path d="M25.9373 24.8622L18.8573 17.7822C20.5587 15.7397 21.4071 13.1199 21.2261 10.4677C21.045 7.81561 19.8485 5.33538 17.8854 3.54299C15.9222 1.75061 13.3437 0.784079 10.686 0.844465C8.02843 0.904851 5.49641 1.9875 3.61672 3.8672C1.73702 5.7469 0.654363 8.27892 0.593977 10.9365C0.533591 13.5941 1.50012 16.1727 3.2925 18.1359C5.08489 20.099 7.56512 21.2955 10.2172 21.4766C12.8694 21.6576 15.4892 20.8092 17.5317 19.1078L24.6117 26.1878L25.9373 24.8622ZM2.49983 11.1878C2.49983 9.51904 2.99468 7.88774 3.92181 6.5002C4.84893 5.11266 6.16669 4.0312 7.70844 3.39259C9.25019 2.75397 10.9467 2.58688 12.5834 2.91245C14.2201 3.23801 15.7235 4.0416 16.9035 5.22161C18.0836 6.40161 18.8871 7.90503 19.2127 9.54175C19.5383 11.1785 19.3712 12.875 18.7326 14.4167C18.094 15.9585 17.0125 17.2762 15.625 18.2033C14.2374 19.1305 12.6061 19.6253 10.9373 19.6253C8.70033 19.6228 6.55566 18.7331 4.97386 17.1513C3.39206 15.5695 2.50232 13.4248 2.49983 11.1878Z" fill="white"/>
</svg>
