<svg width="30" height="30" viewBox="0 0 30 30" fill="none" xmlns="http://www.w3.org/2000/svg">
<path d="M23.4375 16.875C21.5625 16.875 20.0625 17.625 18.9375 18.75L12.9375 15.5625C13.125 15 13.125 14.625 13.125 14.0625V13.3125L18.5625 10.875C19.6875 12.1875 21.375 13.125 23.4375 13.125C27 13.125 30 10.125 30 6.5625C30 3 27 0 23.4375 0C19.875 0 16.875 3 16.875 6.5625V7.3125L11.4375 9.75C10.3125 8.4375 8.625 7.5 6.5625 7.5C3 7.5 0 10.5 0 14.0625C0 17.625 3 20.625 6.5625 20.625C8.4375 20.625 9.9375 19.875 11.0625 18.75L16.875 21.9375V23.4375C16.875 27 19.875 30 23.4375 30C27 30 30 27 30 23.4375C30 19.875 27 16.875 23.4375 16.875ZM23.4375 1.875C26.0625 1.875 28.125 3.9375 28.125 6.5625C28.125 9.1875 26.0625 11.25 23.4375 11.25C20.8125 11.25 18.75 9.1875 18.75 6.5625C18.75 3.9375 20.8125 1.875 23.4375 1.875ZM6.5625 18.75C3.9375 18.75 1.875 16.6875 1.875 14.0625C1.875 11.4375 3.9375 9.375 6.5625 9.375C9.1875 9.375 11.25 11.4375 11.25 14.0625C11.25 16.6875 9.1875 18.75 6.5625 18.75ZM23.4375 28.125C20.8125 28.125 18.75 26.0625 18.75 23.4375C18.75 20.8125 20.8125 18.75 23.4375 18.75C26.0625 18.75 28.125 20.8125 28.125 23.4375C28.125 26.0625 26.0625 28.125 23.4375 28.125Z" fill="white"/>
</svg>
