<svg width="35" height="34" viewBox="0 0 35 34" fill="none" xmlns="http://www.w3.org/2000/svg">
<path d="M29.72 7.98031L28.9508 8.74953C28.5592 9.14114 28.028 9.36114 27.4742 9.36114C26.9204 9.36114 26.3893 9.14114 25.9977 8.74953C25.606 8.35792 25.386 7.82679 25.386 7.27297C25.386 6.71915 25.606 6.18802 25.9977 5.79641L26.7669 5.02719L21.8647 0.125L15.6772 6.3125L15.3959 7.16258L14.5459 7.44383L0.875 21.1147L5.78 26.0197L6.54922 25.2505C6.94083 24.8589 7.47196 24.6389 8.02578 24.6389C8.5796 24.6389 9.11073 24.8589 9.50234 25.2505C9.89395 25.6421 10.114 26.1732 10.114 26.727C10.114 27.2808 9.89395 27.812 9.50234 28.2036L8.73313 28.9728L13.6353 33.875L27.3041 20.2063L27.5853 19.3562L28.4354 19.0749L34.6229 12.8874L29.72 7.98031ZM15.0556 8.36211L16.5934 6.82437L18.9137 9.14469L17.3752 10.6824L15.0556 8.36211ZM18.0791 11.3855L19.6175 9.84711L21.9041 12.1337L20.3656 13.6721L18.0791 11.3855ZM21.0716 14.378L22.61 12.8396L24.8966 15.1262L23.3609 16.6681L21.0716 14.378ZM26.3851 19.6909L24.0648 17.3705L25.6025 15.8321L27.9228 18.1524L26.3851 19.6909Z" fill="white"/>
</svg>
