<svg width="32" height="20" viewBox="0 0 32 20" fill="none" xmlns="http://www.w3.org/2000/svg">
<path d="M24.3432 10.9374H4.6568C4.04433 10.9374 3.56311 10.4562 3.56311 9.84369C3.56311 9.23122 4.04433 8.75 4.6568 8.75H24.3432C24.9556 8.75 25.4369 9.23122 25.4369 9.84369C25.4369 10.4562 24.9556 10.9374 24.3432 10.9374Z" fill="#201335"/>
<path d="M10.1252 18.5928C9.9818 18.5945 9.83958 18.5662 9.70773 18.5097C9.57588 18.4532 9.45731 18.3697 9.35965 18.2647L1.70384 10.6088C1.26636 10.1714 1.26636 9.49327 1.70384 9.0558L9.35965 1.42186C9.79713 0.984381 10.4752 0.984381 10.9127 1.42186C11.3502 1.85933 11.3502 2.53742 10.9127 2.97489L4.02246 9.86513L10.9127 16.7554C11.3502 17.1928 11.3502 17.8709 10.9127 18.3084C10.694 18.5271 10.4096 18.6365 10.1471 18.6365L10.1252 18.5928Z" fill="#201335"/>
</svg>
