<svg width="12" height="12" viewBox="0 0 12 12" fill="none" xmlns="http://www.w3.org/2000/svg">
<path d="M10.265 2.735C10.1947 2.66477 10.0994 2.62533 10 2.62533C9.90062 2.62533 9.80531 2.66477 9.735 2.735L2.375 10.095V4.5C2.375 4.40054 2.33549 4.30516 2.26516 4.23483C2.19484 4.16451 2.09946 4.125 2 4.125C1.90054 4.125 1.80516 4.16451 1.73483 4.23483C1.66451 4.30516 1.625 4.40054 1.625 4.5V11C1.625 11.0995 1.66451 11.1948 1.73483 11.2652C1.80516 11.3355 1.90054 11.375 2 11.375H8.5C8.59946 11.375 8.69484 11.3355 8.76517 11.2652C8.83549 11.1948 8.875 11.0995 8.875 11C8.875 10.9005 8.83549 10.8052 8.76517 10.7348C8.69484 10.6645 8.59946 10.625 8.5 10.625H2.905L10.265 3.265C10.3352 3.19469 10.3747 3.09938 10.3747 3C10.3747 2.90062 10.3352 2.80531 10.265 2.735Z" fill="#FF3D00"/>
<path d="M11 1H1" stroke="#FF3D00" stroke-linecap="round"/>
</svg>
