<svg width="12" height="12" viewBox="0 0 12 12" fill="none" xmlns="http://www.w3.org/2000/svg">
<path d="M1.735 9.265C1.80531 9.33523 1.90062 9.37467 2 9.37467C2.09938 9.37467 2.19469 9.33523 2.265 9.265L9.625 1.905V7.5C9.625 7.59946 9.66451 7.69484 9.73484 7.76517C9.80516 7.83549 9.90054 7.875 10 7.875C10.0995 7.875 10.1948 7.83549 10.2652 7.76517C10.3355 7.69484 10.375 7.59946 10.375 7.5V1C10.375 0.900544 10.3355 0.805161 10.2652 0.734835C10.1948 0.664509 10.0995 0.625 10 0.625H3.5C3.40054 0.625 3.30516 0.664509 3.23483 0.734835C3.16451 0.805161 3.125 0.900544 3.125 1C3.125 1.09946 3.16451 1.19484 3.23483 1.26516C3.30516 1.33549 3.40054 1.375 3.5 1.375H9.095L1.735 8.735C1.66477 8.80531 1.62533 8.90062 1.62533 9C1.62533 9.09938 1.66477 9.19469 1.735 9.265Z" fill="#8DC73F"/>
<path d="M1 11H11" stroke="#8DC73F" stroke-linecap="round"/>
</svg>
