<svg width="32" height="20" viewBox="0 0 32 20" fill="none" xmlns="http://www.w3.org/2000/svg">
<path d="M24.3435 10.9374H4.65716C4.0447 10.9374 3.56348 10.4562 3.56348 9.84369C3.56348 9.23122 4.0447 8.75 4.65716 8.75H24.3435C24.956 8.75 25.4372 9.23122 25.4372 9.84369C25.4372 10.4562 24.956 10.9374 24.3435 10.9374Z" fill="white"/>
<path d="M10.1255 18.5928C9.98204 18.5945 9.83982 18.5662 9.70797 18.5097C9.57612 18.4532 9.45756 18.3697 9.3599 18.2647L1.70408 10.6088C1.26661 10.1714 1.26661 9.49327 1.70408 9.0558L9.3599 1.42186C9.79737 0.984381 10.4755 0.984381 10.9129 1.42186C11.3504 1.85933 11.3504 2.53742 10.9129 2.97489L4.0227 9.86513L10.9129 16.7554C11.3504 17.1928 11.3504 17.8709 10.9129 18.3084C10.6942 18.5271 10.4098 18.6365 10.1474 18.6365L10.1255 18.5928Z" fill="white"/>
</svg>
