<svg width="45" height="45" viewBox="0 0 45 45" fill="none" xmlns="http://www.w3.org/2000/svg">
<circle cx="22.5" cy="22.5" r="22" stroke="white" stroke-opacity="0.2"/>
<path d="M22.8817 23.0025L27.8557 18.0285C27.954 17.9137 28.0054 17.766 27.9996 17.615C27.9937 17.464 27.9311 17.3208 27.8243 17.2139C27.7174 17.1071 27.5742 17.0445 27.4232 17.0386C27.2722 17.0328 27.1245 17.0842 27.0097 17.1825L22.0357 22.1565L17.0617 17.1765C16.9487 17.0635 16.7955 17 16.6357 17C16.4759 17 16.3227 17.0635 16.2097 17.1765C16.0967 17.2894 16.0333 17.4427 16.0333 17.6025C16.0333 17.7622 16.0967 17.9155 16.2097 18.0285L21.1897 23.0025L16.2097 27.9765C16.1469 28.0302 16.0959 28.0964 16.0599 28.1709C16.0239 28.2453 16.0036 28.3264 16.0004 28.409C15.9973 28.4917 16.0112 28.5741 16.0413 28.651C16.0715 28.728 16.1173 28.798 16.1757 28.8564C16.2342 28.9149 16.3041 28.9607 16.3811 28.9908C16.4581 29.021 16.5405 29.0349 16.6232 29.0317C16.7058 29.0285 16.7869 29.0083 16.8613 28.9723C16.9357 28.9363 17.0019 28.8853 17.0557 28.8225L22.0357 23.8485L27.0097 28.8225C27.1245 28.9208 27.2722 28.9721 27.4232 28.9663C27.5742 28.9604 27.7174 28.8978 27.8243 28.791C27.9311 28.6841 27.9937 28.5409 27.9996 28.3899C28.0054 28.2389 27.954 28.0912 27.8557 27.9765L22.8817 23.0025Z" fill="white"/>
</svg>
