<svg width="22" height="22" viewBox="0 0 22 22" fill="none" xmlns="http://www.w3.org/2000/svg">
<path d="M11 22C17.0751 22 22 17.0751 22 11C22 4.92487 17.0751 0 11 0C4.92487 0 0 4.92487 0 11C0 17.0751 4.92487 22 11 22Z" fill="#FFDD67"/>
<path d="M6.78353 10.0817C7.79605 10.0817 8.61686 9.26089 8.61686 8.24837C8.61686 7.23585 7.79605 6.41504 6.78353 6.41504C5.77101 6.41504 4.9502 7.23585 4.9502 8.24837C4.9502 9.26089 5.77101 10.0817 6.78353 10.0817Z" fill="#664E27"/>
<path d="M15.2161 10.0817C16.2287 10.0817 17.0495 9.26089 17.0495 8.24837C17.0495 7.23585 16.2287 6.41504 15.2161 6.41504C14.2036 6.41504 13.3828 7.23585 13.3828 8.24837C13.3828 9.26089 14.2036 10.0817 15.2161 10.0817Z" fill="#664E27"/>
<path d="M17.2333 13.1988C17.2333 12.9055 17.0499 12.5388 16.5733 12.4288C15.2899 12.1721 13.4199 11.9521 10.9999 11.9521C8.57993 11.9521 6.70993 12.2088 5.4266 12.4288C4.94993 12.5388 4.7666 12.9055 4.7666 13.1988C4.7666 15.8755 6.81993 18.5521 10.9999 18.5521C15.1799 18.5521 17.2333 15.8755 17.2333 13.1988Z" fill="#664E27"/>
<path d="M15.657 13.311C14.8503 13.1643 13.1637 12.9443 11.0003 12.9443C8.83699 12.9443 7.15033 13.1643 6.34366 13.311C5.86699 13.3843 5.83033 13.5677 5.86699 13.861C5.90366 14.0077 5.90366 14.2277 5.97699 14.4477C6.01366 14.6677 6.08699 14.7777 6.45366 14.741C7.15033 14.6677 14.887 14.6677 15.5837 14.741C15.9503 14.7777 15.987 14.6677 16.0603 14.4477C16.097 14.2277 16.1337 14.0443 16.1703 13.861C16.1703 13.5677 16.1337 13.3843 15.657 13.311Z" fill="white"/>
</svg>
