<svg width="22" height="22" viewBox="0 0 22 22" fill="none" xmlns="http://www.w3.org/2000/svg">
<path d="M11 22C17.0751 22 22 17.0751 22 11C22 4.92487 17.0751 0 11 0C4.92487 0 0 4.92487 0 11C0 17.0751 4.92487 22 11 22Z" fill="#FFDD67"/>
<path d="M6.78353 10.8532C7.79605 10.8532 8.61686 10.0324 8.61686 9.01986C8.61686 8.00733 7.79605 7.18652 6.78353 7.18652C5.77101 7.18652 4.9502 8.00733 4.9502 9.01986C4.9502 10.0324 5.77101 10.8532 6.78353 10.8532Z" fill="#664E27"/>
<path d="M15.2171 10.8532C16.2296 10.8532 17.0505 10.0324 17.0505 9.01986C17.0505 8.00733 16.2296 7.18652 15.2171 7.18652C14.2046 7.18652 13.3838 8.00733 13.3838 9.01986C13.3838 10.0324 14.2046 10.8532 15.2171 10.8532Z" fill="#664E27"/>
<path d="M15.62 14.0431C12.65 16.1331 9.35004 16.0965 6.38004 14.0431C6.01337 13.7865 5.72004 14.2265 5.94004 14.6298C6.85671 16.0965 8.65337 17.4531 11 17.4531C13.3467 17.4531 15.1434 16.1331 16.06 14.6298C16.28 14.2265 15.9867 13.7865 15.62 14.0431Z" fill="#664E27"/>
</svg>
