<svg width="16" height="16" viewBox="0 0 16 16" fill="none" xmlns="http://www.w3.org/2000/svg">
<path d="M7.96634 11.9997C8.19967 11.9997 8.39701 11.919 8.55834 11.7577C8.71967 11.5963 8.80012 11.3992 8.79967 11.1663C8.79967 10.933 8.71923 10.7357 8.55834 10.5743C8.39745 10.413 8.20012 10.3326 7.96634 10.333C7.73301 10.333 7.5359 10.4137 7.37501 10.575C7.21412 10.7363 7.13345 10.9335 7.13301 11.1663C7.13301 11.3997 7.21367 11.597 7.37501 11.7583C7.53634 11.9197 7.73345 12.0001 7.96634 11.9997ZM7.36634 9.43301H8.59967C8.59967 9.06634 8.64145 8.77745 8.72501 8.56634C8.80856 8.35523 9.04456 8.06634 9.43301 7.69967C9.7219 7.41079 9.94967 7.13567 10.1163 6.87434C10.283 6.61301 10.3663 6.29923 10.3663 5.93301C10.3663 5.31079 10.1386 4.83301 9.68301 4.49967C9.22745 4.16634 8.68856 3.99967 8.06634 3.99967C7.43301 3.99967 6.91901 4.16634 6.52434 4.49967C6.12967 4.83301 5.85479 5.23301 5.69967 5.69967L6.79967 6.13301C6.85523 5.93301 6.98034 5.71634 7.17501 5.48301C7.36967 5.24967 7.66679 5.13301 8.06634 5.13301C8.4219 5.13301 8.68856 5.23034 8.86634 5.42501C9.04412 5.61967 9.13301 5.83345 9.13301 6.06634C9.13301 6.28856 9.06634 6.49701 8.93301 6.69167C8.79967 6.88634 8.63301 7.06679 8.43301 7.23301C7.94412 7.66634 7.64412 7.99412 7.53301 8.21634C7.4219 8.43856 7.36634 8.84412 7.36634 9.43301ZM7.99967 14.6663C7.07745 14.6663 6.21079 14.4912 5.39967 14.141C4.58856 13.7908 3.88301 13.3159 3.28301 12.7163C2.68301 12.1163 2.20812 11.4108 1.85834 10.5997C1.50856 9.78856 1.33345 8.9219 1.33301 7.99967C1.33301 7.07745 1.50812 6.21079 1.85834 5.39967C2.20856 4.58856 2.68345 3.88301 3.28301 3.28301C3.88301 2.68301 4.58856 2.20812 5.39967 1.85834C6.21079 1.50856 7.07745 1.33345 7.99967 1.33301C8.9219 1.33301 9.78856 1.50812 10.5997 1.85834C11.4108 2.20856 12.1163 2.68345 12.7163 3.28301C13.3163 3.88301 13.7915 4.58856 14.1417 5.39967C14.4919 6.21079 14.6668 7.07745 14.6663 7.99967C14.6663 8.9219 14.4912 9.78856 14.141 10.5997C13.7908 11.4108 13.3159 12.1163 12.7163 12.7163C12.1163 13.3163 11.4108 13.7915 10.5997 14.1417C9.78856 14.4919 8.9219 14.6668 7.99967 14.6663Z" fill="black"/>
</svg>
