<svg width="28" height="27" viewBox="0 0 28 27" fill="none" xmlns="http://www.w3.org/2000/svg">
<path d="M6.4121 20.6968C6.18472 20.6514 6.00282 20.6059 5.77544 20.5149C5.54806 20.424 5.36616 20.3785 5.18425 20.2876C4.77497 20.1057 4.41116 19.8783 4.04735 19.6054C3.31974 19.1052 2.72855 18.423 2.2738 17.6045C1.81904 16.8314 1.54618 15.9219 1.5007 15.0578C1.45523 14.6031 1.5007 14.1938 1.54618 13.739C1.59166 13.5116 1.63713 13.3297 1.68261 13.1024C1.72808 12.875 1.81904 12.6931 1.86451 12.4657L1.90999 13.1024C1.90999 13.3297 1.95546 13.5116 2.00094 13.739C2.04642 14.1483 2.13737 14.5576 2.22832 14.9214C2.41022 15.6945 2.68308 16.4221 3.09236 17.1042C3.50164 17.7864 3.9564 18.423 4.54759 19.0142C4.82045 19.2871 5.13878 19.5599 5.45711 19.8328C5.59354 19.9692 5.77544 20.1057 5.95734 20.2421L6.4121 20.6968ZM6.27567 22.334C6.13925 22.4249 5.95734 22.4704 5.77544 22.5159C5.59354 22.5614 5.45711 22.6068 5.2752 22.6068C4.95687 22.6523 4.59307 22.6978 4.22926 22.6523C3.54712 22.6068 2.81951 22.4249 2.22832 22.1066C1.59166 21.7883 1.04595 21.288 0.682139 20.6968C0.500235 20.424 0.318331 20.1057 0.181904 19.7873C0.136428 19.6509 0.0909518 19.469 0.0454759 19.2871C0.0454759 19.1507 0 19.0142 0 18.8323C0.136428 18.9688 0.22738 19.1052 0.318331 19.1961C0.454759 19.3326 0.545711 19.469 0.636663 19.5599C0.864042 19.7873 1.04595 20.0147 1.27333 20.1966C1.72808 20.6059 2.18284 20.9697 2.72855 21.2426C3.22879 21.5154 3.81998 21.7428 4.36569 21.9247C4.63854 22.0156 4.95687 22.0611 5.2752 22.1521C5.41163 22.1975 5.59354 22.1975 5.72996 22.243C5.95734 22.2885 6.09377 22.2885 6.27567 22.334ZM16.5532 0.232685C16.7806 0.278161 16.9625 0.369113 17.1899 0.460064C17.4173 0.551016 17.5992 0.641968 17.7811 0.73292C18.1904 0.960299 18.5542 1.18768 18.918 1.46053C19.6456 2.00624 20.2368 2.73386 20.6461 3.55243C21.0553 4.37099 21.2827 5.28051 21.2827 6.14455C21.2827 6.59931 21.2372 7.00859 21.1463 7.46335C21.1008 7.69073 21.0553 7.87264 20.9644 8.10001C20.8734 8.32739 20.828 8.5093 20.737 8.6912L20.6915 8.05454C20.6915 7.82716 20.6915 7.64526 20.6461 7.41788L20.5096 6.19003C20.3732 5.41694 20.1003 4.64385 19.7365 3.91623C19.3727 3.18862 18.918 2.55196 18.3723 1.96077C18.0994 1.64244 17.7811 1.36958 17.5082 1.05125C17.3718 0.914823 17.1899 0.778396 17.008 0.641968L16.5532 0.232685ZM20.5096 0.0507812C20.6915 0.0962571 20.828 0.141733 20.9644 0.232685C21.1008 0.278161 21.2827 0.369113 21.4191 0.460064C21.692 0.641968 21.9649 0.823872 22.2377 1.05125C22.738 1.50601 23.1472 2.05172 23.3746 2.68838C23.6475 3.32505 23.7384 4.00718 23.6475 4.68932C23.602 5.00765 23.511 5.32598 23.4201 5.64432C23.3746 5.78074 23.2837 5.96265 23.2382 6.09908C23.1472 6.2355 23.1018 6.37193 22.9653 6.50836V6.0536V5.59884C22.9653 5.28051 22.9199 5.00765 22.9199 4.7348C22.8289 4.14361 22.738 3.5979 22.5106 3.09767C22.2832 2.55196 22.0103 2.0972 21.692 1.59696C21.5101 1.36958 21.3282 1.09673 21.1463 0.869347C21.0553 0.73292 20.9644 0.641968 20.828 0.50554C20.737 0.278161 20.6006 0.141733 20.5096 0.0507812Z" fill="#201335"/>
<path d="M3.63795 6.82471C2.72843 7.234 2.4101 8.32542 2.81938 9.23494L8.54935 21.1951L11.7327 19.6944L6.0027 7.68875C5.59341 6.77924 4.54747 6.36995 3.63795 6.82471ZM18.6905 16.3292L22.0557 14.7375L15.5072 1.09475C15.0524 0.185231 13.961 -0.224052 13.006 0.230707C12.0965 0.685466 11.6872 1.77689 12.1419 2.73188L18.6905 16.3292Z" fill="#FFDD67"/>
<path d="M13.0512 0.185779C12.9602 0.231255 12.8693 0.276731 12.7783 0.367683C13.6424 0.140304 14.5519 0.549587 14.9612 1.36815L21.5097 15.0109L22.1009 14.7381L15.5524 1.0953C15.0976 0.140304 14.0062 -0.268979 13.0512 0.185779Z" fill="#EBA352"/>
<path d="M11.733 19.6487L15.2347 17.9661L8.54973 4.0505C8.09497 3.09551 6.9126 2.64075 5.9576 3.09551C5.00261 3.55027 4.59333 4.73264 5.04808 5.68763L11.733 19.6487Z" fill="#FFDD67"/>
<path d="M5.95743 3.14185C5.86647 3.18733 5.77552 3.2328 5.68457 3.32376C6.54861 3.09638 7.54908 3.50566 7.95837 4.3697L12.0967 13.0556L13.0971 13.6468L8.54955 4.09685C8.09479 3.09638 6.9579 2.68709 5.95743 3.14185Z" fill="#EBA352"/>
<path d="M14.6891 16.8745L18.1907 15.1918L11.5058 1.27622C11.051 0.321224 9.86865 -0.133535 8.91366 0.366699C7.95866 0.821458 7.54938 2.00383 8.00414 2.95883L14.6891 16.8745Z" fill="#FFDD67"/>
<path d="M8.91329 0.32154C8.82234 0.367016 8.73139 0.457968 8.64044 0.503443C9.50448 0.276064 10.505 0.685347 10.9142 1.54939L15.5983 11.3722L16.5987 11.9634L11.5054 1.27653C11.0507 0.276064 9.86829 -0.133219 8.91329 0.32154ZM3.63809 6.82459C3.54714 6.87007 3.45619 6.91554 3.36523 7.0065C4.1838 6.77912 5.04784 7.1884 5.41165 8.00697L8.82234 15.1467L9.82281 15.7379L6.00284 7.73411C5.59355 6.77912 4.54761 6.36983 3.63809 6.82459Z" fill="#EBA352"/>
<path d="M26.7394 5.46089C25.5116 4.50589 23.5106 5.55184 22.5102 8.8261C21.828 11.0999 21.7371 11.782 20.2818 12.4642L19.4633 10.7816C19.4633 10.7816 6.54811 17.0118 7.04834 18.0122C7.04834 18.0122 8.59453 22.8327 11.2321 25.061C15.1431 28.4262 24.2837 24.8336 24.693 16.1477C24.9204 11.0999 28.0582 6.50683 26.7394 5.46089Z" fill="#FFDD67"/>
<path d="M26.7394 5.45896C26.512 5.27705 26.2392 5.1861 25.9663 5.14062C26.0118 5.1861 26.1027 5.1861 26.1482 5.23158C27.5125 6.27752 26.1027 8.68774 25.3296 10.8706C24.693 12.5987 24.1473 14.3722 24.2382 16.1003C24.602 23.6493 17.0076 27.2419 12.46 25.8776C16.9166 27.7421 25.1932 24.195 24.8294 16.3277C24.7385 14.5996 25.2387 12.917 25.9208 11.098C26.6484 8.91512 28.0582 6.5049 26.7394 5.45896Z" fill="#EBA352"/>
<path d="M20.6909 12.2803C17.8714 12.5986 13.7331 16.646 16.6436 21.0571C14.5062 16.6005 18.0079 13.5991 20.2362 12.5531C20.4636 12.3712 20.6909 12.2803 20.6909 12.2803Z" fill="#EBA352"/>
</svg>
