<svg width="22" height="22" viewBox="0 0 22 22" fill="none" xmlns="http://www.w3.org/2000/svg">
<path d="M11 22C17.0751 22 22 17.0751 22 11C22 4.92487 17.0751 0 11 0C4.92487 0 0 4.92487 0 11C0 17.0751 4.92487 22 11 22Z" fill="#FFDD67"/>
<path d="M8.61668 9.67953C9.13001 10.7429 8.47001 12.0995 7.18668 12.7229C5.90335 13.3095 4.43668 12.9429 3.92335 11.8795C3.63001 11.1829 8.32335 8.98286 8.61668 9.67953ZM13.3833 9.67953C12.87 10.7429 13.53 12.0995 14.8133 12.7229C16.0967 13.3095 17.5633 12.9429 18.0767 11.8795C18.37 11.1829 13.6767 8.98286 13.3833 9.67953Z" fill="#664E27"/>
<path d="M7.58995 6.52761C6.59995 7.73761 4.21662 8.83761 2.63995 8.83761C2.41995 8.83761 2.38328 9.64428 2.63995 9.64428C4.43662 9.64428 7.03995 8.43428 8.21328 7.04094C8.39662 6.85761 7.73662 6.38094 7.58995 6.52761ZM14.41 6.52761C15.4 7.73761 17.7833 8.83761 19.36 8.83761C19.58 8.83761 19.6166 9.64428 19.36 9.64428C17.5633 9.64428 14.96 8.43428 13.7866 7.04094C13.6033 6.85761 14.2633 6.38094 14.41 6.52761Z" fill="#917524"/>
<path d="M14.1537 16.2793C12.1737 15.3626 9.82703 15.3626 7.84703 16.2793C7.37037 16.4993 7.95703 17.8193 8.47037 17.5626C9.79037 16.9393 11.7337 16.7193 13.567 17.5626C14.0437 17.7826 14.667 16.536 14.1537 16.2793Z" fill="#664E27"/>
</svg>
