<svg width="16" height="14" viewBox="0 0 16 14" fill="none" xmlns="http://www.w3.org/2000/svg">
<path d="M15.3544 5.96845L15.3491 5.96612L1.11177 0.0609016C0.992019 0.0107796 0.861712 -0.00887757 0.732504 0.00368835C0.603296 0.0162543 0.479218 0.0606514 0.371368 0.132908C0.257422 0.207571 0.163826 0.309392 0.0990009 0.429208C0.0341756 0.549024 0.000155046 0.683077 1.82021e-07 0.819306V4.59599C6.34988e-05 4.78223 0.0650925 4.9626 0.183879 5.10604C0.302665 5.24947 0.467767 5.34697 0.650728 5.38173L8.41579 6.81753C8.4463 6.82332 8.47384 6.83957 8.49365 6.86349C8.51346 6.88741 8.5243 6.91749 8.5243 6.94855C8.5243 6.9796 8.51346 7.00968 8.49365 7.0336C8.47384 7.05752 8.4463 7.07377 8.41579 7.07956L0.651061 8.51536C0.468152 8.55003 0.303059 8.6474 0.18422 8.79071C0.0653802 8.93401 0.000233362 9.11427 1.82021e-07 9.30043V13.0778C-8.83517e-05 13.2079 0.0321211 13.3359 0.0937382 13.4505C0.155355 13.5651 0.244452 13.6625 0.353033 13.7342C0.483645 13.821 0.636928 13.8673 0.793741 13.8675C0.902758 13.8674 1.01066 13.8456 1.1111 13.8032L15.3481 7.93164L15.3544 7.92864C15.5461 7.84628 15.7094 7.70954 15.8241 7.53534C15.9388 7.36115 16 7.15714 16 6.94855C16 6.73996 15.9388 6.53594 15.8241 6.36175C15.7094 6.18755 15.5461 6.05081 15.3544 5.96845Z" fill="black"/>
</svg>
