<svg width="148" height="148" viewBox="0 0 148 148" fill="none" xmlns="http://www.w3.org/2000/svg">
<path d="M5.56897 0.5H0.5V5.56897H5.56897V0.5Z" fill="black"/>
<path d="M10.6379 0.5H5.56897V5.56897H10.6379V0.5Z" fill="black"/>
<path d="M15.7069 0.5H10.6379V5.56897H15.7069V0.5Z" fill="black"/>
<path d="M20.7759 0.5H15.7069V5.56897H20.7759V0.5Z" fill="black"/>
<path d="M25.8448 0.5H20.7759V5.56897H25.8448V0.5Z" fill="black"/>
<path d="M30.9138 0.5H25.8448V5.56897H30.9138V0.5Z" fill="black"/>
<path d="M35.9828 0.5H30.9138V5.56897H35.9828V0.5Z" fill="black"/>
<path d="M46.1207 0.5H41.0517V5.56897H46.1207V0.5Z" fill="black"/>
<path d="M51.1897 0.5H46.1207V5.56897H51.1897V0.5Z" fill="black"/>
<path d="M61.3276 0.5H56.2586V5.56897H61.3276V0.5Z" fill="black"/>
<path d="M81.6035 0.5H76.5345V5.56897H81.6035V0.5Z" fill="black"/>
<path d="M96.8103 0.5H91.7414V5.56897H96.8103V0.5Z" fill="black"/>
<path d="M117.086 0.5H112.017V5.56897H117.086V0.5Z" fill="black"/>
<path d="M122.155 0.5H117.086V5.56897H122.155V0.5Z" fill="black"/>
<path d="M127.224 0.5H122.155V5.56897H127.224V0.5Z" fill="black"/>
<path d="M132.293 0.5H127.224V5.56897H132.293V0.5Z" fill="black"/>
<path d="M137.362 0.5H132.293V5.56897H137.362V0.5Z" fill="black"/>
<path d="M142.431 0.5H137.362V5.56897H142.431V0.5Z" fill="black"/>
<path d="M147.5 0.5H142.431V5.56897H147.5V0.5Z" fill="black"/>
<path d="M5.56897 5.56897H0.5V10.6379H5.56897V5.56897Z" fill="black"/>
<path d="M35.9828 5.56897H30.9138V10.6379H35.9828V5.56897Z" fill="black"/>
<path d="M61.3276 5.56897H56.2586V10.6379H61.3276V5.56897Z" fill="black"/>
<path d="M66.3966 5.56897H61.3276V10.6379H66.3966V5.56897Z" fill="black"/>
<path d="M76.5345 5.56897H71.4655V10.6379H76.5345V5.56897Z" fill="black"/>
<path d="M86.6724 5.56897H81.6035V10.6379H86.6724V5.56897Z" fill="black"/>
<path d="M106.948 5.56897H101.879V10.6379H106.948V5.56897Z" fill="black"/>
<path d="M117.086 5.56897H112.017V10.6379H117.086V5.56897Z" fill="black"/>
<path d="M147.5 5.56897H142.431V10.6379H147.5V5.56897Z" fill="black"/>
<path d="M5.56897 10.6379H0.5V15.7069H5.56897V10.6379Z" fill="black"/>
<path d="M15.7069 10.6379H10.6379V15.7069H15.7069V10.6379Z" fill="black"/>
<path d="M20.7759 10.6379H15.7069V15.7069H20.7759V10.6379Z" fill="black"/>
<path d="M25.8448 10.6379H20.7759V15.7069H25.8448V10.6379Z" fill="black"/>
<path d="M35.9828 10.6379H30.9138V15.7069H35.9828V10.6379Z" fill="black"/>
<path d="M46.1207 10.6379H41.0517V15.7069H46.1207V10.6379Z" fill="black"/>
<path d="M51.1897 10.6379H46.1207V15.7069H51.1897V10.6379Z" fill="black"/>
<path d="M56.2586 10.6379H51.1897V15.7069H56.2586V10.6379Z" fill="black"/>
<path d="M61.3276 10.6379H56.2586V15.7069H61.3276V10.6379Z" fill="black"/>
<path d="M66.3966 10.6379H61.3276V15.7069H66.3966V10.6379Z" fill="black"/>
<path d="M76.5345 10.6379H71.4655V15.7069H76.5345V10.6379Z" fill="black"/>
<path d="M81.6035 10.6379H76.5345V15.7069H81.6035V10.6379Z" fill="black"/>
<path d="M91.7414 10.6379H86.6724V15.7069H91.7414V10.6379Z" fill="black"/>
<path d="M101.879 10.6379H96.8103V15.7069H101.879V10.6379Z" fill="black"/>
<path d="M106.948 10.6379H101.879V15.7069H106.948V10.6379Z" fill="black"/>
<path d="M117.086 10.6379H112.017V15.7069H117.086V10.6379Z" fill="black"/>
<path d="M127.224 10.6379H122.155V15.7069H127.224V10.6379Z" fill="black"/>
<path d="M132.293 10.6379H127.224V15.7069H132.293V10.6379Z" fill="black"/>
<path d="M137.362 10.6379H132.293V15.7069H137.362V10.6379Z" fill="black"/>
<path d="M147.5 10.6379H142.431V15.7069H147.5V10.6379Z" fill="black"/>
<path d="M5.56897 15.7069H0.5V20.7759H5.56897V15.7069Z" fill="black"/>
<path d="M15.7069 15.7069H10.6379V20.7759H15.7069V15.7069Z" fill="black"/>
<path d="M20.7759 15.7069H15.7069V20.7759H20.7759V15.7069Z" fill="black"/>
<path d="M25.8448 15.7069H20.7759V20.7759H25.8448V15.7069Z" fill="black"/>
<path d="M35.9828 15.7069H30.9138V20.7759H35.9828V15.7069Z" fill="black"/>
<path d="M46.1207 15.7069H41.0517V20.7759H46.1207V15.7069Z" fill="black"/>
<path d="M71.4655 15.7069H66.3966V20.7759H71.4655V15.7069Z" fill="black"/>
<path d="M91.7414 15.7069H86.6724V20.7759H91.7414V15.7069Z" fill="black"/>
<path d="M96.8103 15.7069H91.7414V20.7759H96.8103V15.7069Z" fill="black"/>
<path d="M117.086 15.7069H112.017V20.7759H117.086V15.7069Z" fill="black"/>
<path d="M127.224 15.7069H122.155V20.7759H127.224V15.7069Z" fill="black"/>
<path d="M132.293 15.7069H127.224V20.7759H132.293V15.7069Z" fill="black"/>
<path d="M137.362 15.7069H132.293V20.7759H137.362V15.7069Z" fill="black"/>
<path d="M147.5 15.7069H142.431V20.7759H147.5V15.7069Z" fill="black"/>
<path d="M5.56897 20.7759H0.5V25.8448H5.56897V20.7759Z" fill="black"/>
<path d="M15.7069 20.7759H10.6379V25.8448H15.7069V20.7759Z" fill="black"/>
<path d="M20.7759 20.7759H15.7069V25.8448H20.7759V20.7759Z" fill="black"/>
<path d="M25.8448 20.7759H20.7759V25.8448H25.8448V20.7759Z" fill="black"/>
<path d="M35.9828 20.7759H30.9138V25.8448H35.9828V20.7759Z" fill="black"/>
<path d="M51.1897 20.7759H46.1207V25.8448H51.1897V20.7759Z" fill="black"/>
<path d="M56.2586 20.7759H51.1897V25.8448H56.2586V20.7759Z" fill="black"/>
<path d="M66.3966 20.7759H61.3276V25.8448H66.3966V20.7759Z" fill="black"/>
<path d="M81.6035 20.7759H76.5345V25.8448H81.6035V20.7759Z" fill="black"/>
<path d="M86.6724 20.7759H81.6035V25.8448H86.6724V20.7759Z" fill="black"/>
<path d="M96.8103 20.7759H91.7414V25.8448H96.8103V20.7759Z" fill="black"/>
<path d="M117.086 20.7759H112.017V25.8448H117.086V20.7759Z" fill="black"/>
<path d="M127.224 20.7759H122.155V25.8448H127.224V20.7759Z" fill="black"/>
<path d="M132.293 20.7759H127.224V25.8448H132.293V20.7759Z" fill="black"/>
<path d="M137.362 20.7759H132.293V25.8448H137.362V20.7759Z" fill="black"/>
<path d="M147.5 20.7759H142.431V25.8448H147.5V20.7759Z" fill="black"/>
<path d="M5.56897 25.8448H0.5V30.9138H5.56897V25.8448Z" fill="black"/>
<path d="M35.9828 25.8448H30.9138V30.9138H35.9828V25.8448Z" fill="black"/>
<path d="M46.1207 25.8448H41.0517V30.9138H46.1207V25.8448Z" fill="black"/>
<path d="M51.1897 25.8448H46.1207V30.9138H51.1897V25.8448Z" fill="black"/>
<path d="M56.2586 25.8448H51.1897V30.9138H56.2586V25.8448Z" fill="black"/>
<path d="M66.3966 25.8448H61.3276V30.9138H66.3966V25.8448Z" fill="black"/>
<path d="M91.7414 25.8448H86.6724V30.9138H91.7414V25.8448Z" fill="black"/>
<path d="M96.8103 25.8448H91.7414V30.9138H96.8103V25.8448Z" fill="black"/>
<path d="M101.879 25.8448H96.8103V30.9138H101.879V25.8448Z" fill="black"/>
<path d="M117.086 25.8448H112.017V30.9138H117.086V25.8448Z" fill="black"/>
<path d="M147.5 25.8448H142.431V30.9138H147.5V25.8448Z" fill="black"/>
<path d="M5.56897 30.9138H0.5V35.9828H5.56897V30.9138Z" fill="black"/>
<path d="M10.6379 30.9138H5.56897V35.9828H10.6379V30.9138Z" fill="black"/>
<path d="M15.7069 30.9138H10.6379V35.9828H15.7069V30.9138Z" fill="black"/>
<path d="M20.7759 30.9138H15.7069V35.9828H20.7759V30.9138Z" fill="black"/>
<path d="M25.8448 30.9138H20.7759V35.9828H25.8448V30.9138Z" fill="black"/>
<path d="M30.9138 30.9138H25.8448V35.9828H30.9138V30.9138Z" fill="black"/>
<path d="M35.9828 30.9138H30.9138V35.9828H35.9828V30.9138Z" fill="black"/>
<path d="M46.1207 30.9138H41.0517V35.9828H46.1207V30.9138Z" fill="black"/>
<path d="M56.2586 30.9138H51.1897V35.9828H56.2586V30.9138Z" fill="black"/>
<path d="M66.3966 30.9138H61.3276V35.9828H66.3966V30.9138Z" fill="black"/>
<path d="M76.5345 30.9138H71.4655V35.9828H76.5345V30.9138Z" fill="black"/>
<path d="M86.6724 30.9138H81.6035V35.9828H86.6724V30.9138Z" fill="black"/>
<path d="M96.8103 30.9138H91.7414V35.9828H96.8103V30.9138Z" fill="black"/>
<path d="M106.948 30.9138H101.879V35.9828H106.948V30.9138Z" fill="black"/>
<path d="M117.086 30.9138H112.017V35.9828H117.086V30.9138Z" fill="black"/>
<path d="M122.155 30.9138H117.086V35.9828H122.155V30.9138Z" fill="black"/>
<path d="M127.224 30.9138H122.155V35.9828H127.224V30.9138Z" fill="black"/>
<path d="M132.293 30.9138H127.224V35.9828H132.293V30.9138Z" fill="black"/>
<path d="M137.362 30.9138H132.293V35.9828H137.362V30.9138Z" fill="black"/>
<path d="M142.431 30.9138H137.362V35.9828H142.431V30.9138Z" fill="black"/>
<path d="M147.5 30.9138H142.431V35.9828H147.5V30.9138Z" fill="black"/>
<path d="M46.1207 35.9828H41.0517V41.0517H46.1207V35.9828Z" fill="black"/>
<path d="M61.3276 35.9828H56.2586V41.0517H61.3276V35.9828Z" fill="black"/>
<path d="M81.6035 35.9828H76.5345V41.0517H81.6035V35.9828Z" fill="black"/>
<path d="M86.6724 35.9828H81.6035V41.0517H86.6724V35.9828Z" fill="black"/>
<path d="M106.948 35.9828H101.879V41.0517H106.948V35.9828Z" fill="black"/>
<path d="M5.56897 41.0517H0.5V46.1207H5.56897V41.0517Z" fill="black"/>
<path d="M10.6379 41.0517H5.56897V46.1207H10.6379V41.0517Z" fill="black"/>
<path d="M20.7759 41.0517H15.7069V46.1207H20.7759V41.0517Z" fill="black"/>
<path d="M35.9828 41.0517H30.9138V46.1207H35.9828V41.0517Z" fill="black"/>
<path d="M41.0517 41.0517H35.9828V46.1207H41.0517V41.0517Z" fill="black"/>
<path d="M66.3966 41.0517H61.3276V46.1207H66.3966V41.0517Z" fill="black"/>
<path d="M71.4655 41.0517H66.3966V46.1207H71.4655V41.0517Z" fill="black"/>
<path d="M81.6035 41.0517H76.5345V46.1207H81.6035V41.0517Z" fill="black"/>
<path d="M86.6724 41.0517H81.6035V46.1207H86.6724V41.0517Z" fill="black"/>
<path d="M91.7414 41.0517H86.6724V46.1207H91.7414V41.0517Z" fill="black"/>
<path d="M96.8103 41.0517H91.7414V46.1207H96.8103V41.0517Z" fill="black"/>
<path d="M106.948 41.0517H101.879V46.1207H106.948V41.0517Z" fill="black"/>
<path d="M112.017 41.0517H106.948V46.1207H112.017V41.0517Z" fill="black"/>
<path d="M117.086 41.0517H112.017V46.1207H117.086V41.0517Z" fill="black"/>
<path d="M122.155 41.0517H117.086V46.1207H122.155V41.0517Z" fill="black"/>
<path d="M132.293 41.0517H127.224V46.1207H132.293V41.0517Z" fill="black"/>
<path d="M137.362 41.0517H132.293V46.1207H137.362V41.0517Z" fill="black"/>
<path d="M147.5 41.0517H142.431V46.1207H147.5V41.0517Z" fill="black"/>
<path d="M10.6379 46.1207H5.56897V51.1897H10.6379V46.1207Z" fill="black"/>
<path d="M20.7759 46.1207H15.7069V51.1897H20.7759V46.1207Z" fill="black"/>
<path d="M25.8448 46.1207H20.7759V51.1897H25.8448V46.1207Z" fill="black"/>
<path d="M30.9138 46.1207H25.8448V51.1897H30.9138V46.1207Z" fill="black"/>
<path d="M56.2586 46.1207H51.1897V51.1897H56.2586V46.1207Z" fill="black"/>
<path d="M61.3276 46.1207H56.2586V51.1897H61.3276V46.1207Z" fill="black"/>
<path d="M66.3966 46.1207H61.3276V51.1897H66.3966V46.1207Z" fill="black"/>
<path d="M76.5345 46.1207H71.4655V51.1897H76.5345V46.1207Z" fill="black"/>
<path d="M91.7414 46.1207H86.6724V51.1897H91.7414V46.1207Z" fill="black"/>
<path d="M101.879 46.1207H96.8103V51.1897H101.879V46.1207Z" fill="black"/>
<path d="M132.293 46.1207H127.224V51.1897H132.293V46.1207Z" fill="black"/>
<path d="M142.431 46.1207H137.362V51.1897H142.431V46.1207Z" fill="black"/>
<path d="M147.5 46.1207H142.431V51.1897H147.5V46.1207Z" fill="black"/>
<path d="M25.8448 51.1897H20.7759V56.2586H25.8448V51.1897Z" fill="black"/>
<path d="M35.9828 51.1897H30.9138V56.2586H35.9828V51.1897Z" fill="black"/>
<path d="M41.0517 51.1897H35.9828V56.2586H41.0517V51.1897Z" fill="black"/>
<path d="M46.1207 51.1897H41.0517V56.2586H46.1207V51.1897Z" fill="black"/>
<path d="M66.3966 51.1897H61.3276V56.2586H66.3966V51.1897Z" fill="black"/>
<path d="M71.4655 51.1897H66.3966V56.2586H71.4655V51.1897Z" fill="black"/>
<path d="M76.5345 51.1897H71.4655V56.2586H76.5345V51.1897Z" fill="black"/>
<path d="M86.6724 51.1897H81.6035V56.2586H86.6724V51.1897Z" fill="black"/>
<path d="M91.7414 51.1897H86.6724V56.2586H91.7414V51.1897Z" fill="black"/>
<path d="M106.948 51.1897H101.879V56.2586H106.948V51.1897Z" fill="black"/>
<path d="M122.155 51.1897H117.086V56.2586H122.155V51.1897Z" fill="black"/>
<path d="M147.5 51.1897H142.431V56.2586H147.5V51.1897Z" fill="black"/>
<path d="M5.56897 56.2586H0.5V61.3276H5.56897V56.2586Z" fill="black"/>
<path d="M10.6379 56.2586H5.56897V61.3276H10.6379V56.2586Z" fill="black"/>
<path d="M20.7759 56.2586H15.7069V61.3276H20.7759V56.2586Z" fill="black"/>
<path d="M25.8448 56.2586H20.7759V61.3276H25.8448V56.2586Z" fill="black"/>
<path d="M41.0517 56.2586H35.9828V61.3276H41.0517V56.2586Z" fill="black"/>
<path d="M46.1207 56.2586H41.0517V61.3276H46.1207V56.2586Z" fill="black"/>
<path d="M51.1897 56.2586H46.1207V61.3276H51.1897V56.2586Z" fill="black"/>
<path d="M56.2586 56.2586H51.1897V61.3276H56.2586V56.2586Z" fill="black"/>
<path d="M61.3276 56.2586H56.2586V61.3276H61.3276V56.2586Z" fill="black"/>
<path d="M66.3966 56.2586H61.3276V61.3276H66.3966V56.2586Z" fill="black"/>
<path d="M81.6035 56.2586H76.5345V61.3276H81.6035V56.2586Z" fill="black"/>
<path d="M86.6724 56.2586H81.6035V61.3276H86.6724V56.2586Z" fill="black"/>
<path d="M96.8103 56.2586H91.7414V61.3276H96.8103V56.2586Z" fill="black"/>
<path d="M117.086 56.2586H112.017V61.3276H117.086V56.2586Z" fill="black"/>
<path d="M122.155 56.2586H117.086V61.3276H122.155V56.2586Z" fill="black"/>
<path d="M127.224 56.2586H122.155V61.3276H127.224V56.2586Z" fill="black"/>
<path d="M132.293 56.2586H127.224V61.3276H132.293V56.2586Z" fill="black"/>
<path d="M142.431 56.2586H137.362V61.3276H142.431V56.2586Z" fill="black"/>
<path d="M147.5 56.2586H142.431V61.3276H147.5V56.2586Z" fill="black"/>
<path d="M5.56897 61.3276H0.5V66.3966H5.56897V61.3276Z" fill="black"/>
<path d="M10.6379 61.3276H5.56897V66.3966H10.6379V61.3276Z" fill="black"/>
<path d="M15.7069 61.3276H10.6379V66.3966H15.7069V61.3276Z" fill="black"/>
<path d="M20.7759 61.3276H15.7069V66.3966H20.7759V61.3276Z" fill="black"/>
<path d="M30.9138 61.3276H25.8448V66.3966H30.9138V61.3276Z" fill="black"/>
<path d="M35.9828 61.3276H30.9138V66.3966H35.9828V61.3276Z" fill="black"/>
<path d="M51.1897 61.3276H46.1207V66.3966H51.1897V61.3276Z" fill="black"/>
<path d="M61.3276 61.3276H56.2586V66.3966H61.3276V61.3276Z" fill="black"/>
<path d="M86.6724 61.3276H81.6035V66.3966H86.6724V61.3276Z" fill="black"/>
<path d="M106.948 61.3276H101.879V66.3966H106.948V61.3276Z" fill="black"/>
<path d="M117.086 61.3276H112.017V66.3966H117.086V61.3276Z" fill="black"/>
<path d="M122.155 61.3276H117.086V66.3966H122.155V61.3276Z" fill="black"/>
<path d="M5.56897 66.3966H0.5V71.4655H5.56897V66.3966Z" fill="black"/>
<path d="M10.6379 66.3966H5.56897V71.4655H10.6379V66.3966Z" fill="black"/>
<path d="M30.9138 66.3966H25.8448V71.4655H30.9138V66.3966Z" fill="black"/>
<path d="M46.1207 66.3966H41.0517V71.4655H46.1207V66.3966Z" fill="black"/>
<path d="M51.1897 66.3966H46.1207V71.4655H51.1897V66.3966Z" fill="black"/>
<path d="M56.2586 66.3966H51.1897V71.4655H56.2586V66.3966Z" fill="black"/>
<path d="M76.5345 66.3966H71.4655V71.4655H76.5345V66.3966Z" fill="black"/>
<path d="M96.8103 66.3966H91.7414V71.4655H96.8103V66.3966Z" fill="black"/>
<path d="M101.879 66.3966H96.8103V71.4655H101.879V66.3966Z" fill="black"/>
<path d="M106.948 66.3966H101.879V71.4655H106.948V66.3966Z" fill="black"/>
<path d="M122.155 66.3966H117.086V71.4655H122.155V66.3966Z" fill="black"/>
<path d="M132.293 66.3966H127.224V71.4655H132.293V66.3966Z" fill="black"/>
<path d="M142.431 66.3966H137.362V71.4655H142.431V66.3966Z" fill="black"/>
<path d="M5.56897 71.4655H0.5V76.5345H5.56897V71.4655Z" fill="black"/>
<path d="M20.7759 71.4655H15.7069V76.5345H20.7759V71.4655Z" fill="black"/>
<path d="M25.8448 71.4655H20.7759V76.5345H25.8448V71.4655Z" fill="black"/>
<path d="M35.9828 71.4655H30.9138V76.5345H35.9828V71.4655Z" fill="black"/>
<path d="M51.1897 71.4655H46.1207V76.5345H51.1897V71.4655Z" fill="black"/>
<path d="M66.3966 71.4655H61.3276V76.5345H66.3966V71.4655Z" fill="black"/>
<path d="M71.4655 71.4655H66.3966V76.5345H71.4655V71.4655Z" fill="black"/>
<path d="M81.6035 71.4655H76.5345V76.5345H81.6035V71.4655Z" fill="black"/>
<path d="M86.6724 71.4655H81.6035V76.5345H86.6724V71.4655Z" fill="black"/>
<path d="M91.7414 71.4655H86.6724V76.5345H91.7414V71.4655Z" fill="black"/>
<path d="M96.8103 71.4655H91.7414V76.5345H96.8103V71.4655Z" fill="black"/>
<path d="M101.879 71.4655H96.8103V76.5345H101.879V71.4655Z" fill="black"/>
<path d="M106.948 71.4655H101.879V76.5345H106.948V71.4655Z" fill="black"/>
<path d="M117.086 71.4655H112.017V76.5345H117.086V71.4655Z" fill="black"/>
<path d="M122.155 71.4655H117.086V76.5345H122.155V71.4655Z" fill="black"/>
<path d="M5.56897 76.5345H0.5V81.6035H5.56897V76.5345Z" fill="black"/>
<path d="M20.7759 76.5345H15.7069V81.6035H20.7759V76.5345Z" fill="black"/>
<path d="M30.9138 76.5345H25.8448V81.6035H30.9138V76.5345Z" fill="black"/>
<path d="M41.0517 76.5345H35.9828V81.6035H41.0517V76.5345Z" fill="black"/>
<path d="M46.1207 76.5345H41.0517V81.6035H46.1207V76.5345Z" fill="black"/>
<path d="M51.1897 76.5345H46.1207V81.6035H51.1897V76.5345Z" fill="black"/>
<path d="M61.3276 76.5345H56.2586V81.6035H61.3276V76.5345Z" fill="black"/>
<path d="M71.4655 76.5345H66.3966V81.6035H71.4655V76.5345Z" fill="black"/>
<path d="M86.6724 76.5345H81.6035V81.6035H86.6724V76.5345Z" fill="black"/>
<path d="M91.7414 76.5345H86.6724V81.6035H91.7414V76.5345Z" fill="black"/>
<path d="M96.8103 76.5345H91.7414V81.6035H96.8103V76.5345Z" fill="black"/>
<path d="M106.948 76.5345H101.879V81.6035H106.948V76.5345Z" fill="black"/>
<path d="M122.155 76.5345H117.086V81.6035H122.155V76.5345Z" fill="black"/>
<path d="M127.224 76.5345H122.155V81.6035H127.224V76.5345Z" fill="black"/>
<path d="M132.293 76.5345H127.224V81.6035H132.293V76.5345Z" fill="black"/>
<path d="M10.6379 81.6035H5.56897V86.6724H10.6379V81.6035Z" fill="black"/>
<path d="M15.7069 81.6035H10.6379V86.6724H15.7069V81.6035Z" fill="black"/>
<path d="M25.8448 81.6035H20.7759V86.6724H25.8448V81.6035Z" fill="black"/>
<path d="M30.9138 81.6035H25.8448V86.6724H30.9138V81.6035Z" fill="black"/>
<path d="M35.9828 81.6035H30.9138V86.6724H35.9828V81.6035Z" fill="black"/>
<path d="M41.0517 81.6035H35.9828V86.6724H41.0517V81.6035Z" fill="black"/>
<path d="M46.1207 81.6035H41.0517V86.6724H46.1207V81.6035Z" fill="black"/>
<path d="M71.4655 81.6035H66.3966V86.6724H71.4655V81.6035Z" fill="black"/>
<path d="M81.6035 81.6035H76.5345V86.6724H81.6035V81.6035Z" fill="black"/>
<path d="M96.8103 81.6035H91.7414V86.6724H96.8103V81.6035Z" fill="black"/>
<path d="M106.948 81.6035H101.879V86.6724H106.948V81.6035Z" fill="black"/>
<path d="M112.017 81.6035H106.948V86.6724H112.017V81.6035Z" fill="black"/>
<path d="M117.086 81.6035H112.017V86.6724H117.086V81.6035Z" fill="black"/>
<path d="M122.155 81.6035H117.086V86.6724H122.155V81.6035Z" fill="black"/>
<path d="M127.224 81.6035H122.155V86.6724H127.224V81.6035Z" fill="black"/>
<path d="M132.293 81.6035H127.224V86.6724H132.293V81.6035Z" fill="black"/>
<path d="M147.5 81.6035H142.431V86.6724H147.5V81.6035Z" fill="black"/>
<path d="M10.6379 86.6724H5.56897V91.7414H10.6379V86.6724Z" fill="black"/>
<path d="M20.7759 86.6724H15.7069V91.7414H20.7759V86.6724Z" fill="black"/>
<path d="M41.0517 86.6724H35.9828V91.7414H41.0517V86.6724Z" fill="black"/>
<path d="M46.1207 86.6724H41.0517V91.7414H46.1207V86.6724Z" fill="black"/>
<path d="M56.2586 86.6724H51.1897V91.7414H56.2586V86.6724Z" fill="black"/>
<path d="M66.3966 86.6724H61.3276V91.7414H66.3966V86.6724Z" fill="black"/>
<path d="M71.4655 86.6724H66.3966V91.7414H71.4655V86.6724Z" fill="black"/>
<path d="M101.879 86.6724H96.8103V91.7414H101.879V86.6724Z" fill="black"/>
<path d="M106.948 86.6724H101.879V91.7414H106.948V86.6724Z" fill="black"/>
<path d="M112.017 86.6724H106.948V91.7414H112.017V86.6724Z" fill="black"/>
<path d="M117.086 86.6724H112.017V91.7414H117.086V86.6724Z" fill="black"/>
<path d="M127.224 86.6724H122.155V91.7414H127.224V86.6724Z" fill="black"/>
<path d="M5.56897 91.7414H0.5V96.8103H5.56897V91.7414Z" fill="black"/>
<path d="M15.7069 91.7414H10.6379V96.8103H15.7069V91.7414Z" fill="black"/>
<path d="M30.9138 91.7414H25.8448V96.8103H30.9138V91.7414Z" fill="black"/>
<path d="M35.9828 91.7414H30.9138V96.8103H35.9828V91.7414Z" fill="black"/>
<path d="M51.1897 91.7414H46.1207V96.8103H51.1897V91.7414Z" fill="black"/>
<path d="M86.6724 91.7414H81.6035V96.8103H86.6724V91.7414Z" fill="black"/>
<path d="M106.948 91.7414H101.879V96.8103H106.948V91.7414Z" fill="black"/>
<path d="M112.017 91.7414H106.948V96.8103H112.017V91.7414Z" fill="black"/>
<path d="M117.086 91.7414H112.017V96.8103H117.086V91.7414Z" fill="black"/>
<path d="M122.155 91.7414H117.086V96.8103H122.155V91.7414Z" fill="black"/>
<path d="M147.5 91.7414H142.431V96.8103H147.5V91.7414Z" fill="black"/>
<path d="M5.56897 96.8103H0.5V101.879H5.56897V96.8103Z" fill="black"/>
<path d="M25.8448 96.8103H20.7759V101.879H25.8448V96.8103Z" fill="black"/>
<path d="M30.9138 96.8103H25.8448V101.879H30.9138V96.8103Z" fill="black"/>
<path d="M46.1207 96.8103H41.0517V101.879H46.1207V96.8103Z" fill="black"/>
<path d="M51.1897 96.8103H46.1207V101.879H51.1897V96.8103Z" fill="black"/>
<path d="M66.3966 96.8103H61.3276V101.879H66.3966V96.8103Z" fill="black"/>
<path d="M71.4655 96.8103H66.3966V101.879H71.4655V96.8103Z" fill="black"/>
<path d="M76.5345 96.8103H71.4655V101.879H76.5345V96.8103Z" fill="black"/>
<path d="M101.879 96.8103H96.8103V101.879H101.879V96.8103Z" fill="black"/>
<path d="M106.948 96.8103H101.879V101.879H106.948V96.8103Z" fill="black"/>
<path d="M117.086 96.8103H112.017V101.879H117.086V96.8103Z" fill="black"/>
<path d="M137.362 96.8103H132.293V101.879H137.362V96.8103Z" fill="black"/>
<path d="M5.56897 101.879H0.5V106.948H5.56897V101.879Z" fill="black"/>
<path d="M10.6379 101.879H5.56897V106.948H10.6379V101.879Z" fill="black"/>
<path d="M20.7759 101.879H15.7069V106.948H20.7759V101.879Z" fill="black"/>
<path d="M30.9138 101.879H25.8448V106.948H30.9138V101.879Z" fill="black"/>
<path d="M35.9828 101.879H30.9138V106.948H35.9828V101.879Z" fill="black"/>
<path d="M51.1897 101.879H46.1207V106.948H51.1897V101.879Z" fill="black"/>
<path d="M56.2586 101.879H51.1897V106.948H56.2586V101.879Z" fill="black"/>
<path d="M61.3276 101.879H56.2586V106.948H61.3276V101.879Z" fill="black"/>
<path d="M76.5345 101.879H71.4655V106.948H76.5345V101.879Z" fill="black"/>
<path d="M81.6035 101.879H76.5345V106.948H81.6035V101.879Z" fill="black"/>
<path d="M86.6724 101.879H81.6035V106.948H86.6724V101.879Z" fill="black"/>
<path d="M91.7414 101.879H86.6724V106.948H91.7414V101.879Z" fill="black"/>
<path d="M96.8103 101.879H91.7414V106.948H96.8103V101.879Z" fill="black"/>
<path d="M106.948 101.879H101.879V106.948H106.948V101.879Z" fill="black"/>
<path d="M112.017 101.879H106.948V106.948H112.017V101.879Z" fill="black"/>
<path d="M117.086 101.879H112.017V106.948H117.086V101.879Z" fill="black"/>
<path d="M122.155 101.879H117.086V106.948H122.155V101.879Z" fill="black"/>
<path d="M127.224 101.879H122.155V106.948H127.224V101.879Z" fill="black"/>
<path d="M132.293 101.879H127.224V106.948H132.293V101.879Z" fill="black"/>
<path d="M142.431 101.879H137.362V106.948H142.431V101.879Z" fill="black"/>
<path d="M147.5 101.879H142.431V106.948H147.5V101.879Z" fill="black"/>
<path d="M51.1897 106.948H46.1207V112.017H51.1897V106.948Z" fill="black"/>
<path d="M56.2586 106.948H51.1897V112.017H56.2586V106.948Z" fill="black"/>
<path d="M61.3276 106.948H56.2586V112.017H61.3276V106.948Z" fill="black"/>
<path d="M76.5345 106.948H71.4655V112.017H76.5345V106.948Z" fill="black"/>
<path d="M86.6724 106.948H81.6035V112.017H86.6724V106.948Z" fill="black"/>
<path d="M91.7414 106.948H86.6724V112.017H91.7414V106.948Z" fill="black"/>
<path d="M101.879 106.948H96.8103V112.017H101.879V106.948Z" fill="black"/>
<path d="M106.948 106.948H101.879V112.017H106.948V106.948Z" fill="black"/>
<path d="M127.224 106.948H122.155V112.017H127.224V106.948Z" fill="black"/>
<path d="M132.293 106.948H127.224V112.017H132.293V106.948Z" fill="black"/>
<path d="M137.362 106.948H132.293V112.017H137.362V106.948Z" fill="black"/>
<path d="M5.56897 112.017H0.5V117.086H5.56897V112.017Z" fill="black"/>
<path d="M10.6379 112.017H5.56897V117.086H10.6379V112.017Z" fill="black"/>
<path d="M15.7069 112.017H10.6379V117.086H15.7069V112.017Z" fill="black"/>
<path d="M20.7759 112.017H15.7069V117.086H20.7759V112.017Z" fill="black"/>
<path d="M25.8448 112.017H20.7759V117.086H25.8448V112.017Z" fill="black"/>
<path d="M30.9138 112.017H25.8448V117.086H30.9138V112.017Z" fill="black"/>
<path d="M35.9828 112.017H30.9138V117.086H35.9828V112.017Z" fill="black"/>
<path d="M46.1207 112.017H41.0517V117.086H46.1207V112.017Z" fill="black"/>
<path d="M51.1897 112.017H46.1207V117.086H51.1897V112.017Z" fill="black"/>
<path d="M71.4655 112.017H66.3966V117.086H71.4655V112.017Z" fill="black"/>
<path d="M81.6035 112.017H76.5345V117.086H81.6035V112.017Z" fill="black"/>
<path d="M106.948 112.017H101.879V117.086H106.948V112.017Z" fill="black"/>
<path d="M117.086 112.017H112.017V117.086H117.086V112.017Z" fill="black"/>
<path d="M127.224 112.017H122.155V117.086H127.224V112.017Z" fill="black"/>
<path d="M5.56897 117.086H0.5V122.155H5.56897V117.086Z" fill="black"/>
<path d="M35.9828 117.086H30.9138V122.155H35.9828V117.086Z" fill="black"/>
<path d="M51.1897 117.086H46.1207V122.155H51.1897V117.086Z" fill="black"/>
<path d="M56.2586 117.086H51.1897V122.155H56.2586V117.086Z" fill="black"/>
<path d="M61.3276 117.086H56.2586V122.155H61.3276V117.086Z" fill="black"/>
<path d="M76.5345 117.086H71.4655V122.155H76.5345V117.086Z" fill="black"/>
<path d="M86.6724 117.086H81.6035V122.155H86.6724V117.086Z" fill="black"/>
<path d="M91.7414 117.086H86.6724V122.155H91.7414V117.086Z" fill="black"/>
<path d="M101.879 117.086H96.8103V122.155H101.879V117.086Z" fill="black"/>
<path d="M106.948 117.086H101.879V122.155H106.948V117.086Z" fill="black"/>
<path d="M127.224 117.086H122.155V122.155H127.224V117.086Z" fill="black"/>
<path d="M132.293 117.086H127.224V122.155H132.293V117.086Z" fill="black"/>
<path d="M137.362 117.086H132.293V122.155H137.362V117.086Z" fill="black"/>
<path d="M147.5 117.086H142.431V122.155H147.5V117.086Z" fill="black"/>
<path d="M5.56897 122.155H0.5V127.224H5.56897V122.155Z" fill="black"/>
<path d="M15.7069 122.155H10.6379V127.224H15.7069V122.155Z" fill="black"/>
<path d="M20.7759 122.155H15.7069V127.224H20.7759V122.155Z" fill="black"/>
<path d="M25.8448 122.155H20.7759V127.224H25.8448V122.155Z" fill="black"/>
<path d="M35.9828 122.155H30.9138V127.224H35.9828V122.155Z" fill="black"/>
<path d="M51.1897 122.155H46.1207V127.224H51.1897V122.155Z" fill="black"/>
<path d="M56.2586 122.155H51.1897V127.224H56.2586V122.155Z" fill="black"/>
<path d="M61.3276 122.155H56.2586V127.224H61.3276V122.155Z" fill="black"/>
<path d="M81.6035 122.155H76.5345V127.224H81.6035V122.155Z" fill="black"/>
<path d="M86.6724 122.155H81.6035V127.224H86.6724V122.155Z" fill="black"/>
<path d="M96.8103 122.155H91.7414V127.224H96.8103V122.155Z" fill="black"/>
<path d="M101.879 122.155H96.8103V127.224H101.879V122.155Z" fill="black"/>
<path d="M106.948 122.155H101.879V127.224H106.948V122.155Z" fill="black"/>
<path d="M112.017 122.155H106.948V127.224H112.017V122.155Z" fill="black"/>
<path d="M117.086 122.155H112.017V127.224H117.086V122.155Z" fill="black"/>
<path d="M122.155 122.155H117.086V127.224H122.155V122.155Z" fill="black"/>
<path d="M127.224 122.155H122.155V127.224H127.224V122.155Z" fill="black"/>
<path d="M132.293 122.155H127.224V127.224H132.293V122.155Z" fill="black"/>
<path d="M142.431 122.155H137.362V127.224H142.431V122.155Z" fill="black"/>
<path d="M5.56897 127.224H0.5V132.293H5.56897V127.224Z" fill="black"/>
<path d="M15.7069 127.224H10.6379V132.293H15.7069V127.224Z" fill="black"/>
<path d="M20.7759 127.224H15.7069V132.293H20.7759V127.224Z" fill="black"/>
<path d="M25.8448 127.224H20.7759V132.293H25.8448V127.224Z" fill="black"/>
<path d="M35.9828 127.224H30.9138V132.293H35.9828V127.224Z" fill="black"/>
<path d="M46.1207 127.224H41.0517V132.293H46.1207V127.224Z" fill="black"/>
<path d="M71.4655 127.224H66.3966V132.293H71.4655V127.224Z" fill="black"/>
<path d="M81.6035 127.224H76.5345V132.293H81.6035V127.224Z" fill="black"/>
<path d="M86.6724 127.224H81.6035V132.293H86.6724V127.224Z" fill="black"/>
<path d="M96.8103 127.224H91.7414V132.293H96.8103V127.224Z" fill="black"/>
<path d="M101.879 127.224H96.8103V132.293H101.879V127.224Z" fill="black"/>
<path d="M117.086 127.224H112.017V132.293H117.086V127.224Z" fill="black"/>
<path d="M127.224 127.224H122.155V132.293H127.224V127.224Z" fill="black"/>
<path d="M5.56897 132.293H0.5V137.362H5.56897V132.293Z" fill="black"/>
<path d="M15.7069 132.293H10.6379V137.362H15.7069V132.293Z" fill="black"/>
<path d="M20.7759 132.293H15.7069V137.362H20.7759V132.293Z" fill="black"/>
<path d="M25.8448 132.293H20.7759V137.362H25.8448V132.293Z" fill="black"/>
<path d="M35.9828 132.293H30.9138V137.362H35.9828V132.293Z" fill="black"/>
<path d="M66.3966 132.293H61.3276V137.362H66.3966V132.293Z" fill="black"/>
<path d="M71.4655 132.293H66.3966V137.362H71.4655V132.293Z" fill="black"/>
<path d="M76.5345 132.293H71.4655V137.362H76.5345V132.293Z" fill="black"/>
<path d="M101.879 132.293H96.8103V137.362H101.879V132.293Z" fill="black"/>
<path d="M106.948 132.293H101.879V137.362H106.948V132.293Z" fill="black"/>
<path d="M112.017 132.293H106.948V137.362H112.017V132.293Z" fill="black"/>
<path d="M117.086 132.293H112.017V137.362H117.086V132.293Z" fill="black"/>
<path d="M127.224 132.293H122.155V137.362H127.224V132.293Z" fill="black"/>
<path d="M132.293 132.293H127.224V137.362H132.293V132.293Z" fill="black"/>
<path d="M137.362 132.293H132.293V137.362H137.362V132.293Z" fill="black"/>
<path d="M5.56897 137.362H0.5V142.431H5.56897V137.362Z" fill="black"/>
<path d="M35.9828 137.362H30.9138V142.431H35.9828V137.362Z" fill="black"/>
<path d="M46.1207 137.362H41.0517V142.431H46.1207V137.362Z" fill="black"/>
<path d="M51.1897 137.362H46.1207V142.431H51.1897V137.362Z" fill="black"/>
<path d="M56.2586 137.362H51.1897V142.431H56.2586V137.362Z" fill="black"/>
<path d="M61.3276 137.362H56.2586V142.431H61.3276V137.362Z" fill="black"/>
<path d="M71.4655 137.362H66.3966V142.431H71.4655V137.362Z" fill="black"/>
<path d="M76.5345 137.362H71.4655V142.431H76.5345V137.362Z" fill="black"/>
<path d="M81.6035 137.362H76.5345V142.431H81.6035V137.362Z" fill="black"/>
<path d="M86.6724 137.362H81.6035V142.431H86.6724V137.362Z" fill="black"/>
<path d="M91.7414 137.362H86.6724V142.431H91.7414V137.362Z" fill="black"/>
<path d="M101.879 137.362H96.8103V142.431H101.879V137.362Z" fill="black"/>
<path d="M117.086 137.362H112.017V142.431H117.086V137.362Z" fill="black"/>
<path d="M127.224 137.362H122.155V142.431H127.224V137.362Z" fill="black"/>
<path d="M142.431 137.362H137.362V142.431H142.431V137.362Z" fill="black"/>
<path d="M147.5 137.362H142.431V142.431H147.5V137.362Z" fill="black"/>
<path d="M5.56897 142.431H0.5V147.5H5.56897V142.431Z" fill="black"/>
<path d="M10.6379 142.431H5.56897V147.5H10.6379V142.431Z" fill="black"/>
<path d="M15.7069 142.431H10.6379V147.5H15.7069V142.431Z" fill="black"/>
<path d="M20.7759 142.431H15.7069V147.5H20.7759V142.431Z" fill="black"/>
<path d="M25.8448 142.431H20.7759V147.5H25.8448V142.431Z" fill="black"/>
<path d="M30.9138 142.431H25.8448V147.5H30.9138V142.431Z" fill="black"/>
<path d="M35.9828 142.431H30.9138V147.5H35.9828V142.431Z" fill="black"/>
<path d="M46.1207 142.431H41.0517V147.5H46.1207V142.431Z" fill="black"/>
<path d="M51.1897 142.431H46.1207V147.5H51.1897V142.431Z" fill="black"/>
<path d="M61.3276 142.431H56.2586V147.5H61.3276V142.431Z" fill="black"/>
<path d="M71.4655 142.431H66.3966V147.5H71.4655V142.431Z" fill="black"/>
<path d="M76.5345 142.431H71.4655V147.5H76.5345V142.431Z" fill="black"/>
<path d="M101.879 142.431H96.8103V147.5H101.879V142.431Z" fill="black"/>
<path d="M106.948 142.431H101.879V147.5H106.948V142.431Z" fill="black"/>
<path d="M112.017 142.431H106.948V147.5H112.017V142.431Z" fill="black"/>
<path d="M132.293 142.431H127.224V147.5H132.293V142.431Z" fill="black"/>
<path d="M137.362 142.431H132.293V147.5H137.362V142.431Z" fill="black"/>
</svg>
