<svg width="288" height="152" viewBox="0 0 288 152" fill="none" xmlns="http://www.w3.org/2000/svg">
<path fill-rule="evenodd" clip-rule="evenodd" d="M201.663 149.156C155.626 158.646 125.757 131.318 64.9535 131.318C44.1754 131.318 -6.04776 143.019 1.72849 70.7154C6.14121 29.6861 53.7017 11.0654 98.148 35.0466C111.227 40.1614 121.553 38.5762 132.764 33.4942C143.975 28.4122 158.394 5.72489 185.569 1.05752C267.348 -12.9881 357.89 116.952 201.663 149.156Z" fill="#DEFBB8"/>
<path fill-rule="evenodd" clip-rule="evenodd" d="M199.986 56.4213C203.191 58.5319 206.409 60.7645 210.097 61.8244C213.786 62.8844 218.12 62.5602 220.96 59.9796C232.422 49.5659 250.879 47.8247 264.085 55.9114C277.292 63.998 284.132 81.2294 280.067 96.172C276.002 111.115 261.375 122.506 245.892 122.788C237.87 122.934 230.452 126.769 222.786 129.139C215.12 131.509 205.901 132.117 199.906 126.784C193.445 121.037 194.182 109.193 201.307 104.291C190.111 105.13 178.916 105.969 167.72 106.808C170.183 107.806 172.805 108.935 174.216 111.186C175.628 113.437 174.981 117.12 172.409 117.789C162.832 120.28 153.026 115.74 143.834 112.076C134.641 108.412 123.565 105.721 115.368 111.265C96.8942 123.759 72.4888 121.684 50.4866 118.041C45.2083 117.167 38.8587 115.244 37.7612 110.008C27.6586 111.91 17.3561 112.748 7.07901 112.504C4.57036 112.445 1.6089 112.05 0.436484 109.831C-1.08263 106.957 1.64436 103.695 4.30013 101.819C12.4102 96.0913 22.3119 92.9398 32.2409 92.9263C35.069 92.9225 36.9572 89.967 37.6772 87.232C38.3972 84.4971 38.599 81.4536 40.4354 79.3028C34.1904 78.3654 27.5746 80.2718 22.786 84.3886C21.8972 85.1527 20.397 84.3856 20.024 83.2745C19.6509 82.1634 20.0352 80.9548 20.4298 79.8512C22.6393 73.6715 25.4096 67.3928 30.4313 63.1674C35.4529 58.9421 43.2988 57.418 48.5926 61.297C50.2532 62.5139 53.0729 64.0759 57.0516 65.983C61.131 65.3661 64.1642 64.8751 66.1513 64.5098C72.1693 63.4035 77.7491 60.6706 83.2041 57.8989C102.213 48.2407 121.703 37.488 143.016 36.8813C163.405 36.301 182.951 45.2032 199.986 56.4213ZM221.556 73.1646L223.469 77.9818C223.562 78.2179 223.664 78.4648 223.861 78.6245C224.101 78.8183 224.429 78.8442 224.734 78.8881C227.072 79.2248 228.904 80.9999 230.561 82.6831C232.683 84.8391 234.805 86.9952 236.928 89.1512C237.564 89.7973 238.62 89.0987 239.229 88.427C240.598 86.917 241.992 85.368 242.782 83.4895C243.572 81.611 243.657 79.3072 242.48 77.6441C241.78 76.6558 240.714 75.9894 239.621 75.467C237.818 74.6048 235.862 74.064 233.872 73.8776C231.931 73.6958 229.977 73.8486 228.028 73.8342C225.856 73.8182 223.685 73.5936 221.556 73.1646Z" fill="white"/>
<path fill-rule="evenodd" clip-rule="evenodd" d="M37.7613 110.008C27.6588 111.91 17.3563 112.748 7.07917 112.505C4.12164 108.195 36.1258 100.254 37.2863 105.489C38.2039 109.628 38.2459 112.32 37.7613 110.008Z" fill="#E7EAEE"/>
<path fill-rule="evenodd" clip-rule="evenodd" d="M192.751 96.0449C193.83 95.9295 198.12 94.8779 202.625 95.3654C205.046 94.1226 216.646 95.0988 223.571 96.4555C228.015 97.3263 239.281 97.9049 243.371 99.9915C250.472 103.614 250.635 105.853 249.567 106.332C246.532 107.695 242.875 108.366 240.91 108.402C237.371 108.466 230.252 105.196 222.443 103.147C218.956 102.232 216.394 101.454 214.374 100.7L214.704 100.556C210.336 102.528 205.817 102.842 201.307 104.291C190.111 105.13 178.916 105.969 167.72 106.808C170.183 107.806 133.133 94.3169 143.834 92.3488C144.493 92.2275 145.221 92.1538 146.009 92.1208C156.03 91.7007 175.94 97.8414 192.751 96.0449Z" fill="#E7EAEE"/>
<path fill-rule="evenodd" clip-rule="evenodd" d="M92.767 79.3923C92.9036 79.6363 92.8002 79.9608 92.5952 80.1509C92.3901 80.3409 92.1084 80.423 91.8336 80.4746C89.8096 80.8545 87.5983 79.7505 86.6857 77.9044C86.584 77.6986 86.4953 77.4726 86.5263 77.2451C86.5573 77.0176 86.7484 76.7975 86.9776 76.8112C87.5668 77.4611 88.1645 78.1185 88.8982 78.5996C89.6318 79.0807 90.5286 79.3739 91.3914 79.2154C91.881 79.1255 92.5239 78.9579 92.767 79.3923V79.3923Z" fill="#00160A"/>
<path fill-rule="evenodd" clip-rule="evenodd" d="M94.0935 104.575C94.1221 104.005 94.8362 103.767 95.4065 103.746C97.9613 103.651 100.341 104.903 102.7 105.887C105.06 106.871 107.808 107.597 110.112 106.49C110.593 106.259 111.097 105.943 111.619 106.055C110.754 107.734 108.684 108.496 106.798 108.393C104.912 108.289 103.144 107.491 101.405 106.754C99.6662 106.016 97.8367 105.315 95.9506 105.42C95.5638 105.442 95.1676 105.496 94.7948 105.391C94.4219 105.286 94.0742 104.962 94.0935 104.575Z" fill="#00160A"/>
<path fill-rule="evenodd" clip-rule="evenodd" d="M98.566 109.356C96.8036 108.842 94.7432 109.1 93.2956 107.97C93.1187 107.832 92.9441 107.651 92.9372 107.427C92.9276 107.113 93.2663 106.883 93.5806 106.875C93.895 106.867 94.19 107.01 94.4852 107.119C95.5629 107.514 96.7493 107.461 97.8743 107.691C99.562 108.035 101.048 108.997 102.638 109.66C104.228 110.323 106.134 110.662 107.614 109.782C108.212 109.426 108.997 108.896 109.492 109.384C107.88 111.219 105.152 111.984 102.821 111.254C101.337 110.789 100.059 109.792 98.566 109.356Z" fill="#00160A"/>
<path fill-rule="evenodd" clip-rule="evenodd" d="M47.7768 90.7718C47.4935 90.4095 47.4959 89.8837 47.6767 89.4608C47.8576 89.0379 48.1895 88.6993 48.5325 88.3929C50.1611 86.9383 52.4149 85.9535 54.529 86.5002C56.1135 86.91 57.367 88.0978 58.4764 89.3011C58.9514 89.8162 59.4415 90.554 59.0859 91.1578C58.7061 91.8026 57.7527 91.6662 57.0305 91.4704C54.7886 90.8625 52.4126 90.5044 50.1472 91.0172C49.3253 91.2032 48.2959 91.4357 47.7768 90.7718V90.7718Z" fill="#00160A"/>
<path fill-rule="evenodd" clip-rule="evenodd" d="M84.4937 112.614C84.8061 112.802 84.7629 113.307 84.5027 113.563C84.2424 113.818 83.8588 113.892 83.4991 113.954C81.4822 114.3 79.4653 114.645 77.4484 114.991C77.0274 115.064 76.5567 115.126 76.2056 114.882C75.8545 114.639 75.8444 113.962 76.2624 113.874C78.791 113.34 81.3396 112.901 83.9011 112.559C84.1018 112.532 84.3204 112.509 84.4937 112.614V112.614Z" fill="#00160A"/>
<path fill-rule="evenodd" clip-rule="evenodd" d="M79.347 91.5406C78.9033 91.7052 78.4132 91.2767 78.3534 90.8073C78.2935 90.3379 78.5364 89.8836 78.8175 89.503C80.1256 87.7315 82.4569 86.8245 84.6421 87.097C86.8273 87.3695 88.8122 88.7539 89.9601 90.6332C90.1372 90.9231 90.3014 91.2563 90.2342 91.5893C90.1615 91.95 89.8244 92.2114 89.4675 92.3006C89.1106 92.3899 88.7349 92.3387 88.3724 92.276C86.8635 92.0151 85.3923 91.5633 83.8822 91.3092C82.3721 91.0552 80.7827 91.008 79.347 91.5406Z" fill="#00160A"/>
<path fill-rule="evenodd" clip-rule="evenodd" d="M50.8297 79.4188C51.0013 78.916 51.7282 79.0404 52.2493 79.1438C53.8736 79.4661 55.4623 78.5605 56.8714 77.6907C57.0595 77.5746 57.3099 77.7952 57.3058 78.0163C57.3016 78.2373 57.1425 78.4215 56.987 78.5786C55.5822 79.9984 53.4814 80.9697 51.5821 80.3518C51.1576 80.2137 50.6855 79.8412 50.8297 79.4188Z" fill="#00160A"/>
<path fill-rule="evenodd" clip-rule="evenodd" d="M107.248 88.0233C106.7 87.9189 106.415 87.2539 106.518 86.7056C106.62 86.1572 106.993 85.7048 107.344 85.2715C108.671 83.6347 109.881 81.8941 110.834 80.0148C111.653 78.3986 112.281 76.6846 113.203 75.1243C115.84 70.6598 120.955 67.7735 126.14 67.8242C124.062 66.3369 121.606 65.4571 119.118 64.875C111.422 63.0743 103.107 64.0514 96.0381 67.5869C94.9208 68.1457 93.831 68.7671 92.6659 69.2177C92.1284 69.4256 91.5339 69.5972 90.9833 69.4269C90.4328 69.2566 90.0007 68.6082 90.2568 68.092C90.4044 67.7944 90.7223 67.628 91.0202 67.481C94.0318 65.9949 97.056 64.5037 100.248 63.4605C107.389 61.1267 115.28 61.1502 122.407 63.5265C124.798 64.3239 127.298 65.5628 128.333 67.8611C128.492 68.2138 128.507 68.7774 128.124 68.8351C124.017 69.454 119.838 70.8753 117.003 73.9108C113.332 77.8422 112.443 83.8787 108.461 87.4958C108.122 87.8038 107.698 88.1091 107.248 88.0233V88.0233Z" fill="#00160A"/>
<path fill-rule="evenodd" clip-rule="evenodd" d="M167.72 106.808C170.183 107.806 172.805 108.935 174.216 111.186C175.628 113.437 174.981 117.12 172.409 117.789C162.832 120.28 153.026 115.74 143.834 112.076C134.641 108.412 123.565 105.721 115.368 111.265C96.8942 123.759 72.4888 121.684 50.4866 118.041C45.2083 117.167 38.8587 115.244 37.7612 110.008C27.6586 111.91 17.3561 112.748 7.07901 112.504C4.57036 112.445 1.6089 112.05 0.436484 109.831C-1.08263 106.957 1.64436 103.695 4.30013 101.819C12.4102 96.0913 22.3119 92.9398 32.2409 92.9263C35.069 92.9225 36.9572 89.967 37.6772 87.232C38.3972 84.4971 38.599 81.4536 40.4354 79.3028C34.1904 78.3654 27.5746 80.2718 22.786 84.3886C21.8972 85.1527 20.397 84.3856 20.024 83.2745C19.6509 82.1634 20.0352 80.9548 20.4298 79.8512C22.6393 73.6715 25.4096 67.3928 30.4313 63.1674C35.4529 58.9421 41.011 57.3384 48.5582 60.7752C50.5346 61.6752 53.3574 63.2744 57.0267 65.5728C61.0818 65.2369 64.1233 64.8826 66.1513 64.5098C72.1693 63.4035 77.7491 60.6706 83.2041 57.8989C102.213 48.2407 121.703 37.488 143.016 36.8813C163.405 36.301 182.951 45.2032 199.986 56.4213C203.191 58.5319 206.409 60.7645 210.097 61.8244C213.786 62.8844 218.12 62.5602 220.96 59.9796C232.422 49.5659 250.879 47.8247 264.085 55.9114C277.292 63.998 284.132 81.2294 280.067 96.172C276.002 111.115 261.375 122.506 245.892 122.788C237.87 122.934 230.452 126.769 222.786 129.139C215.12 131.509 205.901 132.117 199.906 126.784C193.445 121.037 194.182 109.193 201.307 104.291C190.111 105.13 178.916 105.969 167.72 106.808ZM232.525 86.1534C226.876 80.4705 218.446 77.6916 210.525 78.9004C214.361 77.7086 218.47 77.4083 222.438 78.0298C211.19 61.7863 193.038 51.6406 174.535 44.7092C165.544 41.3408 156.18 38.5719 146.581 38.36C134.084 38.0841 121.905 42.1458 110.362 46.9426C97.6931 52.2073 85.4383 58.4086 73.1974 64.6035C76.9743 64.4105 80.8024 66.0701 83.2433 68.9588C72.9904 64.7309 60.8457 65.3828 51.1043 70.6839C51.151 68.7472 52.6987 66.952 54.6074 66.6207C49.0332 61.7093 40.4696 60.5171 33.7658 63.7194C27.0621 66.9216 22.6078 74.3322 22.9253 81.7547C28.5867 77.0726 36.7522 75.6247 43.6783 78.0748C39.5558 84.9538 37.4276 93.0124 37.616 101.03C39.7823 100.117 42.4517 100.546 44.2228 102.092C42.244 102.305 40.2652 102.518 38.2865 102.731C38.3701 103.633 38.4537 104.536 38.5373 105.439C40.6312 105.131 42.725 104.822 44.8188 104.513C43.4713 106.063 41.5712 107.123 39.5442 107.454C39.2897 110.034 41.0802 112.467 43.3265 113.76C45.5728 115.053 48.2109 115.439 50.7774 115.8C57.1742 116.701 63.5711 117.603 69.9679 118.504C68.4843 116.831 68.2414 114.137 67.2729 112.274C66.0184 109.862 64.2072 108.879 63.299 105.679C62.9857 104.575 62.2636 103.02 63.2742 102.318C63.6986 102.023 64.2515 102.012 64.7683 102.011C66.8799 102.009 68.9915 102.007 71.1032 102.005C71.7854 102.004 72.4991 102.011 73.1022 102.33C74.9298 103.296 74.3525 106.151 72.9877 107.704C71.6228 109.257 69.6712 110.497 69.205 112.512C68.7261 114.581 70.1192 116.726 71.9692 117.769C73.8193 118.811 76.0206 118.988 78.1431 119.061C82.6166 119.214 87.1024 119.006 91.5427 118.441C102.721 117.019 114.63 112.464 119.819 102.461C119.505 104.983 118.187 107.365 116.218 108.971C124.363 105.971 133.585 106.005 141.707 109.064C149.41 111.966 156.719 117.568 164.888 116.563C164.538 116.279 164.402 115.788 164.052 115.504C163.099 114.732 161.932 114.165 160.979 113.392C163.891 114.458 166.804 115.523 169.716 116.589C169.386 116.104 169.716 115.615 169.1 114.874C168.484 114.133 167.139 112.812 166.346 111.65C168.551 112.291 170.485 113.822 171.615 115.822C172.558 115.592 173.5 115.361 174.443 115.13C169.657 108.671 163.041 103.583 155.569 100.615C151.944 99.176 147.45 97.4531 146.997 93.5791C155.145 101.448 166.822 104.805 178.146 105.044C189.471 105.284 200.646 102.711 211.681 100.153C209.154 98.876 206.876 97.1097 205.011 94.9809C217.405 101.925 231.272 106.225 245.42 107.511C244.617 106.151 243.815 104.79 243.012 103.43C244.767 103.48 246.407 104.811 246.817 106.519C247.697 106.172 248.578 105.825 249.458 105.479C248.233 104.279 247.009 103.079 245.785 101.878C247.754 101.404 249.964 102.922 250.226 104.931C251.05 104.502 251.73 103.803 252.135 102.967C250.671 101.858 249.207 100.75 247.743 99.6422C249.962 99.597 252.19 100.34 253.938 101.707C251.869 96.6792 244.872 96.5594 240.223 93.7397C237.132 91.8643 235.075 88.7177 232.525 86.1534ZM222.002 71.7071C224.767 72.3774 227.662 71.8583 230.507 71.8668C233.455 71.8755 236.391 72.4603 239.153 73.4901C240.858 74.1258 242.562 74.9799 243.671 76.4229C245.428 78.7103 245.275 82.0283 244.049 84.6393C242.823 87.2502 240.702 89.3141 238.626 91.3162C242.984 93.2607 247.343 95.2051 251.702 97.1496C252.934 97.699 254.265 98.3439 254.828 99.5692C255.802 101.688 253.912 104.012 251.97 105.304C245.913 109.333 237.675 109.827 231.179 106.551C227.012 104.449 222.393 103.447 217.83 102.464C215.339 101.928 212.745 101.392 210.27 101.999C208.513 102.43 206.858 103.428 205.05 103.367C203.436 103.312 202.18 104.706 201.234 106.016C198.12 110.326 195.553 115.833 197.376 120.828C198.629 124.262 201.806 126.736 205.268 127.91C208.73 129.083 212.472 129.117 216.12 128.884C220.686 128.594 225.338 127.869 229.348 125.665C231.959 124.23 234.296 122.174 237.184 121.442C240.649 120.564 244.3 121.742 247.865 121.482C250.704 121.274 253.391 120.163 255.99 119.003C262.34 116.169 268.69 112.823 273.194 107.526C279.91 99.6267 281.507 88.0511 278.298 78.1916C275.089 68.332 267.506 60.2256 258.43 55.2118C255.935 53.8333 253.308 52.662 250.541 51.974C243.9 50.3224 236.631 51.623 230.828 55.2491C227.84 57.1161 225.243 59.5487 222.316 61.5087C219.388 63.4687 215.946 64.9784 212.439 64.636C215.142 67.6225 218.087 70.7582 222.002 71.7071ZM12.9712 98.712C8.9032 100.298 4.83279 102.402 2.2546 105.926C3.44084 105.272 4.93038 105.2 6.17453 105.735C5.26758 106.183 4.36063 106.631 3.45368 107.08C2.9456 107.331 2.42041 107.595 2.06753 108.039C1.71466 108.482 1.58705 109.159 1.92868 109.611C2.27031 110.063 3.13432 110.022 3.29958 109.48C3.90595 107.491 6.24749 106.22 8.24578 106.794C6.74493 107.649 5.10608 108.679 4.69079 110.356C4.91521 111.111 6.02124 111.236 6.6713 110.79C7.32136 110.345 7.64577 109.573 8.01962 108.879C8.39347 108.186 8.93644 107.476 9.71614 107.361C9.88069 107.337 10.0688 107.35 10.183 107.471C10.3822 107.681 10.2178 108.026 10.0304 108.247C9.60576 108.748 9.06386 109.187 8.85509 109.81C8.64633 110.432 9.0194 111.303 9.67499 111.263C18.8803 110.701 28.0682 109.854 37.2214 108.726C37.5521 108.01 36.5472 107.428 35.7653 107.322C33.7807 107.053 31.7391 107.211 29.82 107.784C30.1745 106.605 31.3658 105.832 32.5774 105.611C33.789 105.39 35.0324 105.617 36.2429 105.845C36.2524 104.994 36.0937 104.143 35.7787 103.353C33.854 103.313 31.9462 102.67 30.3897 101.537C31.6908 101.05 33.2022 101.161 34.4183 101.833C34.999 102.153 35.4317 101.215 35.4413 100.552C35.4724 98.3961 35.5036 96.2405 35.5347 94.085C27.8243 94.3379 20.1588 95.9098 12.9712 98.712ZM224.734 78.8881C227.072 79.2248 228.904 80.9999 230.561 82.6831C232.683 84.8391 234.805 86.9952 236.928 89.1512C237.564 89.7973 238.62 89.0987 239.229 88.427C240.598 86.917 241.992 85.368 242.782 83.4895C243.572 81.611 243.657 79.3072 242.48 77.6441C241.78 76.6558 240.714 75.9894 239.621 75.467C237.818 74.6048 235.862 74.064 233.872 73.8776C231.931 73.6958 229.977 73.8486 228.028 73.8342C225.856 73.8182 223.685 73.5936 221.556 73.1646C222.194 74.7704 222.831 76.3761 223.469 77.9818C223.562 78.2179 223.664 78.4648 223.861 78.6245C224.101 78.8183 224.429 78.8442 224.734 78.8881Z" fill="#00160A"/>
</svg>
