<svg width="58" height="58" viewBox="0 0 58 58" fill="none" xmlns="http://www.w3.org/2000/svg">
<circle cx="29" cy="29" r="27" stroke="white" stroke-width="4"/>
<mask id="path-2-inside-1_199_260" fill="white">
<path d="M29 -1.26763e-06C33.3611 -1.45826e-06 37.666 0.983588 41.5944 2.87755C45.5227 4.77152 48.9733 7.52708 51.6893 10.9392C54.4054 14.3512 56.3169 18.3319 57.2816 22.585C58.2463 26.838 58.2393 31.2539 57.2613 35.5038C56.2832 39.7538 54.3592 43.7285 51.6325 47.132C48.9057 50.5356 45.4465 53.2803 41.5122 55.1619C37.5779 57.0435 33.27 58.0136 28.9089 57.9999C24.5478 57.9862 20.246 56.989 16.3236 55.0828L18.0611 51.5077C21.4459 53.1528 25.1581 54.0132 28.9214 54.025C32.6847 54.0368 36.4022 53.1997 39.7972 51.576C43.1923 49.9523 46.1774 47.5838 48.5304 44.6468C50.8834 41.7098 52.5437 38.2799 53.3877 34.6124C54.2317 30.9449 54.2377 27.1343 53.4052 23.4642C52.5727 19.7941 50.9232 16.359 48.5794 13.4146C46.2357 10.4702 43.258 8.09237 39.8681 6.458C36.4782 4.82363 32.7633 3.97485 29 3.97485L29 -1.26763e-06Z"/>
</mask>
<path d="M29 -1.26763e-06C33.3611 -1.45826e-06 37.666 0.983588 41.5944 2.87755C45.5227 4.77152 48.9733 7.52708 51.6893 10.9392C54.4054 14.3512 56.3169 18.3319 57.2816 22.585C58.2463 26.838 58.2393 31.2539 57.2613 35.5038C56.2832 39.7538 54.3592 43.7285 51.6325 47.132C48.9057 50.5356 45.4465 53.2803 41.5122 55.1619C37.5779 57.0435 33.27 58.0136 28.9089 57.9999C24.5478 57.9862 20.246 56.989 16.3236 55.0828L18.0611 51.5077C21.4459 53.1528 25.1581 54.0132 28.9214 54.025C32.6847 54.0368 36.4022 53.1997 39.7972 51.576C43.1923 49.9523 46.1774 47.5838 48.5304 44.6468C50.8834 41.7098 52.5437 38.2799 53.3877 34.6124C54.2317 30.9449 54.2377 27.1343 53.4052 23.4642C52.5727 19.7941 50.9232 16.359 48.5794 13.4146C46.2357 10.4702 43.258 8.09237 39.8681 6.458C36.4782 4.82363 32.7633 3.97485 29 3.97485L29 -1.26763e-06Z" stroke="#201335" stroke-width="8" mask="url(#path-2-inside-1_199_260)"/>
<path d="M28.408 32.664H27.032V35H25.528V32.664H19.544V31.272L25 23.432H27.032V31.272H28.408V32.664ZM21.24 31.272H25.528V25.096L21.24 31.272Z" fill="#201335"/>
<path d="M30.6599 35H29.1719L33.6839 23.448H35.1879L30.6599 35ZM35.9561 23.432H44.0361V24.872L39.6521 35H38.0201L42.4521 24.872H35.9561V23.432Z" fill="#8DC73F"/>
</svg>
