<svg width="58" height="58" viewBox="0 0 58 58" fill="none" xmlns="http://www.w3.org/2000/svg">
<circle cx="29" cy="29" r="27" stroke="white" stroke-width="4"/>
<mask id="path-2-inside-1_198_228" fill="white">
<path d="M29 -1.26763e-06C33.358 -1.45812e-06 37.66 0.982199 41.5861 2.8736C45.5123 4.76499 48.9617 7.51694 51.678 10.9249L48.5696 13.4023C46.2257 10.4615 43.2491 8.08674 39.861 6.45458C36.473 4.82243 32.7607 3.97485 29 3.97485L29 -1.26763e-06Z"/>
</mask>
<path d="M29 -1.26763e-06C33.358 -1.45812e-06 37.66 0.982199 41.5861 2.8736C45.5123 4.76499 48.9617 7.51694 51.678 10.9249L48.5696 13.4023C46.2257 10.4615 43.2491 8.08674 39.861 6.45458C36.473 4.82243 32.7607 3.97485 29 3.97485L29 -1.26763e-06Z" stroke="#201335" stroke-width="8" mask="url(#path-2-inside-1_198_228)"/>
<path d="M21.992 24.84H19.56V23.432H23.496V35H21.992V24.84Z" fill="#201335"/>
<path d="M26.6286 35H25.1406L29.6526 23.448H31.1566L26.6286 35ZM31.9249 23.432H40.0049V24.872L35.6209 35H33.9889L38.4209 24.872H31.9249V23.432Z" fill="#8DC73F"/>
</svg>
