<svg width="58" height="58" viewBox="0 0 58 58" fill="none" xmlns="http://www.w3.org/2000/svg">
<circle cx="29" cy="29" r="27" stroke="white" stroke-width="4"/>
<mask id="path-2-inside-1_197_224" fill="white">
<path d="M29 -1.26763e-06C35.7328 -1.56193e-06 42.2557 2.34263 47.4502 6.62611C52.6446 10.9096 56.1868 16.867 57.4691 23.4765C58.7515 30.086 57.6941 36.9358 54.4784 42.8509C51.2627 48.7661 46.0891 53.3781 39.8448 55.8959L38.3584 52.2094C43.7468 50.0368 48.2113 46.0569 50.9863 40.9525C53.7612 35.8481 54.6736 29.9371 53.567 24.2336C52.4604 18.53 49.4038 13.3891 44.9213 9.69276C40.4389 5.9964 34.8099 3.97485 29 3.97485L29 -1.26763e-06Z"/>
</mask>
<path d="M29 -1.26763e-06C35.7328 -1.56193e-06 42.2557 2.34263 47.4502 6.62611C52.6446 10.9096 56.1868 16.867 57.4691 23.4765C58.7515 30.086 57.6941 36.9358 54.4784 42.8509C51.2627 48.7661 46.0891 53.3781 39.8448 55.8959L38.3584 52.2094C43.7468 50.0368 48.2113 46.0569 50.9863 40.9525C53.7612 35.8481 54.6736 29.9371 53.567 24.2336C52.4604 18.53 49.4038 13.3891 44.9213 9.69276C40.4389 5.9964 34.8099 3.97485 29 3.97485L29 -1.26763e-06Z" stroke="#201335" stroke-width="8" mask="url(#path-2-inside-1_197_224)"/>
<path d="M23.096 29.016H21.944V27.976L25.224 24.824H20.024V23.432H27.208V24.696L24.04 27.72C26.008 27.96 27.496 29.288 27.496 31.368C27.496 33.704 25.736 35.192 23.384 35.192C21.112 35.192 19.48 33.8 19.48 31.4H21.032C21.032 32.904 21.96 33.784 23.416 33.784C24.92 33.784 25.896 32.824 25.896 31.336C25.896 29.944 24.936 29.016 23.096 29.016Z" fill="#201335"/>
<path d="M29.5818 35H28.0938L32.6058 23.448H34.1098L29.5818 35ZM34.878 23.432H42.958V24.872L38.574 35H36.942L41.374 24.872H34.878V23.432Z" fill="#8DC73F"/>
</svg>
