<svg width="58" height="58" viewBox="0 0 58 58" fill="none" xmlns="http://www.w3.org/2000/svg">
<circle cx="29" cy="29" r="27" stroke="white" stroke-width="4"/>
<mask id="path-2-inside-1_196_220" fill="white">
<path d="M29 -1.26763e-06C33.358 -1.45812e-06 37.66 0.982199 41.5861 2.8736C45.5123 4.76499 48.9617 7.51694 51.678 10.9249C54.3942 14.3329 56.3075 18.3092 57.2755 22.5583C58.2435 26.8074 58.2415 31.2201 57.2694 35.4683L53.3947 34.5818C54.2335 30.9158 54.2353 27.108 53.4 23.4412C52.5646 19.7745 50.9136 16.3432 48.5696 13.4023C46.2257 10.4615 43.2491 8.08674 39.861 6.45458C36.473 4.82243 32.7607 3.97485 29 3.97485L29 -1.26763e-06Z"/>
</mask>
<path d="M29 -1.26763e-06C33.358 -1.45812e-06 37.66 0.982199 41.5861 2.8736C45.5123 4.76499 48.9617 7.51694 51.678 10.9249C54.3942 14.3329 56.3075 18.3092 57.2755 22.5583C58.2435 26.8074 58.2415 31.2201 57.2694 35.4683L53.3947 34.5818C54.2335 30.9158 54.2353 27.108 53.4 23.4412C52.5646 19.7745 50.9136 16.3432 48.5696 13.4023C46.2257 10.4615 43.2491 8.08674 39.861 6.45458C36.473 4.82243 32.7607 3.97485 29 3.97485L29 -1.26763e-06Z" stroke="#201335" stroke-width="8" mask="url(#path-2-inside-1_196_220)"/>
<path d="M27.544 34.984L19.736 35V33.8L23.464 30.584C25.336 28.968 25.864 28.184 25.864 26.952C25.864 25.496 25.032 24.632 23.64 24.632C22.216 24.632 21.288 25.672 21.256 27.32H19.688C19.736 24.84 21.304 23.224 23.656 23.224C25.976 23.224 27.464 24.632 27.464 26.856C27.464 28.504 26.648 29.672 24.6 31.448L22.2 33.528H27.544V34.984Z" fill="#201335"/>
<path d="M29.6911 35H28.2031L32.7151 23.448H34.2191L29.6911 35ZM34.9874 23.432H43.0674V24.872L38.6834 35H37.0514L41.4834 24.872H34.9874V23.432Z" fill="#8DC73F"/>
</svg>
