<svg width="94" height="17" viewBox="0 0 94 17" fill="none" xmlns="http://www.w3.org/2000/svg">
<path d="M3 13.375L9.94312 7.95833M13.4147 5.25L11.6789 6.60417" stroke="#8DC73F" stroke-width="0.8125" stroke-linecap="round" stroke-linejoin="round"/>
<path d="M7.5131 3.0835L8.16922 4.46745L9.94319 4.97933L8.16922 5.4912L7.5131 6.87516L6.85697 5.4912L5.08301 4.97933L6.85697 4.46745L7.5131 3.0835ZM14.1091 7.41683L14.484 8.20766L15.4977 8.50016L14.484 8.79266L14.1091 9.5835L13.7341 8.79266L12.7204 8.50016L13.7341 8.20766L14.1091 7.41683Z" stroke="#8DC73F" stroke-width="0.8125" stroke-linejoin="round"/>
<path d="M27.0938 13.156C26.2444 13.156 25.4991 12.961 24.8578 12.571C24.2164 12.1723 23.7181 11.622 23.3628 10.92C23.0074 10.2093 22.8298 9.39033 22.8298 8.463C22.8298 7.53567 23.0074 6.71667 23.3628 6.006C23.7268 5.29533 24.2381 4.74067 24.8968 4.342C25.5641 3.94333 26.3484 3.744 27.2498 3.744C28.2724 3.744 29.1217 3.991 29.7978 4.485C30.4824 4.979 30.9244 5.65933 31.1238 6.526H29.8627C29.7414 5.98 29.4511 5.54667 28.9918 5.226C28.5411 4.90533 27.9604 4.745 27.2498 4.745C26.5824 4.745 26.0018 4.89667 25.5078 5.2C25.0138 5.49467 24.6281 5.91933 24.3508 6.474C24.0821 7.02867 23.9478 7.69167 23.9478 8.463C23.9478 9.23433 24.0821 9.89733 24.3508 10.452C24.6194 11.0067 24.9921 11.4357 25.4688 11.739C25.9454 12.0337 26.5001 12.181 27.1328 12.181C28.1034 12.181 28.8358 11.8993 29.3298 11.336C29.8238 10.764 30.1054 9.984 30.1748 8.996H27.5488V8.138H31.2928V13H30.2918L30.2008 11.505C29.8714 12.0337 29.4684 12.441 28.9918 12.727C28.5151 13.013 27.8824 13.156 27.0938 13.156ZM35.8536 13.156C35.2383 13.156 34.6923 13.0173 34.2156 12.74C33.739 12.454 33.362 12.0597 33.0846 11.557C32.816 11.0543 32.6816 10.4607 32.6816 9.776C32.6816 9.1 32.816 8.51067 33.0846 8.008C33.3533 7.49667 33.726 7.10233 34.2026 6.825C34.688 6.539 35.247 6.396 35.8796 6.396C36.5036 6.396 37.041 6.539 37.4916 6.825C37.951 7.10233 38.302 7.47067 38.5446 7.93C38.7873 8.38933 38.9086 8.88333 38.9086 9.412C38.9086 9.50733 38.9043 9.60267 38.8956 9.698C38.8956 9.79333 38.8956 9.90167 38.8956 10.023H33.7606C33.7866 10.517 33.8993 10.9287 34.0986 11.258C34.3066 11.5787 34.5623 11.8213 34.8656 11.986C35.1776 12.1507 35.507 12.233 35.8536 12.233C36.3043 12.233 36.6813 12.129 36.9846 11.921C37.288 11.713 37.509 11.4313 37.6476 11.076H38.7266C38.5533 11.674 38.2196 12.1723 37.7256 12.571C37.2403 12.961 36.6163 13.156 35.8536 13.156ZM35.8536 7.319C35.3336 7.319 34.87 7.47933 34.4626 7.8C34.064 8.112 33.8343 8.57133 33.7736 9.178H37.8296C37.8036 8.59733 37.6043 8.14233 37.2316 7.813C36.859 7.48367 36.3996 7.319 35.8536 7.319ZM40.356 13V6.552H41.344L41.409 7.709C41.617 7.30167 41.916 6.981 42.306 6.747C42.696 6.513 43.138 6.396 43.632 6.396C44.3947 6.396 45.0013 6.63 45.452 7.098C45.9113 7.55733 46.141 8.268 46.141 9.23V13H45.049V9.347C45.049 8.00367 44.4943 7.332 43.385 7.332C42.8303 7.332 42.3667 7.53567 41.994 7.943C41.63 8.34167 41.448 8.91367 41.448 9.659V13H40.356ZM50.6944 13.156C50.0791 13.156 49.5331 13.0173 49.0564 12.74C48.5798 12.454 48.2028 12.0597 47.9254 11.557C47.6568 11.0543 47.5224 10.4607 47.5224 9.776C47.5224 9.1 47.6568 8.51067 47.9254 8.008C48.1941 7.49667 48.5668 7.10233 49.0434 6.825C49.5288 6.539 50.0878 6.396 50.7204 6.396C51.3444 6.396 51.8818 6.539 52.3324 6.825C52.7918 7.10233 53.1428 7.47067 53.3854 7.93C53.6281 8.38933 53.7494 8.88333 53.7494 9.412C53.7494 9.50733 53.7451 9.60267 53.7364 9.698C53.7364 9.79333 53.7364 9.90167 53.7364 10.023H48.6014C48.6274 10.517 48.7401 10.9287 48.9394 11.258C49.1474 11.5787 49.4031 11.8213 49.7064 11.986C50.0184 12.1507 50.3478 12.233 50.6944 12.233C51.1451 12.233 51.5221 12.129 51.8254 11.921C52.1288 11.713 52.3498 11.4313 52.4884 11.076H53.5674C53.3941 11.674 53.0604 12.1723 52.5664 12.571C52.0811 12.961 51.4571 13.156 50.6944 13.156ZM50.6944 7.319C50.1744 7.319 49.7108 7.47933 49.3034 7.8C48.9048 8.112 48.6751 8.57133 48.6144 9.178H52.6704C52.6444 8.59733 52.4451 8.14233 52.0724 7.813C51.6998 7.48367 51.2404 7.319 50.6944 7.319ZM55.1968 13V6.552H56.1848L56.2758 7.787C56.4751 7.36233 56.7785 7.02433 57.1858 6.773C57.5931 6.52167 58.0958 6.396 58.6938 6.396V7.54H58.3948C58.0135 7.54 57.6625 7.60933 57.3418 7.748C57.0211 7.878 56.7655 8.10333 56.5748 8.424C56.3841 8.74467 56.2888 9.18667 56.2888 9.75V13H55.1968ZM62.0645 13.156C61.5271 13.156 61.0808 13.065 60.7255 12.883C60.3701 12.701 60.1058 12.4583 59.9325 12.155C59.7591 11.8517 59.6725 11.5223 59.6725 11.167C59.6725 10.5083 59.9238 10.0013 60.4265 9.646C60.9291 9.29067 61.6138 9.113 62.4805 9.113H64.2225V9.035C64.2225 8.47167 64.0751 8.047 63.7805 7.761C63.4858 7.46633 63.0915 7.319 62.5975 7.319C62.1728 7.319 61.8045 7.42733 61.4925 7.644C61.1891 7.852 60.9985 8.15967 60.9205 8.567H59.8025C59.8458 8.099 60.0018 7.70467 60.2705 7.384C60.5478 7.06333 60.8901 6.82067 61.2975 6.656C61.7048 6.48267 62.1381 6.396 62.5975 6.396C63.4988 6.396 64.1748 6.63867 64.6255 7.124C65.0848 7.60067 65.3145 8.23767 65.3145 9.035V13H64.3395L64.2745 11.843C64.0925 12.207 63.8238 12.519 63.4685 12.779C63.1218 13.0303 62.6538 13.156 62.0645 13.156ZM62.2335 12.233C62.6495 12.233 63.0048 12.1247 63.2995 11.908C63.6028 11.6913 63.8325 11.4097 63.9885 11.063C64.1445 10.7163 64.2225 10.3523 64.2225 9.971V9.958H62.5715C61.9301 9.958 61.4751 10.0707 61.2065 10.296C60.9465 10.5127 60.8165 10.7857 60.8165 11.115C60.8165 11.453 60.9378 11.726 61.1805 11.934C61.4318 12.1333 61.7828 12.233 62.2335 12.233ZM69.3229 13C68.7336 13 68.2699 12.857 67.9319 12.571C67.5939 12.285 67.4249 11.7693 67.4249 11.024V7.475H66.3069V6.552H67.4249L67.5679 5.005H68.5169V6.552H70.4149V7.475H68.5169V11.024C68.5169 11.4313 68.5993 11.7087 68.7639 11.856C68.9286 11.9947 69.2189 12.064 69.6349 12.064H70.3109V13H69.3229ZM74.5235 13.156C73.9082 13.156 73.3622 13.0173 72.8855 12.74C72.4089 12.454 72.0319 12.0597 71.7545 11.557C71.4859 11.0543 71.3515 10.4607 71.3515 9.776C71.3515 9.1 71.4859 8.51067 71.7545 8.008C72.0232 7.49667 72.3959 7.10233 72.8725 6.825C73.3579 6.539 73.9169 6.396 74.5495 6.396C75.1735 6.396 75.7109 6.539 76.1615 6.825C76.6209 7.10233 76.9719 7.47067 77.2145 7.93C77.4572 8.38933 77.5785 8.88333 77.5785 9.412C77.5785 9.50733 77.5742 9.60267 77.5655 9.698C77.5655 9.79333 77.5655 9.90167 77.5655 10.023H72.4305C72.4565 10.517 72.5692 10.9287 72.7685 11.258C72.9765 11.5787 73.2322 11.8213 73.5355 11.986C73.8475 12.1507 74.1769 12.233 74.5235 12.233C74.9742 12.233 75.3512 12.129 75.6545 11.921C75.9579 11.713 76.1789 11.4313 76.3175 11.076H77.3965C77.2232 11.674 76.8895 12.1723 76.3955 12.571C75.9102 12.961 75.2862 13.156 74.5235 13.156ZM74.5235 7.319C74.0035 7.319 73.5399 7.47933 73.1325 7.8C72.7339 8.112 72.5042 8.57133 72.4435 9.178H76.4995C76.4735 8.59733 76.2742 8.14233 75.9015 7.813C75.5289 7.48367 75.0695 7.319 74.5235 7.319Z" fill="#8DC73F"/>
</svg>
