<svg width="14" height="14" viewBox="0 0 14 14" fill="none" xmlns="http://www.w3.org/2000/svg">
<path d="M13.1875 1.5V10.4375C13.1875 10.6198 13.1151 10.7947 12.9862 10.9236C12.8572 11.0526 12.6824 11.125 12.5 11.125C12.3177 11.125 12.1428 11.0526 12.0139 10.9236C11.8849 10.7947 11.8125 10.6198 11.8125 10.4375V3.15945L1.98642 12.9864C1.85742 13.1154 1.68245 13.1879 1.50002 13.1879C1.31758 13.1879 1.14261 13.1154 1.01361 12.9864C0.884607 12.8574 0.812134 12.6824 0.812134 12.5C0.812134 12.3176 0.884607 12.1426 1.01361 12.0136L10.8406 2.1875H3.56252C3.38018 2.1875 3.20531 2.11507 3.07638 1.98614C2.94745 1.8572 2.87502 1.68234 2.87502 1.5C2.87502 1.31766 2.94745 1.1428 3.07638 1.01386C3.20531 0.884933 3.38018 0.8125 3.56252 0.8125H12.5C12.6824 0.8125 12.8572 0.884933 12.9862 1.01386C13.1151 1.1428 13.1875 1.31766 13.1875 1.5Z" fill="#F1F1F2"/>
</svg>
