<svg width="19" height="18" viewBox="0 0 19 18" fill="none" xmlns="http://www.w3.org/2000/svg">
<path d="M1.48078 0.00882615C1.14242 0.524906 1.05899 1.15885 1.18973 1.89094C1.34559 2.76397 1.81725 3.74782 2.49895 4.67414C3.86242 6.52683 6.06331 8.12836 8.02131 8.37116L8.15817 8.38861L8.2463 8.49414L15.4513 17.1917C16.1694 17.3632 16.6331 17.2564 16.8742 17.0176C17.1171 16.777 17.2292 16.3123 17.0492 15.575L1.48085 0.00878906L1.48078 0.00882615ZM15.3992 0.094623L11.3728 4.12099C10.9275 4.56623 10.9236 5.05615 11.1536 5.59145L11.2487 5.81299L11.0747 5.97998L9.72255 7.2695L10.8208 8.36768L12.1045 7.012L12.2715 6.83573L12.493 6.93199C13.0558 7.1745 13.5894 7.16455 14.0029 6.75108L18.0293 2.72471L17.5062 2.20169L14.8877 4.81909L14.3983 4.32862L17.0157 1.71129L16.4579 1.15335L13.8406 3.77075L13.35 3.28024L15.9673 0.662916L15.3992 0.094623ZM7.8276 9.07743L0.947295 15.6423C0.77752 16.3455 0.886287 16.7848 1.11547 17.0118C1.34474 17.2389 1.78819 17.3431 2.48273 17.1753L8.91082 10.3855L7.8276 9.07743Z" fill="#8DC73F"/>
</svg>
