<svg width="24" height="16" viewBox="0 0 24 16" fill="none" xmlns="http://www.w3.org/2000/svg">
<path d="M4 4C5.37891 4 6.5 3.10312 6.5 2C6.5 0.896875 5.37891 0 4 0C2.62109 0 1.5 0.896875 1.5 2C1.5 3.10312 2.62109 4 4 4ZM19 4C20.3789 4 21.5 3.10312 21.5 2C21.5 0.896875 20.3789 0 19 0C17.6211 0 16.5 0.896875 16.5 2C16.5 3.10312 17.6211 4 19 4ZM23.9727 11.0781L22.1914 5.27187C22.0625 4.85 21.5859 4.55313 21.0273 4.51562C20.4414 4.81875 19.7461 5 18.9961 5C18.2461 5 17.5508 4.81875 16.9648 4.51562C16.4062 4.55313 15.9297 4.85 15.8008 5.27187L14.0195 11.0781C13.8828 11.55 14.3516 12 14.9844 12H17.125V15.25C17.125 15.6656 17.543 16 18.0625 16H19.9375C20.457 16 20.875 15.6656 20.875 15.25V12H23.0156C23.6484 12 24.1172 11.55 23.9727 11.0781ZM12.125 0H10.875C10.5312 0 10.25 0.225 10.25 0.5V15.5C10.25 15.775 10.5312 16 10.875 16H12.125C12.4687 16 12.75 15.775 12.75 15.5V0.5C12.75 0.225 12.4687 0 12.125 0ZM6.03516 4.5125C5.44922 4.81875 4.75 5 4 5C3.25 5 2.55078 4.81875 1.96484 4.5125C1.00391 4.57812 0.25 5.21562 0.25 6V10.25C0.25 10.6656 0.667969 11 1.1875 11H1.5V15.25C1.5 15.6656 1.91797 16 2.4375 16H5.5625C6.08203 16 6.5 15.6656 6.5 15.25V11H6.8125C7.33203 11 7.75 10.6656 7.75 10.25V6C7.75 5.21562 6.99609 4.57812 6.03516 4.5125Z" fill="#8DC73F"/>
</svg>
