<svg width="26" height="16" viewBox="0 0 26 16" fill="none" xmlns="http://www.w3.org/2000/svg">
<path fill-rule="evenodd" clip-rule="evenodd" d="M21.7498 0.5C22.7443 0.5 23.6981 0.895088 24.4014 1.59835C25.1047 2.30161 25.4998 3.25544 25.4998 4.25V11.75C25.4998 12.7446 25.1047 13.6984 24.4014 14.4017C23.6981 15.1049 22.7443 15.5 21.7498 15.5H4.24976C3.25519 15.5 2.30137 15.1049 1.59811 14.4017C0.894844 13.6984 0.499756 12.7446 0.499756 11.75V4.25C0.499756 3.25544 0.894844 2.30161 1.59811 1.59835C2.30137 0.895088 3.25519 0.5 4.24976 0.5H21.7498ZM21.7498 3H4.24976C3.94359 3.00004 3.64808 3.11244 3.41929 3.31589C3.1905 3.51934 3.04433 3.79969 3.00851 4.10375L2.99976 4.25V11.75C2.9998 12.0562 3.1122 12.3517 3.31565 12.5805C3.5191 12.8093 3.79944 12.9554 4.10351 12.9913L4.24976 13V10.5C4.2498 10.1938 4.3622 9.89833 4.56565 9.66953C4.7691 9.44074 5.04944 9.29457 5.35351 9.25875L5.49976 9.25H20.4998C20.8059 9.25004 21.1014 9.36244 21.3302 9.56589C21.559 9.76934 21.7052 10.0497 21.741 10.3538L21.7498 10.5V13C22.0559 13 22.3514 12.8876 22.5802 12.6841C22.809 12.4807 22.9552 12.2003 22.991 11.8962L22.9998 11.75V4.25C22.9997 3.94383 22.8873 3.64833 22.6839 3.41953C22.4804 3.19074 22.2001 3.04457 21.896 3.00875L21.7498 3ZM19.2498 11.75H6.74976V13H19.2498V11.75ZM19.2498 4.25C19.5813 4.25 19.8992 4.3817 20.1336 4.61612C20.3681 4.85054 20.4998 5.16848 20.4998 5.5C20.4998 5.83152 20.3681 6.14946 20.1336 6.38388C19.8992 6.6183 19.5813 6.75 19.2498 6.75C18.9182 6.75 18.6003 6.6183 18.3659 6.38388C18.1315 6.14946 17.9998 5.83152 17.9998 5.5C17.9998 5.16848 18.1315 4.85054 18.3659 4.61612C18.6003 4.3817 18.9182 4.25 19.2498 4.25Z" fill="#8DC73F"/>
</svg>
