<svg width="37" height="37" viewBox="0 0 37 37" fill="none" xmlns="http://www.w3.org/2000/svg">
<path d="M14.1665 24.306V12.3593C14.1668 12.2098 14.2072 12.0632 14.2836 11.9347C14.36 11.8062 14.4696 11.7007 14.6008 11.6291C14.732 11.5575 14.8801 11.5226 15.0295 11.5279C15.1788 11.5332 15.324 11.5786 15.4498 11.6593L24.7432 17.631C24.8608 17.7064 24.9577 17.8101 25.0247 17.9327C25.0918 18.0554 25.1269 18.1929 25.1269 18.3326C25.1269 18.4724 25.0918 18.6099 25.0247 18.7325C24.9577 18.8551 24.8608 18.9589 24.7432 19.0343L15.4498 25.0076C15.324 25.0883 15.1788 25.1337 15.0295 25.139C14.8801 25.1444 14.732 25.1094 14.6008 25.0378C14.4696 24.9662 14.36 24.8607 14.2836 24.7322C14.2072 24.6038 14.1668 24.4571 14.1665 24.3076V24.306Z" fill="#8DC73F"/>
<path d="M0 18.3333C0 8.20833 8.20833 0 18.3333 0C28.4583 0 36.6667 8.20833 36.6667 18.3333C36.6667 28.4583 28.4583 36.6667 18.3333 36.6667C8.20833 36.6667 0 28.4583 0 18.3333ZM18.3333 2.5C14.1341 2.5 10.1068 4.16815 7.13748 7.13748C4.16815 10.1068 2.5 14.1341 2.5 18.3333C2.5 22.5326 4.16815 26.5599 7.13748 29.5292C10.1068 32.4985 14.1341 34.1667 18.3333 34.1667C22.5326 34.1667 26.5599 32.4985 29.5292 29.5292C32.4985 26.5599 34.1667 22.5326 34.1667 18.3333C34.1667 14.1341 32.4985 10.1068 29.5292 7.13748C26.5599 4.16815 22.5326 2.5 18.3333 2.5Z" fill="#8DC73F" fill-opacity="0.5"/>
</svg>
