<svg width="22" height="22" viewBox="0 0 22 22" fill="none" xmlns="http://www.w3.org/2000/svg">
<path fill-rule="evenodd" clip-rule="evenodd" d="M14.4375 4.12523C14.4374 3.48597 14.6601 2.86666 15.0672 2.37377C15.4743 1.88089 16.0403 1.54523 16.6681 1.42449C17.2959 1.30376 17.9461 1.4055 18.5069 1.71223C19.0678 2.01895 19.5043 2.51149 19.7414 3.10517C19.9784 3.69885 20.0013 4.35658 19.806 4.96527C19.6106 5.57396 19.2093 6.09559 18.6711 6.44047C18.1328 6.78535 17.4913 6.93194 16.8566 6.85503C16.222 6.77813 15.634 6.48253 15.1937 6.01906L7.47447 10.3081C7.59241 10.762 7.59241 11.2385 7.47447 11.6923L15.1937 15.9814C15.655 15.4964 16.2774 15.1963 16.9442 15.1373C17.6109 15.0784 18.2763 15.2646 18.8156 15.6612C19.3548 16.0577 19.7309 16.6374 19.8734 17.2914C20.0158 17.9454 19.9148 18.629 19.5893 19.2139C19.2638 19.7988 18.7362 20.2449 18.1053 20.4685C17.4744 20.6922 16.7836 20.6781 16.1624 20.4289C15.5412 20.1796 15.0322 19.7124 14.7308 19.1147C14.4295 18.517 14.3564 17.8299 14.5255 17.1822L6.80622 12.8941C6.4275 13.2928 5.93793 13.5688 5.40074 13.6865C4.86355 13.8042 4.30341 13.7581 3.79267 13.5542C3.28194 13.3503 2.84406 12.998 2.5356 12.5427C2.22713 12.0875 2.06226 11.5502 2.06226 11.0002C2.06226 10.4503 2.22713 9.913 2.5356 9.45773C2.84406 9.00245 3.28194 8.65012 3.79267 8.44622C4.30341 8.24233 4.86355 8.19625 5.40074 8.31394C5.93793 8.43162 6.4275 8.70766 6.80622 9.1064L14.5255 4.81731C14.4669 4.59129 14.4373 4.35873 14.4375 4.12523Z" fill="#F1F1F2"/>
</svg>
