<svg width="37" height="37" viewBox="0 0 37 37" fill="none" xmlns="http://www.w3.org/2000/svg">
<circle cx="18.5" cy="18.5" r="18" stroke="white" stroke-opacity="0.3"/>
<path d="M25.1876 16.9008V16.2545C25.1876 12.7079 22.4156 9.83325 19.0001 9.83325C15.5846 9.83325 12.8126 12.7079 12.8126 16.2545V16.9008C12.8137 17.6722 12.5935 18.4277 12.1782 19.0778L11.1626 20.6591C10.2358 22.1028 10.9435 24.0654 12.5559 24.5219C16.769 25.7163 21.2311 25.7163 25.4442 24.5219C27.0566 24.0654 27.7643 22.1028 26.8376 20.66L25.8219 19.0788C25.4063 18.4288 25.1858 17.6732 25.1866 16.9017L25.1876 16.9008Z" stroke="white" stroke-width="1.5"/>
<path opacity="0.5" d="M14.875 25.4165C15.4754 27.0188 17.0952 28.1665 19 28.1665C20.9048 28.1665 22.5246 27.0188 23.125 25.4165" stroke="white" stroke-width="1.5" stroke-linecap="round"/>
<circle cx="23.5" cy="11.5" r="2.5" fill="#8DC73F"/>
</svg>
