<svg width="61" height="61" viewBox="0 0 61 61" fill="none" xmlns="http://www.w3.org/2000/svg">
<circle cx="30.5" cy="30.5" r="30.5" fill="white" fill-opacity="0.06"/>
<path d="M19.1942 30.4208C17.8907 28.1478 17.2613 26.2918 16.8818 24.4104C16.3205 21.6279 17.605 18.9099 19.7329 17.1755C20.6322 16.4425 21.6632 16.693 22.195 17.6471L23.3956 19.801C24.3473 21.5083 24.8231 22.3619 24.7287 23.2669C24.6343 24.172 23.9926 24.9091 22.7092 26.3833L19.1942 30.4208ZM19.1942 30.4208C21.8327 35.0214 25.9733 39.1643 30.5792 41.8058M30.5792 41.8058C32.8522 43.1093 34.7082 43.7388 36.5896 44.1183C39.372 44.6796 42.0901 43.395 43.8244 41.2671C44.5574 40.3678 44.3071 39.3369 43.3529 38.805L41.199 37.6044C39.4917 36.6527 38.6381 36.177 37.733 36.2713C36.828 36.3656 36.0909 37.0073 34.6167 38.2908L30.5792 41.8058Z" stroke="white" stroke-width="2.0625" stroke-linejoin="round"/>
</svg>
