<svg width="61" height="61" viewBox="0 0 61 61" fill="none" xmlns="http://www.w3.org/2000/svg">
<circle cx="30.5" cy="30.5" r="30.5" fill="white" fill-opacity="0.06"/>
<path d="M44.25 29.9042C44.25 37.1686 38.093 43.0584 30.5 43.0584C29.6072 43.0597 28.7169 42.977 27.8399 42.8124C27.2087 42.6938 26.8931 42.6345 26.6727 42.6682C26.4524 42.7019 26.1401 42.8679 25.5156 43.2001C23.7489 44.1396 21.6889 44.4714 19.7078 44.1029C20.4608 43.1767 20.975 42.0654 21.2019 40.8741C21.3394 40.1453 20.9988 39.4375 20.4885 38.9193C18.1708 36.5658 16.75 33.3945 16.75 29.9042C16.75 22.6399 22.9069 16.75 30.5 16.75C38.093 16.75 44.25 22.6399 44.25 29.9042Z" stroke="white" stroke-width="1.5" stroke-linejoin="round"/>
<path d="M30.4938 30.5H30.5062M35.9876 30.5H36M25 30.5H25.0123" stroke="white" stroke-width="2" stroke-linecap="round" stroke-linejoin="round"/>
</svg>
