<svg width="48" height="47" viewBox="0 0 48 47" fill="none" xmlns="http://www.w3.org/2000/svg">
<circle cx="24" cy="23.5" r="23.5" fill="#8DC73F"/>
<path d="M33.5851 19.5456C33.2639 18.4425 32.6696 17.4383 31.8573 16.6259C31.0449 15.8136 30.0407 15.2193 28.9376 14.8981C28.637 14.8204 28.3216 14.8204 28.021 14.8981C27.7186 14.9858 27.444 15.15 27.2235 15.3747L25.1793 17.4281L16.4343 26.1639C16.1589 26.4505 15.9795 26.8157 15.921 27.2089L15.3618 31.0222C15.3187 31.3076 15.3407 31.599 15.426 31.8747C15.5195 32.1497 15.6735 32.4 15.8751 32.6081C16.0805 32.8116 16.328 32.9674 16.5993 33.0664C16.7891 33.1287 16.9871 33.159 17.186 33.1581H17.4518L21.2651 32.5989C21.6633 32.5478 22.0336 32.3675 22.3193 32.0856L31.0735 23.3314L33.1085 21.3056C33.3378 21.0812 33.5043 20.8006 33.5912 20.4917C33.678 20.1828 33.6823 19.8566 33.6035 19.5456H33.5851ZM32.2468 20.1231C32.2219 20.2001 32.1777 20.2695 32.1185 20.3247L30.5693 21.8739L26.6093 17.9231L28.1768 16.3556C28.237 16.3002 28.3091 16.2594 28.3876 16.2364H28.5985C29.4663 16.4945 30.2561 16.965 30.8963 17.6052C31.5365 18.2454 32.007 19.0352 32.2651 19.9031C32.2748 19.9769 32.2685 20.0519 32.2468 20.1231Z" fill="#F1F1F2"/>
</svg>
