<svg width="47" height="47" viewBox="0 0 47 47" fill="none" xmlns="http://www.w3.org/2000/svg">
<circle cx="23.5" cy="23.5" r="23.5" fill="#8DC73F"/>
<path d="M24 27.4375C25.5188 27.4375 26.75 26.2063 26.75 24.6875C26.75 23.1687 25.5188 21.9375 24 21.9375C22.4812 21.9375 21.25 23.1687 21.25 24.6875C21.25 26.2063 22.4812 27.4375 24 27.4375Z" fill="#F1F1F2"/>
<path d="M31.5625 19.1875H29.0273C28.8984 19.1875 28.7386 19.1041 28.614 18.9727L27.4994 17.2135C27.4817 17.1856 27.4621 17.159 27.4405 17.134C27.0555 16.685 26.5352 16.4375 25.9766 16.4375H22.0234C21.4648 16.4375 20.9445 16.685 20.5595 17.134C20.5379 17.159 20.5183 17.1856 20.5006 17.2135L19.386 18.9752C19.2906 19.0792 19.1566 19.1901 19.0156 19.1901V18.8463C19.0156 18.664 18.9432 18.4891 18.8143 18.3602C18.6853 18.2313 18.5105 18.1588 18.3281 18.1588H17.2969C17.1145 18.1588 16.9397 18.2313 16.8107 18.3602C16.6818 18.4891 16.6094 18.664 16.6094 18.8463V19.1901H16.4375C15.8907 19.1906 15.3664 19.4081 14.9797 19.7948C14.593 20.1815 14.3756 20.7057 14.375 21.2526V29.5C14.3756 30.0468 14.593 30.5711 14.9797 30.9578C15.3664 31.3445 15.8907 31.5619 16.4375 31.5625H31.5625C32.1093 31.5619 32.6336 31.3445 33.0203 30.9578C33.407 30.5711 33.6244 30.0468 33.625 29.5V21.25C33.6244 20.7032 33.407 20.1789 33.0203 19.7922C32.6336 19.4055 32.1093 19.1881 31.5625 19.1875ZM24 28.8125C23.1842 28.8125 22.3866 28.5706 21.7083 28.1173C21.0299 27.6641 20.5012 27.0198 20.189 26.2661C19.8768 25.5123 19.7951 24.6829 19.9543 23.8828C20.1134 23.0826 20.5063 22.3476 21.0832 21.7707C21.6601 21.1938 22.3951 20.8009 23.1953 20.6418C23.9954 20.4826 24.8248 20.5643 25.5786 20.8765C26.3323 21.1887 26.9766 21.7174 27.4298 22.3958C27.8831 23.0741 28.125 23.8717 28.125 24.6875C28.1237 25.7811 27.6888 26.8296 26.9154 27.6029C26.1421 28.3763 25.0936 28.8112 24 28.8125Z" fill="#F1F1F2"/>
</svg>
