<svg width="22" height="23" viewBox="0 0 22 23" fill="none" xmlns="http://www.w3.org/2000/svg">
<path d="M3.66683 5.9987C4.15306 5.9987 4.61938 5.80554 4.96319 5.46173C5.30701 5.11791 5.50016 4.65159 5.50016 4.16536C5.50016 3.67913 5.30701 3.21282 4.96319 2.869C4.61938 2.52519 4.15306 2.33203 3.66683 2.33203C3.1806 2.33203 2.71428 2.52519 2.37047 2.869C2.02665 3.21282 1.8335 3.67913 1.8335 4.16536C1.8335 4.65159 2.02665 5.11791 2.37047 5.46173C2.71428 5.80554 3.1806 5.9987 3.66683 5.9987ZM4.5835 19.7487C5.31284 19.7487 6.01231 19.459 6.52804 18.9432C7.04376 18.4275 7.3335 17.728 7.3335 16.9987C7.3335 16.2694 7.04376 15.5699 6.52804 15.0542C6.01231 14.5384 5.31284 14.2487 4.5835 14.2487C3.85415 14.2487 3.15468 14.5384 2.63895 15.0542C2.12323 15.5699 1.8335 16.2694 1.8335 16.9987C1.8335 17.728 2.12323 18.4275 2.63895 18.9432C3.15468 19.459 3.85415 19.7487 4.5835 19.7487ZM17.4168 20.6654C18.1462 20.6654 18.8456 20.3756 19.3614 19.8599C19.8771 19.3442 20.1668 18.6447 20.1668 17.9154C20.1668 17.186 19.8771 16.4865 19.3614 15.9708C18.8456 15.4551 18.1462 15.1654 17.4168 15.1654C16.6875 15.1654 15.988 15.4551 15.4723 15.9708C14.9566 16.4865 14.6668 17.186 14.6668 17.9154C14.6668 18.6447 14.9566 19.3442 15.4723 19.8599C15.988 20.3756 16.6875 20.6654 17.4168 20.6654ZM10.0835 13.332C11.056 13.332 11.9886 12.9457 12.6762 12.2581C13.3639 11.5705 13.7502 10.6378 13.7502 9.66536C13.7502 8.6929 13.3639 7.76027 12.6762 7.07264C11.9886 6.38501 11.056 5.9987 10.0835 5.9987C9.11104 5.9987 8.1784 6.38501 7.49077 7.07264C6.80314 7.76027 6.41683 8.6929 6.41683 9.66536C6.41683 10.6378 6.80314 11.5705 7.49077 12.2581C8.1784 12.9457 9.11104 13.332 10.0835 13.332ZM15.5835 5.9987C16.0697 5.9987 16.536 5.80554 16.8799 5.46173C17.2237 5.11791 17.4168 4.65159 17.4168 4.16536C17.4168 3.67913 17.2237 3.21282 16.8799 2.869C16.536 2.52519 16.0697 2.33203 15.5835 2.33203C15.0973 2.33203 14.631 2.52519 14.2871 2.869C13.9433 3.21282 13.7502 3.67913 13.7502 4.16536C13.7502 4.65159 13.9433 5.11791 14.2871 5.46173C14.631 5.80554 15.0973 5.9987 15.5835 5.9987Z" stroke="#8DC73F" stroke-width="1.83333" stroke-linecap="round" stroke-linejoin="round"/>
<path d="M5.04199 5.53906L6.87533 7.3724M13.7503 5.9974L12.8337 6.91406M15.5837 15.8516L12.8337 12.4141M6.41699 14.7057L8.25033 12.8724" stroke="#8DC73F" stroke-width="1.83333" stroke-linecap="round" stroke-linejoin="round"/>
</svg>
