<svg width="22" height="23" viewBox="0 0 22 23" fill="none" xmlns="http://www.w3.org/2000/svg">
<path fill-rule="evenodd" clip-rule="evenodd" d="M2.979 20.668C2.979 20.4856 3.05144 20.3108 3.18037 20.1818C3.3093 20.0529 3.48417 19.9805 3.6665 19.9805H18.3332C18.5155 19.9805 18.6904 20.0529 18.8193 20.1818C18.9482 20.3108 19.0207 20.4856 19.0207 20.668C19.0207 20.8503 18.9482 21.0252 18.8193 21.1541C18.6904 21.283 18.5155 21.3555 18.3332 21.3555H3.6665C3.48417 21.3555 3.3093 21.283 3.18037 21.1541C3.05144 21.0252 2.979 20.8503 2.979 20.668Z" fill="white"/>
<path d="M10.56 14.1843L15.9839 8.76041C15.0713 8.37948 14.2425 7.8229 13.5447 7.12232C12.8436 6.42424 12.2867 5.59512 11.9057 4.68216L6.48082 10.1061C6.05732 10.5296 5.84557 10.7404 5.66407 10.9742C5.4493 11.2494 5.26519 11.5472 5.11499 11.8624C4.98757 12.1292 4.89315 12.4133 4.7034 12.9807L3.70607 15.9755C3.6603 16.1125 3.65361 16.2595 3.68675 16.4001C3.71989 16.5407 3.79155 16.6693 3.89369 16.7715C3.99583 16.8736 4.12441 16.9452 4.26501 16.9784C4.4056 17.0115 4.55265 17.0048 4.68965 16.9591L7.68349 15.9617C8.25182 15.772 8.53598 15.6776 8.80274 15.5492C9.11803 15.3996 9.4159 15.2158 9.69099 15.0011C9.92474 14.8187 10.1356 14.6069 10.5591 14.1843M17.4891 7.25524C17.7569 6.9874 17.9693 6.66943 18.1142 6.3195C18.2591 5.96958 18.3336 5.59453 18.3336 5.21579C18.3335 4.83705 18.2589 4.46202 18.1139 4.11212C17.9689 3.76223 17.7565 3.44431 17.4886 3.17653C17.2208 2.90875 16.9028 2.69634 16.5529 2.55145C16.2029 2.40655 15.8279 2.33199 15.4492 2.33203C15.0704 2.33207 14.6954 2.40672 14.3455 2.55169C13.9956 2.69667 13.6777 2.90915 13.4099 3.17699L12.7591 3.82782L12.7875 3.91032C13.0258 4.59691 13.4759 5.49799 14.322 6.34407C15.0278 7.05387 15.8898 7.58878 16.8392 7.90607L17.4891 7.25524Z" fill="white"/>
</svg>
