<svg width="25" height="25" viewBox="0 0 25 25" fill="none" xmlns="http://www.w3.org/2000/svg">
<path fill-rule="evenodd" clip-rule="evenodd" d="M10.9651 1.35974C11.404 1.01836 11.9441 0.833008 12.5001 0.833008C13.0561 0.833008 13.5963 1.01836 14.0351 1.35974L24.5151 9.50974C25.4564 10.2435 24.9364 11.7497 23.7464 11.7497H22.5001V21.7497C22.5001 22.4128 22.2367 23.0487 21.7679 23.5175C21.2991 23.9864 20.6632 24.2497 20.0001 24.2497H5.00013C4.33709 24.2497 3.7012 23.9864 3.23236 23.5175C2.76352 23.0487 2.50013 22.4128 2.50013 21.7497V11.7497H1.25388C0.0626297 11.7497 -0.45487 10.2422 0.48513 9.51099L10.9651 1.35974ZM4.53138 9.53099C4.81763 9.76224 5.00013 10.116 5.00013 10.5122V21.7497H20.0001V10.5122C20.0001 10.116 20.1826 9.76224 20.4689 9.53099L12.5001 3.33349L4.53138 9.53099Z" fill="#696D61"/>
</svg>
