<svg width="30" height="30" viewBox="0 0 30 30" fill="none" xmlns="http://www.w3.org/2000/svg">
<path d="M15 0C23.2845 0 30 6.7155 30 15C30 23.2845 23.2845 30 15 30C6.7155 30 0 23.2845 0 15C0 6.7155 6.7155 0 15 0ZM15 3C11.8174 3 8.76516 4.26428 6.51472 6.51472C4.26428 8.76516 3 11.8174 3 15C3 18.1826 4.26428 21.2348 6.51472 23.4853C8.76516 25.7357 11.8174 27 15 27C18.1826 27 21.2348 25.7357 23.4853 23.4853C25.7357 21.2348 27 18.1826 27 15C27 11.8174 25.7357 8.76516 23.4853 6.51472C21.2348 4.26428 18.1826 3 15 3ZM8.25 12.75C8.84674 12.75 9.41903 12.9871 9.84099 13.409C10.2629 13.831 10.5 14.4033 10.5 15C10.5 15.5967 10.2629 16.169 9.84099 16.591C9.41903 17.0129 8.84674 17.25 8.25 17.25C7.65326 17.25 7.08097 17.0129 6.65901 16.591C6.23705 16.169 6 15.5967 6 15C6 14.4033 6.23705 13.831 6.65901 13.409C7.08097 12.9871 7.65326 12.75 8.25 12.75ZM15 12.75C15.5967 12.75 16.169 12.9871 16.591 13.409C17.0129 13.831 17.25 14.4033 17.25 15C17.25 15.5967 17.0129 16.169 16.591 16.591C16.169 17.0129 15.5967 17.25 15 17.25C14.4033 17.25 13.831 17.0129 13.409 16.591C12.9871 16.169 12.75 15.5967 12.75 15C12.75 14.4033 12.9871 13.831 13.409 13.409C13.831 12.9871 14.4033 12.75 15 12.75ZM21.75 12.75C22.3467 12.75 22.919 12.9871 23.341 13.409C23.7629 13.831 24 14.4033 24 15C24 15.5967 23.7629 16.169 23.341 16.591C22.919 17.0129 22.3467 17.25 21.75 17.25C21.1533 17.25 20.581 17.0129 20.159 16.591C19.7371 16.169 19.5 15.5967 19.5 15C19.5 14.4033 19.7371 13.831 20.159 13.409C20.581 12.9871 21.1533 12.75 21.75 12.75Z" fill="#696D61"/>
</svg>
