<svg width="31" height="30" viewBox="0 0 31 30" fill="none" xmlns="http://www.w3.org/2000/svg">
<path d="M21.8437 25.3125L26.1875 21L24.875 19.6875L21.8437 22.6562L20.625 21.4375L19.3125 22.7813L21.8437 25.3125ZM7.75 11.25H22.75V8.75H7.75V11.25ZM22.75 28.75C21.0208 28.75 19.5467 28.1404 18.3275 26.9213C17.1083 25.7021 16.4992 24.2283 16.5 22.5C16.5 20.7708 17.1096 19.2967 18.3288 18.0775C19.5479 16.8583 21.0217 16.2492 22.75 16.25C24.4792 16.25 25.9533 16.8596 27.1725 18.0788C28.3917 19.2979 29.0008 20.7717 29 22.5C29 24.2292 28.3904 25.7033 27.1713 26.9225C25.9521 28.1417 24.4783 28.7508 22.75 28.75ZM4 27.5V3.75H26.5V14.5938C26.1042 14.4063 25.6979 14.25 25.2812 14.125C24.8646 14 24.4375 13.9062 24 13.8437V6.25H6.5V23.8125H14.0937C14.1979 24.4583 14.3596 25.0729 14.5788 25.6562C14.7979 26.2396 15.0842 26.7917 15.4375 27.3125L15.25 27.5L13.375 25.625L11.5 27.5L9.625 25.625L7.75 27.5L5.875 25.625L4 27.5ZM7.75 21.25H14.0937C14.1562 20.8125 14.25 20.3854 14.375 19.9688C14.5 19.5521 14.6563 19.1458 14.8438 18.75H7.75V21.25ZM7.75 16.25H16.625C17.4167 15.4792 18.3387 14.8696 19.3912 14.4212C20.4437 13.9729 21.5633 13.7492 22.75 13.75H7.75V16.25Z" fill="#545454"/>
</svg>
