<svg width="26" height="24" viewBox="0 0 26 24" fill="none" xmlns="http://www.w3.org/2000/svg">
<path d="M2 2V8.25H4.5V3.25H9.5V0.75H3.25C2.91848 0.75 2.60054 0.881696 2.36612 1.11612C2.1317 1.35054 2 1.66848 2 2ZM24.5 8.25V2C24.5 1.66848 24.3683 1.35054 24.1339 1.11612C23.8995 0.881696 23.5815 0.75 23.25 0.75H17V3.25H22V8.25H24.5ZM22 20.75H17V23.25H23.25C23.5815 23.25 23.8995 23.1183 24.1339 22.8839C24.3683 22.6495 24.5 22.3315 24.5 22V15.75H22V20.75ZM9.5 23.25V20.75H4.5V15.75H2V22C2 22.3315 2.1317 22.6495 2.36612 22.8839C2.60054 23.1183 2.91848 23.25 3.25 23.25H9.5ZM0.75 10.75H25.75V13.25H0.75V10.75Z" fill="#696D61"/>
</svg>
