<svg width="22" height="22" viewBox="0 0 22 22" fill="none" xmlns="http://www.w3.org/2000/svg">
<path d="M11 22C17.0751 22 22 17.0751 22 11C22 4.92487 17.0751 0 11 0C4.92487 0 0 4.92487 0 11C0 17.0751 4.92487 22 11 22Z" fill="#FFDD67"/>
<path d="M6.78328 10.0807C7.79581 10.0807 8.61662 9.25992 8.61662 8.2474C8.61662 7.23487 7.79581 6.41406 6.78328 6.41406C5.77076 6.41406 4.94995 7.23487 4.94995 8.2474C4.94995 9.25992 5.77076 10.0807 6.78328 10.0807Z" fill="#664E27"/>
<path d="M15.2166 10.0807C16.2292 10.0807 17.05 9.25992 17.05 8.2474C17.05 7.23487 16.2292 6.41406 15.2166 6.41406C14.2041 6.41406 13.3833 7.23487 13.3833 8.2474C13.3833 9.25992 14.2041 10.0807 15.2166 10.0807Z" fill="#664E27"/>
<path d="M17.2333 13.1998C17.2333 12.9065 17.0499 12.5398 16.5733 12.4298C15.2899 12.1731 13.4199 11.9531 10.9999 11.9531C8.57993 11.9531 6.70993 12.2098 5.4266 12.4298C4.94993 12.5398 4.7666 12.9065 4.7666 13.1998C4.7666 15.8765 6.81993 18.5531 10.9999 18.5531C15.1799 18.5531 17.2333 15.8765 17.2333 13.1998Z" fill="#664E27"/>
<path d="M15.6566 13.312C14.85 13.1653 13.1633 12.9453 11 12.9453C8.83663 12.9453 7.14996 13.1653 6.34329 13.312C5.86663 13.3853 5.82996 13.5686 5.86663 13.862C5.90329 14.0086 5.90329 14.2286 5.97663 14.4486C6.01329 14.6686 6.08663 14.7786 6.45329 14.742C7.14996 14.6686 14.8866 14.6686 15.5833 14.742C15.95 14.7786 15.9866 14.6686 16.06 14.4486C16.0966 14.2286 16.1333 14.0453 16.17 13.862C16.17 13.5686 16.1333 13.3853 15.6566 13.312Z" fill="white"/>
</svg>
