<svg width="22" height="22" viewBox="0 0 22 22" fill="none" xmlns="http://www.w3.org/2000/svg">
<path d="M11 22C17.0751 22 22 17.0751 22 11C22 4.92487 17.0751 0 11 0C4.92487 0 0 4.92487 0 11C0 17.0751 4.92487 22 11 22Z" fill="#FFDD67"/>
<path d="M8.61668 9.67758C9.13001 10.7409 8.47001 12.0976 7.18668 12.7209C5.90335 13.3076 4.43668 12.9409 3.92335 11.8776C3.63001 11.1809 8.32335 8.98091 8.61668 9.67758ZM13.3833 9.67758C12.87 10.7409 13.53 12.0976 14.8133 12.7209C16.0967 13.3076 17.5633 12.9409 18.0767 11.8776C18.37 11.1809 13.6767 8.98091 13.3833 9.67758Z" fill="#664E27"/>
<path d="M7.59007 6.52761C6.60007 7.73761 4.21674 8.83761 2.64007 8.83761C2.42007 8.83761 2.38341 9.64428 2.64007 9.64428C4.43674 9.64428 7.04007 8.43428 8.21341 7.04094C8.39674 6.85761 7.73674 6.38094 7.59007 6.52761ZM14.4101 6.52761C15.4001 7.73761 17.7834 8.83761 19.3601 8.83761C19.5801 8.83761 19.6167 9.64428 19.3601 9.64428C17.5634 9.64428 14.9601 8.43428 13.7867 7.04094C13.6034 6.85761 14.2634 6.38094 14.4101 6.52761Z" fill="#917524"/>
<path d="M14.1533 16.2773C12.1733 15.3607 9.82667 15.3607 7.84667 16.2773C7.37 16.4973 7.95667 17.8173 8.47 17.5607C9.79 16.9373 11.7333 16.7173 13.5667 17.5607C14.0433 17.7807 14.6667 16.534 14.1533 16.2773Z" fill="#664E27"/>
</svg>
