<svg width="22" height="22" viewBox="0 0 22 22" fill="none" xmlns="http://www.w3.org/2000/svg">
<path d="M11 22C17.0751 22 22 17.0751 22 11C22 4.92487 17.0751 0 11 0C4.92487 0 0 4.92487 0 11C0 17.0751 4.92487 22 11 22Z" fill="#FFDD67"/>
<path d="M6.78328 10.8542C7.79581 10.8542 8.61662 10.0334 8.61662 9.02083C8.61662 8.00831 7.79581 7.1875 6.78328 7.1875C5.77076 7.1875 4.94995 8.00831 4.94995 9.02083C4.94995 10.0334 5.77076 10.8542 6.78328 10.8542Z" fill="#664E27"/>
<path d="M15.2166 10.8542C16.2292 10.8542 17.05 10.0334 17.05 9.02083C17.05 8.00831 16.2292 7.1875 15.2166 7.1875C14.2041 7.1875 13.3833 8.00831 13.3833 9.02083C13.3833 10.0334 14.2041 10.8542 15.2166 10.8542Z" fill="#664E27"/>
<path d="M15.6199 14.0451C12.6499 16.1351 9.34992 16.0984 6.37992 14.0451C6.01325 13.7884 5.71992 14.2284 5.93992 14.6318C6.85658 16.0984 8.65325 17.4551 10.9999 17.4551C13.3466 17.4551 15.1432 16.1351 16.0599 14.6318C16.2799 14.2284 15.9866 13.7884 15.6199 14.0451Z" fill="#664E27"/>
</svg>
