<svg width="22" height="22" viewBox="0 0 22 22" fill="none" xmlns="http://www.w3.org/2000/svg">
<g clip-path="url(#clip0_439_1779)">
<path d="M11 22C17.0751 22 22 17.0751 22 11C22 4.92487 17.0751 0 11 0C4.92487 0 0 4.92487 0 11C0 17.0751 4.92487 22 11 22Z" fill="#F0F0F0"/>
<path d="M22.0001 11.0004C22.0001 6.27077 19.015 2.23879 14.8262 0.68457V21.3162C19.015 19.762 22.0001 15.73 22.0001 11.0004V11.0004Z" fill="#D80027"/>
<path d="M0 11.0004C0 15.73 2.98517 19.762 7.17393 21.3162V0.68457C2.98517 2.23879 0 6.27077 0 11.0004Z" fill="#0052B4"/>
</g>
<defs>
<clipPath id="clip0_439_1779">
<rect width="22" height="22" fill="white"/>
</clipPath>
</defs>
</svg>
