<svg width="22" height="22" viewBox="0 0 22 22" fill="none" xmlns="http://www.w3.org/2000/svg">
<g clip-path="url(#clip0_439_1787)">
<path d="M0.684082 14.8266C2.2383 19.0154 6.27028 22.0005 10.9999 22.0005C15.7295 22.0005 19.7615 19.0154 21.3157 14.8266L10.9999 13.8701L0.684082 14.8266Z" fill="#FFDA44"/>
<path d="M10.9999 0.000976562C6.27028 0.000976562 2.2383 2.9861 0.684082 7.17491L10.9999 8.13139L21.3157 7.17487C19.7615 2.9861 15.7295 0.000976562 10.9999 0.000976562Z" fill="black"/>
<path d="M0.684191 7.1748C0.242043 8.36646 0 9.65535 0 11.0009C0 12.3464 0.242043 13.6353 0.684191 14.8269H21.3159C21.758 13.6353 22 12.3464 22 11.0009C22 9.65535 21.758 8.36646 21.3158 7.1748H0.684191Z" fill="#D80027"/>
</g>
<defs>
<clipPath id="clip0_439_1787">
<rect width="22" height="22" fill="white" transform="translate(0 0.000976562)"/>
</clipPath>
</defs>
</svg>
