<svg width="23" height="22" viewBox="0 0 23 22" fill="none" xmlns="http://www.w3.org/2000/svg">
<g clip-path="url(#clip0_439_1803)">
<path d="M11.9883 22C18.0634 22 22.9883 17.0751 22.9883 11C22.9883 4.92487 18.0634 0 11.9883 0C5.91315 0 0.988281 4.92487 0.988281 11C0.988281 17.0751 5.91315 22 11.9883 22Z" fill="#F0F0F0"/>
<path d="M11.9885 0C8.65447 0 5.66716 1.48345 3.6499 3.82607H20.327C18.3098 1.48345 15.3224 0 11.9885 0V0Z" fill="#0052B4"/>
<path d="M20.327 18.1738H3.6499C5.66716 20.5164 8.65447 21.9999 11.9885 21.9999C15.3224 21.9999 18.3098 20.5164 20.327 18.1738Z" fill="#0052B4"/>
<path d="M21.3738 5.26074H2.60279C1.57889 6.93158 0.988281 8.89667 0.988281 10.9999C0.988281 13.1031 1.57889 15.0682 2.60279 16.739H21.3738C22.3977 15.0682 22.9883 13.1031 22.9883 10.9999C22.9883 8.89667 22.3977 6.93158 21.3738 5.26074Z" fill="#D80027"/>
<path d="M7.75554 15.2328C10.0931 15.2328 11.9881 13.3378 11.9881 11.0002C11.9881 8.66257 10.0931 6.76758 7.75554 6.76758C5.41795 6.76758 3.52295 8.66257 3.52295 11.0002C3.52295 13.3378 5.41795 15.2328 7.75554 15.2328Z" fill="#F0F0F0"/>
<path d="M7.75559 6.76758L8.70525 9.69036H11.7834L9.29224 11.4968L10.2493 14.4283L7.75559 12.6133L5.26564 14.425L6.21895 11.4968L3.72998 9.69036H6.8059L7.75559 6.76758Z" fill="#D80027"/>
</g>
<defs>
<clipPath id="clip0_439_1803">
<rect width="22" height="22" fill="white" transform="translate(0.988281)"/>
</clipPath>
</defs>
</svg>
