<svg width="22" height="22" viewBox="0 0 22 22" fill="none" xmlns="http://www.w3.org/2000/svg">
<g clip-path="url(#clip0_439_1815)">
<path d="M11 22C17.0751 22 22 17.0751 22 11C22 4.92487 17.0751 0 11 0C4.92487 0 0 4.92487 0 11C0 17.0751 4.92487 22 11 22Z" fill="#F0F0F0"/>
<path d="M0.378906 13.8691C1.01536 16.2307 2.41807 18.2774 4.30432 19.7267V13.8691H0.378906Z" fill="#D80027"/>
<path d="M10.0435 21.9577C10.3588 21.9849 10.6776 21.9996 11 21.9996C16.0823 21.9996 20.3588 18.5526 21.621 13.8691H10.0435V21.9577Z" fill="#D80027"/>
<path d="M21.621 8.13042C20.3588 3.447 16.0823 0 11 0C10.6776 0 10.3588 0.0146953 10.0435 0.0418516V8.13042H21.621Z" fill="#D80027"/>
<path d="M4.30432 2.27246C2.41807 3.7218 1.01536 5.76853 0.378906 8.13005H4.30432V2.27246Z" fill="#D80027"/>
<path d="M21.9069 9.56548H8.60875H8.6087V0.261719C7.59215 0.487133 6.6284 0.852496 5.73912 1.33774V9.5654V9.56544H0.0931133C0.0318828 10.0351 0 10.514 0 11.0003C0 11.4865 0.0318828 11.9654 0.0931133 12.435H5.73908H5.73912V20.6627C6.6284 21.1479 7.59215 21.5134 8.6087 21.7387V12.4352V12.4351H21.9069C21.968 11.9654 22 11.4865 22 11.0003C22 10.514 21.968 10.0351 21.9069 9.56548V9.56548Z" fill="#0052B4"/>
</g>
<defs>
<clipPath id="clip0_439_1815">
<rect width="22" height="22" fill="white"/>
</clipPath>
</defs>
</svg>
