<svg width="183" height="183" viewBox="0 0 183 183" fill="none" xmlns="http://www.w3.org/2000/svg">
<path d="M91.4998 0.388672C73.4797 0.388672 55.8643 5.73224 40.8812 15.7437C25.8981 25.7551 14.2201 39.9847 7.32413 56.6331C0.428149 73.2814 -1.37615 91.6008 2.13939 109.275C5.65493 126.948 14.3324 143.183 27.0745 155.925C39.8167 168.667 56.0511 177.345 73.7249 180.86C91.3988 184.376 109.718 182.571 126.367 175.675C143.015 168.779 157.245 157.102 167.256 142.118C177.267 127.135 182.611 109.52 182.611 91.4998C182.611 67.3356 173.012 44.1611 155.925 27.0745C138.838 9.98785 115.664 0.388672 91.4998 0.388672ZM91.4998 171.222C75.7323 171.222 60.3188 166.546 47.2085 157.786C34.0983 149.026 23.8801 136.575 17.8461 122.008C11.8121 107.441 10.2333 91.4113 13.3094 75.9467C16.3855 60.4822 23.9783 46.277 35.1277 35.1277C46.277 23.9783 60.4822 16.3855 75.9468 13.3094C91.4114 10.2333 107.441 11.8121 122.008 17.8461C136.576 23.88 149.026 34.0982 157.786 47.2085C166.546 60.3187 171.222 75.7322 171.222 91.4998C171.222 112.643 162.823 132.921 147.872 147.872C132.921 162.823 112.643 171.222 91.4998 171.222Z" fill="#201335"/>
<path d="M148.445 57.902C147.378 56.8414 145.934 56.2461 144.43 56.2461C142.926 56.2461 141.482 56.8414 140.415 57.902L77.207 120.826L43.0404 86.6589C41.9983 85.5338 40.5519 84.8687 39.0195 84.81C37.487 84.7512 35.994 85.3037 34.8688 86.3457C33.7437 87.3878 33.0786 88.8342 33.0199 90.3666C32.9611 91.8991 33.5136 93.3921 34.5557 94.5173L77.207 137.055L148.445 65.9881C148.978 65.4587 149.402 64.8289 149.691 64.135C149.98 63.4411 150.129 62.6968 150.129 61.9451C150.129 61.1933 149.98 60.449 149.691 59.7551C149.402 59.0612 148.978 58.4314 148.445 57.902Z" fill="#201335"/>
</svg>
