<svg width="22" height="22" viewBox="0 0 22 22" fill="none" xmlns="http://www.w3.org/2000/svg">
<path d="M2.0625 8.76539H4.29688V14.6091H2.75C2.61325 14.6091 2.4821 14.6635 2.3854 14.7602C2.2887 14.8569 2.23438 14.988 2.23438 15.1248C2.23438 15.2615 2.2887 15.3927 2.3854 15.4894C2.4821 15.5861 2.61325 15.6404 2.75 15.6404H19.25C19.3868 15.6404 19.5179 15.5861 19.6146 15.4894C19.7113 15.3927 19.7656 15.2615 19.7656 15.1248C19.7656 14.988 19.7113 14.8569 19.6146 14.7602C19.5179 14.6635 19.3868 14.6091 19.25 14.6091H17.7031V8.76539H19.9375C20.0497 8.7653 20.1589 8.7286 20.2484 8.66085C20.3378 8.5931 20.4028 8.49801 20.4333 8.39C20.4638 8.28199 20.4583 8.16698 20.4175 8.06241C20.3767 7.95785 20.3029 7.86944 20.2073 7.81062L11.2698 2.31062C11.1887 2.26077 11.0953 2.23438 11 2.23438C10.9047 2.23438 10.8113 2.26077 10.7302 2.31062L1.79266 7.81062C1.69707 7.86944 1.62328 7.95785 1.5825 8.06241C1.54172 8.16698 1.53617 8.28199 1.5667 8.39C1.59722 8.49801 1.66216 8.5931 1.75164 8.66085C1.84112 8.7286 1.95026 8.7653 2.0625 8.76539ZM5.32812 8.76539H8.42188V14.6091H5.32812V8.76539ZM12.5469 8.76539V14.6091H9.45312V8.76539H12.5469ZM16.6719 14.6091H13.5781V8.76539H16.6719V14.6091ZM11 3.35132L18.1156 7.73414H3.88438L11 3.35132ZM21.1406 17.8748C21.1406 18.0115 21.0863 18.1427 20.9896 18.2394C20.8929 18.3361 20.7618 18.3904 20.625 18.3904H1.375C1.23825 18.3904 1.1071 18.3361 1.0104 18.2394C0.9137 18.1427 0.859375 18.0115 0.859375 17.8748C0.859375 17.738 0.9137 17.6069 1.0104 17.5102C1.1071 17.4135 1.23825 17.3591 1.375 17.3591H20.625C20.7618 17.3591 20.8929 17.4135 20.9896 17.5102C21.0863 17.6069 21.1406 17.738 21.1406 17.8748Z" fill="#545454"/>
</svg>
