<svg width="22" height="22" viewBox="0 0 22 22" fill="none" xmlns="http://www.w3.org/2000/svg">
<path d="M1.83301 11.0003C1.83301 7.54358 1.83301 5.81474 2.90734 4.74133C3.98076 3.66699 5.70959 3.66699 9.16634 3.66699H12.833C16.2898 3.66699 18.0186 3.66699 19.092 4.74133C20.1663 5.81474 20.1663 7.54358 20.1663 11.0003V12.8337C20.1663 16.2904 20.1663 18.0192 19.092 19.0927C18.0186 20.167 16.2898 20.167 12.833 20.167H9.16634C5.70959 20.167 3.98076 20.167 2.90734 19.0927C1.83301 18.0192 1.83301 16.2904 1.83301 12.8337V11.0003Z" stroke="#545454" stroke-width="1.375"/>
<path d="M6.41602 3.66699V2.29199M15.5827 3.66699V2.29199M2.29102 8.25033H19.7077" stroke="#545454" stroke-width="1.375" stroke-linecap="round"/>
<path d="M16.5 15.5833C16.5 15.8264 16.4034 16.0596 16.2315 16.2315C16.0596 16.4034 15.8264 16.5 15.5833 16.5C15.3402 16.5 15.1071 16.4034 14.9352 16.2315C14.7632 16.0596 14.6667 15.8264 14.6667 15.5833C14.6667 15.3402 14.7632 15.1071 14.9352 14.9352C15.1071 14.7632 15.3402 14.6667 15.5833 14.6667C15.8264 14.6667 16.0596 14.7632 16.2315 14.9352C16.4034 15.1071 16.5 15.3402 16.5 15.5833ZM16.5 11.9167C16.5 12.1598 16.4034 12.3929 16.2315 12.5648C16.0596 12.7368 15.8264 12.8333 15.5833 12.8333C15.3402 12.8333 15.1071 12.7368 14.9352 12.5648C14.7632 12.3929 14.6667 12.1598 14.6667 11.9167C14.6667 11.6736 14.7632 11.4404 14.9352 11.2685C15.1071 11.0966 15.3402 11 15.5833 11C15.8264 11 16.0596 11.0966 16.2315 11.2685C16.4034 11.4404 16.5 11.6736 16.5 11.9167ZM11.9167 15.5833C11.9167 15.8264 11.8201 16.0596 11.6482 16.2315C11.4763 16.4034 11.2431 16.5 11 16.5C10.7569 16.5 10.5237 16.4034 10.3518 16.2315C10.1799 16.0596 10.0833 15.8264 10.0833 15.5833C10.0833 15.3402 10.1799 15.1071 10.3518 14.9352C10.5237 14.7632 10.7569 14.6667 11 14.6667C11.2431 14.6667 11.4763 14.7632 11.6482 14.9352C11.8201 15.1071 11.9167 15.3402 11.9167 15.5833ZM11.9167 11.9167C11.9167 12.1598 11.8201 12.3929 11.6482 12.5648C11.4763 12.7368 11.2431 12.8333 11 12.8333C10.7569 12.8333 10.5237 12.7368 10.3518 12.5648C10.1799 12.3929 10.0833 12.1598 10.0833 11.9167C10.0833 11.6736 10.1799 11.4404 10.3518 11.2685C10.5237 11.0966 10.7569 11 11 11C11.2431 11 11.4763 11.0966 11.6482 11.2685C11.8201 11.4404 11.9167 11.6736 11.9167 11.9167ZM7.33333 15.5833C7.33333 15.8264 7.23676 16.0596 7.06485 16.2315C6.89294 16.4034 6.65978 16.5 6.41667 16.5C6.17355 16.5 5.94039 16.4034 5.76849 16.2315C5.59658 16.0596 5.5 15.8264 5.5 15.5833C5.5 15.3402 5.59658 15.1071 5.76849 14.9352C5.94039 14.7632 6.17355 14.6667 6.41667 14.6667C6.65978 14.6667 6.89294 14.7632 7.06485 14.9352C7.23676 15.1071 7.33333 15.3402 7.33333 15.5833ZM7.33333 11.9167C7.33333 12.1598 7.23676 12.3929 7.06485 12.5648C6.89294 12.7368 6.65978 12.8333 6.41667 12.8333C6.17355 12.8333 5.94039 12.7368 5.76849 12.5648C5.59658 12.3929 5.5 12.1598 5.5 11.9167C5.5 11.6736 5.59658 11.4404 5.76849 11.2685C5.94039 11.0966 6.17355 11 6.41667 11C6.65978 11 6.89294 11.0966 7.06485 11.2685C7.23676 11.4404 7.33333 11.6736 7.33333 11.9167Z" fill="#545454"/>
</svg>
