<svg width="14" height="20" viewBox="0 0 14 20" fill="none" xmlns="http://www.w3.org/2000/svg">
<path d="M4.70833 0.833008C5.97639 0.833008 7.16806 1.07379 8.28333 1.55534C9.39861 2.0369 10.3688 2.68987 11.1938 3.51426C12.0188 4.33926 12.672 5.3094 13.1536 6.42467C13.6351 7.53995 13.8756 8.73162 13.875 9.99967C13.875 11.2677 13.6342 12.4594 13.1527 13.5747C12.6711 14.69 12.0181 15.6601 11.1938 16.4851C10.3688 17.3101 9.39861 17.9634 8.28333 18.4449C7.16806 18.9265 5.97639 19.167 4.70833 19.1663C3.89861 19.1663 3.10783 19.0631 2.336 18.8565C1.56417 18.65 0.827167 18.3407 0.125 17.9288C1.54583 17.1038 2.66508 15.9886 3.48275 14.583C4.30042 13.1775 4.70894 11.6497 4.70833 9.99967C4.70833 8.34967 4.2995 6.8219 3.48183 5.41634C2.66417 4.01079 1.54522 2.89551 0.125 2.07051C0.827778 1.65801 1.56508 1.34879 2.33692 1.14284C3.10875 0.936897 3.89922 0.833619 4.70833 0.833008Z" fill="#545454"/>
</svg>
