<svg width="20" height="20" viewBox="0 0 20 20" fill="none" xmlns="http://www.w3.org/2000/svg">
<path d="M9.95433 15.4987C10.2752 15.4987 10.5465 15.3878 10.7683 15.1659C10.9902 14.9441 11.1008 14.6731 11.1002 14.3529C11.1002 14.032 10.9896 13.7607 10.7683 13.5389C10.5471 13.317 10.2758 13.2064 9.95433 13.207C9.6335 13.207 9.36247 13.3179 9.14125 13.5398C8.92002 13.7616 8.80911 14.0326 8.8085 14.3529C8.8085 14.6737 8.91941 14.945 9.14125 15.1669C9.36308 15.3887 9.63411 15.4993 9.95433 15.4987ZM9.12933 11.9695H10.8252C10.8252 11.4654 10.8826 11.0681 10.9975 10.7779C11.1124 10.4876 11.4369 10.0904 11.971 9.5862C12.3682 9.18898 12.6814 8.8107 12.9106 8.45137C13.1397 8.09203 13.2543 7.66059 13.2543 7.15703C13.2543 6.30148 12.9411 5.64453 12.3147 5.1862C11.6884 4.72786 10.9474 4.4987 10.0918 4.4987C9.221 4.4987 8.51425 4.72786 7.97158 5.1862C7.42891 5.64453 7.05094 6.19453 6.83766 6.8362L8.35016 7.43203C8.42655 7.15703 8.59858 6.85912 8.86625 6.53828C9.13391 6.21745 9.54244 6.05703 10.0918 6.05703C10.5807 6.05703 10.9474 6.19086 11.1918 6.45853C11.4363 6.7262 11.5585 7.02014 11.5585 7.34037C11.5585 7.64592 11.4668 7.93253 11.2835 8.2002C11.1002 8.46786 10.871 8.71598 10.596 8.94453C9.92377 9.54037 9.51127 9.99106 9.3585 10.2966C9.20572 10.6022 9.12933 11.1598 9.12933 11.9695ZM10.0002 19.1654C8.73211 19.1654 7.54044 18.9246 6.42516 18.443C5.30989 17.9615 4.33975 17.3085 3.51475 16.4841C2.68975 15.6591 2.03677 14.689 1.55583 13.5737C1.07489 12.4584 0.834107 11.2668 0.833496 9.9987C0.833496 8.73064 1.07427 7.53898 1.55583 6.4237C2.03739 5.30842 2.69036 4.33828 3.51475 3.51328C4.33975 2.68828 5.30989 2.03531 6.42516 1.55436C7.54044 1.07342 8.73211 0.832642 10.0002 0.832031C11.2682 0.832031 12.4599 1.07281 13.5752 1.55436C14.6904 2.03592 15.6606 2.68889 16.4856 3.51328C17.3106 4.33828 17.9639 5.30842 18.4454 6.4237C18.927 7.53898 19.1674 8.73064 19.1668 9.9987C19.1668 11.2668 18.9261 12.4584 18.4445 13.5737C17.9629 14.689 17.31 15.6591 16.4856 16.4841C15.6606 17.3091 14.6904 17.9624 13.5752 18.4439C12.4599 18.9255 11.2682 19.166 10.0002 19.1654ZM10.0002 17.332C12.0474 17.332 13.7814 16.6216 15.2022 15.2008C16.6231 13.7799 17.3335 12.0459 17.3335 9.9987C17.3335 7.95148 16.6231 6.21745 15.2022 4.79661C13.7814 3.37578 12.0474 2.66536 10.0002 2.66536C7.95294 2.66536 6.21891 3.37578 4.79808 4.79661C3.37725 6.21745 2.66683 7.95148 2.66683 9.9987C2.66683 12.0459 3.37725 13.7799 4.79808 15.2008C6.21891 16.6216 7.95294 17.332 10.0002 17.332Z" fill="#545454"/>
</svg>
