<svg width="20" height="18" viewBox="0 0 20 18" fill="none" xmlns="http://www.w3.org/2000/svg">
<path d="M14.2969 0.75C12.5223 0.75 10.9685 1.51312 10 2.80305C9.03148 1.51312 7.47773 0.75 5.70312 0.75C4.29051 0.751592 2.9362 1.31346 1.93733 2.31233C0.938458 3.3112 0.376592 4.66551 0.375 6.07812C0.375 12.0938 9.29445 16.963 9.6743 17.1641C9.77441 17.2179 9.88632 17.2461 10 17.2461C10.1137 17.2461 10.2256 17.2179 10.3257 17.1641C10.7055 16.963 19.625 12.0938 19.625 6.07812C19.6234 4.66551 19.0615 3.3112 18.0627 2.31233C17.0638 1.31346 15.7095 0.751592 14.2969 0.75ZM10 15.7719C8.43078 14.8575 1.75 10.6921 1.75 6.07812C1.75136 5.03011 2.16829 4.02541 2.90935 3.28435C3.65041 2.54329 4.65511 2.12636 5.70312 2.125C7.37461 2.125 8.77797 3.01531 9.36406 4.44531C9.41586 4.57141 9.50397 4.67926 9.61721 4.75516C9.73044 4.83106 9.86368 4.87159 10 4.87159C10.1363 4.87159 10.2696 4.83106 10.3828 4.75516C10.496 4.67926 10.5841 4.57141 10.6359 4.44531C11.222 3.01273 12.6254 2.125 14.2969 2.125C15.3449 2.12636 16.3496 2.54329 17.0907 3.28435C17.8317 4.02541 18.2486 5.03011 18.25 6.07812C18.25 10.6852 11.5675 14.8566 10 15.7719Z" fill="#545454"/>
</svg>
