<svg width="20" height="20" viewBox="0 0 20 20" fill="none" xmlns="http://www.w3.org/2000/svg">
<path fill-rule="evenodd" clip-rule="evenodd" d="M9.94792 0.145508H10.0524C12.169 0.145508 13.8272 0.145508 15.1216 0.319675C16.4452 0.497508 17.4902 0.869675 18.3107 1.68917C19.1311 2.50959 19.5023 3.55459 19.6802 4.87917C19.8543 6.17259 19.8543 7.83084 19.8543 9.94742V10.8916C19.855 10.909 19.855 10.9264 19.8543 10.9438C19.8507 12.6415 19.8296 14.0147 19.6802 15.1202C19.5023 16.4448 19.1302 17.4898 18.3107 18.3102C17.4902 19.1306 16.4452 19.5018 15.1207 19.6797C13.8272 19.8538 12.169 19.8538 10.0524 19.8538H9.94792C7.83133 19.8538 6.17308 19.8538 4.87875 19.6797C3.55508 19.5018 2.51008 19.1297 1.68966 18.3102C0.869248 17.4898 0.497998 16.4448 0.320165 15.1202C0.170748 14.0138 0.149664 12.6415 0.145998 10.9438C0.145344 10.9264 0.145344 10.909 0.145998 10.8916V9.94742C0.145998 7.83084 0.145998 6.17259 0.320165 4.87826C0.497998 3.55459 0.870165 2.50959 1.68966 1.68917C2.51008 0.868758 3.55508 0.497508 4.87966 0.319675C6.17308 0.145508 7.83133 0.145508 9.94792 0.145508ZM1.52375 11.6038C1.53291 12.9816 1.565 14.0605 1.68233 14.9368C1.84 16.1093 2.14066 16.816 2.66225 17.3385C3.18475 17.8601 3.89058 18.1598 5.063 18.3175C6.25466 18.477 7.82033 18.4788 10.0002 18.4788C12.18 18.4788 13.7457 18.477 14.9373 18.3175C16.1097 18.1598 16.8165 17.8592 17.339 17.3376C17.8606 16.8151 18.1603 16.1093 18.318 14.9368C18.4353 14.0605 18.4674 12.9816 18.4757 11.6038H16.2702C15.3773 11.6038 15.1436 11.6185 14.9483 11.7083C14.7522 11.7991 14.589 11.9668 14.0078 12.6433L13.4532 13.2914L13.3726 13.3849C12.9124 13.923 12.5476 14.3493 12.0434 14.5812C11.5392 14.8131 10.9782 14.8131 10.2706 14.8122H9.73067C9.02208 14.8122 8.46108 14.814 7.95691 14.5812C7.45275 14.3493 7.08791 13.923 6.62775 13.3849C6.60025 13.3547 6.57458 13.3235 6.54708 13.2914L5.9925 12.6443C5.41133 11.9659 5.24816 11.7991 5.052 11.7093C4.85675 11.6185 4.623 11.6038 3.73016 11.6038H1.52375ZM18.4793 10.2288H16.1473C15.4387 10.2288 14.8777 10.227 14.3736 10.4598C13.8694 10.6918 13.5046 11.118 13.0444 11.6561C13.0169 11.6863 12.9912 11.7175 12.9637 11.7496L12.4092 12.3968C11.828 13.0751 11.6648 13.2419 11.4687 13.3318C11.2734 13.4225 11.0397 13.4372 10.1468 13.4372H9.8535C8.96067 13.4372 8.72691 13.4225 8.53166 13.3327C8.3355 13.2419 8.17233 13.0742 7.59117 12.3977L7.03658 11.7496L6.95591 11.6561C6.49575 11.118 6.13091 10.6918 5.62675 10.4598C5.12258 10.227 4.56158 10.2279 3.85391 10.2288H1.521V9.99967C1.521 7.81984 1.52283 6.25417 1.68233 5.06251C1.84 3.89009 2.14066 3.18334 2.66225 2.66084C3.18475 2.13926 3.89058 1.83951 5.063 1.68184C6.25466 1.52234 7.82033 1.52051 10.0002 1.52051C12.18 1.52051 13.7457 1.52234 14.9373 1.68184C16.1097 1.83951 16.8165 2.14017 17.339 2.66176C17.8606 3.18426 18.1603 3.89009 18.318 5.06251C18.4775 6.25417 18.4793 7.81984 18.4793 9.99967V10.2288Z" fill="#545454"/>
</svg>
