<svg width="20" height="20" viewBox="0 0 20 20" fill="none" xmlns="http://www.w3.org/2000/svg">
<path d="M0.833496 9.99967C0.833496 15.0624 4.93741 19.1663 10.0002 19.1663C15.0629 19.1663 19.1668 15.0624 19.1668 9.99967C19.1668 4.93692 15.0629 0.833008 10.0002 0.833008C4.93741 0.833008 0.833496 4.93692 0.833496 9.99967Z" stroke="#545454" stroke-width="1.375" stroke-linecap="round" stroke-linejoin="round"/>
<path d="M10.917 0.878906C10.917 0.878906 13.667 4.49974 13.667 9.99974C13.667 15.4997 10.917 19.1206 10.917 19.1206M9.08363 19.1206C9.08363 19.1206 6.33363 15.4997 6.33363 9.99974C6.33363 4.49974 9.08363 0.878906 9.08363 0.878906M1.41113 13.2081H18.5895M1.41113 6.79141H18.5895" stroke="#545454" stroke-width="1.375" stroke-linecap="round" stroke-linejoin="round"/>
</svg>
