<svg width="19" height="18" viewBox="0 0 19 18" fill="none" xmlns="http://www.w3.org/2000/svg">
<path d="M16.3332 9.00033H7.62484M14.4998 11.7503L17.2498 9.00033L14.4998 6.25033M9.9165 4.41699V3.50033C9.9165 3.0141 9.72335 2.54778 9.37953 2.20396C9.03572 1.86015 8.5694 1.66699 8.08317 1.66699H3.49984C3.01361 1.66699 2.54729 1.86015 2.20347 2.20396C1.85966 2.54778 1.6665 3.0141 1.6665 3.50033V14.5003C1.6665 14.9866 1.85966 15.4529 2.20347 15.7967C2.54729 16.1405 3.01361 16.3337 3.49984 16.3337H8.08317C8.5694 16.3337 9.03572 16.1405 9.37953 15.7967C9.72335 15.4529 9.9165 14.9866 9.9165 14.5003V13.5837" stroke="#FF0020" stroke-width="1.83333" stroke-linecap="round" stroke-linejoin="round"/>
</svg>
