<svg width="14" height="20" viewBox="0 0 14 20" fill="none" xmlns="http://www.w3.org/2000/svg">
<path d="M7 1.0625C3.58398 1.0625 0.8125 3.70035 0.8125 6.94922C0.8125 10.6875 4.9375 16.6116 6.45215 18.6578C6.51502 18.7441 6.59742 18.8144 6.69264 18.8629C6.78785 18.9114 6.89317 18.9366 7 18.9366C7.10683 18.9366 7.21215 18.9114 7.30737 18.8629C7.40258 18.8144 7.48498 18.7441 7.54785 18.6578C9.0625 16.6125 13.1875 10.6905 13.1875 6.94922C13.1875 3.70035 10.416 1.0625 7 1.0625Z" stroke="#545454" stroke-width="1.375" stroke-linecap="round" stroke-linejoin="round"/>
<path d="M7 9.3125C8.13909 9.3125 9.0625 8.38909 9.0625 7.25C9.0625 6.11091 8.13909 5.1875 7 5.1875C5.86091 5.1875 4.9375 6.11091 4.9375 7.25C4.9375 8.38909 5.86091 9.3125 7 9.3125Z" stroke="#545454" stroke-width="1.375" stroke-linecap="round" stroke-linejoin="round"/>
</svg>
