<svg width="18" height="18" viewBox="0 0 18 18" fill="none" xmlns="http://www.w3.org/2000/svg">
<path d="M17.0619 13.1198C16.5849 12.2983 15.876 9.97367 15.876 6.9375C15.876 5.11414 15.1516 3.36545 13.8623 2.07614C12.573 0.786828 10.8243 0.0625 9.00096 0.0625C7.17759 0.0625 5.42891 0.786828 4.1396 2.07614C2.85029 3.36545 2.12596 5.11414 2.12596 6.9375C2.12596 9.97453 1.41611 12.2983 0.93916 13.1198C0.817361 13.3287 0.752791 13.566 0.751961 13.8078C0.751131 14.0496 0.814071 14.2873 0.934433 14.497C1.05479 14.7067 1.22832 14.8809 1.43752 15.0022C1.64671 15.1234 1.88417 15.1873 2.12596 15.1875H5.63307C5.79168 15.9637 6.21351 16.6612 6.8272 17.1622C7.44088 17.6631 8.20876 17.9367 9.00096 17.9367C9.79315 17.9367 10.561 17.6631 11.1747 17.1622C11.7884 16.6612 12.2102 15.9637 12.3688 15.1875H15.876C16.1177 15.1872 16.355 15.1231 16.5641 15.0018C16.7732 14.8805 16.9466 14.7063 17.0668 14.4966C17.1871 14.2869 17.25 14.0493 17.2491 13.8076C17.2482 13.5659 17.1837 13.3286 17.0619 13.1198ZM9.00096 16.5625C8.57455 16.5624 8.15867 16.4301 7.81055 16.1838C7.46243 15.9376 7.19919 15.5895 7.05705 15.1875H10.9449C10.8027 15.5895 10.5395 15.9376 10.1914 16.1838C9.84324 16.4301 9.42736 16.5624 9.00096 16.5625ZM2.12596 13.8125C2.78768 12.6747 3.50096 10.0381 3.50096 6.9375C3.50096 5.47881 4.08042 4.07986 5.11187 3.04841C6.14332 2.01696 7.54227 1.4375 9.00096 1.4375C10.4596 1.4375 11.8586 2.01696 12.89 3.04841C13.9215 4.07986 14.501 5.47881 14.501 6.9375C14.501 10.0355 15.2125 12.6721 15.876 13.8125H2.12596Z" fill="#545454"/>
</svg>
