<svg width="19" height="20" viewBox="0 0 19 20" fill="none" xmlns="http://www.w3.org/2000/svg">
<path d="M15.4167 2.75033H14.5V0.916992H12.6667V2.75033H5.33333V0.916992H3.5V2.75033H2.58333C2.0971 2.75033 1.63079 2.94348 1.28697 3.2873C0.943154 3.63111 0.75 4.09743 0.75 4.58366V17.417C0.75 17.9032 0.943154 18.3695 1.28697 18.7134C1.63079 19.0572 2.0971 19.2503 2.58333 19.2503H7.16667V17.417H2.58333V7.33366H15.4167V8.25033H17.25V4.58366C17.25 4.09743 17.0568 3.63111 16.713 3.2873C16.3692 2.94348 15.9029 2.75033 15.4167 2.75033ZM17.8917 12.2378L16.975 13.1545L15.0958 11.3212L16.0125 10.4045C16.1958 10.212 16.5075 10.2028 16.7183 10.4045L17.8917 11.5778C18.0658 11.7612 18.0658 12.0545 17.8917 12.2378ZM9 17.362L14.5642 11.807L16.4433 13.6403L10.8883 19.2503H9V17.362Z" fill="#545454"/>
</svg>
