<svg width="19" height="19" viewBox="0 0 19 19" fill="none" xmlns="http://www.w3.org/2000/svg">
<path d="M11.75 0.375C10.6649 0.375973 9.59537 0.633566 8.62879 1.12675C7.66222 1.61993 6.82599 2.33471 6.18837 3.21274C5.55076 4.09078 5.12984 5.10716 4.95998 6.1789C4.79012 7.25065 4.87614 8.34737 5.21102 9.37953L0.263594 14.3261C0.19977 14.39 0.149161 14.4658 0.114656 14.5493C0.0801521 14.6327 0.0624292 14.7222 0.0625002 14.8125V18.25C0.0625002 18.4323 0.134933 18.6072 0.263864 18.7361C0.392795 18.8651 0.567664 18.9375 0.75 18.9375H4.1875C4.36984 18.9375 4.5447 18.8651 4.67364 18.7361C4.80257 18.6072 4.875 18.4323 4.875 18.25V16.875H6.25C6.43234 16.875 6.6072 16.8026 6.73614 16.6736C6.86507 16.5447 6.9375 16.3698 6.9375 16.1875V14.8125H8.3125C8.40281 14.8126 8.49225 14.7948 8.57571 14.7603C8.65917 14.7258 8.73501 14.6752 8.79891 14.6114L9.62047 13.789C10.5654 14.0958 11.5655 14.1941 12.5521 14.0773C13.5387 13.9604 14.4882 13.6312 15.3353 13.1121C16.1824 12.5931 16.9069 11.8967 17.459 11.0708C18.0111 10.2449 18.3777 9.30911 18.5335 8.32794C18.6892 7.34677 18.6305 6.34349 18.3613 5.3872C18.0921 4.43091 17.6189 3.54431 16.9742 2.78846C16.3295 2.03261 15.5286 1.42546 14.6268 1.00881C13.7249 0.592174 12.7435 0.375939 11.75 0.375ZM11.75 12.75C11.054 12.7512 10.3643 12.6196 9.71758 12.3624C9.59108 12.3075 9.45099 12.2919 9.31551 12.3177C9.18004 12.3434 9.05543 12.4093 8.95789 12.5068L8.02805 13.4375H6.25C6.06766 13.4375 5.89279 13.5099 5.76386 13.6389C5.63493 13.7678 5.5625 13.9427 5.5625 14.125V15.5H4.1875C4.00516 15.5 3.8303 15.5724 3.70136 15.7014C3.57243 15.8303 3.5 16.0052 3.5 16.1875V17.5625H1.4375V15.097L6.4932 10.0421C6.59068 9.94457 6.65658 9.81996 6.68232 9.68449C6.70807 9.54901 6.69248 9.40892 6.63758 9.28242C6.20281 8.18917 6.13008 6.9853 6.43006 5.84766C6.73004 4.71001 7.38693 3.69854 8.30424 2.96181C9.22155 2.22508 10.3509 1.80191 11.5265 1.75447C12.7021 1.70703 13.8619 2.03782 14.8356 2.69824C15.8093 3.35866 16.5455 4.31391 16.9362 5.42368C17.3269 6.53346 17.3514 7.73927 17.0061 8.864C16.6609 9.98873 15.964 10.9731 15.018 11.6726C14.0719 12.372 12.9265 12.7496 11.75 12.75ZM14.5 5.53125C14.5 5.73521 14.4395 5.93459 14.3262 6.10418C14.2129 6.27377 14.0518 6.40595 13.8634 6.484C13.675 6.56205 13.4676 6.58248 13.2676 6.54268C13.0675 6.50289 12.8838 6.40468 12.7395 6.26045C12.5953 6.11623 12.4971 5.93248 12.4573 5.73244C12.4175 5.53239 12.4379 5.32504 12.516 5.13661C12.5941 4.94817 12.7262 4.78711 12.8958 4.6738C13.0654 4.56048 13.2648 4.5 13.4687 4.5C13.7423 4.5 14.0046 4.60865 14.198 4.80205C14.3913 4.99544 14.5 5.25775 14.5 5.53125Z" fill="#545454"/>
</svg>
