<svg width="20" height="20" viewBox="0 0 20 20" fill="none" xmlns="http://www.w3.org/2000/svg">
<path d="M0.833008 13.6667C0.833008 11.0744 0.833008 9.77733 1.63876 8.9725C2.44359 8.16675 3.74067 8.16675 6.33301 8.16675H13.6663C16.2587 8.16675 17.5558 8.16675 18.3606 8.9725C19.1663 9.77733 19.1663 11.0744 19.1663 13.6667C19.1663 16.2591 19.1663 17.5562 18.3606 18.361C17.5558 19.1667 16.2587 19.1667 13.6663 19.1667H6.33301C3.74067 19.1667 2.44359 19.1667 1.63876 18.361C0.833008 17.5562 0.833008 16.2591 0.833008 13.6667Z" stroke="#545454" stroke-width="1.375"/>
<path d="M4.5 8.16671V6.33337C4.5 4.87468 5.07946 3.47574 6.11091 2.44429C7.14236 1.41284 8.54131 0.833374 10 0.833374C11.4587 0.833374 12.8576 1.41284 13.8891 2.44429C14.9205 3.47574 15.5 4.87468 15.5 6.33337V8.16671" stroke="#545454" stroke-width="1.375" stroke-linecap="round"/>
</svg>
