<svg width="41" height="41" viewBox="0 0 41 41" fill="none" xmlns="http://www.w3.org/2000/svg">
<circle cx="20.5" cy="20.5" r="20.5" fill="white" fill-opacity="0.5"/>
<path d="M17.3521 29.242C17.7872 29.7922 18.3417 30.2364 18.9737 30.541C19.6056 30.8455 20.2985 31.0025 21.0001 31C21.7016 31.0025 22.3945 30.8455 23.0264 30.541C23.6584 30.2364 24.2129 29.7922 24.6481 29.242C22.2271 29.5702 19.773 29.5702 17.3521 29.242ZM27.7501 18V18.704C27.7501 19.549 27.9901 20.375 28.4421 21.078L29.5501 22.801C30.5611 24.375 29.7891 26.514 28.0301 27.011C23.4338 28.313 18.5663 28.313 13.9701 27.011C12.2111 26.514 11.4391 24.375 12.4501 22.801L13.5581 21.078C14.0116 20.3694 14.2522 19.5454 14.2511 18.704V18C14.2511 14.134 17.2731 11 21.0001 11C24.7271 11 27.7501 14.134 27.7501 18Z" fill="white"/>
</svg>
