<svg width="22" height="22" viewBox="0 0 22 22" fill="none" xmlns="http://www.w3.org/2000/svg">
<path d="M6.41634 5.5C5.29742 5.50336 4.67818 5.53012 4.16934 5.7437C3.4566 6.04285 2.87618 6.59544 2.53711 7.29767C2.26034 7.87085 2.21504 8.60521 2.12447 10.0739L1.98253 12.3754C1.75728 16.0277 1.64465 17.8539 2.71639 19.0101C3.78812 20.1662 5.59365 20.1662 9.20475 20.1662H12.7946C16.4057 20.1662 18.2113 20.1662 19.2829 19.0101C20.3547 17.8539 20.2421 16.0277 20.0168 12.3754L19.8748 10.0739C19.7843 8.60521 19.739 7.87085 19.4622 7.29767C19.1232 6.59544 18.5427 6.04285 17.83 5.7437C17.3212 5.53012 16.7019 5.50336 15.583 5.5" stroke="#696D61" stroke-width="1.5" stroke-linecap="round"/>
<path d="M15.5837 6.41536L14.7717 4.38534C14.4213 3.50949 14.1164 2.51596 13.2155 2.06995C12.735 1.83203 12.1568 1.83203 11.0003 1.83203C9.84386 1.83203 9.26563 1.83203 8.78506 2.06995C7.88421 2.51596 7.57933 3.50949 7.229 4.38534L6.41699 6.41536" stroke="#696D61" stroke-width="1.5" stroke-linecap="round" stroke-linejoin="round"/>
<path d="M14.2087 12.8333C14.2087 14.6052 12.7722 16.0417 11.0003 16.0417C9.22841 16.0417 7.79199 14.6052 7.79199 12.8333C7.79199 11.0614 9.22841 9.625 11.0003 9.625C12.7722 9.625 14.2087 11.0614 14.2087 12.8333Z" stroke="#696D61" stroke-width="1.5"/>
<path d="M11 5.5H11.009" stroke="#696D61" stroke-width="2" stroke-linecap="round" stroke-linejoin="round"/>
</svg>
