<svg width="41" height="41" viewBox="0 0 41 41" fill="none" xmlns="http://www.w3.org/2000/svg">
<circle cx="20.5" cy="20.5" r="20.5" fill="white" fill-opacity="0.5"/>
<path d="M12.4006 18.2283C12.7943 17.0199 13.44 15.9089 14.2951 14.9688C14.3659 14.8911 14.458 14.8362 14.56 14.8108C14.662 14.7855 14.7692 14.7908 14.8681 14.8263L16.9081 15.5523C17.053 15.6036 17.2073 15.623 17.3604 15.6091C17.5135 15.5951 17.6618 15.5482 17.7951 15.4716C17.9283 15.3949 18.0434 15.2903 18.1324 15.1649C18.2214 15.0395 18.2822 14.8964 18.3106 14.7453L18.7006 12.6213C18.7196 12.518 18.7688 12.4227 18.8419 12.3474C18.9151 12.2722 19.0089 12.2202 19.1116 12.1983C20.3577 11.9339 21.6454 11.9339 22.8916 12.1983C23.1016 12.2433 23.2636 12.4098 23.3026 12.6213L23.6926 14.7453C23.7205 14.8966 23.781 15.0401 23.8699 15.1657C23.9587 15.2914 24.0739 15.3962 24.2073 15.473C24.3407 15.5497 24.4892 15.5966 24.6424 15.6103C24.7957 15.6239 24.9502 15.6042 25.0951 15.5523L27.1351 14.8263C27.234 14.7908 27.3412 14.7855 27.4431 14.8108C27.5451 14.8362 27.6373 14.8911 27.7081 14.9688C28.5624 15.9092 29.2076 17.0201 29.6011 18.2283C29.6335 18.3282 29.6355 18.4355 29.6066 18.5365C29.5777 18.6375 29.5194 18.7276 29.4391 18.7953L27.7861 20.1918C27.6684 20.2907 27.5738 20.4143 27.5089 20.5537C27.444 20.6931 27.4103 20.845 27.4103 20.9988C27.4103 21.1525 27.444 21.3044 27.5089 21.4438C27.5738 21.5833 27.6684 21.7068 27.7861 21.8058L29.4391 23.2023C29.6041 23.3418 29.6671 23.5653 29.6011 23.7693C29.2078 24.9775 28.5626 26.0885 27.7081 27.0288C27.6373 27.1064 27.5451 27.1613 27.4431 27.1867C27.3412 27.2121 27.234 27.2067 27.1351 27.1713L25.0951 26.4453C24.9502 26.3939 24.7958 26.3745 24.6427 26.3884C24.4896 26.4024 24.3413 26.4493 24.2081 26.526C24.0748 26.6026 23.9597 26.7073 23.8708 26.8326C23.7818 26.958 23.721 27.1012 23.6926 27.2523L23.3026 29.3763C23.2836 29.4798 23.2343 29.5753 23.1608 29.6506C23.0873 29.726 22.9931 29.7777 22.8901 29.7993C21.6444 30.0636 20.3572 30.0636 19.1116 29.7993C19.0086 29.7775 18.9145 29.7257 18.8411 29.6504C18.7676 29.5751 18.7182 29.4797 18.6991 29.3763L18.3106 27.2523C18.2826 27.1009 18.2221 26.9574 18.1333 26.8318C18.0444 26.7061 17.9293 26.6013 17.7959 26.5245C17.6625 26.4478 17.514 26.4009 17.3607 26.3873C17.2074 26.3736 17.053 26.3934 16.9081 26.4453L14.8681 27.1713C14.7692 27.2067 14.662 27.2121 14.56 27.1867C14.458 27.1613 14.3659 27.1064 14.2951 27.0288C13.4406 26.0884 12.7953 24.9775 12.4021 23.7693C12.3696 23.6694 12.3677 23.562 12.3965 23.461C12.4254 23.36 12.4837 23.2699 12.5641 23.2023L14.2171 21.8058C14.3345 21.7066 14.4289 21.5831 14.4937 21.4437C14.5584 21.3043 14.592 21.1524 14.592 20.9988C14.592 20.8451 14.5584 20.6932 14.4937 20.5538C14.4289 20.4145 14.3345 20.2909 14.2171 20.1918L12.5641 18.7953C12.4837 18.7276 12.4254 18.6375 12.3965 18.5365C12.3677 18.4355 12.3681 18.3282 12.4006 18.2283ZM18.3751 20.9988C18.3751 21.6949 18.6516 22.3626 19.1439 22.8549C19.6362 23.3472 20.3039 23.6238 21.0001 23.6238C21.6963 23.6238 22.3639 23.3472 22.8562 22.8549C23.3485 22.3626 23.6251 21.6949 23.6251 20.9988C23.6251 20.3026 23.3485 19.6349 22.8562 19.1426C22.3639 18.6503 21.6963 18.3738 21.0001 18.3738C20.3039 18.3738 19.6362 18.6503 19.1439 19.1426C18.6516 19.6349 18.3751 20.3026 18.3751 20.9988Z" fill="white"/>
</svg>
