<svg width="18" height="18" viewBox="0 0 18 18" fill="none" xmlns="http://www.w3.org/2000/svg">
<path d="M3 5.25V15.75" stroke="#FF3D00" stroke-width="1.125" stroke-linecap="round" stroke-linejoin="round"/>
<path d="M8.8182 2.93149C6.33927 1.66873 4.38844 2.40858 3.41569 3.1644C3.24036 3.30064 3.15268 3.36875 3.07634 3.52475C3 3.68075 3 3.82604 3 4.1166V11.0489C3.72727 10.2257 5.90909 8.9496 8.8182 10.4315C11.418 11.7558 13.6306 11.2068 14.6773 10.6346C14.8225 10.5553 14.8951 10.5155 14.9476 10.4271C15 10.3387 15 10.2427 15 10.0507V4.40542C15 3.78404 15 3.47335 14.852 3.3608C14.704 3.24824 14.3577 3.34425 13.6651 3.53628C12.48 3.86489 10.7567 3.91899 8.8182 2.93149Z" stroke="#FF3D00" stroke-width="1.125" stroke-linecap="round" stroke-linejoin="round"/>
</svg>
