<svg width="24" height="24" viewBox="0 0 24 24" fill="none" xmlns="http://www.w3.org/2000/svg">
<path d="M10.5 15.251C10.307 15.2362 10.1276 15.1465 9.99998 15.001L6.99998 12.001C6.93314 11.861 6.91133 11.7038 6.93756 11.5509C6.96379 11.398 7.03676 11.2571 7.14643 11.1474C7.2561 11.0377 7.39707 10.9648 7.54993 10.9385C7.70279 10.9123 7.86003 10.9341 7.99998 11.001L10.47 13.471L19 5.00096C19.1399 4.93412 19.2972 4.91231 19.45 4.93854C19.6029 4.96476 19.7439 5.03774 19.8535 5.14741C19.9632 5.25707 20.0362 5.39805 20.0624 5.55091C20.0886 5.70377 20.0668 5.861 20 6.00096L11 15.001C10.8724 15.1465 10.6929 15.2362 10.5 15.251Z" fill="#8DC73F"/>
<path d="M12.0001 21.0008C10.3916 20.9982 8.81313 20.5646 7.42903 19.7451C6.04494 18.9255 4.90578 17.75 4.13011 16.3408C3.54049 15.2908 3.17608 14.1295 3.06011 12.9308C2.87709 11.1729 3.21572 9.4 4.03375 7.83328C4.85179 6.26657 6.11302 4.97539 7.66011 4.12082C8.71013 3.5312 9.87147 3.1668 11.0701 3.05082C12.2643 2.92237 13.4721 3.03804 14.6201 3.39082C14.7226 3.41129 14.8196 3.45294 14.905 3.51311C14.9905 3.57327 15.0624 3.65062 15.1162 3.7402C15.1699 3.82978 15.2044 3.9296 15.2174 4.03328C15.2303 4.13696 15.2215 4.2422 15.1914 4.34225C15.1613 4.44231 15.1106 4.53498 15.0427 4.61432C14.9747 4.69365 14.8909 4.75791 14.7966 4.80296C14.7023 4.84802 14.5997 4.87288 14.4952 4.87596C14.3908 4.87903 14.2869 4.86025 14.1901 4.82082C13.2187 4.52874 12.1988 4.43355 11.1901 4.54082C10.1931 4.64291 9.22706 4.94565 8.35011 5.43082C7.50524 5.89692 6.75825 6.52168 6.15011 7.27082C5.52397 8.03398 5.0564 8.91441 4.7748 9.86054C4.49319 10.8067 4.4032 11.7995 4.51011 12.7808C4.6122 13.7778 4.91494 14.7439 5.40011 15.6208C5.86621 16.4657 6.49096 17.2127 7.24011 17.8208C8.00327 18.447 8.8837 18.9145 9.82982 19.1961C10.776 19.4777 11.7688 19.5677 12.7501 19.4608C13.7471 19.3587 14.7132 19.056 15.5901 18.5708C16.435 18.1047 17.182 17.48 17.7901 16.7308C18.4162 15.9677 18.8838 15.0872 19.1654 14.1411C19.447 13.195 19.537 12.2022 19.4301 11.2208C19.4102 11.0126 19.4738 10.8051 19.607 10.6438C19.7401 10.4825 19.9319 10.3807 20.1401 10.3608C20.3483 10.3409 20.5559 10.4046 20.7172 10.5377C20.8784 10.6709 20.9802 10.8626 21.0001 11.0708C21.1822 12.8298 20.8421 14.6034 20.0222 16.1702C19.2023 17.7371 17.9391 19.0276 16.3901 19.8808C15.3289 20.4946 14.1497 20.8763 12.9301 21.0008H12.0001Z" fill="#8DC73F"/>
</svg>
