<svg width="40" height="40" viewBox="0 0 40 40" fill="none" xmlns="http://www.w3.org/2000/svg">
<g id="bi:apple" clip-path="url(#clip0_1328_21838)">
<g id="Group">
<path id="Vector" d="M27.955 0.0200175C27.87 -0.0749825 24.8075 0.0575176 22.1425 2.95002C19.4775 5.84002 19.8875 9.15502 19.9475 9.24002C20.0075 9.32502 23.7475 9.45752 26.135 6.09502C28.5225 2.73252 28.04 0.117518 27.955 0.0200175ZM36.24 29.3525C36.12 29.1125 30.4275 26.2675 30.9575 20.7975C31.4875 15.325 35.145 13.825 35.2025 13.6625C35.26 13.5 33.71 11.6875 32.0675 10.77C30.8615 10.1231 29.5268 9.75254 28.16 9.68502C27.89 9.67752 26.9525 9.44752 25.025 9.97502C23.755 10.3225 20.8925 11.4475 20.105 11.4925C19.315 11.5375 16.965 10.1875 14.4375 9.83002C12.82 9.51752 11.105 10.1575 9.8775 10.65C8.6525 11.14 6.3225 12.535 4.6925 16.2425C3.0625 19.9475 3.915 25.8175 4.525 27.6425C5.135 29.465 6.0875 32.4525 7.7075 34.6325C9.1475 37.0925 11.0575 38.8 11.855 39.38C12.6525 39.96 14.9025 40.345 16.4625 39.5475C17.7175 38.7775 19.9825 38.335 20.8775 38.3675C21.77 38.4 23.53 38.7525 25.3325 39.715C26.76 40.2075 28.11 40.0025 29.4625 39.4525C30.815 38.9 32.7725 36.805 35.0575 32.5575C35.925 30.5825 36.32 29.515 36.24 29.3525Z" fill="#201335"/>
<path id="Vector_2" d="M27.955 0.0200175C27.87 -0.0749825 24.8075 0.0575176 22.1425 2.95002C19.4775 5.84002 19.8875 9.15502 19.9475 9.24002C20.0075 9.32502 23.7475 9.45752 26.135 6.09502C28.5225 2.73252 28.04 0.117518 27.955 0.0200175ZM36.24 29.3525C36.12 29.1125 30.4275 26.2675 30.9575 20.7975C31.4875 15.325 35.145 13.825 35.2025 13.6625C35.26 13.5 33.71 11.6875 32.0675 10.77C30.8615 10.1231 29.5268 9.75254 28.16 9.68502C27.89 9.67752 26.9525 9.44752 25.025 9.97502C23.755 10.3225 20.8925 11.4475 20.105 11.4925C19.315 11.5375 16.965 10.1875 14.4375 9.83002C12.82 9.51752 11.105 10.1575 9.8775 10.65C8.6525 11.14 6.3225 12.535 4.6925 16.2425C3.0625 19.9475 3.915 25.8175 4.525 27.6425C5.135 29.465 6.0875 32.4525 7.7075 34.6325C9.1475 37.0925 11.0575 38.8 11.855 39.38C12.6525 39.96 14.9025 40.345 16.4625 39.5475C17.7175 38.7775 19.9825 38.335 20.8775 38.3675C21.77 38.4 23.53 38.7525 25.3325 39.715C26.76 40.2075 28.11 40.0025 29.4625 39.4525C30.815 38.9 32.7725 36.805 35.0575 32.5575C35.925 30.5825 36.32 29.515 36.24 29.3525Z" fill="#201335"/>
</g>
</g>
<defs>
<clipPath id="clip0_1328_21838">
<rect width="40" height="40" fill="white"/>
</clipPath>
</defs>
</svg>
