<svg width="14" height="15" viewBox="0 0 14 15" fill="none" xmlns="http://www.w3.org/2000/svg">
<path d="M9 2.66536V1.33203M9 2.66536V3.9987M9 2.66536H6M1 6.66536V12.6654C1 13.019 1.14048 13.3581 1.39052 13.6082C1.64057 13.8582 1.97971 13.9987 2.33333 13.9987H11.6667C12.0203 13.9987 12.3594 13.8582 12.6095 13.6082C12.8595 13.3581 13 13.019 13 12.6654V6.66536M1 6.66536H13M1 6.66536V3.9987C1 3.64508 1.14048 3.30594 1.39052 3.05589C1.64057 2.80584 1.97971 2.66536 2.33333 2.66536H3.66667M13 6.66536V3.9987C13 3.64508 12.8595 3.30594 12.6095 3.05589C12.3594 2.80584 12.0203 2.66536 11.6667 2.66536H11.3333M3.66667 1.33203V3.9987" stroke="#696D61" stroke-width="1.5" stroke-linecap="round" stroke-linejoin="round"/>
</svg>
