<svg width="11" height="12" viewBox="0 0 11 12" fill="none" xmlns="http://www.w3.org/2000/svg">
<path d="M7.125 1.66536V0.582031M7.125 1.66536V2.7487M7.125 1.66536H4.6875M0.625 4.91536V9.79036C0.625 10.0777 0.739137 10.3532 0.942301 10.5564C1.14547 10.7596 1.42102 10.8737 1.70833 10.8737H9.29167C9.57898 10.8737 9.85453 10.7596 10.0577 10.5564C10.2609 10.3532 10.375 10.0777 10.375 9.79036V4.91536M0.625 4.91536H10.375M0.625 4.91536V2.7487C0.625 2.46138 0.739137 2.18583 0.942301 1.98267C1.14547 1.7795 1.42102 1.66536 1.70833 1.66536H2.79167M10.375 4.91536V2.7487C10.375 2.46138 10.2609 2.18583 10.0577 1.98267C9.85453 1.7795 9.57898 1.66536 9.29167 1.66536H9.02083M2.79167 0.582031V2.7487" stroke="white" stroke-width="0.8125" stroke-linecap="round" stroke-linejoin="round"/>
</svg>