<svg width="37" height="37" viewBox="0 0 37 37" fill="none" xmlns="http://www.w3.org/2000/svg">
<circle cx="18.5" cy="18.5" r="18" stroke="#201335"/>
<path d="M19.917 26.5808L19.8638 24.5H18.542C16.631 24.5 15.0076 23.8317 13.6717 22.4952C12.3352 21.1594 11.667 19.5359 11.667 17.625C11.667 15.7141 12.3352 14.0906 13.6717 12.7547C15.0076 11.4182 16.631 10.75 18.542 10.75C19.4972 10.75 20.3918 10.9291 21.226 11.2872C22.0595 11.6447 22.7877 12.1345 23.4104 12.7566C24.0325 13.3793 24.5223 14.1074 24.8798 14.941C25.2379 15.7752 25.417 16.6698 25.417 17.625C25.417 18.5594 25.2798 19.4568 25.0054 20.3172C24.7304 21.1771 24.3509 21.9902 23.8669 22.7565C23.3817 23.5228 22.8011 24.2287 22.1252 24.874C21.4494 25.5193 20.7133 26.088 19.917 26.5799M20.8337 24.8208C21.9184 23.9042 22.8008 22.8311 23.481 21.6015C24.1612 20.3719 24.5009 19.0464 24.5003 17.625C24.5003 15.9597 23.9234 14.5505 22.7697 13.3973C21.6159 12.2442 20.2067 11.6673 18.542 11.6667C16.8767 11.6667 15.4675 12.2436 14.3143 13.3973C13.1612 14.5511 12.5843 15.9603 12.5837 17.625C12.5837 19.2903 13.1605 20.6998 14.3143 21.8536C15.4681 23.0074 16.8773 23.5839 18.542 23.5833H20.8337V24.8208ZM18.5722 22.2734C18.7617 22.2734 18.9215 22.2083 19.0517 22.0782C19.1818 21.9474 19.2469 21.7876 19.2469 21.5987C19.2469 21.4093 19.1818 21.2495 19.0517 21.1193C18.9209 20.9886 18.7611 20.9232 18.5722 20.9232C18.3828 20.9232 18.223 20.9886 18.0928 21.1193C17.962 21.2495 17.8967 21.4093 17.8967 21.5987C17.8967 21.7882 17.962 21.948 18.0928 22.0782C18.223 22.2083 18.3828 22.2734 18.5722 22.2734ZM18.1717 19.5922H18.9829C19.0061 19.2163 19.0782 18.919 19.1992 18.7002C19.3202 18.4815 19.6075 18.1454 20.0609 17.6919C20.3243 17.4291 20.533 17.1606 20.687 16.8862C20.841 16.6124 20.918 16.298 20.918 15.9429C20.918 15.2817 20.6897 14.7622 20.2332 14.3846C19.7767 14.0063 19.2246 13.8172 18.5768 13.8172C18.0109 13.8172 17.5312 13.9721 17.1377 14.2819C16.7435 14.5917 16.4547 14.9612 16.2714 15.3902L17.0258 15.6826C17.1493 15.4112 17.3295 15.1641 17.5667 14.941C17.8044 14.7186 18.1411 14.6073 18.5768 14.6073C19.0957 14.6073 19.4785 14.7482 19.7254 15.0299C19.9729 15.3122 20.0967 15.6202 20.0967 15.9539C20.0967 16.2607 20.0172 16.5201 19.8583 16.7322C19.6994 16.9442 19.4956 17.1749 19.2469 17.4242C18.8069 17.8117 18.5175 18.16 18.3788 18.4692C18.2407 18.7772 18.1717 19.1516 18.1717 19.5922Z" fill="black"/>
</svg>
