<svg width="269" height="342" viewBox="0 0 269 342" fill="none" xmlns="http://www.w3.org/2000/svg">
<path fill-rule="evenodd" clip-rule="evenodd" d="M164.441 84.2233C207.311 78.0682 243.277 100.461 254.129 126.512C248.022 138.219 203.878 181.007 192.113 189.402L189.068 192.62L186.406 195.556L183.768 198.079C173.509 214.417 134.732 250.547 105.197 255.872C62.8848 263.501 22.7825 240.707 12.088 215.033L49.2302 176.476L60.8859 194.713C87.0832 226.09 113.919 199.707 127.49 186.856C128.113 186.265 129.927 184.596 130.548 184.005L149.502 164.594C158.19 155.569 168.371 143.529 179.977 133.245C159.71 122.416 140.336 152.361 112.034 180.262C101.445 190.7 78.0177 200.673 68.9007 180.621C59.5784 160.117 78.9025 147.18 87.7466 138.27C104.657 121.23 129.308 89.2663 164.441 84.2229L164.441 84.2233ZM261.884 143.43C274.006 162.545 267.782 193.749 258.694 211.711C248.258 232.334 142.756 335.704 132.561 341.41C121.017 321.235 111.749 303.301 128.855 276.779C138.166 262.342 158.91 244.355 171.827 231.206L261.884 143.43ZM132.055 0C149.305 15.387 152.924 43.7862 138.114 64.6181C128.605 77.9938 9.6329 194.046 2.86719 197.428C-8.90469 131.501 17.4621 113.431 47.5222 83.2866C62.7851 67.9805 119.426 6.65177 132.055 0Z" fill="#8DC73F"/>
</svg>
